<svg width="731" height="685" viewBox="0 0 731 685" fill="none" xmlns="http://www.w3.org/2000/svg">
<path d="M314.403 536.697H53.1436L86.9889 458.607L104.898 449.428L133.042 388.395L155.849 375.859L177.487 339.143H198.905L246.42 414.356L270.616 426.001L314.403 536.697Z" fill="#EBEBEB"/>
<path d="M53.1436 536.697H165.864V475.801L194.738 433.125L180.995 388.395L198.905 339.143H177.487L155.849 375.859L133.042 388.395L104.898 449.428L86.9889 458.607L53.1436 536.697Z" fill="#DBDBDB"/>
<path d="M198.905 536.697L209.797 504.639L227.487 488.336L235.382 469.088L240.864 473.266V491.624L227.487 506.283V536.766L198.905 536.697Z" fill="#DBDBDB"/>
<path d="M219.885 437.92L222.809 425.042L230.704 417.644L234.359 422.028L229.461 427.782L231.654 440.044L219.885 437.92Z" fill="#DBDBDB"/>
<path d="M295.616 536.629H677.856L605.78 395.45L571.057 381.545L534.215 314.072L509.945 289.618L488.527 244.956L463.454 248.792L420.617 342.363L396.714 359.077L357.824 455.388L319.593 490.254L295.616 536.629Z" fill="#EBEBEB"/>
<path d="M488.527 244.956L491.451 315.305L463.235 352.295L476.466 380.517L450.296 442.852L473.103 494.433L459.58 536.629H295.616L319.593 490.254L357.824 455.388L396.714 359.077L420.617 342.363L463.454 248.792L488.527 244.956Z" fill="#DBDBDB"/>
<path d="M481.51 424.768L501.174 392.71L499.639 379.079L506.949 369.352L515.867 397.026L489.185 424.768H481.51Z" fill="#DBDBDB"/>
<path d="M466.085 189.06L467.474 191.731L470.545 192.142L468.278 194.197L468.863 197.143L466.085 195.773L463.235 197.143L463.819 194.197L461.553 192.142L464.623 191.731L466.085 189.06Z" fill="#DBDBDB"/>
<path d="M203.583 321.676L205.045 324.348L208.115 324.759L205.849 326.814L206.434 329.759L203.583 328.389L200.805 329.759L201.39 326.814L199.124 324.759L202.194 324.348L203.583 321.676Z" fill="#DBDBDB"/>
<path d="M568.206 91.927L569.668 94.53L572.738 94.941L570.472 97.0645L571.057 99.9415L568.206 98.5715L565.428 99.9415L566.013 97.0645L563.747 94.941L566.817 94.53L568.206 91.927Z" fill="#DBDBDB"/>
<path d="M254.68 95.9L256.069 98.5715L259.139 98.9825L256.946 101.038L257.458 103.983L254.68 102.613L251.829 103.983L252.414 101.038L250.148 98.9825L253.291 98.5715L254.68 95.9Z" fill="#DBDBDB"/>
<path d="M652.271 313.661L653.66 316.265L656.803 316.675L654.537 318.799L655.049 321.676L652.271 320.306L649.493 321.676L650.005 318.799L647.739 316.675L650.882 316.265L652.271 313.661Z" fill="#DBDBDB"/>
<path d="M344.593 184.539L345.982 187.21L349.125 187.621L346.859 189.676L347.371 192.553L344.593 191.183L341.815 192.553L342.327 189.676L340.061 187.621L343.204 187.21L344.593 184.539Z" fill="#DBDBDB"/>
<path d="M66.4477 129.944L67.8366 132.547L70.9799 133.027L68.7138 135.082L69.2255 137.959L66.4477 136.589L63.5968 137.959L64.1816 135.082L61.9155 133.027L65.0588 132.547L66.4477 129.944Z" fill="#DBDBDB"/>
<path d="M126.682 288.248L128.071 290.851L131.214 291.33L128.948 293.385L129.46 296.262L126.682 294.892L123.904 296.262L124.416 293.385L122.15 291.33L125.293 290.851L126.682 288.248Z" fill="#DBDBDB"/>
<path d="M66.4476 333.39L67.2517 335.034L69.2254 335.239L67.8365 336.541L68.1289 338.322L66.4476 337.5L64.6932 338.322L65.0587 336.541L63.5967 335.239L65.5704 335.034L66.4476 333.39Z" fill="#DBDBDB"/>
<path d="M262.794 167.003L263.598 168.647L265.572 168.921L264.183 170.222L264.476 172.003L262.794 171.181L261.04 172.003L261.332 170.222L259.943 168.921L261.917 168.647L262.794 167.003Z" fill="#DBDBDB"/>
<path d="M407.825 312.703L408.702 314.347L410.603 314.552L409.214 315.854L409.506 317.635L407.825 316.813L406.07 317.635L406.436 315.854L405.047 314.552L406.948 314.347L407.825 312.703Z" fill="#DBDBDB"/>
<path d="M81.5796 144.124L82.4568 145.768L84.3574 146.042L82.9685 147.275L83.334 149.125L81.5796 148.234L79.8252 149.125L80.1907 147.275L78.8018 146.042L80.7024 145.768L81.5796 144.124Z" fill="#DBDBDB"/>
<path d="M572.738 289.755L573.615 291.399L575.516 291.673L574.127 292.975L574.493 294.755L572.738 293.865L571.057 294.755L571.349 292.975L569.96 291.673L571.861 291.399L572.738 289.755Z" fill="#DBDBDB"/>
<path d="M138.305 366.818L139.182 368.462L141.156 368.735L139.767 370.037L140.06 371.818L138.305 370.996L136.624 371.818L136.916 370.037L135.527 368.735L137.501 368.462L138.305 366.818Z" fill="#DBDBDB"/>
<path d="M104.825 279.411L105.702 281.055L107.603 281.33L106.214 282.563L106.58 284.344L104.825 283.521L103.071 284.344L103.436 282.563L102.047 281.33L103.948 281.055L104.825 279.411Z" fill="#DBDBDB"/>
<path d="M388.161 154.33L388.965 155.974L390.939 156.248L389.55 157.55L389.842 159.331L388.161 158.44L386.407 159.331L386.699 157.55L385.31 156.248L387.284 155.974L388.161 154.33Z" fill="#DBDBDB"/>
<path d="M579.61 366.818L580.487 368.462L582.388 368.735L580.999 370.037L581.291 371.818L579.61 370.996L577.855 371.818L578.221 370.037L576.832 368.735L578.733 368.462L579.61 366.818Z" fill="#DBDBDB"/>
<path d="M666.306 210.432L667.183 212.076L669.084 212.35L667.695 213.651L668.061 215.432L666.306 214.61L664.552 215.432L664.917 213.651L663.528 212.35L665.429 212.076L666.306 210.432Z" fill="#DBDBDB"/>
<path d="M590.063 207.966L590.94 209.61L592.914 209.884L591.452 211.185L591.817 212.966L590.063 212.076L588.382 212.966L588.674 211.185L587.285 209.884L589.259 209.61L590.063 207.966Z" fill="#DBDBDB"/>
<path d="M534.141 136.178C527.489 147.001 515.062 154.33 500.735 154.33C479.463 154.33 462.211 138.164 462.211 118.231C462.211 101.037 475.003 86.6525 492.182 83.022C479.828 88.365 471.202 100.078 471.202 113.71C471.202 132.342 487.357 147.48 507.241 147.48C517.986 147.48 527.562 143.096 534.141 136.178Z" fill="#FF9F1C"/>
<path d="M52.8516 536.698C253.146 535.807 477.855 535.807 678.149 536.698C477.855 537.52 253.146 537.52 52.8516 536.698Z" fill="#263238"/>
<path d="M686.19 548.959H44.8104C41.1554 548.959 38.2314 546.219 38.2314 542.794C38.2314 539.438 41.1554 536.698 44.8104 536.698H686.19C689.845 536.698 692.769 539.438 692.769 542.794C692.769 546.219 689.845 548.959 686.19 548.959Z" fill="#455A64"/>
<path d="M555.779 573.345H151.463C147.808 573.345 144.884 570.605 144.884 567.248C144.884 563.823 147.808 561.083 151.463 561.083H555.779C559.434 561.083 562.358 563.823 562.358 567.248C562.358 570.605 559.434 573.345 555.779 573.345Z" fill="#455A64"/>
<path d="M519.448 597.663H224.856C221.274 597.663 218.35 594.923 218.35 591.498C218.35 588.141 221.274 585.333 224.856 585.333H519.448C523.103 585.333 526.027 588.141 526.027 591.498C526.027 594.923 523.103 597.663 519.448 597.663Z" fill="#455A64"/>
<path d="M124.124 573.345H93.3487C89.7668 573.345 86.8428 570.605 86.8428 567.248C86.8428 563.823 89.7668 561.083 93.3487 561.083H124.124C127.779 561.083 130.703 563.823 130.703 567.248C130.703 570.605 127.779 573.345 124.124 573.345Z" fill="#455A64"/>
<path d="M570.4 597.663H554.975C551.394 597.663 548.396 594.923 548.396 591.498C548.396 588.141 551.394 585.333 554.975 585.333H570.4C573.981 585.333 576.905 588.141 576.905 591.498C576.905 594.923 573.981 597.663 570.4 597.663Z" fill="#455A64"/>
<path d="M341.377 561.22H171.931C173.759 561.22 175.367 560.535 176.536 559.439C177.706 558.275 178.437 556.768 178.437 555.055C178.437 551.699 175.513 548.959 171.931 548.959H341.377C339.549 548.959 337.868 549.644 336.699 550.74C335.529 551.836 334.798 553.411 334.798 555.055C334.798 558.48 337.722 561.22 341.377 561.22Z" fill="#455A64"/>
<path d="M517.329 561.22H406.144C407.971 561.22 409.652 560.535 410.822 559.439C411.992 558.275 412.723 556.768 412.723 555.055C412.723 551.699 409.799 548.959 406.144 548.959H517.329C515.501 548.959 513.82 549.644 512.65 550.74C511.481 551.836 510.75 553.411 510.75 555.055C510.75 558.48 513.674 561.22 517.329 561.22Z" fill="#455A64"/>
<path d="M433.264 585.47H262.722C264.549 585.47 266.23 584.784 267.4 583.688C268.57 582.592 269.301 581.086 269.301 579.373C269.301 575.948 266.377 573.208 262.795 573.208H433.264C431.436 573.208 429.828 573.893 428.586 574.989C427.416 576.154 426.685 577.661 426.685 579.373C426.685 582.73 429.609 585.47 433.264 585.47Z" fill="#455A64"/>
<path d="M96.7114 536.561H504.609L430.121 364.557L394.302 347.569L356.29 265.369L331.216 235.572L309.14 181.114L283.263 185.772L239.037 299.756L214.329 320.169L160.893 437.578L121.419 480.048L96.7114 536.561Z" fill="#455A64"/>
<path d="M309.14 181.114L312.137 266.876L283.043 311.881L296.713 346.336L269.666 422.303L293.204 485.117L279.242 536.561H96.7114L121.419 480.048L160.893 437.578L214.329 320.169L239.037 299.756L283.263 185.772L309.14 181.114Z" fill="#37474F"/>
<path d="M301.83 400.246L322.152 361.132L320.544 344.555L328.146 332.705L337.284 366.475L309.798 400.246H301.83Z" fill="#37474F"/>
<path d="M634.289 536.561H332.312L372.152 444.771L400.369 423.536L429.462 344.487L453.001 328.252L475.296 280.645H497.372L546.422 378.052L571.423 393.259L634.289 536.561Z" fill="#37474F"/>
<path d="M332.312 536.561H463.308V457.649L493.132 402.438L478.878 344.487L497.372 280.645H475.296L453.001 328.252L429.462 344.487L400.369 423.536L372.152 444.771L332.312 536.561Z" fill="#263238"/>
<path d="M497.372 536.561L508.703 495.05L526.904 473.952L535.019 449.018L540.72 454.429V478.267L526.904 497.242V536.766L497.372 536.561Z" fill="#263238"/>
<path d="M519.083 408.603L522.08 391.957L530.194 382.367L534.069 388.053L528.952 395.519L531.218 411.343L519.083 408.603Z" fill="#263238"/>
<path d="M115.059 536.218C113.378 537.794 93.8605 538.547 86.6967 538.547C79.606 538.547 60.0883 537.794 58.407 536.218C56.7257 534.643 80.4101 412.987 86.6967 412.987C93.0564 412.987 116.741 534.643 115.059 536.218Z" fill="#263238"/>
<path d="M115.425 505.256C110.601 506.969 92.691 513.819 88.8898 515.805C88.8898 515.029 88.8654 514.252 88.8167 513.476C93.154 511.101 97.4912 508.75 101.829 506.421C106.434 503.886 111.478 501.626 115.791 498.612C116.01 498.475 115.864 498.064 115.571 498.201C110.82 500.05 106.361 502.79 101.902 505.256C97.5156 507.654 93.2027 510.188 88.8167 512.654C88.8167 506.854 88.7923 501.032 88.7436 495.187C95.7612 492.584 102.706 489.09 109.139 485.46C109.358 485.323 109.212 484.98 108.992 485.049C102.194 487.72 95.1033 490.803 88.7436 494.365C88.7436 491.351 88.7192 488.337 88.6705 485.323C88.5243 469.705 88.4512 454.087 88.0857 438.469C92.3255 436.414 96.6384 434.701 100.878 432.646C101.171 432.509 100.951 432.098 100.659 432.167C96.4191 433.742 92.2524 435.592 88.0126 437.373C87.7933 429.29 87.5009 421.275 86.9161 413.192C86.9161 412.918 86.4775 412.918 86.4775 413.192C85.8927 428.125 85.9658 443.127 86.1851 458.128C81.7991 454.84 77.0476 451.895 72.5885 448.744C72.4423 448.607 72.2961 448.881 72.4423 449.018C77.1207 452.306 81.5067 456.005 86.1851 459.361C86.1851 460.183 86.1851 461.028 86.1851 461.896C81.4336 459.841 76.609 457.923 71.7844 456.005C71.4189 455.868 71.0534 456.347 71.492 456.553C76.3897 458.745 81.2874 461.005 86.2582 463.06C86.3313 470.458 86.4775 477.856 86.5506 485.323C86.7699 498.269 87.0623 511.216 87.3547 524.162C78.339 519.869 69.2746 515.714 60.1615 511.695C59.8691 511.558 59.5036 511.969 59.8691 512.175C68.7873 516.97 77.9979 521.285 87.3547 525.121C87.6471 535.876 87.8664 526.08 88.0126 536.835C88.0126 537.52 89.1091 537.52 89.1091 536.835C88.9629 523.135 88.8898 529.985 88.8898 516.216C93.6413 515.12 111.478 507.928 115.791 506.01C116.229 505.804 115.864 505.051 115.425 505.256Z" fill="#37474F"/>
<path d="M261.186 536.15C259.797 537.52 242.984 538.068 236.917 538.068C230.85 538.068 214.037 537.52 212.648 536.15C211.186 534.78 231.508 430.385 236.917 430.385C242.326 430.385 262.648 534.78 261.186 536.15Z" fill="#263238"/>
<path d="M261.552 509.572C257.385 511.01 242.034 516.901 238.744 518.614C238.744 517.929 238.744 517.266 238.744 516.627C242.448 514.572 246.152 512.54 249.856 510.531C253.876 508.339 258.116 506.421 261.844 503.886C262.063 503.749 261.917 503.407 261.698 503.475C257.604 505.119 253.803 507.448 249.929 509.572C246.201 511.627 242.472 513.75 238.744 515.942C238.744 510.919 238.72 505.895 238.671 500.872C244.665 498.68 250.66 495.666 256.142 492.584C256.361 492.447 256.215 492.104 255.996 492.241C250.148 494.502 244.081 497.173 238.671 500.256C238.671 497.653 238.647 495.05 238.598 492.447C238.452 479.021 238.452 465.595 238.086 452.237C241.668 450.525 245.47 448.949 249.051 447.237C249.344 447.168 249.125 446.757 248.905 446.826C245.177 448.196 241.668 449.771 238.013 451.278C237.867 444.36 237.575 437.441 237.136 430.523C237.063 430.317 236.771 430.317 236.698 430.523C236.186 443.401 236.259 456.21 236.405 469.088C232.677 466.28 228.657 463.745 224.782 461.005C224.636 460.937 224.49 461.142 224.636 461.279C228.657 464.156 232.458 467.307 236.478 470.116C236.478 470.846 236.478 471.577 236.478 472.308C232.385 470.595 228.218 468.951 224.124 467.307C223.759 467.17 223.466 467.581 223.832 467.718C228.072 469.636 232.238 471.554 236.478 473.335C236.576 479.683 236.673 486.053 236.771 492.447C236.917 503.544 237.209 514.641 237.429 525.738C229.729 522.084 221.98 518.522 214.183 515.052C213.817 514.983 213.598 515.326 213.89 515.531C221.493 519.573 229.388 523.34 237.502 526.628C237.721 535.807 237.867 528.889 238.013 538.068C238.013 538.684 238.964 538.684 238.964 538.068C238.817 526.354 238.817 530.738 238.744 518.956C242.838 518.066 258.189 511.901 261.844 510.188C262.209 509.983 261.917 509.366 261.552 509.572Z" fill="#37474F"/>
<path d="M102.852 536.698C104.095 537.862 118.203 538.342 123.32 538.342C128.437 538.342 142.545 537.862 143.788 536.698C145.031 535.533 127.925 447.648 123.32 447.648C118.715 447.648 101.682 535.533 102.852 536.698Z" fill="#263238"/>
<path d="M102.56 514.298C106.068 515.531 119.007 520.463 121.785 521.902C121.785 521.354 121.785 520.806 121.785 520.258C118.666 518.522 115.547 516.81 112.428 515.12C109.065 513.271 105.484 511.695 102.34 509.503C102.194 509.435 102.267 509.092 102.486 509.161C105.922 510.531 109.139 512.517 112.355 514.298C115.498 516.079 118.642 517.86 121.785 519.641C121.785 515.44 121.809 511.238 121.858 507.037C116.814 505.119 111.77 502.585 107.092 499.982C106.946 499.913 107.092 499.639 107.238 499.708C112.136 501.626 117.253 503.818 121.858 506.421C121.858 504.229 121.882 502.037 121.931 499.845C122.004 488.611 122.077 477.308 122.37 466.006C119.299 464.567 116.156 463.266 113.086 461.827C112.867 461.759 113.013 461.416 113.232 461.485C116.375 462.649 119.299 463.951 122.37 465.252C122.516 459.43 122.808 453.607 123.174 447.785C123.174 447.579 123.466 447.579 123.466 447.785C123.905 458.608 123.905 469.431 123.759 480.254C126.902 477.856 130.264 475.733 133.554 473.472C133.627 473.335 133.773 473.541 133.627 473.609C130.264 476.075 127.121 478.747 123.759 481.144C123.71 481.738 123.685 482.331 123.685 482.925C127.121 481.487 130.63 480.117 134.139 478.678C134.358 478.61 134.65 478.952 134.358 479.089C130.776 480.665 127.267 482.309 123.685 483.816C123.588 489.159 123.515 494.502 123.466 499.845C123.32 509.229 123.101 518.614 122.881 527.93C129.363 524.87 135.893 521.879 142.472 518.956C142.765 518.819 142.984 519.162 142.691 519.299C136.332 522.792 129.607 525.875 122.881 528.683C122.662 536.424 122.516 530.396 122.37 538.136C122.37 538.616 121.639 538.616 121.639 538.136C121.712 528.272 121.785 532.177 121.785 522.244C118.349 521.422 105.41 516.285 102.34 514.846C102.048 514.709 102.267 514.161 102.56 514.298Z" fill="#455A64"/>
<path d="M620.985 535.944C619.45 537.451 601.467 538.068 594.888 538.068C588.309 538.068 570.326 537.451 568.718 535.944C567.183 534.506 589.04 422.234 594.888 422.234C600.736 422.234 622.593 534.506 620.985 535.944Z" fill="#263238"/>
<path d="M621.35 507.38C616.891 508.955 600.443 515.257 596.862 517.107C596.862 516.376 596.862 515.668 596.862 514.983C600.858 512.791 604.854 510.599 608.85 508.407C613.09 506.078 617.695 504.023 621.716 501.283C621.862 501.146 621.789 500.735 621.496 500.872C617.11 502.585 613.017 505.119 608.923 507.38C604.829 509.572 600.882 511.901 596.862 514.23C596.862 508.841 596.837 503.452 596.788 498.064C603.221 495.666 609.654 492.447 615.575 489.09C615.794 489.022 615.648 488.611 615.429 488.748C609.142 491.145 602.636 494.022 596.788 497.31C596.74 494.524 596.715 491.739 596.715 488.953C596.569 474.568 596.496 460.115 596.131 445.73C600.005 443.88 604.098 442.236 607.973 440.387C608.192 440.25 608.046 439.839 607.753 439.907C603.806 441.346 600.005 443.127 596.057 444.702C595.911 437.236 595.546 429.838 595.107 422.44C595.107 422.166 594.669 422.166 594.669 422.44C594.157 436.208 594.157 450.045 594.376 463.814C590.283 460.8 585.97 458.128 581.876 455.183C581.73 455.046 581.584 455.32 581.73 455.457C586.043 458.539 590.063 461.896 594.376 464.978C594.376 465.754 594.376 466.531 594.376 467.307C589.99 465.458 585.531 463.677 581.145 461.896C580.78 461.759 580.487 462.238 580.78 462.375C585.312 464.43 589.844 466.485 594.449 468.403C594.522 475.253 594.669 482.103 594.742 488.953C594.888 500.872 595.18 512.86 595.473 524.779C587.188 520.851 578.83 517.038 570.399 513.339C570.107 513.202 569.815 513.613 570.107 513.75C578.294 518.134 586.847 522.176 595.473 525.738C595.692 535.602 595.911 528.135 596.057 538.068C596.057 538.684 597.081 538.684 597.081 538.068C596.935 525.395 596.935 530.19 596.862 517.518C601.248 516.49 617.768 509.846 621.716 508.065C622.081 507.859 621.789 507.174 621.35 507.38Z" fill="#455A64"/>
<path d="M546.423 535.944C544.888 537.451 526.905 538.068 520.326 538.068C513.747 538.068 495.764 537.451 494.156 535.944C492.621 534.506 514.478 422.234 520.326 422.234C526.174 422.234 547.958 534.506 546.423 535.944Z" fill="#263238"/>
<path d="M546.788 507.38C542.329 508.955 525.882 515.257 522.3 517.107C522.3 516.376 522.3 515.668 522.3 514.983C526.247 512.791 530.219 510.599 534.215 508.407C538.528 506.078 543.133 504.023 547.154 501.283C547.3 501.146 547.227 500.735 546.934 500.872C542.548 502.585 538.455 505.119 534.361 507.38C530.268 509.572 526.247 511.901 522.3 514.23C522.251 508.841 522.227 503.452 522.227 498.064C528.659 495.666 535.092 492.447 541.013 489.09C541.233 489.022 541.086 488.611 540.867 488.748C534.581 491.145 528.075 494.022 522.227 497.31C522.178 494.524 522.154 491.739 522.154 488.953C521.934 474.568 521.934 460.115 521.569 445.73C525.443 443.88 529.464 442.236 533.411 440.387C533.63 440.25 533.484 439.839 533.192 439.907C529.244 441.346 525.443 443.127 521.496 444.702C521.276 437.236 520.984 429.838 520.545 422.44C520.472 422.166 520.107 422.166 520.107 422.44C519.595 436.208 519.595 450.045 519.814 463.814C515.721 460.8 511.408 458.128 507.314 455.183C507.168 455.046 506.949 455.32 507.168 455.457C511.481 458.539 515.501 461.896 519.814 464.978C519.814 465.754 519.814 466.531 519.814 467.307C515.428 465.458 510.969 463.677 506.51 461.896C506.218 461.759 505.852 462.238 506.218 462.375C510.75 464.43 515.282 466.485 519.887 468.403C519.961 475.253 520.107 482.103 520.18 488.953C520.326 500.872 520.618 512.86 520.911 524.779C512.626 520.851 504.268 517.038 495.838 513.339C495.472 513.202 495.253 513.613 495.545 513.75C503.732 518.134 512.285 522.176 520.911 525.738C521.13 535.602 521.349 528.135 521.496 538.068C521.496 538.684 522.519 538.684 522.519 538.068C522.373 525.395 522.3 530.19 522.3 517.518C526.686 516.49 543.206 509.846 547.154 508.065C547.519 507.859 547.227 507.174 546.788 507.38Z" fill="#455A64"/>
<path d="M536.846 537.04C537.943 538.068 550.516 538.547 555.121 538.547C559.653 538.547 572.3 538.068 573.396 537.04C574.42 536.013 559.215 457.58 555.121 457.58C551.028 457.58 535.75 536.013 536.846 537.04Z" fill="#263238"/>
<path d="M536.554 517.038C539.697 518.134 551.247 522.587 553.732 523.82C553.732 523.363 553.732 522.883 553.732 522.381C550.955 520.828 548.152 519.299 545.326 517.792C542.402 516.148 539.185 514.709 536.335 512.791C536.188 512.723 536.335 512.449 536.481 512.517C539.551 513.682 542.402 515.463 545.326 517.038C548.152 518.636 550.955 520.235 553.732 521.833C553.732 518.088 553.757 514.321 553.805 510.531C549.273 508.887 544.741 506.626 540.647 504.297C540.501 504.229 540.574 503.955 540.721 504.023C545.107 505.736 549.712 507.722 553.805 510.051C553.805 508.087 553.805 506.124 553.805 504.16C553.952 494.091 553.952 484.021 554.244 473.952C551.466 472.65 548.689 471.554 545.984 470.253C545.765 470.184 545.911 469.842 546.057 469.91C548.835 470.938 551.539 472.171 554.244 473.267C554.39 468.061 554.61 462.855 554.975 457.717C554.975 457.512 555.267 457.512 555.267 457.717C555.633 467.307 555.56 476.966 555.487 486.624C558.265 484.501 561.335 482.651 564.186 480.596C564.332 480.528 564.405 480.665 564.332 480.802C561.262 482.925 558.484 485.323 555.487 487.446C555.438 487.994 555.414 488.542 555.414 489.09C558.484 487.789 561.627 486.556 564.697 485.323C564.99 485.186 565.209 485.528 564.917 485.665C561.773 487.035 558.63 488.474 555.414 489.844C555.316 494.639 555.243 499.411 555.194 504.16C555.048 512.517 554.902 520.874 554.683 529.231C560.482 526.491 566.33 523.82 572.227 521.217C572.446 521.148 572.665 521.422 572.373 521.559C566.671 524.642 560.75 527.382 554.683 529.848C554.536 536.835 554.39 531.286 554.244 538.205C554.244 538.616 553.586 538.616 553.586 538.205C553.659 529.368 553.659 532.999 553.732 524.162C550.662 523.409 539.112 518.819 536.335 517.518C536.115 517.381 536.261 516.97 536.554 517.038Z" fill="#37474F"/>
<path d="M186.405 536.903C187.502 537.93 200.148 538.342 204.68 538.342C209.286 538.342 221.859 537.93 222.955 536.903C224.052 535.875 208.774 457.375 204.68 457.375C200.587 457.375 185.382 535.875 186.405 536.903Z" fill="#263238"/>
<path d="M186.186 516.901C189.329 517.997 200.806 522.381 203.291 523.683C203.291 523.18 203.316 522.701 203.365 522.244C200.538 520.691 197.736 519.162 194.958 517.655C191.961 516.011 188.744 514.572 185.967 512.654C185.82 512.517 185.894 512.243 186.113 512.38C189.183 513.545 192.034 515.326 194.885 516.901C197.711 518.454 200.538 520.052 203.365 521.696C203.365 517.951 203.365 514.184 203.365 510.394C198.905 508.681 194.373 506.489 190.207 504.16C190.06 504.092 190.206 503.818 190.353 503.886C194.739 505.599 199.271 507.585 203.365 509.914C203.413 507.95 203.438 505.987 203.438 504.023C203.511 493.954 203.584 483.884 203.876 473.815C201.098 472.513 198.321 471.349 195.543 470.047C195.397 469.979 195.47 469.705 195.689 469.773C198.467 470.801 201.171 471.965 203.876 473.13C204.022 467.924 204.242 462.718 204.534 457.512C204.534 457.375 204.827 457.375 204.827 457.512C205.265 467.17 205.192 476.829 205.046 486.487C207.897 484.364 210.894 482.514 213.818 480.459C213.891 480.391 214.037 480.528 213.891 480.596C210.894 482.788 208.043 485.117 205.046 487.309C205.046 487.857 205.046 488.405 205.046 488.953C208.116 487.583 211.186 486.419 214.33 485.117C214.549 485.049 214.768 485.391 214.549 485.46C211.405 486.898 208.189 488.337 205.046 489.707C204.948 494.456 204.875 499.228 204.827 504.023C204.68 512.38 204.461 520.737 204.315 529.094C210.114 526.354 215.938 523.683 221.786 521.08C222.005 520.943 222.224 521.285 222.005 521.354C216.303 524.436 210.309 527.245 204.315 529.711C204.095 536.629 203.949 531.286 203.876 538.205C203.876 538.616 203.145 538.616 203.145 538.205C203.291 529.368 203.291 532.862 203.291 523.957C200.294 523.272 188.744 518.614 185.967 517.381C185.674 517.244 185.894 516.764 186.186 516.901Z" fill="#37474F"/>
<path d="M294.885 536.766C295.982 537.725 308.628 538.205 313.16 538.205C317.766 538.205 330.339 537.725 331.435 536.766C332.532 535.739 317.254 457.238 313.16 457.238C309.067 457.238 293.862 535.739 294.885 536.766Z" fill="#263238"/>
<path d="M294.666 516.764C297.809 517.86 309.286 522.244 311.771 523.546C311.771 523.043 311.771 522.541 311.771 522.039C308.994 520.532 306.216 519.025 303.438 517.518C300.441 515.874 297.224 514.367 294.447 512.449C294.3 512.38 294.374 512.106 294.593 512.175C297.663 513.408 300.514 515.189 303.365 516.764C306.191 518.317 309.018 519.915 311.844 521.559C311.844 517.769 311.844 514.001 311.844 510.257C307.385 508.544 302.853 506.284 298.686 503.955C298.54 503.886 298.686 503.681 298.833 503.749C303.219 505.393 307.751 507.448 311.844 509.709C311.893 507.791 311.918 505.85 311.918 503.886C311.991 493.817 312.064 483.747 312.283 473.678C309.578 472.376 306.801 471.212 304.023 469.91C303.877 469.842 303.95 469.568 304.169 469.636C306.947 470.595 309.651 471.828 312.356 472.924C312.502 467.787 312.722 462.581 313.014 457.375C313.014 457.238 313.306 457.169 313.306 457.375C313.672 467.033 313.672 476.692 313.526 486.35C316.377 484.227 319.374 482.309 322.298 480.254C322.371 480.185 322.517 480.391 322.371 480.459C319.374 482.583 316.523 484.98 313.526 487.104C313.526 487.652 313.526 488.2 313.526 488.748C316.596 487.446 319.666 486.213 322.809 484.98C323.029 484.912 323.248 485.186 323.029 485.323C319.885 486.761 316.669 488.2 313.526 489.501C313.428 494.296 313.355 499.091 313.306 503.886C313.16 512.243 312.941 520.6 312.795 528.889C318.594 526.149 324.418 523.477 330.266 520.874C330.485 520.806 330.704 521.08 330.485 521.217C324.783 524.299 318.789 527.108 312.795 529.574C312.575 536.492 312.429 531.286 312.356 538.205C312.356 538.616 311.625 538.616 311.625 538.205C311.771 529.368 311.771 532.656 311.771 523.82C308.774 523.135 297.224 518.477 294.447 517.244C294.154 517.107 294.374 516.627 294.666 516.764Z" fill="#37474F"/>
<path d="M636.116 536.766C637.213 537.725 649.786 538.205 654.391 538.205C658.923 538.205 671.57 537.725 672.593 536.766C673.69 535.739 658.412 457.238 654.391 457.238C650.298 457.238 635.02 535.739 636.116 536.766Z" fill="#263238"/>
<path d="M635.824 516.764C638.967 517.86 650.517 522.244 653.002 523.546C653.002 523.043 653.002 522.541 653.002 522.039C650.224 520.532 647.422 519.025 644.596 517.518C641.599 515.874 638.382 514.367 635.604 512.449C635.458 512.38 635.531 512.106 635.751 512.175C638.821 513.408 641.672 515.189 644.523 516.764C647.398 518.317 650.224 519.915 653.002 521.559C653.002 517.769 653.027 514.001 653.075 510.257C648.543 508.544 644.011 506.284 639.917 503.955C639.771 503.886 639.844 503.681 639.99 503.749C644.376 505.393 648.982 507.448 653.075 509.709C653.075 507.791 653.075 505.85 653.075 503.886C653.222 493.817 653.221 483.747 653.514 473.678C650.736 472.376 647.958 471.212 645.18 469.91C645.034 469.842 645.18 469.568 645.327 469.636C648.104 470.595 650.809 471.828 653.514 472.924C653.66 467.787 653.879 462.581 654.245 457.375C654.245 457.238 654.464 457.169 654.537 457.375C654.903 467.033 654.83 476.692 654.757 486.35C657.534 484.227 660.605 482.309 663.455 480.254C663.602 480.185 663.675 480.391 663.602 480.459C660.531 482.583 657.754 484.98 654.683 487.104C654.683 487.652 654.683 488.2 654.683 488.748C657.754 487.446 660.897 486.213 663.967 484.98C664.26 484.912 664.479 485.186 664.186 485.323C661.043 486.761 657.9 488.2 654.683 489.501C654.586 494.296 654.513 499.091 654.464 503.886C654.318 512.243 654.172 520.6 653.952 528.889C659.752 526.149 665.6 523.477 671.496 520.874C671.716 520.806 671.862 521.08 671.643 521.217C665.941 524.299 660.02 527.108 653.952 529.574C653.806 536.492 653.66 531.286 653.514 538.205C653.514 538.616 652.856 538.616 652.856 538.205C652.929 529.368 652.929 532.656 653.002 523.82C649.932 523.135 638.382 518.477 635.604 517.244C635.312 517.107 635.531 516.627 635.824 516.764Z" fill="#37474F"/>
<path d="M500.369 531.081H498.176V536.766H500.369V531.081Z" fill="#263238"/>
<path d="M395.617 531.081H393.497V536.766H395.617V531.081Z" fill="#263238"/>
<path d="M393.497 536.766L424.053 494.228L455.413 536.766H393.497Z" fill="#FF9F1C"/>
<path opacity="0.1" d="M393.497 536.766L424.053 494.228L455.413 536.766H393.497Z" fill="black"/>
<path d="M424.053 494.228H468.863L499.931 536.766H455.413L424.053 494.228Z" fill="#FF9F1C"/>
<path d="M443.132 501.968H463.6L469.813 510.462H449.418L443.132 501.968Z" fill="white"/>
<path opacity="0.3" d="M413.965 536.766H433.263L424.053 494.228L413.965 536.766Z" fill="black"/>
<path d="M456.509 531.081H454.316V536.766H456.509V531.081Z" fill="#263238"/>
<path d="M424.053 494.228C416.67 508.065 408.044 523.272 400.076 536.766C407.459 522.929 416.012 507.722 424.053 494.228Z" fill="white"/>
<path d="M424.053 494.228C431.948 507.654 440.427 522.792 447.81 536.561C439.842 523.066 431.363 507.996 424.053 494.228Z" fill="white"/>
<path d="M413.965 536.766C413.965 536.766 412.576 530.738 405.924 525.464L424.053 494.228L413.965 536.766Z" fill="#FF9F1C"/>
<path d="M433.263 536.766L424.053 494.228L442.839 527.108C442.839 527.108 434.506 528.067 433.263 536.766Z" fill="#FF9F1C"/>
<path fill-rule="evenodd" clip-rule="evenodd" d="M264.476 248.997C264.476 257.902 256.801 264.752 247.371 264.752H244.3V286.467C244.3 295.372 236.99 302.222 227.487 302.222C222.517 302.222 218.131 300.304 215.06 297.153C214.671 296.833 214.281 296.491 213.891 296.125V296.057C213.501 295.737 213.111 295.372 212.721 294.961C212.331 294.641 211.942 294.299 211.552 293.933V293.865C211.162 293.545 210.772 293.203 210.382 292.837C210.382 292.792 210.382 292.769 210.382 292.769C209.992 292.449 209.627 292.107 209.286 291.741L209.212 291.673C208.823 291.353 208.433 291.011 208.043 290.645C208.043 290.645 208.043 290.623 208.043 290.577C207.653 290.257 207.287 289.915 206.946 289.549L206.873 289.481C206.483 289.161 206.118 288.819 205.777 288.453C205.777 288.453 205.752 288.453 205.704 288.453C205.314 288.088 204.948 287.723 204.607 287.357H204.534C201.171 284.48 199.125 280.302 199.125 275.575V264.752H114.548C110.893 264.752 107.238 263.862 104.168 261.327C103.291 260.688 102.511 260.003 101.829 259.272C101.39 258.907 101 258.542 100.659 258.176C100.22 257.811 99.8305 257.446 99.4894 257.08C99.0508 256.761 98.6609 256.395 98.3197 255.984C97.8811 255.665 97.4913 255.299 97.1501 254.888C96.7115 254.569 96.3217 254.203 95.9805 253.792C95.5419 253.473 95.1521 253.107 94.8109 252.696C94.3723 252.377 93.9825 252.011 93.6414 251.6C93.2515 251.281 92.8616 250.915 92.4717 250.504C92.0819 250.185 91.692 249.819 91.3021 249.408C84.8693 243.86 84.3576 234.886 89.8401 228.379L202.78 96.7905C203.072 96.7905 203.072 96.5165 203.364 96.2425C203.657 95.9685 203.949 95.626 204.242 95.078C205.192 94.804 205.484 94.53 205.777 94.1875C206.142 93.9135 206.727 93.6395 207.019 93.3655C207.677 93.0915 207.97 92.8175 208.847 92.8175C209.139 92.201 209.505 91.927 210.09 91.927C210.382 91.653 210.967 91.653 211.917 91.379C212.21 91.379 212.794 91.379 213.16 91.105C213.16 91.105 215.572 91.105 215.865 91.105C216.157 91.105 217.984 91.105 218.277 91.105C218.935 91.379 219.227 91.379 219.812 91.379C220.177 91.653 221.055 91.653 221.713 91.927C222.005 91.927 222.59 92.201 222.882 92.201C223.54 92.8175 224.125 93.0915 224.417 93.3655C225.002 93.6395 225.368 93.9135 225.952 94.1875C225.952 94.1875 226.245 94.1875 226.245 94.53C226.537 94.53 227.195 94.804 227.195 95.078L227.853 95.6945C228.072 95.8315 228.365 95.9685 228.365 96.174V96.2425C228.657 96.4708 228.876 96.6535 229.023 96.7905C229.242 96.9275 229.461 97.0645 229.461 97.27L229.534 97.3385C229.778 97.5668 229.997 97.7495 230.192 97.8865C230.411 98.0235 230.631 98.1605 230.631 98.366L230.704 98.4345C230.948 98.6628 231.167 98.8455 231.362 98.9825C231.581 99.1195 231.8 99.2565 231.8 99.462H231.873C232.117 99.736 232.312 99.9415 232.458 100.078C232.751 100.147 232.97 100.352 232.97 100.558H233.043C233.287 100.832 233.482 101.037 233.628 101.174C233.92 101.243 234.14 101.448 234.14 101.585L234.213 101.654C234.456 101.882 234.651 102.088 234.797 102.27C235.09 102.339 235.309 102.544 235.309 102.681L235.382 102.75C235.626 102.978 235.821 103.184 235.967 103.366C236.259 103.435 236.479 103.64 236.479 103.777L236.552 103.846C236.796 104.074 236.99 104.257 237.137 104.394C237.429 104.531 237.648 104.736 237.648 104.873L237.721 104.942C237.965 105.17 238.16 105.353 238.306 105.49C238.599 105.627 238.818 105.832 238.818 105.969L240.061 107.134C240.353 107.408 240.645 107.956 240.938 108.298C241.23 108.572 241.523 108.846 242.181 109.668C242.181 110.011 242.473 110.559 242.765 110.833C243.058 111.381 243.058 111.723 243.423 112.545C243.423 112.819 243.716 113.436 243.716 113.71C244.008 114.258 244.008 114.6 244.008 115.422C244.008 115.97 244.3 116.313 244.3 116.861V224.543C245.811 225.365 247.176 226.392 248.394 227.625C248.394 227.58 248.394 227.58 248.394 227.625C248.784 227.945 249.174 228.288 249.564 228.653C249.564 228.653 249.564 228.676 249.564 228.721C249.954 229.041 250.343 229.384 250.733 229.749C250.733 229.749 250.733 229.772 250.733 229.817C251.123 230.137 251.489 230.48 251.83 230.845C251.878 230.845 251.903 230.845 251.903 230.845C252.293 231.21 252.658 231.576 252.999 231.941C253.048 231.941 253.072 231.941 253.072 231.941C253.462 232.306 253.828 232.672 254.169 233.037C254.218 233.037 254.218 233.037 254.169 233.037C254.608 233.402 254.997 233.768 255.339 234.133C255.777 234.498 256.167 234.864 256.508 235.229C256.947 235.549 257.337 235.914 257.678 236.325C258.116 236.645 258.506 237.01 258.847 237.421C262.283 240.298 264.476 244.476 264.476 248.997ZM159.358 222.419H199.125V176.182L159.358 222.419Z" fill="#265399"/>
<path opacity="0.1" fill-rule="evenodd" clip-rule="evenodd" d="M264.476 248.997C264.476 257.902 256.801 264.752 247.371 264.752H244.3V286.467C244.3 295.372 236.99 302.222 227.487 302.222C222.517 302.222 218.131 300.304 215.06 297.153C214.671 296.833 214.281 296.491 213.891 296.125V296.057C213.501 295.737 213.111 295.372 212.721 294.961C212.331 294.641 211.942 294.299 211.552 293.933V293.865C211.162 293.545 210.772 293.203 210.382 292.837C210.382 292.792 210.382 292.769 210.382 292.769C209.992 292.449 209.627 292.107 209.286 291.741L209.212 291.673C208.823 291.353 208.433 291.011 208.043 290.645C208.043 290.645 208.043 290.623 208.043 290.577C207.653 290.257 207.287 289.915 206.946 289.549L206.873 289.481C206.483 289.161 206.118 288.819 205.777 288.453C205.777 288.453 205.752 288.453 205.704 288.453C205.314 288.088 204.948 287.723 204.607 287.357H204.534C201.171 284.48 199.125 280.302 199.125 275.575V264.752H114.548C110.893 264.752 107.238 263.862 104.168 261.327C103.291 260.688 102.511 260.003 101.829 259.272C101.39 258.907 101 258.542 100.659 258.176C100.22 257.811 99.8305 257.446 99.4894 257.08C99.0508 256.761 98.6609 256.395 98.3197 255.984C97.8811 255.665 97.4913 255.299 97.1501 254.888C96.7115 254.569 96.3217 254.203 95.9805 253.792C95.5419 253.473 95.1521 253.107 94.8109 252.696C94.3723 252.377 93.9825 252.011 93.6414 251.6C93.2515 251.281 92.8616 250.915 92.4717 250.504C92.0819 250.185 91.692 249.819 91.3021 249.408C84.8693 243.86 84.3576 234.886 89.8401 228.379L202.78 96.7905C203.072 96.7905 203.072 96.5165 203.364 96.2425C203.657 95.9685 203.949 95.626 204.242 95.078C205.192 94.804 205.484 94.53 205.777 94.1875C206.142 93.9135 206.727 93.6395 207.019 93.3655C207.677 93.0915 207.97 92.8175 208.847 92.8175C209.139 92.201 209.505 91.927 210.09 91.927C210.382 91.653 210.967 91.653 211.917 91.379C212.21 91.379 212.794 91.379 213.16 91.105C213.16 91.105 215.572 91.105 215.865 91.105C216.157 91.105 217.984 91.105 218.277 91.105C218.935 91.379 219.227 91.379 219.812 91.379C220.177 91.653 221.055 91.653 221.713 91.927C222.005 91.927 222.59 92.201 222.882 92.201C223.54 92.8175 224.125 93.0915 224.417 93.3655C225.002 93.6395 225.368 93.9135 225.952 94.1875C225.952 94.1875 226.245 94.1875 226.245 94.53C226.537 94.53 227.195 94.804 227.195 95.078L227.853 95.6945C228.072 95.8315 228.365 95.9685 228.365 96.174V96.2425C228.657 96.4708 228.876 96.6535 229.023 96.7905C229.242 96.9275 229.461 97.0645 229.461 97.27L229.534 97.3385C229.778 97.5668 229.997 97.7495 230.192 97.8865C230.411 98.0235 230.631 98.1605 230.631 98.366L230.704 98.4345C230.948 98.6628 231.167 98.8455 231.362 98.9825C231.581 99.1195 231.8 99.2565 231.8 99.462H231.873C232.117 99.736 232.312 99.9415 232.458 100.078C232.751 100.147 232.97 100.352 232.97 100.558H233.043C233.287 100.832 233.482 101.037 233.628 101.174C233.92 101.243 234.14 101.448 234.14 101.585L234.213 101.654C234.456 101.882 234.651 102.088 234.797 102.27C235.09 102.339 235.309 102.544 235.309 102.681L235.382 102.75C235.626 102.978 235.821 103.184 235.967 103.366C236.259 103.435 236.479 103.64 236.479 103.777L236.552 103.846C236.796 104.074 236.99 104.257 237.137 104.394C237.429 104.531 237.648 104.736 237.648 104.873L237.721 104.942C237.965 105.17 238.16 105.353 238.306 105.49C238.599 105.627 238.818 105.832 238.818 105.969L240.061 107.134C240.353 107.408 240.645 107.956 240.938 108.298C241.23 108.572 241.523 108.846 242.181 109.668C242.181 110.011 242.473 110.559 242.765 110.833C243.058 111.381 243.058 111.723 243.423 112.545C243.423 112.819 243.716 113.436 243.716 113.71C244.008 114.258 244.008 114.6 244.008 115.422C244.008 115.97 244.3 116.313 244.3 116.861V224.543C245.811 225.365 247.176 226.392 248.394 227.625C248.394 227.58 248.394 227.58 248.394 227.625C248.784 227.945 249.174 228.288 249.564 228.653C249.564 228.653 249.564 228.676 249.564 228.721C249.954 229.041 250.343 229.384 250.733 229.749C250.733 229.749 250.733 229.772 250.733 229.817C251.123 230.137 251.489 230.48 251.83 230.845C251.878 230.845 251.903 230.845 251.903 230.845C252.293 231.21 252.658 231.576 252.999 231.941C253.048 231.941 253.072 231.941 253.072 231.941C253.462 232.306 253.828 232.672 254.169 233.037C254.218 233.037 254.218 233.037 254.169 233.037C254.608 233.402 254.997 233.768 255.339 234.133C255.777 234.498 256.167 234.864 256.508 235.229C256.947 235.549 257.337 235.914 257.678 236.325C258.116 236.645 258.506 237.01 258.847 237.421C262.283 240.298 264.476 244.476 264.476 248.997ZM159.358 222.419H199.125V176.182L159.358 222.419Z" fill="black"/>
<path fill-rule="evenodd" clip-rule="evenodd" d="M252.78 238.106C252.78 247.011 245.178 253.861 235.748 253.861H232.677V275.575C232.677 284.48 225.367 291.33 215.864 291.33C206.435 291.33 199.125 284.48 199.125 275.575V253.861H102.925C99.27 253.861 95.615 252.97 92.5448 250.436C84.9424 244.956 83.9921 235.229 89.767 228.379L202.78 96.7905C203.072 96.7905 203.072 96.5165 203.364 96.2425C203.657 95.9685 203.949 95.626 204.315 95.078C205.192 94.804 205.484 94.53 205.777 94.256C206.142 93.9135 206.727 93.6395 207.019 93.3655C207.604 93.0915 207.97 92.8175 208.847 92.8175C209.139 92.201 209.432 91.927 210.09 91.927C210.382 91.653 210.967 91.653 211.917 91.379C212.209 91.379 212.794 91.379 213.16 91.105C213.745 91.105 214.622 91.105 215.28 91.105C215.28 91.105 215.572 91.105 215.864 91.105C216.157 91.105 216.157 91.105 216.522 91.105C217.107 91.105 217.984 91.105 218.35 91.105C218.935 91.379 219.227 91.379 219.812 91.379C220.177 91.653 221.055 91.653 221.712 91.927C222.005 91.927 222.59 92.201 222.882 92.201C223.54 92.8175 224.125 93.0915 224.417 93.3655C225.002 93.6395 225.367 93.9135 225.952 94.256C225.952 94.256 226.245 94.256 226.245 94.53C226.537 94.53 227.195 94.804 227.195 95.078C227.78 95.626 228.072 95.9685 228.365 96.2425C228.73 96.5165 229.022 97.0645 229.315 97.3385C229.607 97.681 229.9 97.955 230.558 98.777C230.558 99.1195 230.85 99.6675 231.142 99.9415C231.435 100.489 231.435 100.832 231.727 101.654C231.727 101.928 232.02 102.544 232.02 102.818C232.385 103.366 232.385 103.64 232.385 104.531C232.385 105.079 232.677 105.353 232.677 105.969C232.677 106.243 232.677 106.517 232.677 106.791V222.351H235.748C245.178 222.351 252.78 229.543 252.78 238.106ZM199.125 151.727L138.305 222.351H199.125V151.727Z" fill="#265399"/>
<path fill-rule="evenodd" clip-rule="evenodd" d="M451.831 202.075C451.831 228.105 444.521 252.148 431.363 270.438C418.571 288.522 398.395 302.222 374.93 302.222C357.021 302.222 341.45 294.687 329.389 283.384C329.048 283.019 328.682 282.677 328.292 282.357C328.292 282.311 328.268 282.288 328.219 282.288C328.024 282.106 327.829 281.923 327.634 281.74C327.439 281.558 327.244 281.375 327.05 281.192C326.708 280.873 326.343 280.53 325.953 280.165C325.953 280.119 325.929 280.096 325.88 280.096C325.685 279.914 325.49 279.731 325.295 279.548C325.1 279.366 324.905 279.183 324.71 279C324.369 278.681 324.028 278.338 323.687 277.973C323.638 277.927 323.589 277.904 323.541 277.904C323.346 277.722 323.151 277.539 322.956 277.356C322.761 277.174 322.59 276.991 322.444 276.808C322.054 276.489 321.689 276.146 321.348 275.781C321.299 275.781 321.275 275.758 321.275 275.712C321.08 275.53 320.86 275.347 320.617 275.164C320.471 274.982 320.3 274.799 320.105 274.616C319.715 274.297 319.35 273.977 319.009 273.657C319.009 273.612 318.984 273.566 318.935 273.52C318.741 273.338 318.546 273.155 318.351 272.972C313.892 268.931 309.944 264.41 306.508 259.546C293.058 241.257 286.04 217.213 285.748 191.183C286.04 164.879 293.058 141.11 306.508 122.82C319.301 104.531 339.184 91.105 363.307 91.105C381.217 91.105 397.226 98.914 409.433 110.764C409.531 110.81 409.579 110.856 409.579 110.901C409.799 111.038 409.872 111.175 410.018 111.312C410.091 111.312 410.091 111.381 410.164 111.381C410.53 111.792 410.968 112.134 411.334 112.545C411.48 112.682 411.626 112.819 411.772 112.956C411.821 113.002 411.87 113.048 411.919 113.093C412.065 113.23 412.211 113.367 412.357 113.504C412.357 113.504 412.43 113.504 412.503 113.573C412.869 113.915 413.308 114.326 413.673 114.669C413.819 114.806 413.965 114.966 414.112 115.148C414.16 115.194 414.209 115.24 414.258 115.285C414.404 115.422 414.55 115.537 414.696 115.628C414.696 115.696 414.77 115.696 414.77 115.765C415.208 116.107 415.647 116.518 416.012 116.861C416.158 116.998 416.305 117.135 416.451 117.272C416.5 117.318 416.548 117.386 416.597 117.477C416.743 117.569 416.889 117.683 417.036 117.82C417.036 117.82 417.109 117.888 417.109 117.957C417.547 118.299 417.913 118.642 418.351 119.053C418.498 119.19 418.644 119.327 418.79 119.464C418.839 119.51 418.887 119.555 418.936 119.601C419.131 119.784 419.302 119.943 419.448 120.08C423.907 124.19 427.928 128.78 431.363 133.712C444.521 152.07 451.831 175.771 451.831 202.075ZM406.363 191.183C406.363 170.633 400.223 152.549 391.67 140.288C391.183 139.649 390.695 139.032 390.208 138.438C385.164 135.15 379.974 133.575 374.93 133.712C365.427 133.438 355.047 139.192 345.909 151.179C337.357 163.509 331.289 181.525 331.289 202.075C331.289 222.419 337.357 240.709 345.909 252.765C346.348 253.313 346.762 253.861 347.152 254.409C352.561 257.902 358.044 259.546 363.307 259.546C372.737 259.546 382.825 254.135 391.67 241.805C400.223 229.817 406.363 211.528 406.363 191.183Z" fill="#265399"/>
<path opacity="0.1" fill-rule="evenodd" clip-rule="evenodd" d="M451.831 202.075C451.831 228.105 444.521 252.148 431.363 270.438C418.571 288.522 398.395 302.222 374.93 302.222C357.021 302.222 341.45 294.687 329.389 283.384C329.048 283.019 328.682 282.677 328.292 282.357C328.292 282.311 328.268 282.288 328.219 282.288C328.024 282.106 327.829 281.923 327.634 281.74C327.439 281.558 327.244 281.375 327.05 281.192C326.708 280.873 326.343 280.53 325.953 280.165C325.953 280.119 325.929 280.096 325.88 280.096C325.685 279.914 325.49 279.731 325.295 279.548C325.1 279.366 324.905 279.183 324.71 279C324.369 278.681 324.028 278.338 323.687 277.973C323.638 277.927 323.589 277.904 323.541 277.904C323.346 277.722 323.151 277.539 322.956 277.356C322.761 277.174 322.59 276.991 322.444 276.808C322.054 276.489 321.689 276.146 321.348 275.781C321.299 275.781 321.275 275.758 321.275 275.712C321.08 275.53 320.86 275.347 320.617 275.164C320.471 274.982 320.3 274.799 320.105 274.616C319.715 274.297 319.35 273.977 319.009 273.657C319.009 273.612 318.984 273.566 318.935 273.52C318.741 273.338 318.546 273.155 318.351 272.972C313.892 268.931 309.944 264.41 306.508 259.546C293.058 241.257 286.04 217.213 285.748 191.183C286.04 164.879 293.058 141.11 306.508 122.82C319.301 104.531 339.184 91.105 363.307 91.105C381.217 91.105 397.226 98.914 409.433 110.764C409.531 110.81 409.579 110.856 409.579 110.901C409.799 111.038 409.872 111.175 410.018 111.312C410.091 111.312 410.091 111.381 410.164 111.381C410.53 111.792 410.968 112.134 411.334 112.545C411.48 112.682 411.626 112.819 411.772 112.956C411.821 113.002 411.87 113.048 411.919 113.093C412.065 113.23 412.211 113.367 412.357 113.504C412.357 113.504 412.43 113.504 412.503 113.573C412.869 113.915 413.308 114.326 413.673 114.669C413.819 114.806 413.965 114.966 414.112 115.148C414.16 115.194 414.209 115.24 414.258 115.285C414.404 115.422 414.55 115.537 414.696 115.628C414.696 115.696 414.77 115.696 414.77 115.765C415.208 116.107 415.647 116.518 416.012 116.861C416.158 116.998 416.305 117.135 416.451 117.272C416.5 117.318 416.548 117.386 416.597 117.477C416.743 117.569 416.889 117.683 417.036 117.82C417.036 117.82 417.109 117.888 417.109 117.957C417.547 118.299 417.913 118.642 418.351 119.053C418.498 119.19 418.644 119.327 418.79 119.464C418.839 119.51 418.887 119.555 418.936 119.601C419.131 119.784 419.302 119.943 419.448 120.08C423.907 124.19 427.928 128.78 431.363 133.712C444.521 152.07 451.831 175.771 451.831 202.075ZM406.363 191.183C406.363 170.633 400.223 152.549 391.67 140.288C391.183 139.649 390.695 139.032 390.208 138.438C385.164 135.15 379.974 133.575 374.93 133.712C365.427 133.438 355.047 139.192 345.909 151.179C337.357 163.509 331.289 181.525 331.289 202.075C331.289 222.419 337.357 240.709 345.909 252.765C346.348 253.313 346.762 253.861 347.152 254.409C352.561 257.902 358.044 259.546 363.307 259.546C372.737 259.546 382.825 254.135 391.67 241.805C400.223 229.817 406.363 211.528 406.363 191.183Z" fill="black"/>
<path fill-rule="evenodd" clip-rule="evenodd" d="M285.748 191.183C286.04 164.879 293.058 141.11 306.508 122.82C319.301 104.531 339.184 91.105 363.307 91.105C386.772 91.105 406.948 104.531 419.74 122.82C432.898 141.11 440.208 164.879 440.208 191.183C440.208 217.213 432.898 241.257 419.74 259.546C406.948 277.562 386.772 291.33 363.307 291.33C339.184 291.33 319.301 277.562 306.508 259.546C293.058 241.257 286.04 217.213 285.748 191.183ZM406.29 191.183C406.29 170.633 400.223 152.549 391.67 140.288C382.825 128.232 372.737 122.546 363.307 122.82C353.804 122.546 343.424 128.232 334.286 140.288C325.734 152.549 319.593 170.633 319.593 191.183C319.593 211.528 325.734 229.817 334.286 241.805C343.424 254.135 353.804 259.546 363.307 259.546C372.737 259.546 382.825 254.135 391.67 241.805C400.223 229.817 406.29 211.528 406.29 191.183Z" fill="#265399"/>
<path fill-rule="evenodd" clip-rule="evenodd" d="M644.962 248.997C644.962 257.902 637.359 264.752 627.856 264.752H624.786V286.467C624.786 295.372 617.476 302.222 608.046 302.222C603.002 302.222 598.616 300.304 595.546 297.153C595.156 296.833 594.766 296.468 594.376 296.057C593.987 295.737 593.621 295.395 593.28 295.029L593.207 294.961C592.817 294.641 592.427 294.299 592.037 293.933C592.037 293.888 592.037 293.865 592.037 293.865C591.647 293.545 591.282 293.203 590.941 292.837L590.868 292.769C590.478 292.449 590.112 292.107 589.771 291.741C589.771 291.696 589.747 291.673 589.698 291.673C589.308 291.353 588.943 291.011 588.602 290.645L588.528 290.577C588.139 290.257 587.773 289.915 587.432 289.549C587.432 289.549 587.408 289.527 587.359 289.481C586.969 289.161 586.604 288.819 586.262 288.453H586.189C585.799 288.088 585.434 287.723 585.093 287.357C585.093 287.357 585.068 287.357 585.02 287.357C581.657 284.48 579.61 280.302 579.61 275.575V264.752H495.034C491.379 264.752 487.724 263.862 484.653 261.327C483.776 260.688 482.996 260.003 482.314 259.272C481.876 258.907 481.486 258.542 481.145 258.176C480.706 257.811 480.316 257.446 479.975 257.08C479.536 256.761 479.147 256.395 478.805 255.984C478.367 255.665 477.977 255.299 477.636 254.888C477.197 254.569 476.807 254.203 476.466 253.792C476.076 253.473 475.686 253.107 475.297 252.696C474.907 252.377 474.517 252.011 474.127 251.6C473.737 251.281 473.347 250.915 472.957 250.504C472.568 250.185 472.202 249.819 471.861 249.408C465.355 243.86 464.843 234.886 470.326 228.379L583.265 96.7905C583.558 96.7905 583.558 96.5165 583.85 96.2425C584.142 95.9685 584.435 95.626 584.8 95.078C585.678 94.804 585.97 94.53 586.335 94.1875C586.628 93.9135 587.213 93.6395 587.505 93.3655C588.163 93.0915 588.455 92.8175 589.333 92.8175C589.698 92.201 589.991 91.927 590.575 91.927C590.868 91.653 591.526 91.653 592.403 91.379C592.695 91.379 593.353 91.379 593.645 91.105C593.645 91.105 596.058 91.105 596.35 91.105C596.716 91.105 598.543 91.105 598.836 91.105C599.42 91.379 599.713 91.379 600.371 91.379C600.663 91.653 601.54 91.653 602.198 91.927C602.491 91.927 603.075 92.201 603.441 92.201C604.026 92.8175 604.61 93.0915 604.903 93.3655C605.561 93.6395 605.853 93.9135 606.438 94.1875C606.438 94.1875 606.73 94.1875 606.73 94.53C607.096 94.53 607.681 94.804 607.681 95.078L608.339 95.6945C608.631 95.8315 608.85 95.9685 608.85 96.174L608.923 96.2425C609.167 96.4708 609.362 96.6535 609.508 96.7905C609.801 96.9275 610.02 97.0645 610.02 97.27L610.093 97.3385C610.337 97.5668 610.532 97.7495 610.678 97.8865C610.897 98.0235 611.189 98.1605 611.189 98.366V98.4345C611.482 98.6628 611.701 98.8455 611.847 98.9825C612.067 99.1195 612.359 99.2565 612.359 99.462C612.603 99.736 612.822 99.9415 613.017 100.078C613.236 100.147 613.456 100.352 613.456 100.558H613.529C613.772 100.832 613.992 101.037 614.187 101.174C614.406 101.243 614.625 101.448 614.625 101.585L614.698 101.654C614.942 101.882 615.137 102.088 615.283 102.27C615.576 102.339 615.795 102.544 615.795 102.681L615.868 102.75C616.112 102.978 616.306 103.184 616.453 103.366C616.745 103.435 616.964 103.64 616.964 103.777L617.037 103.846C617.281 104.074 617.476 104.257 617.622 104.394C617.915 104.531 618.134 104.736 618.134 104.873L618.207 104.942C618.451 105.17 618.646 105.353 618.792 105.49C619.084 105.627 619.304 105.832 619.304 105.969L620.546 107.134C620.839 107.408 621.131 107.956 621.423 108.298C621.789 108.572 622.081 108.846 622.666 109.668C622.666 110.011 622.959 110.559 623.251 110.833C623.616 111.381 623.616 111.723 623.909 112.545C623.909 112.819 624.201 113.436 624.201 113.71C624.494 114.258 624.494 114.6 624.494 115.422C624.494 115.97 624.786 116.313 624.786 116.861V224.543C626.321 225.365 627.71 226.392 628.88 227.625C628.88 227.58 628.88 227.58 628.88 227.625C629.27 227.945 629.659 228.288 630.049 228.653C630.049 228.653 630.049 228.676 630.049 228.721C630.439 229.041 630.829 229.384 631.219 229.749C631.219 229.749 631.219 229.772 631.219 229.817C631.609 230.137 631.999 230.48 632.388 230.845C632.778 231.21 633.168 231.576 633.558 231.941C633.948 232.306 634.338 232.672 634.728 233.037C635.118 233.402 635.507 233.768 635.897 234.133C636.287 234.498 636.677 234.864 637.067 235.229C637.457 235.549 637.822 235.914 638.163 236.325C638.212 236.325 638.236 236.325 638.236 236.325C638.626 236.645 638.992 237.01 639.333 237.421C639.382 237.421 639.406 237.421 639.406 237.421C642.769 240.298 644.962 244.476 644.962 248.997ZM539.844 222.419H579.61V176.182L539.844 222.419Z" fill="#265399"/>
<path opacity="0.1" fill-rule="evenodd" clip-rule="evenodd" d="M644.962 248.997C644.962 257.902 637.359 264.752 627.856 264.752H624.786V286.467C624.786 295.372 617.476 302.222 608.046 302.222C603.002 302.222 598.616 300.304 595.546 297.153C595.156 296.833 594.766 296.468 594.376 296.057C593.987 295.737 593.621 295.395 593.28 295.029L593.207 294.961C592.817 294.641 592.427 294.299 592.037 293.933C592.037 293.888 592.037 293.865 592.037 293.865C591.647 293.545 591.282 293.203 590.941 292.837L590.868 292.769C590.478 292.449 590.112 292.107 589.771 291.741C589.771 291.696 589.747 291.673 589.698 291.673C589.308 291.353 588.943 291.011 588.602 290.645L588.528 290.577C588.139 290.257 587.773 289.915 587.432 289.549C587.432 289.549 587.408 289.527 587.359 289.481C586.969 289.161 586.604 288.819 586.262 288.453H586.189C585.799 288.088 585.434 287.723 585.093 287.357C585.093 287.357 585.068 287.357 585.02 287.357C581.657 284.48 579.61 280.302 579.61 275.575V264.752H495.034C491.379 264.752 487.724 263.862 484.653 261.327C483.776 260.688 482.996 260.003 482.314 259.272C481.876 258.907 481.486 258.542 481.145 258.176C480.706 257.811 480.316 257.446 479.975 257.08C479.536 256.761 479.147 256.395 478.805 255.984C478.367 255.665 477.977 255.299 477.636 254.888C477.197 254.569 476.807 254.203 476.466 253.792C476.076 253.473 475.686 253.107 475.297 252.696C474.907 252.377 474.517 252.011 474.127 251.6C473.737 251.281 473.347 250.915 472.957 250.504C472.568 250.185 472.202 249.819 471.861 249.408C465.355 243.86 464.843 234.886 470.326 228.379L583.265 96.7905C583.558 96.7905 583.558 96.5165 583.85 96.2425C584.142 95.9685 584.435 95.626 584.8 95.078C585.678 94.804 585.97 94.53 586.335 94.1875C586.628 93.9135 587.213 93.6395 587.505 93.3655C588.163 93.0915 588.455 92.8175 589.333 92.8175C589.698 92.201 589.991 91.927 590.575 91.927C590.868 91.653 591.526 91.653 592.403 91.379C592.695 91.379 593.353 91.379 593.645 91.105C593.645 91.105 596.058 91.105 596.35 91.105C596.716 91.105 598.543 91.105 598.836 91.105C599.42 91.379 599.713 91.379 600.371 91.379C600.663 91.653 601.54 91.653 602.198 91.927C602.491 91.927 603.075 92.201 603.441 92.201C604.026 92.8175 604.61 93.0915 604.903 93.3655C605.561 93.6395 605.853 93.9135 606.438 94.1875C606.438 94.1875 606.73 94.1875 606.73 94.53C607.096 94.53 607.681 94.804 607.681 95.078L608.339 95.6945C608.631 95.8315 608.85 95.9685 608.85 96.174L608.923 96.2425C609.167 96.4708 609.362 96.6535 609.508 96.7905C609.801 96.9275 610.02 97.0645 610.02 97.27L610.093 97.3385C610.337 97.5668 610.532 97.7495 610.678 97.8865C610.897 98.0235 611.189 98.1605 611.189 98.366V98.4345C611.482 98.6628 611.701 98.8455 611.847 98.9825C612.067 99.1195 612.359 99.2565 612.359 99.462C612.603 99.736 612.822 99.9415 613.017 100.078C613.236 100.147 613.456 100.352 613.456 100.558H613.529C613.772 100.832 613.992 101.037 614.187 101.174C614.406 101.243 614.625 101.448 614.625 101.585L614.698 101.654C614.942 101.882 615.137 102.088 615.283 102.27C615.576 102.339 615.795 102.544 615.795 102.681L615.868 102.75C616.112 102.978 616.306 103.184 616.453 103.366C616.745 103.435 616.964 103.64 616.964 103.777L617.037 103.846C617.281 104.074 617.476 104.257 617.622 104.394C617.915 104.531 618.134 104.736 618.134 104.873L618.207 104.942C618.451 105.17 618.646 105.353 618.792 105.49C619.084 105.627 619.304 105.832 619.304 105.969L620.546 107.134C620.839 107.408 621.131 107.956 621.423 108.298C621.789 108.572 622.081 108.846 622.666 109.668C622.666 110.011 622.959 110.559 623.251 110.833C623.616 111.381 623.616 111.723 623.909 112.545C623.909 112.819 624.201 113.436 624.201 113.71C624.494 114.258 624.494 114.6 624.494 115.422C624.494 115.97 624.786 116.313 624.786 116.861V224.543C626.321 225.365 627.71 226.392 628.88 227.625C628.88 227.58 628.88 227.58 628.88 227.625C629.27 227.945 629.659 228.288 630.049 228.653C630.049 228.653 630.049 228.676 630.049 228.721C630.439 229.041 630.829 229.384 631.219 229.749C631.219 229.749 631.219 229.772 631.219 229.817C631.609 230.137 631.999 230.48 632.388 230.845C632.778 231.21 633.168 231.576 633.558 231.941C633.948 232.306 634.338 232.672 634.728 233.037C635.118 233.402 635.507 233.768 635.897 234.133C636.287 234.498 636.677 234.864 637.067 235.229C637.457 235.549 637.822 235.914 638.163 236.325C638.212 236.325 638.236 236.325 638.236 236.325C638.626 236.645 638.992 237.01 639.333 237.421C639.382 237.421 639.406 237.421 639.406 237.421C642.769 240.298 644.962 244.476 644.962 248.997ZM539.844 222.419H579.61V176.182L539.844 222.419Z" fill="black"/>
<path fill-rule="evenodd" clip-rule="evenodd" d="M633.339 238.106C633.339 247.011 625.663 253.861 616.233 253.861H613.163V275.575C613.163 284.48 605.853 291.33 596.35 291.33C586.92 291.33 579.61 284.48 579.61 275.575V253.861H483.411C479.756 253.861 476.101 252.97 473.03 250.436C465.428 244.956 464.478 235.229 470.326 228.379L583.265 96.7905C583.558 96.7905 583.558 96.5165 583.85 96.2425C584.142 95.9685 584.508 95.626 584.8 95.078C585.677 94.804 585.97 94.53 586.335 94.256C586.628 93.9135 587.213 93.6395 587.505 93.3655C588.163 93.0915 588.455 92.8175 589.332 92.8175C589.625 92.201 589.99 91.927 590.575 91.927C590.868 91.653 591.525 91.653 592.403 91.379C592.695 91.379 593.353 91.379 593.645 91.105C594.23 91.105 595.18 91.105 595.765 91.105C595.765 91.105 596.058 91.105 596.35 91.105C596.716 91.105 596.716 91.105 597.008 91.105C597.593 91.105 598.543 91.105 598.835 91.105C599.42 91.379 599.713 91.379 600.371 91.379C600.663 91.653 601.54 91.653 602.198 91.927C602.49 91.927 603.075 92.201 603.368 92.201C604.026 92.8175 604.61 93.0915 604.903 93.3655C605.561 93.6395 605.853 93.9135 606.438 94.256C606.438 94.256 606.73 94.256 606.73 94.53C607.096 94.53 607.681 94.804 607.681 95.078C608.265 95.626 608.558 95.9685 608.923 96.2425C609.216 96.5165 609.508 97.0645 609.8 97.3385C610.093 97.681 610.458 97.955 611.043 98.777C611.043 99.1195 611.336 99.6675 611.628 99.9415C611.92 100.489 611.92 100.832 612.286 101.654C612.286 101.928 612.578 102.544 612.578 102.818C612.871 103.366 612.871 103.64 612.871 104.531C612.871 105.079 613.163 105.353 613.163 105.969C613.163 106.243 613.163 106.517 613.163 106.791V222.351H616.233C625.663 222.351 633.339 229.543 633.339 238.106ZM579.61 151.727L518.864 222.351H579.61V151.727Z" fill="#265399"/>
<path fill-rule="evenodd" clip-rule="evenodd" d="M269.958 622.528H267.107V627.255C267.107 627.871 266.523 628.419 265.792 628.419C265.061 628.419 264.549 627.871 264.549 627.255V614.445C264.549 613.76 265.061 613.212 265.792 613.212H269.958C272.663 613.212 274.929 615.336 274.929 617.87C274.929 620.405 272.663 622.528 269.958 622.528ZM267.107 620.131H269.958C271.274 620.131 272.297 619.103 272.371 617.87C272.297 616.637 271.274 615.678 269.958 615.678H267.107V620.131Z" fill="#263238"/>
<path fill-rule="evenodd" clip-rule="evenodd" d="M284.652 624.857H279.023L277.853 627.665C277.707 628.145 277.195 628.419 276.684 628.419C276.537 628.419 276.391 628.396 276.245 628.35C275.587 628.145 275.222 627.391 275.514 626.775L280.631 614.034C280.777 613.554 281.289 613.212 281.801 613.28C282.385 613.212 282.824 613.554 283.043 614.034L288.16 626.775C288.38 627.391 288.087 628.145 287.429 628.35C287.283 628.419 287.137 628.419 286.991 628.419C286.479 628.419 285.967 628.145 285.748 627.665L284.652 624.857ZM283.701 622.459L281.874 617.801L279.973 622.459H283.701Z" fill="#263238"/>
<path d="M289.841 620.61C289.841 616.295 293.716 612.801 298.394 612.801C300.368 612.801 302.268 613.418 303.657 614.514C304.315 614.925 304.388 615.678 303.95 616.226C303.511 616.774 302.634 616.911 302.049 616.432C301.099 615.747 299.783 615.267 298.394 615.267C296.713 615.267 295.251 615.884 294.227 616.843C293.131 617.87 292.546 619.172 292.546 620.61C292.546 622.049 293.131 623.419 294.227 624.378C295.251 625.337 296.713 625.953 298.394 625.953C299.564 625.953 300.66 625.611 301.61 625.131V622.117H298.248C297.59 622.117 296.932 621.569 296.932 620.884C296.932 620.199 297.59 619.72 298.248 619.72H302.853C303.584 619.72 304.242 620.199 304.242 620.884V625.679C304.242 625.885 304.169 625.953 304.169 626.09C304.096 626.09 304.096 626.159 304.096 626.159V626.227C304.047 626.41 303.901 626.57 303.657 626.707C302.195 627.803 300.368 628.419 298.394 628.419C293.716 628.419 289.841 624.994 289.841 620.61Z" fill="#263238"/>
<path d="M309.432 627.255V614.445C309.432 613.76 309.944 613.212 310.675 613.212H310.748C310.699 613.212 310.699 613.212 310.748 613.212H318.277C318.935 613.212 319.52 613.76 319.52 614.445C319.52 615.13 318.935 615.678 318.277 615.678H311.991V619.583H317.4C318.058 619.583 318.643 620.199 318.643 620.816C318.643 621.501 318.058 622.049 317.4 622.049H311.991V626.022H318.277C318.935 626.022 319.52 626.57 319.52 627.255C319.52 627.871 318.935 628.419 318.277 628.419H310.748H310.675C309.944 628.419 309.432 627.871 309.432 627.255Z" fill="#263238"/>
<path d="M332.605 627.255C332.605 627.871 332.02 628.419 331.362 628.419C330.631 628.419 330.119 627.871 330.119 627.255V614.651C330.119 614.651 330.119 614.628 330.119 614.582C330.046 614.24 330.266 613.829 330.631 613.623C331.216 613.212 331.947 613.349 332.386 613.897L339.842 623.556V614.651C339.842 613.966 340.427 613.486 341.084 613.486C341.815 613.486 342.4 613.966 342.4 614.651V627.255C342.4 627.871 341.815 628.419 341.084 628.419C340.719 628.419 340.353 628.214 340.134 628.008C340.085 627.962 340.061 627.917 340.061 627.871L332.605 618.213V627.255Z" fill="#263238"/>
<path fill-rule="evenodd" clip-rule="evenodd" d="M359.506 615.13C360.968 616.569 361.845 618.487 361.845 620.61C361.845 622.734 360.968 624.72 359.506 626.09C358.19 627.529 356.143 628.419 354.023 628.419C351.757 628.419 349.71 627.529 348.321 626.09C346.932 624.72 346.055 622.734 346.055 620.61C346.055 618.487 346.932 616.569 348.321 615.13C349.71 613.692 351.757 612.801 354.023 612.801C356.143 612.801 358.19 613.692 359.506 615.13ZM359.213 620.61C359.213 619.103 358.628 617.802 357.678 616.843C356.655 615.815 355.412 615.267 354.023 615.267C352.488 615.267 351.245 615.815 350.222 616.843C349.272 617.802 348.687 619.103 348.687 620.61C348.687 622.117 349.272 623.419 350.222 624.378C351.245 625.337 352.488 625.953 354.023 625.953C355.412 625.953 356.655 625.337 357.678 624.378C358.628 623.419 359.213 622.117 359.213 620.61Z" fill="#263238"/>
<path d="M375.076 615.678H371.348V627.255C371.348 627.871 370.836 628.419 370.105 628.419C369.374 628.419 368.862 627.871 368.862 627.255V615.678H365.207C364.476 615.678 363.892 615.062 363.892 614.445C363.892 613.76 364.476 613.212 365.207 613.212H375.076C375.734 613.212 376.319 613.76 376.319 614.445C376.319 615.062 375.734 615.678 375.076 615.678Z" fill="#263238"/>
<path d="M387.064 627.255V614.445C387.064 613.76 387.649 613.212 388.38 613.212C388.38 613.212 388.38 613.212 388.453 613.212H395.91C396.567 613.212 397.225 613.76 397.225 614.445C397.225 615.13 396.567 615.678 395.91 615.678H389.623V619.583H395.032C395.763 619.583 396.348 620.199 396.348 620.816C396.348 621.501 395.763 622.049 395.032 622.049H389.623V627.255C389.623 627.871 389.038 628.419 388.38 628.419C387.649 628.419 387.064 627.871 387.064 627.255Z" fill="#263238"/>
<path fill-rule="evenodd" clip-rule="evenodd" d="M413.381 615.13C414.843 616.569 415.72 618.487 415.72 620.61C415.72 622.734 414.843 624.72 413.381 626.09C411.992 627.529 410.018 628.419 407.825 628.419C405.632 628.419 403.585 627.529 402.196 626.09C400.734 624.72 399.93 622.734 399.93 620.61C399.93 618.487 400.734 616.569 402.196 615.13C403.585 613.692 405.632 612.801 407.825 612.801C410.018 612.801 411.992 613.692 413.381 615.13ZM413.088 620.61C413.088 619.103 412.43 617.802 411.48 616.843C410.53 615.815 409.214 615.267 407.825 615.267C406.363 615.267 405.047 615.815 404.097 616.843C403.147 617.802 402.562 619.103 402.562 620.61C402.562 622.117 403.147 623.419 404.097 624.378C405.047 625.337 406.363 625.953 407.825 625.953C409.214 625.953 410.53 625.337 411.48 624.378C412.43 623.419 413.088 622.117 413.088 620.61Z" fill="#263238"/>
<path d="M425.954 628.419C422.226 628.419 419.229 625.611 419.229 622.117V614.445C419.229 613.76 419.813 613.212 420.544 613.212C421.202 613.212 421.86 613.76 421.86 614.445V622.117C421.86 624.309 423.688 626.022 425.954 626.022C428.22 626.022 430.047 624.309 430.047 622.117V614.445C430.047 613.76 430.632 613.212 431.363 613.212C432.094 613.212 432.606 613.76 432.606 614.445V622.117C432.606 625.611 429.682 628.419 425.954 628.419Z" fill="#263238"/>
<path d="M440.281 627.255C440.281 627.871 439.696 628.419 439.038 628.419C438.307 628.419 437.723 627.871 437.723 627.255V614.651C437.723 614.651 437.723 614.628 437.723 614.582C437.723 614.24 437.942 613.829 438.234 613.623C438.819 613.212 439.623 613.349 439.989 613.897L447.518 623.556V614.651C447.518 613.966 448.03 613.486 448.761 613.486C449.419 613.486 450.003 613.966 450.003 614.651V627.255C450.003 627.871 449.419 628.419 448.761 628.419C448.395 628.419 448.03 628.214 447.81 628.008C447.762 627.962 447.713 627.917 447.664 627.871L440.281 618.213V627.255Z" fill="#263238"/>
<path fill-rule="evenodd" clip-rule="evenodd" d="M454.39 627.255V614.445C454.39 613.76 454.974 613.212 455.705 613.212H458.41C462.869 613.212 466.451 616.637 466.451 620.816C466.451 624.994 462.869 628.419 458.41 628.419H455.705C454.974 628.419 454.39 627.871 454.39 627.255ZM456.948 626.022H458.41C461.48 626.022 463.893 623.693 463.893 620.816C463.893 617.939 461.48 615.678 458.41 615.678H456.948V626.022Z" fill="#263238"/>
<path opacity="0.2" d="M390.719 519.915C390.719 527.93 383.775 534.437 375.222 534.437C366.596 534.437 359.652 527.93 359.652 519.915C359.652 511.832 366.596 505.325 375.222 505.325C383.775 505.325 390.719 511.832 390.719 519.915Z" fill="#FF9F1C"/>
<path opacity="0.2" d="M387.138 523.203C387.138 529.368 381.801 534.369 375.222 534.369C368.57 534.369 363.234 529.368 363.234 523.203C363.234 517.038 368.57 512.038 375.222 512.038C381.801 512.038 387.138 517.038 387.138 523.203Z" fill="#FF9F1C"/>
<path d="M376.246 534.369C376.246 534.369 366.743 533.067 366.231 533.41C365.646 533.752 365.134 536.355 366.304 536.972C367.4 537.588 376.099 536.492 376.099 536.492C376.099 536.492 377.05 535.67 376.246 534.369Z" fill="#FF9F1C"/>
<path opacity="0.5" d="M376.246 534.369C376.246 534.369 366.743 533.067 366.231 533.41C365.646 533.752 365.134 536.355 366.304 536.972C367.4 537.588 376.099 536.492 376.099 536.492C376.099 536.492 377.05 535.67 376.246 534.369Z" fill="black"/>
<path opacity="0.2" d="M366.231 533.547C366.523 533.478 367.035 534.369 366.889 535.328C366.816 536.287 366.45 536.903 366.231 536.903C366.085 536.835 365.573 536.287 365.646 535.122C365.719 534.232 366.012 533.547 366.231 533.547Z" fill="white"/>
<g opacity="0.2">
<path d="M367.254 533.752C367.79 533.706 368.327 533.706 368.863 533.752C369.155 533.752 369.447 533.775 369.74 533.821C369.837 533.821 369.959 533.843 370.105 533.889C370.251 533.889 370.398 533.958 370.544 533.958C371.056 534.026 371.567 534.095 372.079 534.095C372.664 534.14 373.224 534.186 373.76 534.232C373.224 534.277 372.664 534.3 372.079 534.3C371.567 534.3 370.982 534.3 370.471 534.232C370.325 534.163 370.178 534.163 370.032 534.095C369.935 534.095 369.813 534.072 369.667 534.026C369.423 533.98 369.155 533.958 368.863 533.958L367.254 533.752Z" fill="black"/>
<path d="M368.351 534.232C368.74 534.277 369.106 534.346 369.447 534.437C369.886 534.506 370.251 534.574 370.617 534.574C370.982 534.643 371.348 534.643 371.713 534.643C372.103 534.597 372.493 534.574 372.883 534.574C372.542 534.666 372.176 534.734 371.786 534.78C371.348 534.848 370.982 534.917 370.544 534.848C370.154 534.802 369.788 534.711 369.447 534.574C369.057 534.483 368.692 534.369 368.351 534.232Z" fill="black"/>
<path d="M372.956 535.054C373.468 534.711 374.053 534.506 374.71 534.506C375.003 534.46 375.295 534.506 375.588 534.643C375.783 534.688 375.929 534.78 376.026 534.917C376.075 534.962 376.124 535.031 376.172 535.122C376.172 535.122 376.172 535.145 376.172 535.191C376.172 535.236 376.172 535.259 376.172 535.259C376.172 535.259 376.172 535.282 376.172 535.328C376.124 535.373 376.099 535.396 376.099 535.396C375.856 535.624 375.563 535.761 375.222 535.807C375.076 535.853 374.905 535.853 374.71 535.807C374.564 535.761 374.418 535.693 374.272 535.602C374.126 535.533 373.979 535.465 373.906 535.259C373.906 535.259 373.906 535.191 373.979 535.122C374.028 535.076 374.053 535.054 374.053 535.054C374.15 535.008 374.247 534.985 374.345 534.985C374.491 534.939 374.637 534.939 374.784 534.985C374.93 534.985 375.076 535.054 375.222 535.122C374.93 534.985 374.637 535.054 374.345 535.122C374.247 535.122 374.174 535.122 374.126 535.122C374.077 535.168 374.077 535.214 374.126 535.259C374.126 535.328 374.272 535.396 374.418 535.465C374.516 535.51 374.637 535.556 374.784 535.602C374.93 535.647 375.052 535.647 375.149 535.602C375.441 535.533 375.734 535.396 375.88 535.259C375.929 535.214 375.953 535.191 375.953 535.191C375.904 535.145 375.88 535.099 375.88 535.054C375.783 534.962 375.661 534.894 375.515 534.848C375.295 534.711 375.003 534.711 374.71 534.643C374.418 534.643 374.126 534.688 373.833 534.78C373.541 534.871 373.248 534.962 372.956 535.054Z" fill="black"/>
<path d="M376.173 535.944C375.783 536.127 375.368 536.241 374.93 536.287C374.735 536.287 374.54 536.287 374.345 536.287C374.101 536.287 373.882 536.241 373.687 536.15C373.322 536.013 372.956 535.807 372.591 535.67C372.25 535.487 371.884 535.35 371.494 535.259C371.86 535.259 372.298 535.328 372.664 535.465C373.102 535.602 373.395 535.807 373.76 535.944C374.15 536.081 374.54 536.127 374.93 536.081C375.32 536.081 375.734 536.035 376.173 535.944Z" fill="black"/>
<path d="M366.889 536.698C367.376 536.698 367.863 536.698 368.351 536.698C368.862 536.698 369.301 536.698 369.813 536.629C370.251 536.561 370.763 536.561 371.275 536.561C371.762 536.606 372.249 536.652 372.737 536.698L371.275 536.766C370.763 536.766 370.324 536.766 369.813 536.903C369.301 536.972 368.862 536.903 368.351 536.903C367.863 536.858 367.376 536.789 366.889 536.698Z" fill="black"/>
<path d="M373.468 536.424C373.078 536.287 372.688 536.195 372.298 536.15C372.055 536.104 371.835 536.058 371.64 536.013C371.421 536.013 371.275 536.013 371.056 536.013C370.666 536.104 370.251 536.195 369.813 536.287C369.618 536.287 369.423 536.309 369.228 536.355C369.009 536.355 368.79 536.355 368.57 536.287C368.375 536.241 368.156 536.195 367.912 536.15C367.766 536.081 367.547 536.013 367.327 535.807C367.327 535.761 367.303 535.693 367.254 535.602C367.254 535.556 367.279 535.487 367.327 535.396C367.401 535.259 367.474 535.259 367.62 535.191C367.815 535.099 368.034 535.054 368.278 535.054C368.473 535.054 368.668 535.076 368.863 535.122C369.082 535.122 369.301 535.191 369.52 535.328C369.52 535.328 369.594 535.396 369.594 535.465C369.594 535.533 369.52 535.602 369.447 535.602C369.35 535.647 369.252 535.67 369.155 535.67C368.96 535.67 368.765 535.67 368.57 535.67C368.765 535.67 368.96 535.647 369.155 535.602C369.301 535.602 369.667 535.465 369.447 535.396C369.301 535.328 369.082 535.259 368.863 535.259C368.668 535.259 368.473 535.259 368.278 535.259C368.083 535.305 367.888 535.35 367.693 535.396C367.62 535.396 367.547 535.465 367.547 535.533C367.498 535.579 367.498 535.624 367.547 535.67C367.693 535.739 367.839 535.876 368.058 535.876C368.253 535.967 368.448 536.035 368.643 536.081C369.009 536.15 369.374 536.081 369.813 536.013C370.251 535.944 370.617 535.876 371.056 535.876C371.153 535.83 371.251 535.807 371.348 535.807C371.494 535.807 371.616 535.83 371.713 535.876C371.908 535.921 372.103 535.967 372.298 536.013C372.688 536.104 373.078 536.241 373.468 536.424Z" fill="black"/>
<path d="M370.836 535.328C370.251 535.191 369.739 535.054 369.155 534.917L368.35 534.711C368.131 534.643 367.839 534.574 367.546 534.574C367.839 534.506 368.131 534.506 368.424 534.574C368.716 534.574 368.984 534.62 369.228 534.711C369.813 534.848 370.324 535.054 370.836 535.328Z" fill="black"/>
</g>
<path d="M374.93 534.3C374.93 534.3 384.433 533.136 385.018 533.478C385.603 533.821 386.041 536.424 384.945 537.04C383.775 537.657 375.076 536.424 375.076 536.424C375.076 536.424 374.126 535.602 374.93 534.3Z" fill="#FF9F1C"/>
<path opacity="0.5" d="M374.93 534.3C374.93 534.3 384.433 533.136 385.018 533.478C385.603 533.821 386.041 536.424 384.945 537.04C383.775 537.657 375.076 536.424 375.076 536.424C375.076 536.424 374.126 535.602 374.93 534.3Z" fill="black"/>
<path opacity="0.2" d="M384.945 533.547C384.652 533.478 384.214 534.369 384.287 535.396C384.36 536.287 384.725 536.972 384.945 536.903C385.091 536.903 385.603 536.355 385.53 535.122C385.457 534.3 385.237 533.615 384.945 533.547Z" fill="white"/>
<g opacity="0.2">
<path d="M375.295 536.15L376.904 536.218C377.196 536.218 377.464 536.218 377.708 536.218C377.854 536.218 378 536.218 378.146 536.218C378.219 536.218 378.439 536.218 378.512 536.218C379.097 536.218 379.608 536.287 380.193 536.355C380.729 536.446 381.265 536.561 381.801 536.698C381.216 536.652 380.656 536.606 380.12 536.561C379.608 536.492 379.097 536.424 378.512 536.424C378.366 536.424 378.292 536.492 378.146 536.492C378 536.492 377.854 536.492 377.708 536.492C377.464 536.492 377.196 536.469 376.904 536.424C376.368 536.378 375.831 536.287 375.295 536.15Z" fill="black"/>
<path d="M376.246 536.15C376.635 536.013 377.025 535.899 377.415 535.807C377.805 535.762 378.195 535.716 378.585 535.67C378.95 535.67 379.389 535.739 379.754 535.807C380.144 535.899 380.51 535.99 380.851 536.081C380.461 536.081 380.071 536.058 379.681 536.013C379.316 535.944 378.95 535.876 378.585 535.944C378.219 535.944 377.854 536.013 377.415 536.013C377.025 536.058 376.635 536.104 376.246 536.15Z" fill="black"/>
<path d="M380.997 535.602C381.241 535.784 381.509 535.921 381.801 536.013C382.094 536.104 382.386 536.15 382.678 536.15C382.971 536.15 383.263 536.15 383.482 536.013C383.629 535.967 383.75 535.921 383.848 535.876C383.897 535.83 383.921 535.784 383.921 535.739C383.921 535.693 383.921 535.67 383.921 535.67C383.702 535.465 383.482 535.328 383.19 535.259C383.093 535.213 382.971 535.213 382.825 535.259C382.678 535.259 382.532 535.282 382.386 535.328C382.313 535.396 382.167 535.465 382.094 535.533C382.094 535.579 382.118 535.602 382.167 535.602C382.215 535.647 382.264 535.67 382.313 535.67C382.605 535.807 382.898 535.807 383.19 535.739C383.117 535.807 382.898 535.807 382.751 535.876C382.605 535.876 382.459 535.853 382.313 535.807C382.215 535.807 382.142 535.784 382.094 535.739C382.045 535.739 381.996 535.716 381.947 535.67C381.947 535.602 381.947 535.533 381.947 535.465C382.02 535.328 382.167 535.259 382.313 535.191C382.459 535.099 382.605 535.031 382.751 534.985C382.946 534.985 383.117 535.008 383.263 535.054C383.604 535.099 383.897 535.259 384.14 535.533C384.14 535.533 384.165 535.556 384.213 535.602C384.213 535.647 384.213 535.67 384.213 535.67C384.213 535.67 384.213 535.693 384.213 535.739C384.213 535.784 384.213 535.807 384.213 535.807C384.165 535.898 384.092 535.967 383.994 536.013C383.897 536.15 383.751 536.241 383.556 536.287C383.263 536.378 382.946 536.401 382.605 536.355C382.02 536.287 381.436 536.013 380.997 535.602Z" fill="black"/>
<path d="M384.213 534.985C383.824 534.894 383.434 534.825 383.044 534.78C382.654 534.734 382.264 534.757 381.874 534.848C381.509 534.917 381.143 535.054 380.705 535.191C380.339 535.328 379.901 535.396 379.462 535.328C379.901 535.282 380.29 535.191 380.632 535.054C380.997 534.848 381.363 534.711 381.801 534.574C381.996 534.528 382.215 534.506 382.459 534.506C382.654 534.506 382.849 534.528 383.044 534.574C383.482 534.665 383.872 534.802 384.213 534.985Z" fill="black"/>
<path d="M378.512 534.163C378.999 534.072 379.486 534.003 379.974 533.958C380.485 533.889 380.924 533.889 381.436 533.958C381.947 534.026 382.386 534.026 382.898 534.026L384.36 534.095C383.872 534.186 383.385 534.232 382.898 534.232C382.386 534.232 381.874 534.3 381.436 534.163C380.997 534.095 380.485 534.163 379.974 534.163C379.486 534.163 378.999 534.163 378.512 534.163Z" fill="black"/>
<path d="M381.582 534.369C381.192 534.46 380.802 534.551 380.412 534.643C380.169 534.688 379.95 534.711 379.755 534.711C379.657 534.757 379.56 534.78 379.462 534.78C379.316 534.734 379.194 534.711 379.097 534.711C378.731 534.643 378.293 534.506 377.927 534.437C377.488 534.369 377.123 534.3 376.684 534.3C376.489 534.346 376.295 534.391 376.1 534.437C375.953 534.506 375.734 534.574 375.588 534.643C375.539 534.688 375.539 534.734 375.588 534.78C375.588 534.848 375.661 534.917 375.734 534.917C375.929 535.008 376.124 535.054 376.319 535.054C376.514 535.099 376.709 535.122 376.904 535.122C377.123 535.122 377.342 535.122 377.488 535.054C377.708 534.985 377.415 534.848 377.196 534.78C377.001 534.734 376.806 534.711 376.611 534.711C376.806 534.711 377.001 534.711 377.196 534.711C377.342 534.757 377.464 534.802 377.562 534.848C377.562 534.848 377.635 534.917 377.635 534.985C377.635 535.054 377.562 535.122 377.562 535.122C377.342 535.259 377.123 535.259 376.904 535.259C376.709 535.305 376.489 535.305 376.246 535.259C376.051 535.259 375.856 535.213 375.661 535.122C375.515 535.054 375.442 534.985 375.369 534.848C375.32 534.802 375.32 534.734 375.369 534.643C375.369 534.597 375.393 534.551 375.442 534.506C375.661 534.3 375.88 534.232 376.026 534.163C376.27 534.117 376.489 534.095 376.684 534.095C376.904 534.026 377.123 534.095 377.342 534.095C377.537 534.14 377.732 534.186 377.927 534.232C378.366 534.323 378.78 534.414 379.17 534.506C379.389 534.574 379.535 534.574 379.755 534.574C379.95 534.574 380.144 534.551 380.339 534.506C380.778 534.46 381.192 534.414 381.582 534.369Z" fill="black"/>
<path d="M378.804 535.259C378.292 535.465 377.781 535.602 377.196 535.739C376.952 535.784 376.684 535.807 376.392 535.807C376.099 535.807 375.807 535.807 375.515 535.67C375.807 535.739 376.099 535.67 376.392 535.602L377.196 535.465C377.708 535.396 378.292 535.259 378.804 535.259Z" fill="black"/>
<path d="M381.363 536.218C381.801 536.355 382.167 536.492 382.606 536.561C382.849 536.606 383.068 536.652 383.263 536.698C383.458 536.698 383.678 536.698 383.921 536.698C383.726 536.789 383.507 536.835 383.263 536.835C383.02 536.88 382.776 536.857 382.532 536.766C382.337 536.72 382.143 536.652 381.948 536.561C381.704 536.469 381.509 536.355 381.363 536.218Z" fill="black"/>
</g>
<path d="M382.825 515.462C382.825 515.599 382.971 515.737 383.19 515.737C383.336 515.737 383.483 515.599 383.483 515.462C383.483 515.325 383.336 515.188 383.19 515.188C382.971 515.188 382.825 515.325 382.825 515.462Z" fill="#FF9F1C"/>
<path d="M379.682 503.612C379.682 503.749 379.828 503.886 379.974 503.886C380.193 503.886 380.266 503.749 380.266 503.612C380.266 503.475 380.193 503.338 379.974 503.338C379.828 503.338 379.682 503.475 379.682 503.612Z" fill="#FF9F1C"/>
<path d="M368.424 513.682C368.57 513.75 368.79 513.75 368.863 513.613C368.936 513.476 368.936 513.339 368.79 513.202C368.717 513.134 368.497 513.134 368.424 513.271C368.278 513.408 368.351 513.545 368.424 513.682Z" fill="#FF9F1C"/>
<path d="M365.792 530.533C365.792 530.67 365.939 530.807 366.085 530.807C366.304 530.807 366.377 530.67 366.377 530.533C366.377 530.327 366.304 530.19 366.085 530.19C365.939 530.19 365.792 530.327 365.792 530.533Z" fill="#FF9F1C"/>
<path d="M384.214 528.615C384.214 528.752 384.36 528.889 384.506 528.889C384.652 528.889 384.799 528.752 384.799 528.615C384.799 528.478 384.652 528.341 384.506 528.341C384.36 528.341 384.214 528.478 384.214 528.615Z" fill="#FF9F1C"/>
<path d="M382.459 517.244C382.459 517.449 382.606 517.655 382.825 517.655C383.044 517.655 383.264 517.449 383.264 517.244C383.264 517.038 383.044 516.901 382.825 516.901C382.606 516.901 382.459 517.038 382.459 517.244Z" fill="#FF9F1C"/>
<path d="M370.032 510.599C370.251 510.668 370.471 510.668 370.617 510.531C370.763 510.325 370.69 510.12 370.544 509.983C370.398 509.846 370.105 509.914 369.959 510.051C369.813 510.188 369.886 510.462 370.032 510.599Z" fill="#FF9F1C"/>
<path d="M366.597 524.368C366.597 524.573 366.743 524.779 366.962 524.779C367.181 524.779 367.401 524.573 367.401 524.368C367.401 524.162 367.181 524.025 366.962 524.025C366.743 524.025 366.597 524.162 366.597 524.368Z" fill="#FF9F1C"/>
<path d="M381.801 516.695C381.801 516.832 381.874 516.901 382.021 516.901C382.094 516.901 382.167 516.832 382.167 516.695C382.167 516.627 382.094 516.558 382.021 516.558C381.874 516.558 381.801 516.627 381.801 516.695Z" fill="#FF9F1C"/>
<path d="M383.263 521.97C383.263 522.039 383.409 522.107 383.482 522.107C383.556 522.107 383.629 522.039 383.629 521.97C383.629 521.902 383.556 521.765 383.482 521.765C383.409 521.765 383.263 521.902 383.263 521.97Z" fill="#FF9F1C"/>
<path d="M385.529 527.176C385.529 527.245 385.602 527.313 385.749 527.313C385.822 527.313 385.895 527.245 385.895 527.176C385.895 527.039 385.822 526.971 385.749 526.971C385.602 526.971 385.529 527.039 385.529 527.176Z" fill="#FF9F1C"/>
<path d="M366.012 523.203C366.012 523.34 366.085 523.409 366.158 523.409C366.231 523.409 366.377 523.34 366.377 523.203C366.377 523.135 366.231 523.066 366.158 523.066C366.085 523.066 366.012 523.135 366.012 523.203Z" fill="#FF9F1C"/>
<path d="M384.141 511.627C384.141 511.695 384.214 511.764 384.36 511.764C384.433 511.764 384.506 511.695 384.506 511.627C384.506 511.49 384.433 511.421 384.36 511.421C384.214 511.421 384.141 511.49 384.141 511.627Z" fill="#FF9F1C"/>
<path d="M376.246 510.12C376.246 510.188 376.319 510.257 376.392 510.257C376.465 510.257 376.538 510.188 376.538 510.12C376.538 510.051 376.465 509.914 376.392 509.914C376.319 509.914 376.246 510.051 376.246 510.12Z" fill="#FF9F1C"/>
<path d="M374.93 507.654C374.93 507.791 375.003 507.859 375.076 507.859C375.223 507.859 375.296 507.791 375.296 507.654C375.296 507.585 375.223 507.517 375.076 507.517C375.003 507.517 374.93 507.585 374.93 507.654Z" fill="#FF9F1C"/>
<path fill-rule="evenodd" clip-rule="evenodd" d="M367.182 532.656C367.255 532.108 367.693 531.149 367.766 530.738C367.84 530.327 367.255 529.094 367.401 528.614C367.474 528.066 368.571 526.902 368.571 526.902C368.571 526.902 368.497 528.203 368.571 528.34C368.644 528.546 368.936 528.82 369.009 528.751C369.082 528.683 368.497 526.217 368.571 525.463C368.644 524.71 370.544 521.833 370.252 522.312C370.033 522.723 369.448 524.71 369.521 525.121C369.594 525.463 370.398 527.107 370.617 527.792C370.837 528.546 370.325 529.71 370.325 529.847C370.398 529.984 371.129 529.847 371.495 529.505C371.86 529.162 371.202 527.244 371.056 526.765C370.837 526.285 371.568 523.682 371.86 523.34C372.079 522.997 374.711 522.518 374.857 522.244C375.003 521.901 373.834 520.668 373.98 520.394C374.053 520.12 375.223 519.504 375.515 519.161C375.881 518.819 375.515 517.243 375.515 517.243C375.515 517.243 377.416 520.052 377.489 520.874C377.562 521.627 376.977 522.244 376.904 522.518C376.831 522.723 377.562 524.71 377.854 524.915C378.147 525.189 378.731 525.463 379.389 525.806C380.047 526.217 380.34 527.313 380.34 527.313C380.413 526.833 379.828 525.737 379.755 525.395C379.682 525.052 380.998 522.655 380.998 522.312C380.924 521.97 379.974 520.874 379.901 520.394C379.828 519.915 381.875 517.928 381.875 517.928C381.875 517.928 380.924 520.189 381.144 520.874C381.436 521.49 383.848 525.326 383.848 526.148C383.775 526.902 383.117 529.231 383.191 529.642C383.191 530.053 384.068 532.039 383.922 532.587C383.775 533.135 381.582 534.985 381.144 535.259C380.705 535.533 379.682 535.122 379.243 535.259C378.878 535.396 375.954 536.012 375.954 536.012H374.784C374.784 536.012 370.398 535.464 369.155 534.779C368.717 534.505 367.109 533.204 367.182 532.656ZM381.217 528.82C381.217 528.82 380.559 529.642 380.778 530.327C380.924 530.943 381.144 531.217 381.144 531.56C381.144 531.902 380.998 532.724 380.998 532.724C381.071 532.656 381.655 531.56 381.729 531.012C381.729 530.395 381.217 528.82 381.217 528.82ZM380.778 534.779C381.217 534.574 382.386 533.546 382.533 533.135C382.679 532.656 382.386 531.217 382.386 531.217C382.386 531.217 382.094 532.656 381.875 532.93C381.729 533.204 380.632 533.683 380.34 533.957C379.974 534.3 379.243 534.848 379.243 534.848C379.243 534.848 380.413 534.985 380.778 534.779ZM370.398 533.204C370.617 534.026 371.86 534.574 371.86 534.574C371.86 534.574 371.641 533.752 371.421 533.409C371.202 533.135 370.91 532.519 370.91 532.039C370.91 531.56 371.495 530.601 371.495 530.532C371.421 530.601 370.252 532.382 370.398 533.204Z" fill="#FF9F1C"/>
<path d="M379.828 518.408C379.828 518.408 381.071 517.586 381.144 516.969C381.144 516.284 380.34 514.983 380.413 514.435C380.486 513.955 380.778 513.407 380.778 513.407C380.778 513.407 379.462 514.298 379.462 514.983C379.462 515.736 380.267 516.832 380.193 517.175C380.12 517.517 379.828 518.408 379.828 518.408Z" fill="#FF9F1C"/>
<path d="M372.226 522.313C372.226 522.313 372.518 521.491 372.445 521.148C372.445 520.806 372.006 520.395 372.006 520.395C372.006 520.395 371.641 520.737 371.86 521.217C372.006 521.765 372.226 522.313 372.226 522.313Z" fill="#FF9F1C"/>
<path d="M369.082 522.176C369.155 522.107 369.74 521.217 369.813 520.395C369.886 519.573 369.448 518.545 369.302 518.271C369.155 517.997 368.424 517.655 368.424 517.655C368.424 517.655 368.936 518.271 368.936 518.614C368.936 518.888 368.717 519.847 368.644 520.258C368.644 520.6 369.082 522.176 369.082 522.176Z" fill="#FF9F1C"/>
<path d="M377.342 517.243C377.342 517.243 378.293 516.011 378.146 515.257C377.927 514.435 377.196 513.407 376.904 513.133C376.611 512.859 375.953 512.243 375.661 511.832C375.369 511.421 375.296 509.846 375.661 509.435C375.953 509.092 376.465 508.818 376.465 508.818C376.465 508.818 375.149 508.749 374.345 509.845C373.468 510.941 372.445 515.188 372.956 516.147C373.395 517.106 374.857 518.065 374.857 518.065C374.857 518.065 374.491 516.353 374.565 515.942C374.711 515.531 376.027 515.942 376.392 516.216C376.684 516.49 377.342 517.243 377.342 517.243Z" fill="#FF9F1C"/>
<path d="M379.536 523.272C379.536 523.272 380.12 522.655 379.974 522.176C379.901 521.696 379.097 520.943 379.097 520.737C379.024 520.463 379.243 519.504 379.243 519.504C379.243 519.504 378.512 520.874 378.658 521.285C378.805 521.696 379.024 522.313 379.024 522.313C379.024 522.313 378.658 522.107 378.585 521.97C378.512 521.765 378.439 521.491 378.439 521.491C378.439 521.491 377.854 522.176 378.074 522.655C378.22 523.066 379.243 523.957 379.243 523.957C379.243 523.957 379.17 523.683 379.243 523.546C379.243 523.409 379.316 523.477 379.536 523.272Z" fill="#FF9F1C"/>
<g opacity="0.4">
<path d="M375.442 536.013C375.442 536.013 378.951 534.848 379.682 533.204C380.194 532.177 378.878 529.985 378.805 529.711C378.659 529.368 378.805 528.067 378.659 527.519C378.439 526.971 376.027 525.669 375.808 525.258C375.588 524.916 376.173 523.477 376.173 523.477C376.173 523.477 374.346 524.916 374.053 525.738C373.761 526.491 374.857 528.067 374.857 528.341C374.857 528.615 374.2 529.505 374.2 529.505C374.2 529.505 373.761 528.889 373.688 528.341C373.688 527.793 373.98 527.519 373.907 527.176C373.834 526.765 373.103 526.012 373.103 526.012C373.103 526.012 373.542 526.697 373.322 527.176C373.103 527.587 372.153 528.478 372.299 529.163C372.445 529.916 373.542 531.492 373.469 531.971C373.395 532.382 373.103 532.725 373.103 532.725C373.103 532.725 372.811 532.04 372.738 531.629C372.591 531.149 372.518 530.601 372.518 530.601C372.518 530.601 371.933 533.478 372.518 534.3C373.103 535.054 375.442 536.013 375.442 536.013Z" fill="white"/>
<path d="M376.392 515.942C376.392 515.874 376.831 515.12 376.831 514.641C376.831 514.23 376.027 513.682 375.588 513.339C375.223 512.997 374.418 511.969 374.492 511.421C374.565 510.873 374.638 510.462 374.638 510.462C374.638 510.462 373.541 513.545 373.614 514.504C373.614 515.531 374.272 516.148 374.272 516.148C374.272 516.148 374.492 515.189 374.93 515.189C375.588 515.257 376.392 515.942 376.392 515.942Z" fill="white"/>
<path d="M380.121 517.997C380.121 517.997 380.852 517.381 380.852 516.901C380.852 516.49 380.121 515.257 380.121 515.257C380.121 515.257 380.413 516.696 380.486 516.97C380.559 517.244 380.121 517.997 380.121 517.997Z" fill="white"/>
<path d="M371.568 534.985C371.568 534.985 370.033 534.094 369.813 533.889C369.521 533.683 369.082 532.45 369.155 532.176C369.155 531.902 369.667 530.806 369.667 530.532C369.667 530.258 368.644 529.162 368.644 529.162C368.644 529.162 369.009 530.19 368.936 530.395C368.863 530.669 367.547 532.108 367.693 532.656C367.767 533.135 368.936 534.094 369.302 534.368C369.667 534.574 371.568 534.985 371.568 534.985Z" fill="white"/>
<path d="M382.167 529.3C382.167 529.3 383.191 526.902 383.118 526.286C382.971 525.601 381.802 523.203 381.802 523.203C381.802 523.203 381.948 525.258 382.021 525.601C382.094 525.943 381.802 526.902 381.802 526.902C381.802 526.902 381.509 526.217 381.436 525.943C381.363 525.669 381.583 524.642 381.583 524.642C381.583 524.642 380.852 526.491 381.071 527.176C381.217 527.861 382.167 529.3 382.167 529.3Z" fill="white"/>
</g>
</svg>
