<svg width="33" height="33" viewBox="0 0 33 33" fill="none" xmlns="http://www.w3.org/2000/svg">
<path d="M30.7633 14.858H29.4133L25.9408 7.04547C25.7837 6.692 25.5274 6.3917 25.203 6.18093C24.8787 5.97016 24.5001 5.85798 24.1133 5.85797H9.41331C9.02648 5.85798 8.64796 5.97016 8.3236 6.18093C7.99923 6.3917 7.74295 6.692 7.58581 7.04547L4.11331 14.858H2.76331C2.49809 14.858 2.24374 14.9633 2.0562 15.1509C1.86866 15.3384 1.76331 15.5928 1.76331 15.858C1.76331 16.1232 1.86866 16.3775 2.0562 16.5651C2.24374 16.7526 2.49809 16.858 2.76331 16.858H3.76331V26.858C3.76331 27.3884 3.97402 27.8971 4.34909 28.2722C4.72416 28.6473 5.23287 28.858 5.76331 28.858H8.76331C9.29374 28.858 9.80245 28.6473 10.1775 28.2722C10.5526 27.8971 10.7633 27.3884 10.7633 26.858V24.858H22.7633V26.858C22.7633 27.3884 22.974 27.8971 23.3491 28.2722C23.7242 28.6473 24.2329 28.858 24.7633 28.858H27.7633C28.2937 28.858 28.8024 28.6473 29.1775 28.2722C29.5526 27.8971 29.7633 27.3884 29.7633 26.858V16.858H30.7633C31.0285 16.858 31.2829 16.7526 31.4704 16.5651C31.6579 16.3775 31.7633 16.1232 31.7633 15.858C31.7633 15.5928 31.6579 15.3384 31.4704 15.1509C31.2829 14.9633 31.0285 14.858 30.7633 14.858ZM9.41331 7.85797H24.1133L27.2246 14.858H6.30206L9.41331 7.85797ZM8.76331 26.858H5.76331V24.858H8.76331V26.858ZM24.7633 26.858V24.858H27.7633V26.858H24.7633ZM27.7633 22.858H5.76331V16.858H27.7633V22.858ZM7.76331 19.858C7.76331 19.5928 7.86866 19.3384 8.0562 19.1509C8.24374 18.9633 8.49809 18.858 8.76331 18.858H10.7633C11.0285 18.858 11.2829 18.9633 11.4704 19.1509C11.6579 19.3384 11.7633 19.5928 11.7633 19.858C11.7633 20.1232 11.6579 20.3775 11.4704 20.5651C11.2829 20.7526 11.0285 20.858 10.7633 20.858H8.76331C8.49809 20.858 8.24374 20.7526 8.0562 20.5651C7.86866 20.3775 7.76331 20.1232 7.76331 19.858ZM21.7633 19.858C21.7633 19.5928 21.8687 19.3384 22.0562 19.1509C22.2437 18.9633 22.4981 18.858 22.7633 18.858H24.7633C25.0285 18.858 25.2829 18.9633 25.4704 19.1509C25.6579 19.3384 25.7633 19.5928 25.7633 19.858C25.7633 20.1232 25.6579 20.3775 25.4704 20.5651C25.2829 20.7526 25.0285 20.858 24.7633 20.858H22.7633C22.4981 20.858 22.2437 20.7526 22.0562 20.5651C21.8687 20.3775 21.7633 20.1232 21.7633 19.858Z" fill="black"/>
</svg>
