<svg width="500" height="500" viewBox="0 0 500 500" fill="none" xmlns="http://www.w3.org/2000/svg">
<path fill-rule="evenodd" clip-rule="evenodd" d="M92.65 317.15L77.8 317.4L70.3 317.55C67.8 317.6 65.25 317.55 62.75 317.6H62.3V317.15L62.25 304.5V304H62.75L77.7 304.1C82.65 304.1 87.65 304.2 92.65 304.25H92.9V304.5C92.9 306.65 92.8 308.8 92.8 310.9L92.65 317.15ZM92.65 317.15L92.5 310.75C92.45 308.75 92.4 306.75 92.35 304.8C87.45 304.85 82.55 304.95 77.7 304.95L63.25 305L63.2 316.7C65.5 316.7 67.8 316.7 70.15 316.75L77.55 316.85L92.65 317.15ZM92.4 304.8C92.5 304.8 92.5833 304.8 92.65 304.8L92.4 304.55C92.4 304.617 92.4 304.7 92.4 304.8ZM63.25 305V304.55L62.75 305H63.25ZM63.2 316.7C63.0667 316.7 62.9167 316.7 62.75 316.7L63.2 317.15V316.7Z" fill="#FF9F1C"/>
<path fill-rule="evenodd" clip-rule="evenodd" d="M75.9498 333.05L61.1498 333.35L53.5998 333.45C51.0998 333.5 48.5998 333.5 46.0498 333.5H45.5998V333.05L45.5498 320.45V319.95H46.0498L60.9998 320C65.9998 320 70.9998 320.1 75.9498 320.15H76.2498V320.45C76.1998 322.6 76.1498 324.7 76.0998 326.8L75.9498 333.05ZM75.9498 333.05L75.7998 326.7C75.7498 324.7 75.6998 322.7 75.6998 320.7C70.7998 320.75 65.8998 320.85 60.9998 320.85L46.5498 320.95L46.4998 332.6C48.7998 332.65 51.1498 332.65 53.4498 332.7L60.8998 332.8L75.9498 333.05ZM75.6498 320.7C75.7498 320.7 75.8498 320.7 75.9498 320.7L75.6498 320.4C75.6498 320.5 75.6498 320.6 75.6498 320.7ZM46.5498 320.9V320.4L46.0498 320.9H46.5498ZM46.4998 332.6C46.3331 332.6 46.1831 332.6 46.0498 332.6L46.4998 333.05V332.6Z" fill="#FF9F1C"/>
<path fill-rule="evenodd" clip-rule="evenodd" d="M75.9498 59.7L61.1498 60L53.5998 60.1C51.0998 60.15 48.5998 60.15 46.0498 60.15H45.5998V59.7L45.5498 47.1V46.6H46.0498L60.9998 46.65C65.9998 46.65 70.9998 46.75 75.9498 46.8H76.2498V47.1C76.1998 49.2 76.1498 51.35 76.0998 53.45L75.9498 59.7ZM75.9498 59.7L75.7998 53.35C75.7498 51.3 75.6998 49.35 75.6998 47.35C70.7998 47.4 65.8998 47.5 60.9998 47.5L46.5498 47.55L46.4998 59.25C48.7998 59.3 51.1498 59.25 53.4498 59.3L60.8998 59.45L75.9498 59.7ZM75.6498 47.3C75.7498 47.3 75.8498 47.3 75.9498 47.3L75.6498 47.05C75.6498 47.15 75.6498 47.2333 75.6498 47.3ZM46.5498 47.55V47.05L46.0498 47.55H46.5498ZM46.4998 59.25C46.3331 59.25 46.1831 59.25 46.0498 59.25L46.4998 59.7V59.25Z" fill="#FF9F1C"/>
<path fill-rule="evenodd" clip-rule="evenodd" d="M453.95 59.7L439.1 60L431.6 60.1C429.1 60.15 426.55 60.15 424.05 60.15H423.6V59.7L423.55 47.1V46.6H424.05L439 46.65C443.95 46.65 448.95 46.75 453.95 46.8H454.2V47.1C454.2 49.2 454.1 51.35 454.1 53.45L453.95 59.7ZM453.95 59.7L453.8 53.35C453.75 51.3 453.7 49.35 453.65 47.35C448.75 47.4 443.85 47.5 439 47.5L424.55 47.55L424.5 59.25C426.8 59.3 429.1 59.25 431.45 59.3L438.85 59.45L453.95 59.7ZM453.7 47.3C453.8 47.3 453.883 47.3 453.95 47.3L453.7 47.05C453.7 47.15 453.7 47.2333 453.7 47.3ZM424.55 47.55V47.05L424.05 47.55H424.55ZM424.5 59.25C424.366 59.25 424.216 59.25 424.05 59.25L424.5 59.7V59.25Z" fill="#FF9F1C"/>
<path fill-rule="evenodd" clip-rule="evenodd" d="M437.25 75.65L422.45 75.9L414.9 76.05C412.4 76.1 409.9 76.05 407.35 76.1H406.9V75.65L406.85 63V62.5H407.35L422.3 62.55C427.3 62.6 432.3 62.7 437.25 62.75H437.55V63C437.5 65.15 437.45 67.3 437.4 69.4L437.25 75.65ZM437.25 75.65L437.1 69.25C437.05 67.25 437 65.25 437 63.3C432.1 63.35 427.2 63.45 422.3 63.45L407.85 63.5L407.8 75.2C410.1 75.2 412.45 75.2 414.75 75.25L422.2 75.35L437.25 75.65ZM436.95 63.3C437.05 63.3 437.15 63.3 437.25 63.3L436.95 63C436.95 63.1 436.95 63.2 436.95 63.3ZM407.85 63.5V63L407.35 63.5H407.85ZM407.8 75.2C407.633 75.2 407.483 75.2 407.35 75.2L407.8 75.65V75.2Z" fill="#FF9F1C"/>
<path fill-rule="evenodd" clip-rule="evenodd" d="M360.7 223.45L345.85 223.7L338.35 223.85C335.85 223.9 333.3 223.85 330.8 223.9H330.35V223.45L330.3 210.8V210.3H330.8L345.75 210.35C350.75 210.35 355.7 210.5 360.7 210.55H360.95V210.8C360.95 212.95 360.9 215.05 360.85 217.2L360.7 223.45ZM360.7 223.45L360.55 217.05C360.5 215.05 360.45 213.05 360.4 211.05C355.5 211.1 350.65 211.25 345.75 211.25L331.3 211.3L331.25 223C333.55 223 335.85 223 338.2 223.05L345.6 223.15L360.7 223.45ZM360.45 211.1C360.55 211.1 360.633 211.1 360.7 211.1L360.45 210.8C360.45 210.9 360.45 211 360.45 211.1ZM331.3 211.3V210.8L330.8 211.3H331.3ZM331.25 223C331.116 223 330.983 223 330.85 223L331.25 223.45V223Z" fill="#FF9F1C"/>
<path fill-rule="evenodd" clip-rule="evenodd" d="M344 239.35L329.2 239.65L321.65 239.75C319.15 239.8 316.65 239.8 314.1 239.8H313.65V239.35L313.6 226.75V226.25H314.1L329.05 226.3C334.05 226.3 339.05 226.4 344 226.45H344.3V226.75C344.25 228.85 344.2 231 344.15 233.1L344 239.35ZM344 239.35L343.85 233C343.8 230.95 343.75 229 343.75 227C338.85 227.05 333.95 227.15 329.05 227.15L314.6 227.2L314.55 238.9C316.85 238.95 319.2 238.9 321.5 238.95L328.95 239.1L344 239.35ZM343.7 226.95C343.8 226.95 343.9 226.95 344 226.95L343.7 226.7C343.7 226.8 343.7 226.883 343.7 226.95ZM314.6 227.2V226.7L314.1 227.2H314.6ZM314.55 238.9C314.383 238.9 314.233 238.9 314.1 238.9L314.55 239.35V238.9Z" fill="#FF9F1C"/>
<path fill-rule="evenodd" clip-rule="evenodd" d="M327.4 223.45L312.55 223.7L305.05 223.85C302.55 223.9 300 223.85 297.5 223.9H297.05V223.45L297 210.8V210.3H297.5L312.45 210.35C317.45 210.35 322.4 210.5 327.4 210.55H327.7V210.8C327.65 212.95 327.6 215.05 327.55 217.2L327.4 223.45ZM327.4 223.45L327.25 217.05C327.2 215.05 327.15 213.05 327.1 211.05C322.25 211.1 317.35 211.25 312.45 211.25L298 211.3L297.95 223C300.25 223 302.6 223 304.9 223.05L312.35 223.15L327.4 223.45ZM327.1 211.1C327.2 211.1 327.3 211.1 327.4 211.1L327.1 210.8C327.1 210.9 327.1 211 327.1 211.1ZM298 211.3V210.8L297.5 211.3H298ZM297.95 223C297.783 223 297.633 223 297.5 223L297.95 223.45V223Z" fill="#FF9F1C"/>
<path fill-rule="evenodd" clip-rule="evenodd" d="M453.95 333.05L439.1 333.35L431.6 333.45C429.1 333.5 426.55 333.5 424.05 333.5H423.6V333.05L423.55 320.45V319.95H424.05L439 320C443.95 320 448.95 320.1 453.95 320.15H454.2V320.45C454.2 322.6 454.1 324.7 454.1 326.8L453.95 333.05ZM453.95 333.05L453.8 326.7C453.75 324.7 453.7 322.7 453.65 320.7C448.75 320.75 443.85 320.85 439 320.85L424.55 320.95L424.5 332.6C426.8 332.65 429.1 332.65 431.45 332.7L438.85 332.8L453.95 333.05ZM453.7 320.7C453.8 320.7 453.883 320.7 453.95 320.7L453.7 320.4C453.7 320.5 453.7 320.6 453.7 320.7ZM424.55 320.9V320.4L424.05 320.9H424.55ZM424.5 332.6C424.366 332.6 424.216 332.6 424.05 332.6L424.5 333.05V332.6Z" fill="#FF9F1C"/>
<path fill-rule="evenodd" clip-rule="evenodd" d="M199.95 97.3L185.1 97.55L177.6 97.65C175.05 97.7 172.55 97.7 170.05 97.75H169.6V97.3L169.55 84.65V84.15H170.05L185 84.2C189.95 84.2 194.95 84.3 199.95 84.4H200.2V84.65C200.2 86.8 200.1 88.9 200.05 91L199.95 97.3ZM199.95 97.3L199.85 90.95C199.8 88.95 199.7 86.95 199.7 84.95C194.8 85 189.9 85.1 185 85.15L170.55 85.2L170.5 96.9C172.85 96.9 175.15 96.9 177.45 96.95L184.9 97.05L199.95 97.3ZM199.7 84.95C199.766 84.95 199.85 84.95 199.95 84.95L199.7 84.65C199.7 84.75 199.7 84.85 199.7 84.95ZM170.55 85.15V84.65L170.05 85.15H170.55ZM170.5 96.85C170.366 96.85 170.216 96.85 170.05 96.85L170.5 97.3V96.85Z" fill="#FF9F1C"/>
<path fill-rule="evenodd" clip-rule="evenodd" d="M420.3 179.15C419.45 178.65 418.4 178.65 417.55 179.2C417.317 179.333 417.067 179.467 416.8 179.6C416.567 179.733 416.317 179.85 416.05 179.95C415.15 180.4 414.55 181.25 414.5 182.25L414.4 185.7L403.25 185.35L403.35 181.9C403.4 180.9 402.85 180 401.95 179.5C401.483 179.233 401.017 178.95 400.55 178.65C399.7 178.05 398.65 178 397.75 178.45L394.75 180.1L389.5 170.25L392.5 168.6C393.35 168.15 393.9 167.2 393.9 166.2C393.867 165.667 393.883 165.117 393.95 164.55C394 163.55 393.55 162.6 392.7 162.05L389.8 160.25L395.65 150.75L398.6 152.55C399.45 153.1 400.5 153.05 401.4 152.55C401.633 152.417 401.867 152.283 402.1 152.15C402.333 152.017 402.567 151.883 402.8 151.75C403.75 151.35 404.35 150.45 404.4 149.45L404.5 146.05L415.65 146.35L415.55 149.8C415.5 150.8 416.05 151.7 416.95 152.2C417.417 152.467 417.883 152.767 418.35 153.1C419.2 153.65 420.25 153.75 421.15 153.25L424.15 151.65L429.4 161.5L426.4 163.1C425.55 163.6 425 164.5 425.05 165.5C425.05 166.067 425.017 166.633 424.95 167.2C424.9 168.2 425.35 169.15 426.2 169.7L429.1 171.5L423.25 180.95L420.3 179.15ZM417.5 161.55C415.1 157.1 409.55 155.4 405.1 157.8C400.65 160.2 398.95 165.75 401.35 170.2C403.75 174.65 409.3 176.3 413.75 173.95C418.2 171.55 419.85 166 417.5 161.55Z" fill="#FF9F1C"/>
<path fill-rule="evenodd" clip-rule="evenodd" d="M98.5998 286.7C97.7498 286.15 96.6998 286.2 95.8498 286.7C95.6165 286.867 95.3665 287.017 95.0998 287.15C94.8665 287.283 94.6331 287.4 94.3998 287.5C93.4498 287.95 92.8498 288.8 92.8498 289.8L92.6998 293.25L81.5498 292.9L81.6498 289.45C81.6998 288.45 81.1498 287.55 80.2498 287.05C79.7831 286.783 79.3165 286.5 78.8498 286.2C77.9998 285.6 76.9498 285.55 76.0498 286L73.0498 287.6L67.7998 277.75L70.7998 276.15C71.6998 275.7 72.1998 274.75 72.1998 273.75C72.1665 273.183 72.1831 272.633 72.2498 272.1C72.2998 271.1 71.8498 270.1 70.9998 269.6L68.0998 267.8L73.9998 258.3L76.8998 260.1C77.7498 260.65 78.7998 260.6 79.6998 260.1C79.9331 259.933 80.1665 259.8 80.3998 259.7C80.6331 259.567 80.8831 259.433 81.1498 259.3C82.0498 258.9 82.6498 258 82.6998 257L82.7998 253.55L93.9498 253.9L93.8498 257.35C93.7998 258.35 94.3498 259.25 95.2498 259.75C95.7165 260.017 96.1831 260.3 96.6498 260.6C97.4998 261.2 98.5498 261.25 99.4498 260.8L102.45 259.2L107.75 269.05L104.7 270.65C103.85 271.1 103.3 272.05 103.35 273.05C103.35 273.617 103.333 274.167 103.3 274.7C103.2 275.7 103.65 276.7 104.5 277.2L107.4 279L101.55 288.5L98.5998 286.7ZM95.7998 269.1C93.3998 264.65 87.8498 262.95 83.3998 265.35C78.9498 267.75 77.2498 273.3 79.6498 277.75C82.0498 282.2 87.5998 283.85 92.0498 281.45C96.4998 279.1 98.1498 273.55 95.7998 269.1Z" fill="#FF9F1C"/>
<path fill-rule="evenodd" clip-rule="evenodd" d="M213.8 107.95C213.2 108.3 212.85 108.95 212.9 109.65C212.9 109.85 212.9 110.05 212.9 110.25C212.9 110.45 212.9 110.633 212.9 110.8C212.85 111.5 213.2 112.2 213.8 112.55L215.85 113.75L211.95 120.5L209.9 119.3C209.25 118.95 208.5 119 207.95 119.4C207.616 119.6 207.266 119.783 206.9 119.95C206.3 120.3 205.9 120.9 205.9 121.6V124H198.05V121.6C198.05 120.9 197.65 120.3 197.05 119.95C196.683 119.783 196.35 119.6 196.05 119.4C195.45 119 194.7 118.95 194.1 119.3L192 120.5L188.1 113.75L190.2 112.55C190.8 112.2 191.1 111.5 191.1 110.8C191.066 110.633 191.05 110.45 191.05 110.25C191.05 110.05 191.066 109.85 191.1 109.65C191.1 108.95 190.8 108.3 190.15 107.95L188.1 106.75L192 99.95L194.05 101.15C194.7 101.5 195.45 101.5 196 101.1C196.333 100.867 196.683 100.667 197.05 100.5C197.65 100.2 198.05 99.55 198.05 98.85V96.45H205.9V98.85C205.9 99.55 206.3 100.2 206.9 100.5C207.266 100.667 207.616 100.867 207.95 101.1C208.5 101.5 209.25 101.5 209.9 101.15L211.95 99.95L215.85 106.75L213.8 107.95ZM202 103.85C198.45 103.85 195.6 106.7 195.6 110.25C195.6 113.8 198.45 116.65 202 116.65C205.55 116.65 208.4 113.8 208.4 110.25C208.4 106.7 205.55 103.85 202 103.85Z" fill="#FF9F1C"/>
<path d="M88.8502 303.85C75.7502 316.65 73.5502 336.45 76.3502 353.75C76.4002 354.15 77.0002 354.05 77.0002 353.7C77.0002 349.75 76.9002 345.8 76.9002 341.9C76.9502 341.75 77.0502 341.6 77.1002 341.4C80.5002 338.9 83.6502 336.1 85.6002 332.3C87.7502 328 88.6502 323.15 90.3002 318.65C90.4502 318.25 90.0002 318.35 89.7002 318.6C81.7502 324.45 79.2002 330.75 76.9502 339.2C77.0502 334.8 77.4002 330.45 78.3002 326.05C80.0502 318.05 83.4502 310.1 89.2002 304.2C89.4002 303.95 89.0502 303.6 88.8502 303.85Z" fill="#263238"/>
<path d="M91.3004 305.35C93.5504 305.4 94.9504 309 96.7004 310.05C97.6504 310.6 98.5504 310.55 99.2004 309.65C100.9 307.25 98.5504 304.25 96.3004 302.55C97.9004 303.25 99.2504 304.4 100.95 304.7C102 304.9 102.8 304.5 103.05 303.45C103.8 300.15 99.6504 298.7 96.8504 298.6C98.2004 297.65 102.15 295.05 100.05 293.75C97.9504 292.5 93.3004 296.2 91.8004 297.45C89.5504 299.25 86.9004 301.95 86.8004 304.75C86.7004 308.05 89.5504 306 91.3004 305.35Z" fill="#265399"/>
<path opacity="0.1" d="M91.3004 305.35C93.5504 305.4 94.9504 309 96.7004 310.05C97.6504 310.6 98.5504 310.55 99.2004 309.65C100.9 307.25 98.5504 304.25 96.3004 302.55C97.9004 303.25 99.2504 304.4 100.95 304.7C102 304.9 102.8 304.5 103.05 303.45C103.8 300.15 99.6504 298.7 96.8504 298.6C98.2004 297.65 102.15 295.05 100.05 293.75C97.9504 292.5 93.3004 296.2 91.8004 297.45C89.5504 299.25 86.9004 301.95 86.8004 304.75C86.7004 308.05 89.5504 306 91.3004 305.35Z" fill="black"/>
<path d="M90.6505 305.9C93.5005 304.6 99.0505 306.45 99.5005 305.35C100.45 303.15 96.0505 301.65 93.6505 301.35C95.8505 300.75 100.05 299.8 99.9505 297.7C99.7505 295.1 93.5005 297.35 90.3005 299.75C86.3005 302.85 86.3005 305.8 87.0005 306.4C87.9005 307.2 90.1505 306.1 90.6505 305.9Z" fill="#265399"/>
<path d="M59.0499 302.55C72.5999 314.85 75.5499 334.55 73.4499 352C73.3999 352.4 72.7999 352.3 72.7999 351.95C72.6499 348 72.5999 344.05 72.4499 340.2C72.3499 340 72.2999 339.85 72.2499 339.65C68.6999 337.3 65.4999 334.65 63.3999 330.85C61.0499 326.65 59.9999 321.85 58.1499 317.45C57.9999 317 58.4499 317.1 58.7499 317.35C66.9499 322.9 69.6999 329.1 72.2999 337.45C72.0499 333.05 71.5499 328.7 70.4499 324.35C68.3999 316.45 64.6999 308.65 58.7499 302.95C58.4999 302.7 58.8499 302.35 59.0499 302.55Z" fill="#263238"/>
<path d="M56.7001 304.15C54.4501 304.3 53.1501 307.95 51.4501 309.1C50.5501 309.65 49.6501 309.65 48.9501 308.8C47.1501 306.45 49.4001 303.35 51.5501 301.6C50.0001 302.3 48.7001 303.5 47.0001 303.9C45.9501 304.15 45.1501 303.8 44.8501 302.75C43.9501 299.45 48.0501 297.85 50.9001 297.65C49.4501 296.75 45.4001 294.3 47.4501 292.95C49.5501 291.55 54.3001 295.1 55.9001 296.3C58.1501 298 60.9001 300.6 61.1501 303.4C61.4001 306.7 58.4501 304.8 56.7001 304.15Z" fill="#265399"/>
<path opacity="0.1" d="M56.7001 304.15C54.4501 304.3 53.1501 307.95 51.4501 309.1C50.5501 309.65 49.6501 309.65 48.9501 308.8C47.1501 306.45 49.4001 303.35 51.5501 301.6C50.0001 302.3 48.7001 303.5 47.0001 303.9C45.9501 304.15 45.1501 303.8 44.8501 302.75C43.9501 299.45 48.0501 297.85 50.9001 297.65C49.4501 296.75 45.4001 294.3 47.4501 292.95C49.5501 291.55 54.3001 295.1 55.9001 296.3C58.1501 298 60.9001 300.6 61.1501 303.4C61.4001 306.7 58.4501 304.8 56.7001 304.15Z" fill="black"/>
<path d="M57.3504 304.7C54.4004 303.5 49.0004 305.6 48.4504 304.5C47.4504 302.35 51.8004 300.65 54.1504 300.25C51.9504 299.75 47.7004 298.95 47.7504 296.85C47.8004 294.25 54.2004 296.25 57.4504 298.55C61.6004 301.5 61.6504 304.45 61.0004 305.05C60.1504 305.9 57.8504 304.9 57.3504 304.7Z" fill="#265399"/>
<path d="M72.9503 335.05C73.9503 341.5 75.1504 348.2 77.1504 354.45C77.3004 355 78.1503 354.9 78.1003 354.25C77.2003 348.3 75.5503 342.4 74.7003 336.4C73.7503 330.35 73.3004 324.2 73.6504 318.1C74.2004 308 76.9504 297.25 83.5504 289.35C83.6504 289.2 83.3503 288.9 83.2003 289.1C70.0503 304.45 72.1504 323.3 72.1504 325C70.3004 318.65 68.3503 311.35 61.3003 304.85C61.0003 304.6 60.7503 304.7 60.8003 305.2C62.0503 317 65.3503 323.15 72.2003 329.45C72.4003 331.317 72.6503 333.183 72.9503 335.05Z" fill="#263238"/>
<path d="M83.6508 291.15C86.0008 290.1 89.3008 293.1 91.6508 293.3C92.9008 293.4 93.8008 292.95 94.0008 291.65C94.6008 288.25 90.6008 286.35 87.4508 285.75C89.4508 285.65 91.4008 286.15 93.3508 285.65C94.5508 285.3 95.2008 284.5 94.9008 283.25C94.0508 279.45 89.0008 280 86.0008 281.4C86.9508 279.7 89.7508 275 86.9508 274.75C84.1008 274.45 81.1508 280.65 80.2008 282.7C78.8008 285.7 77.4008 289.8 78.7008 292.8C80.2508 296.25 82.2008 292.7 83.6508 291.15Z" fill="#265399"/>
<path opacity="0.1" d="M83.6508 291.15C86.0008 290.1 89.3008 293.1 91.6508 293.3C92.9008 293.4 93.8008 292.95 94.0008 291.65C94.6008 288.25 90.6008 286.35 87.4508 285.75C89.4508 285.65 91.4008 286.15 93.3508 285.65C94.5508 285.3 95.2008 284.5 94.9008 283.25C94.0508 279.45 89.0008 280 86.0008 281.4C86.9508 279.7 89.7508 275 86.9508 274.75C84.1008 274.45 81.1508 280.65 80.2008 282.7C78.8008 285.7 77.4008 289.8 78.7008 292.8C80.2508 296.25 82.2008 292.7 83.6508 291.15Z" fill="black"/>
<path d="M83.2507 292.05C85.6007 289.25 92.2507 288.4 92.2007 287.05C92.0507 284.25 86.7007 284.9 84.1007 285.8C86.1007 284.1 89.9507 281 88.7507 278.85C87.3007 276.25 81.9007 281.75 79.8007 285.85C77.2007 291.05 78.7507 294.15 79.7007 294.4C81.0507 294.8 82.8507 292.5 83.2507 292.05Z" fill="#265399"/>
<path d="M64.2502 338.6L58.4502 383H93.8002C93.1002 379.05 86.5002 338.55 86.5002 338.55L64.2502 338.6Z" fill="#265399"/>
<path d="M43.3496 383.15L95.0496 382.9L146.7 382.8L250 382.65L353.3 382.8L404.95 382.9L456.65 383.15L404.95 383.4L353.3 383.5L250 383.65L146.7 383.45L95.0496 383.4L43.3496 383.15Z" fill="#263238"/>
<path d="M399.05 449.05C399.05 460.7 332.3 470.1 250 470.1C167.7 470.1 100.95 460.7 100.95 449.05C100.95 437.4 167.7 427.95 250 427.95C332.3 427.95 399.05 437.4 399.05 449.05Z" fill="#EBEBEB"/>
<path d="M270.6 316.75H235.1V313.85H270.6V316.75Z" fill="#37474F"/>
<path d="M270.6 320.55H235.1V317.65H270.6V320.55Z" fill="#37474F"/>
<path d="M270.6 324.35H235.1V321.4H270.6V324.35Z" fill="#37474F"/>
<path d="M270.6 328.1H235.1V325.2H270.6V328.1Z" fill="#37474F"/>
<path d="M270.6 331.9H235.1V329H270.6V331.9Z" fill="#37474F"/>
<path d="M285.95 407.5H218.45V404.6H285.95V407.5Z" fill="#37474F"/>
<path d="M285.95 411.3H218.45V408.4H285.95V411.3Z" fill="#37474F"/>
<path d="M285.95 415.1H218.45V412.15H285.95V415.1Z" fill="#37474F"/>
<path d="M285.95 418.85H218.45V415.95H285.95V418.85Z" fill="#37474F"/>
<path d="M285.95 422.65H218.45V419.75H285.95V422.65Z" fill="#37474F"/>
<path d="M188.85 289.8C188.85 289.4 174.05 284.45 174.05 284.45L174.95 233.55L194.55 229.35L188.85 289.8Z" fill="#265399"/>
<path opacity="0.2" d="M188.85 289.8C188.85 289.4 174.05 284.45 174.05 284.45L174.95 233.55L194.55 229.35L188.85 289.8Z" fill="black"/>
<path d="M324.5 309.75C324.6 309.4 340.2 309.85 340.2 309.85L356.9 261.75L339.9 251.05L324.5 309.75Z" fill="#265399"/>
<path opacity="0.2" d="M324.5 309.75C324.6 309.4 340.2 309.85 340.2 309.85L356.9 261.75L339.9 251.05L324.5 309.75Z" fill="black"/>
<path d="M186 308.55C186 308.55 191.45 226.25 196.3 199.15C196.3 199.15 295.7 206.7 349.4 227.2C349.4 227.2 321.7 323.3 320.3 328.1C320.3 328.1 250.25 314.3 186 308.55Z" fill="#265399"/>
<path opacity="0.1" d="M274.7 210.15C273.1 220.05 271.45 229.95 269.8 239.85L264.65 269.55L264.4 269.15L297.7 277.05L314.35 281.05L330.95 285.2L314.25 281.45L297.55 277.65L264.2 269.85L263.85 269.75L263.95 269.4L269.25 239.75C271 229.9 272.85 220 274.7 210.15Z" fill="black"/>
<path opacity="0.1" fill-rule="evenodd" clip-rule="evenodd" d="M271.05 215.8C271.1 216.7 270.35 217.65 269.3 217.75C268.8 217.8 268.25 217.6 267.85 217.25C267.45 216.9 267.2 216.35 267.2 215.8C267.2 215.25 267.45 214.7 267.85 214.35C268.25 214 268.8 213.8 269.3 213.85C270.35 213.95 271.1 214.9 271.05 215.8ZM271.05 215.8C271.05 215.35 270.85 214.9 270.5 214.6C270.2 214.3 269.75 214.2 269.3 214.25C268.5 214.35 267.95 215.1 267.95 215.8C267.95 216.5 268.5 217.25 269.3 217.35C269.75 217.4 270.2 217.3 270.5 217C270.85 216.7 271.05 216.25 271.05 215.8Z" fill="black"/>
<path opacity="0.1" fill-rule="evenodd" clip-rule="evenodd" d="M269.3 228.05C269.35 228.95 268.6 229.9 267.6 230C267.05 230.05 266.5 229.85 266.1 229.5C265.7 229.15 265.45 228.6 265.45 228.05C265.45 227.5 265.7 226.95 266.1 226.6C266.5 226.25 267.05 226.05 267.6 226.1C268.6 226.2 269.35 227.15 269.3 228.05ZM269.3 228.05C269.3 227.6 269.1 227.15 268.75 226.85C268.45 226.55 268 226.45 267.6 226.5C266.75 226.6 266.2 227.35 266.2 228.05C266.2 228.75 266.75 229.5 267.6 229.6C268 229.65 268.45 229.55 268.75 229.25C269.1 228.95 269.3 228.5 269.3 228.05Z" fill="black"/>
<path opacity="0.1" fill-rule="evenodd" clip-rule="evenodd" d="M267.15 241C267.2 241.9 266.45 242.85 265.45 242.9C264.9 242.95 264.35 242.8 263.95 242.45C263.55 242.1 263.3 241.55 263.3 241C263.3 240.45 263.55 239.9 263.95 239.5C264.35 239.15 264.9 239 265.45 239.05C266.45 239.15 267.2 240.1 267.15 241ZM267.15 241C267.15 240.55 266.95 240.1 266.6 239.8C266.3 239.5 265.85 239.4 265.45 239.45C264.6 239.55 264.05 240.3 264.05 241C264.05 241.7 264.6 242.45 265.45 242.55C265.85 242.6 266.3 242.45 266.6 242.2C266.95 241.9 267.15 241.45 267.15 241Z" fill="black"/>
<path opacity="0.1" fill-rule="evenodd" clip-rule="evenodd" d="M265 253.95C265.05 254.85 264.3 255.75 263.3 255.85C262.75 255.9 262.2 255.75 261.8 255.4C261.4 255.05 261.15 254.5 261.15 253.95C261.15 253.35 261.4 252.8 261.8 252.45C262.2 252.1 262.75 251.95 263.3 252C264.3 252.1 265.05 253 265 253.95ZM265 253.95C265 253.45 264.8 253 264.45 252.75C264.15 252.45 263.7 252.3 263.3 252.35C262.45 252.45 261.9 253.2 261.9 253.95C261.9 254.65 262.45 255.4 263.3 255.5C263.7 255.55 264.15 255.4 264.45 255.1C264.8 254.85 265 254.4 265 253.95Z" fill="black"/>
<path opacity="0.1" fill-rule="evenodd" clip-rule="evenodd" d="M272.35 274.55C272.35 275.45 271.65 276.4 270.6 276.5C270.1 276.55 269.55 276.4 269.15 276C268.75 275.65 268.5 275.1 268.5 274.55C268.5 274 268.75 273.45 269.15 273.1C269.55 272.75 270.1 272.6 270.6 272.65C271.65 272.7 272.35 273.65 272.35 274.55ZM272.35 274.55C272.35 274.1 272.15 273.65 271.8 273.35C271.45 273.05 271 272.95 270.6 273C269.75 273.1 269.2 273.85 269.25 274.55C269.2 275.25 269.75 276 270.6 276.1C271 276.15 271.45 276.05 271.8 275.75C272.15 275.45 272.35 275 272.35 274.55Z" fill="black"/>
<path opacity="0.1" fill-rule="evenodd" clip-rule="evenodd" d="M284.55 277.55C284.6 278.45 283.85 279.4 282.8 279.45C282.3 279.5 281.75 279.35 281.35 279C280.95 278.65 280.7 278.1 280.7 277.55C280.7 277 280.95 276.45 281.35 276.1C281.75 275.7 282.3 275.55 282.8 275.6C283.85 275.7 284.6 276.65 284.55 277.55ZM284.55 277.55C284.55 277.1 284.35 276.65 284 276.35C283.65 276.05 283.2 275.95 282.8 276C282 276.1 281.45 276.85 281.45 277.55C281.45 278.25 281.95 279 282.8 279.1C283.2 279.15 283.65 279.05 284 278.75C284.35 278.45 284.55 278 284.55 277.55Z" fill="black"/>
<path opacity="0.1" fill-rule="evenodd" clip-rule="evenodd" d="M296.75 280.5C296.8 281.45 296.05 282.35 295.05 282.45C294.5 282.5 294 282.35 293.55 282C293.15 281.6 292.9 281.05 292.9 280.5C292.9 279.95 293.15 279.4 293.55 279.05C293.95 278.7 294.5 278.55 295.05 278.6C296.05 278.7 296.8 279.6 296.75 280.5ZM296.75 280.5C296.75 280.05 296.55 279.6 296.25 279.3C295.9 279.05 295.45 278.9 295.05 278.95C294.2 279.05 293.65 279.8 293.65 280.5C293.65 281.25 294.2 282 295.05 282.1C295.45 282.1 295.9 282 296.25 281.7C296.55 281.45 296.75 281 296.75 280.5Z" fill="black"/>
<path opacity="0.1" fill-rule="evenodd" clip-rule="evenodd" d="M309 283.5C309 284.4 308.3 285.35 307.25 285.45C306.75 285.5 306.2 285.3 305.8 284.95C305.35 284.6 305.1 284.05 305.1 283.5C305.1 282.95 305.35 282.4 305.8 282.05C306.2 281.7 306.75 281.5 307.25 281.55C308.3 281.65 309 282.6 309 283.5ZM309 283.5C309 283.05 308.8 282.6 308.45 282.3C308.1 282 307.65 281.9 307.25 281.95C306.4 282.05 305.85 282.8 305.85 283.5C305.85 284.2 306.4 284.95 307.25 285.05C307.65 285.1 308.1 285 308.45 284.7C308.8 284.4 309 283.95 309 283.5Z" fill="black"/>
<path opacity="0.1" fill-rule="evenodd" clip-rule="evenodd" d="M321.2 286.6C321.15 287.5 320.35 288.4 319.3 288.4C318.8 288.4 318.25 288.2 317.9 287.8C317.5 287.45 317.3 286.85 317.35 286.3C317.4 285.75 317.65 285.25 318.1 284.9C318.55 284.6 319.1 284.45 319.6 284.55C320.65 284.7 321.3 285.7 321.2 286.6ZM321.2 286.6C321.25 286.15 321.05 285.7 320.75 285.4C320.4 285.05 320 284.9 319.55 284.95C318.75 284.95 318.15 285.65 318.1 286.35C318 287.1 318.5 287.85 319.35 288.05C319.75 288.1 320.2 288.05 320.55 287.75C320.9 287.5 321.15 287.05 321.2 286.6Z" fill="black"/>
<path opacity="0.1" fill-rule="evenodd" clip-rule="evenodd" d="M262.85 266.85C262.9 267.75 262.15 268.7 261.15 268.8C260.6 268.85 260.05 268.7 259.65 268.35C259.25 267.95 259 267.4 259 266.85C259 266.3 259.25 265.75 259.65 265.4C260.05 265.05 260.6 264.9 261.15 264.95C262.15 265 262.9 265.95 262.85 266.85ZM262.85 266.85C262.85 266.4 262.65 265.95 262.3 265.65C262 265.4 261.55 265.25 261.15 265.3C260.3 265.4 259.75 266.15 259.75 266.85C259.75 267.55 260.3 268.35 261.15 268.4C261.55 268.45 262 268.35 262.3 268.05C262.65 267.75 262.85 267.3 262.85 266.85Z" fill="black"/>
<path opacity="0.2" d="M251.3 271.8C248.8 287.2 234.3 297.65 218.9 295.2C203.55 292.7 193.05 278.2 195.55 262.8C198.05 247.4 212.55 236.95 227.95 239.45C243.35 241.95 253.8 256.45 251.3 271.8Z" fill="black"/>
<path d="M245.8 270.95C243.8 283.25 232.15 291.65 219.8 289.65C207.45 287.65 199.1 276.05 201.1 263.7C203.1 251.35 214.7 242.95 227.05 244.95C239.4 246.95 247.8 258.6 245.8 270.95Z" fill="#263238"/>
<path d="M221.199 264.3L215.899 263.45L216.749 258.15L222.049 259L221.199 264.3Z" fill="#265399"/>
<path d="M216.75 258.15L211.5 257.3L212.35 252L217.65 252.85L216.75 258.15Z" fill="#265399"/>
<path d="M237.949 261.55L232.649 260.7L233.499 255.4L238.799 256.3L237.949 261.55Z" fill="#265399"/>
<path d="M213.35 279.2L208.05 278.35L208.9 273.05L214.2 273.9L213.35 279.2Z" fill="#265399"/>
<path d="M234.55 282.65L229.25 281.75L230.1 276.5L235.4 277.35L234.55 282.65Z" fill="#265399"/>
<path d="M219.5 274.75L214.2 273.9L215.1 268.6L220.35 269.45L219.5 274.75Z" fill="#265399"/>
<path d="M225.65 270.4L220.35 269.55L221.2 264.25L226.5 265.1L225.65 270.4Z" fill="#265399"/>
<path d="M231.8 266L226.5 265.15L227.35 259.85L232.65 260.7L231.8 266Z" fill="#265399"/>
<path d="M230.1 276.5L224.8 275.6L225.65 270.3L230.95 271.2L230.1 276.5Z" fill="#265399"/>
<path d="M326.65 285.65C323.05 300.85 307.85 310.2 292.65 306.6C277.5 303 268.1 287.8 271.75 272.6C275.35 257.45 290.55 248.05 305.7 251.65C320.9 255.3 330.25 270.5 326.65 285.65Z" fill="#265399"/>
<path opacity="0.2" d="M326.65 285.65C323.05 300.85 307.85 310.2 292.65 306.6C277.5 303 268.1 287.8 271.75 272.6C275.35 257.45 290.55 248.05 305.7 251.65C320.9 255.3 330.25 270.5 326.65 285.65Z" fill="black"/>
<path opacity="0.2" d="M326.65 285.65C326.517 286.217 326.367 286.767 326.2 287.3L271.2 275.55C271.334 274.583 271.5 273.6 271.7 272.6C275.35 257.45 290.55 248.05 305.7 251.65C320.9 255.3 330.25 270.5 326.65 285.65Z" fill="black"/>
<path d="M321.2 284.35C318.35 296.55 306.1 304.05 293.95 301.15C281.8 298.3 274.25 286.05 277.15 273.9C280.05 261.75 292.25 254.2 304.45 257.1C316.6 260 324.1 272.2 321.2 284.35Z" fill="#263238"/>
<path d="M298.7 292.75L293.5 291.5L299.65 265.55L304.9 266.8L298.7 292.75Z" fill="#265399"/>
<path d="M328.3 285.15L270.5 271.4C274.3 255.45 290.3 245.6 306.25 249.4C322.2 253.15 332.1 269.2 328.3 285.15Z" fill="#265399"/>
<path opacity="0.2" d="M328.3 285.15L270.5 271.4C274.3 255.45 290.3 245.6 306.25 249.4C322.2 253.15 332.1 269.2 328.3 285.15Z" fill="black"/>
<path opacity="0.1" d="M250.05 295.9C250.2 293.65 251.05 291.4 252.7 289.55C253.5 288.65 254.55 287.95 255.75 287.5C256.95 287.05 258.25 287 259.45 287.1C260.7 287.25 261.95 287.65 263 288.45C264 289.25 264.8 290.3 265.25 291.4C266.2 293.65 266.3 296.05 265.85 298.25C265.45 296.05 264.9 293.9 263.85 292.15C262.8 290.35 261.2 289.25 259.25 289.05C257.25 288.85 255.3 289.35 253.75 290.7C252.2 292 251 293.9 250.05 295.9Z" fill="black"/>
<path d="M193.7 238.35C193.95 235.3 194.3 232.3 194.6 229.3C194.9 226.3 195.234 223.3 195.6 220.3C195.95 217.3 196.35 214.3 196.7 211.3C197.1 208.3 197.5 205.35 197.95 202.35L198.05 201.55L198.85 201.6C205.35 202 211.85 202.533 218.35 203.2C221.584 203.533 224.817 203.9 228.05 204.3C231.3 204.8 234.55 205.2 237.75 205.8L218.25 204.6L198.75 203.35L199.65 202.6C199.2 205.55 198.8 208.55 198.35 211.55C197.85 214.55 197.4 217.5 196.9 220.5C196.434 223.467 195.934 226.45 195.4 229.45C194.85 232.4 194.35 235.4 193.7 238.35Z" fill="white"/>
<path d="M198.4 261.15C199.05 257.55 200.7 254.05 202.95 251.05C203.5 250.3 204.1 249.6 204.7 248.9C205.35 248.2 206.05 247.55 206.7 246.9C207.434 246.3 208.184 245.717 208.95 245.15C209.75 244.65 210.5 244.1 211.3 243.65C212.2 243.2 213.05 242.8 213.9 242.4L216.55 241.5L219.35 240.9C220.3 240.75 221.2 240.75 222.15 240.65C225.9 240.6 229.65 241.4 233.05 242.75C229.4 242.1 225.8 241.7 222.25 242.05C218.7 242.35 215.25 243.45 212.2 245.15C209.05 246.85 206.3 249.2 204 251.9C201.7 254.65 199.75 257.75 198.4 261.15Z" fill="white"/>
<path d="M276.3 268.8C277.45 265.3 279.55 262.1 282.15 259.4C282.8 258.75 283.5 258.15 284.2 257.5C284.95 256.95 285.7 256.35 286.5 255.8C287.3 255.333 288.1 254.867 288.9 254.4C289.75 254 290.65 253.6 291.5 253.2C292.4 252.9 293.3 252.6 294.2 252.35L297 251.8L299.8 251.6C300.75 251.6 301.7 251.7 302.65 251.8C306.4 252.2 309.95 253.5 313.1 255.35C309.6 254.15 306.1 253.3 302.55 253.15C299 253 295.4 253.55 292.15 254.85C288.8 256.1 285.75 258.05 283.1 260.4C280.45 262.8 278.1 265.6 276.3 268.8Z" fill="white"/>
<path d="M189.15 359.25C181.9 359.25 166.1 357.65 155.9 344.55C142.85 327.75 147.55 295.6 147.75 294.25L153.45 295.1C153.4 295.4 148.9 326.2 160.4 341C171.65 355.5 192.1 353.4 192.3 353.4L192.95 359.1C192.7 359.1 191.3 359.25 189.15 359.25Z" fill="#265399"/>
<path opacity="0.4" d="M189.15 359.25C181.9 359.25 166.1 357.65 155.9 344.55C142.85 327.75 147.55 295.6 147.75 294.25L153.45 295.1C153.4 295.4 148.9 326.2 160.4 341C171.65 355.5 192.1 353.4 192.3 353.4L192.95 359.1C192.7 359.1 191.3 359.25 189.15 359.25Z" fill="white"/>
<path d="M155.1 299C154.066 299 153.016 298.917 151.95 298.75C142.4 297.2 138.15 291.5 136.3 286.95C134.45 282.45 134 276.95 135 270.7L147.1 272.65C146.5 276.55 146.7 279.95 147.65 282.3C148.35 283.95 149.65 285.95 153.9 286.65C155.85 286.95 157.95 286.8 160.15 283.5C161.8 280.9 162.85 277.45 163.2 275.25L175.3 277.2C175 278.95 173.85 285 170.35 290.25C166.55 295.95 161.2 299 155.1 299Z" fill="#265399"/>
<path d="M201.099 375.65C201.099 375.35 190.849 373.75 190.849 373.75L185.899 340.35L198.249 335.45L201.099 375.65Z" fill="#265399"/>
<path opacity="0.2" d="M201.099 375.65C201.099 375.35 190.849 373.75 190.849 373.75L185.899 340.35L198.249 335.45L201.099 375.65Z" fill="black"/>
<path d="M302.3 375.7C302.3 375.45 312.6 374.05 312.6 374.05L318.3 340.75L306 335.55L302.3 375.7Z" fill="#265399"/>
<path opacity="0.2" d="M302.3 375.7C302.3 375.45 312.6 374.05 312.6 374.05L318.3 340.75L306 335.55L302.3 375.7Z" fill="black"/>
<path d="M196.85 327.95C196.85 327.95 279.65 324.4 307.6 329.1C307.6 329.1 299.4 409.2 298.95 410.75C298.95 410.75 216.6 410.5 203.7 410.75C203.7 410.75 196.75 357.45 196.85 327.95Z" fill="#265399"/>
<path opacity="0.2" d="M222 349.9C222 349.9 267.2 348.1 282.45 350.45C282.45 350.45 277.95 390.85 277.7 391.65C277.7 391.65 232.75 391.55 225.75 391.65C225.75 391.65 222.65 364 222 349.9Z" fill="black"/>
<path opacity="0.2" d="M228.15 391.65C227.15 391.65 226.3 391.65 225.75 391.65C225.75 391.65 222.65 364 222 349.9C222 349.9 223 349.85 224.8 349.8L228.15 391.65Z" fill="black"/>
<path fill-rule="evenodd" clip-rule="evenodd" d="M249.7 367.5C248.05 372.85 242.35 375.8 237 374.1C231.65 372.45 228.7 366.75 230.4 361.4C232.05 356.1 237.75 353.1 243.1 354.8C248.45 356.5 251.4 362.15 249.7 367.5ZM241.7 359.15C238.8 358.25 235.65 359.85 234.75 362.8C233.85 365.7 235.45 368.85 238.4 369.75C241.3 370.7 244.4 369.05 245.35 366.15C246.25 363.2 244.65 360.1 241.7 359.15Z" fill="#265399"/>
<path d="M239 374.3L235.25 373.15L234.65 375.85L237.95 376.85L239 374.3Z" fill="#265399"/>
<path d="M232.3 370.8L230.5 367.35L228.15 368.85L229.75 371.9L232.3 370.8Z" fill="#265399"/>
<path d="M230.05 363.65L231.2 359.95L228.55 359.3L227.5 362.6L230.05 363.65Z" fill="#265399"/>
<path d="M233.55 356.95L237 355.15L235.5 352.8L232.45 354.4L233.55 356.95Z" fill="#265399"/>
<path d="M240.7 354.7L244.45 355.85L245.05 353.2L241.75 352.15L240.7 354.7Z" fill="#265399"/>
<path d="M247.4 358.2L249.2 361.65L251.55 360.15L249.95 357.1L247.4 358.2Z" fill="#265399"/>
<path d="M249.65 365.35L248.5 369.1L251.15 369.7L252.2 366.4L249.65 365.35Z" fill="#265399"/>
<path d="M246.15 372.05L242.7 373.85L244.2 376.2L247.25 374.6L246.15 372.05Z" fill="#265399"/>
<path fill-rule="evenodd" clip-rule="evenodd" d="M261.8 380.45C259.75 383.6 255.5 384.5 252.35 382.45C249.2 380.4 248.3 376.15 250.35 373C252.4 369.85 256.65 368.95 259.8 371C262.95 373.05 263.85 377.3 261.8 380.45ZM258.1 373.6C256.4 372.45 254.05 372.95 252.95 374.7C251.8 376.4 252.3 378.75 254.05 379.85C255.75 381 258.1 380.5 259.2 378.75C260.35 377.05 259.85 374.7 258.1 373.6Z" fill="#DBDBDB"/>
<path d="M253.6 382.9L251.4 381.5L250.5 383.1L252.45 384.4L253.6 382.9Z" fill="#DBDBDB"/>
<path d="M249.9 379.45L249.35 376.9L247.55 377.4L248.05 379.7L249.9 379.45Z" fill="#DBDBDB"/>
<path d="M249.75 374.4L251.15 372.2L249.55 371.3L248.25 373.25L249.75 374.4Z" fill="#DBDBDB"/>
<path d="M253.2 370.7L255.75 370.15L255.25 368.35L252.95 368.85L253.2 370.7Z" fill="#DBDBDB"/>
<path d="M258.25 370.5L260.45 371.95L261.35 370.3L259.4 369.05L258.25 370.5Z" fill="#DBDBDB"/>
<path d="M261.95 374L262.5 376.55L264.3 376L263.8 373.75L261.95 374Z" fill="#DBDBDB"/>
<path d="M262.15 379.05L260.7 381.25L262.35 382.15L263.6 380.2L262.15 379.05Z" fill="#DBDBDB"/>
<path d="M258.65 382.75L256.1 383.3L256.65 385.1L258.9 384.6L258.65 382.75Z" fill="#DBDBDB"/>
<path d="M305.601 401.4L308.801 402L317.901 340.4L314.251 339.7L305.601 401.4Z" fill="#265399"/>
<path d="M277.7 391.65L282.45 350.45L314.25 339.7C314.25 339.7 305.6 402.1 305.6 401.4L277.7 391.65Z" fill="#265399"/>
<path opacity="0.4" d="M277.7 391.65L282.45 350.45L314.25 339.7C314.25 339.7 305.6 402.1 305.6 401.4L277.7 391.65Z" fill="white"/>
<path d="M200.65 352.15C200.1 348.75 199.85 345.3 199.65 341.85C199.55 340.15 199.5 338.4 199.45 336.7C199.4 334.95 199.4 333.25 199.45 331.5V331.05H199.9C206.2 330.7 212.5 330.25 218.85 330C225.15 329.7 231.5 329.4 237.8 329.2C231.5 329.75 225.2 330.25 218.9 330.7C212.6 331.2 206.25 331.55 199.95 332L200.4 331.5V336.65L200.45 341.8C200.45 343.533 200.483 345.25 200.55 346.95L200.65 352.15Z" fill="white"/>
<path d="M286.899 351.1C288.866 350.133 290.866 349.25 292.899 348.45C294.899 347.65 296.933 346.883 298.999 346.15C301.049 345.45 303.149 344.75 305.249 344.15C307.349 343.6 309.449 343.05 311.649 342.7L312.149 342.6L312.049 343.1C311.549 345.75 311.049 348.45 310.449 351.1C310.649 348.35 310.999 345.65 311.349 343L311.749 343.4C309.649 343.9 307.599 344.5 305.499 345.1C303.433 345.733 301.366 346.383 299.299 347.05L286.899 351.1Z" fill="white"/>
<path opacity="0.1" d="M214.4 328.1L214.95 338.4L215.4 348.7L216.2 369.35L216.8 389.95L217.05 400.25L217.25 410.55L216.7 400.25L216.25 389.95L215.45 369.35L214.8 348.75L214.55 338.45L214.4 328.1Z" fill="black"/>
<path opacity="0.1" fill-rule="evenodd" clip-rule="evenodd" d="M211.45 334.35C211.65 335.2 211.15 336.3 210.1 336.55C209.65 336.7 209.05 336.65 208.6 336.4C208.15 336.15 207.8 335.65 207.65 335.1C207.55 334.55 207.7 333.95 208 333.55C208.35 333.1 208.85 332.85 209.35 332.8C210.4 332.65 211.3 333.45 211.45 334.35ZM211.45 334.35C211.35 333.9 211.05 333.5 210.7 333.25C210.3 333.05 209.8 333 209.45 333.15C208.65 333.4 208.25 334.25 208.4 334.95C208.5 335.65 209.2 336.3 210.05 336.2C210.45 336.15 210.9 335.95 211.15 335.6C211.45 335.25 211.55 334.8 211.45 334.35Z" fill="black"/>
<path opacity="0.1" fill-rule="evenodd" clip-rule="evenodd" d="M212.15 346.7C212.35 347.55 211.85 348.6 210.85 348.9C210.35 349.05 209.8 349 209.3 348.75C208.85 348.5 208.5 348 208.35 347.45C208.25 346.9 208.4 346.3 208.75 345.9C209.05 345.45 209.55 345.2 210.05 345.15C211.1 345 212 345.8 212.15 346.7ZM212.15 346.7C212.05 346.25 211.8 345.85 211.4 345.6C211 345.4 210.55 345.35 210.15 345.5C209.35 345.75 208.95 346.6 209.1 347.3C209.25 348 209.9 348.65 210.75 348.55C211.15 348.5 211.6 348.3 211.85 347.95C212.15 347.6 212.25 347.15 212.15 346.7Z" fill="black"/>
<path opacity="0.1" fill-rule="evenodd" clip-rule="evenodd" d="M212.6 359.8C212.8 360.65 212.3 361.75 211.3 362.05C210.8 362.15 210.25 362.1 209.75 361.85C209.3 361.6 208.95 361.1 208.8 360.55C208.7 360 208.85 359.4 209.2 359C209.5 358.55 210 358.3 210.5 358.25C211.55 358.1 212.45 358.9 212.6 359.8ZM212.6 359.8C212.5 359.35 212.25 358.95 211.85 358.7C211.45 358.5 211 358.5 210.6 358.6C209.8 358.85 209.4 359.7 209.55 360.4C209.7 361.1 210.35 361.75 211.2 361.65C211.6 361.65 212.05 361.4 212.3 361.05C212.6 360.7 212.7 360.25 212.6 359.8Z" fill="black"/>
<path opacity="0.1" fill-rule="evenodd" clip-rule="evenodd" d="M213.05 372.9C213.25 373.8 212.75 374.85 211.75 375.15C211.25 375.3 210.7 375.25 210.2 374.95C209.75 374.7 209.4 374.2 209.25 373.65C209.15 373.1 209.3 372.55 209.65 372.1C209.95 371.65 210.45 371.4 210.95 371.35C212 371.25 212.9 372 213.05 372.9ZM213.05 372.9C212.95 372.45 212.7 372.05 212.3 371.85C211.9 371.6 211.45 371.6 211.05 371.7C210.25 372 209.85 372.8 210 373.5C210.15 374.2 210.8 374.85 211.65 374.75C212.05 374.75 212.5 374.55 212.75 374.2C213.05 373.85 213.15 373.35 213.05 372.9Z" fill="black"/>
<path opacity="0.1" fill-rule="evenodd" clip-rule="evenodd" d="M213.5 386C213.7 386.9 213.2 387.95 212.2 388.25C211.7 388.4 211.15 388.35 210.65 388.05C210.2 387.8 209.85 387.3 209.7 386.75C209.6 386.2 209.75 385.65 210.1 385.2C210.4 384.75 210.9 384.5 211.4 384.45C212.45 384.35 213.35 385.1 213.5 386ZM213.5 386C213.4 385.55 213.15 385.15 212.75 384.95C212.35 384.7 211.9 384.7 211.5 384.8C210.7 385.1 210.3 385.95 210.45 386.6C210.6 387.3 211.25 387.95 212.1 387.9C212.5 387.85 212.95 387.65 213.2 387.3C213.5 386.95 213.6 386.45 213.5 386Z" fill="black"/>
<path opacity="0.1" fill-rule="evenodd" clip-rule="evenodd" d="M213.95 399.1C214.15 400 213.65 401.05 212.65 401.35C212.15 401.5 211.6 401.45 211.1 401.2C210.65 400.9 210.3 400.4 210.15 399.9C210.05 399.35 210.2 398.75 210.55 398.3C210.85 397.9 211.35 397.6 211.85 397.55C212.9 397.45 213.8 398.2 213.95 399.1ZM213.95 399.1C213.85 398.65 213.6 398.25 213.2 398.05C212.8 397.85 212.35 397.8 211.95 397.95C211.15 398.2 210.75 399.05 210.9 399.75C211.05 400.4 211.7 401.05 212.55 401C212.95 400.95 213.4 400.75 213.65 400.4C213.95 400.05 214.05 399.55 213.95 399.1Z" fill="black"/>
<path d="M172.799 438.85L171.149 433.35L218.049 419.15L219.699 424.65L172.799 438.85Z" fill="#265399"/>
<path opacity="0.4" d="M172.799 438.85L171.149 433.35L218.049 419.15L219.699 424.65L172.799 438.85Z" fill="white"/>
<path d="M192.7 433.9L190.1 425.8L195.55 424.1L198.15 432.2L192.7 433.9Z" fill="#265399"/>
<path d="M172.45 446.85L160.35 394.5L123.8 403.15L141.8 454.2L172.45 446.85Z" fill="#265399"/>
<path d="M180.55 444.2L172.45 446.85L160.35 394.5L172 397.25L180.55 444.2Z" fill="#265399"/>
<path opacity="0.2" d="M180.55 444.2L172.45 446.85L160.35 394.5L172 397.25L180.55 444.2Z" fill="black"/>
<path d="M225.049 421.9C225.049 425.35 222.299 428.1 218.849 428.1C215.449 428.1 212.649 425.35 212.649 421.9C212.649 418.45 215.449 415.7 218.849 415.7C222.299 415.7 225.049 418.45 225.049 421.9Z" fill="#265399"/>
<path d="M328 438.8L281.15 424.5L282.8 419L329.65 433.3L328 438.8Z" fill="#265399"/>
<path opacity="0.4" d="M328 438.8L281.15 424.5L282.8 419L329.65 433.3L328 438.8Z" fill="white"/>
<path d="M308.1 433.85L302.65 432.1L305.25 424L310.7 425.75L308.1 433.85Z" fill="#265399"/>
<path d="M328.35 446.8L340.55 394.45L377.05 403.2L358.95 454.2L328.35 446.8Z" fill="#265399"/>
<path d="M320.25 444.15L328.35 446.8L340.55 394.45L328.9 397.2L320.25 444.15Z" fill="#265399"/>
<path opacity="0.2" d="M320.25 444.15L328.35 446.8L340.55 394.45L328.9 397.2L320.25 444.15Z" fill="black"/>
<path d="M275.75 421.75C275.75 425.15 278.55 427.95 281.95 427.95C285.4 427.95 288.2 425.2 288.2 421.75C288.2 418.35 285.4 415.55 282 415.55C278.55 415.55 275.75 418.3 275.75 421.75Z" fill="#265399"/>
<path d="M322.65 357.15C322.8 357 337.85 343.05 355.6 347.8C373.7 352.7 388.65 379.95 388.8 380.25L393.85 377.55C393.15 376.3 377.55 347.8 357.05 342.3C336.2 336.65 319.4 352.3 318.7 353L322.65 357.15Z" fill="#265399"/>
<path opacity="0.4" d="M322.65 357.15C322.8 357 337.85 343.05 355.6 347.8C373.7 352.7 388.65 379.95 388.8 380.25L393.85 377.55C393.15 376.3 377.55 347.8 357.05 342.3C336.2 336.65 319.4 352.3 318.7 353L322.65 357.15Z" fill="white"/>
<path d="M382.1 407.7L392.95 402C391.9 400 390.65 396.65 390.45 393.55C390.2 389.6 391.8 388.2 393.5 387.3C397.3 385.3 399.6 386.1 401.15 387C403.3 388.3 405.5 390.9 407.35 394.4L418.2 388.65C415.25 383.05 411.6 378.9 407.35 376.45C403.15 373.95 396.35 371.95 387.8 376.45C381.15 379.95 377.75 386.3 378.2 394.3C378.6 400.6 381.3 406.15 382.1 407.7Z" fill="#265399"/>
<path d="M324.95 338C327.3 336.4 329.7 334.85 332.1 333.35C334.55 331.85 337 330.35 339.45 328.9C341.9 327.45 344.35 326.05 346.85 324.65L350.6 322.6C351.9 321.95 353.15 321.3 354.4 320.65C353.25 321.5 352.05 322.25 350.85 323.05L347.25 325.35C344.85 326.85 342.4 328.3 339.95 329.75C337.45 331.2 335 332.65 332.5 334C330 335.4 327.5 336.75 324.95 338Z" fill="#263238"/>
<path d="M318.7 361.4C322.1 363.35 325.3 365.5 328.45 367.75C331.55 370 334.65 372.3 337.55 374.85C334.2 372.95 331 370.75 327.85 368.55C324.7 366.3 321.65 364 318.7 361.4Z" fill="#263238"/>
<path d="M324.25 358.55C326.85 359.35 329.4 360.25 331.95 361.15C334.5 362.05 337.05 363 339.55 363.95C342.1 364.95 344.6 365.95 347.1 367L350.85 368.6C352.05 369.2 353.3 369.75 354.5 370.3C353.2 369.95 351.95 369.5 350.65 369.1L346.8 367.75C344.25 366.85 341.75 365.85 339.2 364.9C336.7 363.9 334.15 362.9 331.7 361.85C329.2 360.8 326.7 359.7 324.25 358.55Z" fill="#263238"/>
<path d="M331.65 340.2C334.1 339.55 336.65 339.05 339.15 338.5C341.65 337.95 344.15 337.5 346.7 337.05C349.2 336.65 351.75 336.2 354.3 335.85L358.1 335.3C359.4 335.15 360.65 335 361.95 334.9C360.7 335.2 359.45 335.5 358.2 335.8L354.45 336.6C351.9 337.15 349.4 337.6 346.85 338.05C344.35 338.5 341.8 338.9 339.25 339.25C336.75 339.65 334.2 340 331.65 340.2Z" fill="#263238"/>
<path d="M271.6 355.8C272.05 353.75 272.7 351.8 273.6 349.9C274.5 348.05 275.55 346.25 276.9 344.65C278.25 343.05 279.95 341.65 281.95 340.9C283.95 340.15 286.25 340.15 288.25 340.95C290.3 341.75 291.9 343.45 292.75 345.4C293.2 346.4 293.5 347.45 293.6 348.5C293.7 349.6 293.65 350.7 293.2 351.8C293 352.3 292.65 352.85 292.1 353.2C291.85 353.4 291.55 353.5 291.2 353.55C290.9 353.6 290.6 353.55 290.2 353.45C289.55 353.15 289.2 352.6 288.95 352.15C288.683 351.65 288.483 351.133 288.35 350.6C287.75 348.5 287.7 346.4 287.8 344.3C288.1 340.1 289.2 335.95 291.45 332.35C292.6 330.55 294.05 328.9 295.8 327.7C297.55 326.5 299.6 325.7 301.7 325.45C302.7 325.2 303.8 325.2 304.85 325.15C305.35 325.1 305.9 325.25 306.4 325.25C306.95 325.35 307.45 325.35 307.95 325.5C310.05 325.85 312 326.7 313.85 327.7C315.65 328.75 317.25 330.1 318.75 331.55C320.2 333 321.5 334.6 322.6 336.4C320.2 333 317.2 330.1 313.6 328.1C311.8 327.2 309.85 326.4 307.85 326.1C307.35 325.95 306.85 326 306.35 325.95C305.85 325.9 305.35 325.8 304.85 325.85C303.85 325.95 302.8 325.95 301.85 326.2C299.8 326.5 297.95 327.3 296.3 328.45C294.65 329.55 293.3 331.1 292.25 332.8C290.1 336.25 289.05 340.3 288.8 344.35C288.7 346.35 288.75 348.45 289.25 350.35C289.5 351.25 289.95 352.3 290.55 352.6C290.65 352.6 290.7 352.65 290.8 352.65C290.9 352.65 291 352.65 291.1 352.6C291.3 352.6 291.45 352.55 291.6 352.45C291.95 352.2 292.2 351.85 292.4 351.45C292.75 350.6 292.8 349.6 292.7 348.6C292.6 347.65 292.35 346.65 291.95 345.75C291.15 343.95 289.75 342.4 287.95 341.65C286.15 340.9 284 340.8 282.15 341.45C280.25 342.15 278.65 343.45 277.25 344.95C274.55 348 272.7 351.8 271.6 355.8Z" fill="#263238"/>
<path d="M179.2 381.7C180.2 379.9 181.6 378.3 183.25 377.05C184.9 375.8 186.8 374.85 188.85 374.4C190.9 373.9 193.1 373.9 195.1 374.5C197.15 375.1 199 376.3 200.45 377.85C201.95 379.35 203.05 381.2 203.8 383.15C204.55 385.15 205 387.25 204.85 389.4C204.7 390.45 204.5 391.6 203.65 392.5C203.25 392.95 202.6 393.25 202 393.25C201.4 393.25 200.8 393.15 200.25 392.9C199.7 392.6 199.25 392.1 199 391.55C198.75 391 198.65 390.45 198.65 389.9C198.6 388.75 198.85 387.7 199.15 386.7C199.85 384.65 200.95 382.85 202.25 381.2C203.55 379.5 205.05 378.05 206.75 376.85C210.15 374.35 214.45 373 218.7 373.55C220.75 373.85 222.8 374.45 224.65 375.5C226.45 376.5 228.05 377.95 229.35 379.55C230.65 381.2 231.65 383.05 232.45 384.95C233.2 386.85 233.8 388.85 234.1 390.9C233.25 386.9 231.6 383 228.95 379.9C227.65 378.35 226.1 377 224.3 376.05C222.55 375.1 220.6 374.55 218.6 374.35C214.6 373.9 210.55 375.2 207.3 377.55C204.1 379.95 201.45 383.25 200.1 387C199.8 387.95 199.55 388.9 199.6 389.85C199.65 390.8 199.95 391.7 200.7 392.05C201.05 392.25 201.55 392.35 201.95 392.35C202.35 392.317 202.7 392.15 203 391.85C203.6 391.25 203.85 390.25 203.95 389.3C204.1 387.35 203.7 385.35 203 383.45C202.25 381.6 201.2 379.85 199.85 378.4C198.5 376.95 196.8 375.8 194.9 375.15C193 374.55 190.95 374.5 189 374.9C185.05 375.75 181.4 378.2 179.2 381.7Z" fill="#263238"/>
<path d="M132.95 140.2C132.85 136.1 131.95 131.95 130.05 128.35C129.1 126.55 127.8 124.9 126.15 123.8C124.5 122.7 122.4 122.25 120.45 122.6C118.55 122.9 116.8 124.05 115.6 125.6C115 126.4 114.5 127.3 114.2 128.2C113.85 129.1 113.7 130.1 113.85 131.05C113.9 131.5 114.05 131.9 114.35 132.15C114.45 132.3 114.65 132.4 114.8 132.5C114.9 132.55 115 132.55 115.1 132.55C115.2 132.6 115.25 132.55 115.35 132.55C116 132.45 116.7 131.55 117.15 130.7C118.05 128.95 118.6 127 119 125C119.7 121 119.65 116.8 118.4 113C117.8 111.05 116.85 109.25 115.5 107.75C114.2 106.25 112.55 105 110.7 104.25C109.8 103.8 108.8 103.55 107.85 103.25C107.35 103.05 106.85 103.05 106.35 102.9C105.85 102.85 105.35 102.7 104.85 102.75C102.8 102.55 100.8 102.85 98.7996 103.35C94.8496 104.35 91.1996 106.5 88.0996 109.2C89.5496 107.75 91.2496 106.5 92.9996 105.4C94.7996 104.35 96.6496 103.45 98.6496 102.85C100.7 102.3 102.8 101.95 104.9 102.1C105.4 102.05 105.95 102.2 106.45 102.25C106.95 102.35 107.5 102.35 108 102.55C109 102.85 110.05 103.1 111 103.55C112.95 104.3 114.75 105.6 116.15 107.2C117.6 108.75 118.6 110.7 119.3 112.7C120.6 116.7 120.7 121.05 119.95 125.2C119.55 127.25 119 129.3 117.95 131.2C117.716 131.667 117.4 132.117 117 132.55C116.6 132.95 116.15 133.4 115.45 133.5C115.05 133.55 114.75 133.45 114.45 133.35C114.15 133.25 113.9 133.05 113.65 132.8C113.2 132.35 113 131.75 112.95 131.15C112.75 130 113 128.95 113.35 127.9C113.7 126.9 114.25 125.95 114.9 125.1C116.2 123.4 118.2 122.1 120.35 121.8C122.5 121.5 124.75 122.05 126.5 123.25C128.25 124.5 129.55 126.25 130.5 128.1C131.4 130 132.05 132 132.45 134.05C132.85 136.05 133.05 138.15 132.95 140.2Z" fill="#263238"/>
<path d="M353.749 192.35C349.749 191.5 345.499 191.4 341.549 192.4C339.599 192.95 337.699 193.8 336.199 195.15C334.799 196.5 333.849 198.45 333.699 200.4C333.549 202.35 334.299 204.3 335.549 205.85C336.149 206.6 336.899 207.3 337.699 207.8C338.549 208.35 339.449 208.75 340.399 208.85C340.849 208.85 341.299 208.8 341.599 208.6C341.799 208.5 341.899 208.35 342.049 208.2C342.099 208.15 342.099 208.05 342.199 207.95C342.199 207.85 342.199 207.8 342.249 207.75C342.249 207.05 341.549 206.2 340.849 205.55C339.349 204.2 337.549 203.25 335.699 202.4C331.999 200.8 327.949 199.85 323.899 200.15C321.899 200.3 319.899 200.8 318.149 201.75C316.399 202.7 314.799 204 313.649 205.65C312.949 206.4 312.499 207.3 311.949 208.15C311.649 208.6 311.549 209.1 311.299 209.55C311.149 210 310.849 210.45 310.749 210.95C310.099 212.9 309.949 214.95 309.949 216.95C310.049 221.05 311.249 225.1 313.149 228.75C312.049 227 311.249 225.1 310.599 223.1C309.999 221.15 309.549 219.1 309.449 217C309.399 214.9 309.549 212.8 310.149 210.75C310.249 210.25 310.499 209.8 310.699 209.3C310.899 208.8 311.049 208.3 311.349 207.85C311.849 206.95 312.299 205.95 312.999 205.15C314.199 203.45 315.849 202 317.749 201C319.599 199.95 321.699 199.45 323.799 199.25C328.049 198.9 332.249 199.85 336.099 201.5C338.049 202.35 339.899 203.4 341.499 204.85C341.899 205.217 342.266 205.617 342.599 206.05C342.899 206.55 343.199 207.1 343.149 207.8C343.099 208.2 342.949 208.5 342.799 208.75C342.599 209 342.349 209.25 342.049 209.4C341.499 209.7 340.899 209.8 340.299 209.75C339.149 209.6 338.149 209.15 337.249 208.55C336.349 207.95 335.549 207.25 334.849 206.4C333.499 204.7 332.699 202.5 332.949 200.35C333.149 198.15 334.199 196.15 335.799 194.7C337.399 193.25 339.399 192.45 341.449 191.95C343.499 191.5 345.549 191.35 347.649 191.45C349.699 191.5 351.799 191.8 353.749 192.35Z" fill="#263238"/>
<path d="M291.85 127.65C291.2 125.3 291.1 122.75 291.45 120.3C291.85 117.85 292.7 115.45 294.05 113.35C295.35 111.25 297.25 109.4 299.5 108.25C301.75 107.1 304.3 106.6 306.8 106.65C309.35 106.7 311.8 107.4 314.1 108.4C316.35 109.5 318.5 110.9 320.15 112.85C320.95 113.85 321.7 115 321.75 116.45C321.8 117.15 321.5 117.95 321 118.45C320.45 118.95 319.9 119.35 319.2 119.55C318.55 119.75 317.75 119.7 317.1 119.45C316.45 119.2 315.9 118.8 315.4 118.35C314.45 117.45 313.75 116.3 313.2 115.2C312.1 112.9 311.5 110.45 311.25 107.95C310.95 105.45 311.05 102.9 311.45 100.45C312.3 95.5 314.85 90.75 318.9 87.7C320.9 86.2 323.15 85 325.6 84.4C328 83.75 330.55 83.6 333 83.9C335.5 84.2 337.9 84.95 340.15 85.9C342.4 86.9 344.6 88.1 346.55 89.6C342.5 86.85 337.8 84.9 332.95 84.4C330.55 84.15 328.05 84.35 325.75 85C323.4 85.65 321.3 86.85 319.35 88.35C317.5 89.85 315.9 91.7 314.7 93.8C313.55 95.9 312.8 98.25 312.35 100.6C311.6 105.35 312.1 110.4 314.1 114.75C314.6 115.85 315.25 116.85 316.05 117.65C316.9 118.45 317.95 118.95 318.95 118.65C319.45 118.5 319.95 118.15 320.3 117.8C320.65 117.45 320.85 117 320.85 116.45C320.85 115.4 320.2 114.35 319.45 113.45C317.95 111.6 315.9 110.25 313.75 109.2C311.55 108.2 309.15 107.6 306.75 107.45C304.4 107.35 301.95 107.8 299.8 108.9C297.65 109.95 295.8 111.65 294.5 113.65C291.8 117.7 290.75 122.85 291.85 127.65Z" fill="#263238"/>
<path fill-rule="evenodd" clip-rule="evenodd" d="M183.15 388.65C181.65 393.4 176.6 396 171.9 394.55C167.2 393.05 164.55 388 166.05 383.3C167.55 378.55 172.55 375.95 177.3 377.45C182 378.9 184.65 383.95 183.15 388.65ZM176.05 381.3C173.5 380.5 170.75 381.9 169.9 384.5C169.1 387.1 170.55 389.85 173.1 390.65C175.7 391.5 178.45 390.05 179.3 387.45C180.1 384.85 178.65 382.1 176.05 381.3Z" fill="#455A64"/>
<path d="M173.65 394.7L170.35 393.65L169.8 396.05L172.75 396.95L173.65 394.7Z" fill="#455A64"/>
<path d="M167.75 391.6L166.15 388.55L164.1 389.85L165.5 392.55L167.75 391.6Z" fill="#455A64"/>
<path d="M165.75 385.25L166.8 381.95L164.4 381.4L163.5 384.35L165.75 385.25Z" fill="#455A64"/>
<path d="M168.85 379.35L171.9 377.75L170.6 375.7L167.85 377.1L168.85 379.35Z" fill="#455A64"/>
<path d="M175.2 377.35L178.45 378.4L179 376L176.1 375.1L175.2 377.35Z" fill="#455A64"/>
<path d="M181.1 380.45L182.7 383.5L184.75 382.2L183.35 379.45L181.1 380.45Z" fill="#455A64"/>
<path d="M183.1 386.8L182.05 390.05L184.45 390.6L185.35 387.7L183.1 386.8Z" fill="#455A64"/>
<path d="M180 392.7L176.95 394.3L178.25 396.35L180.95 394.95L180 392.7Z" fill="#455A64"/>
<path fill-rule="evenodd" clip-rule="evenodd" d="M322.5 356.2C316.45 351.7 315.15 343.1 319.65 337C324.2 330.95 332.75 329.7 338.85 334.2C344.9 338.7 346.2 347.3 341.65 353.35C337.15 359.45 328.6 360.7 322.5 356.2ZM334.5 340.05C331.65 337.95 327.65 338.55 325.55 341.35C323.45 344.2 324 348.2 326.85 350.3C329.7 352.45 333.7 351.85 335.8 349C337.9 346.15 337.3 342.15 334.5 340.05Z" fill="#263238"/>
<path d="M324.95 357.3L320.75 354.15L318.75 357.35L322.5 360.1L324.95 357.3Z" fill="#263238"/>
<path d="M317.95 349.9L317.2 344.7L313.55 345.5L314.25 350.15L317.95 349.9Z" fill="#263238"/>
<path d="M318.25 339.7L321.4 335.5L318.25 333.5L315.45 337.25L318.25 339.7Z" fill="#263238"/>
<path d="M325.649 332.75L330.849 331.95L330.049 328.3L325.399 329L325.649 332.75Z" fill="#263238"/>
<path d="M335.85 333L340.05 336.15L342.05 333L338.3 330.2L335.85 333Z" fill="#263238"/>
<path d="M342.85 340.4L343.6 345.65L347.25 344.8L346.55 340.15L342.85 340.4Z" fill="#263238"/>
<path d="M342.549 350.6L339.399 354.8L342.549 356.8L345.349 353.05L342.549 350.6Z" fill="#263238"/>
<path d="M335.15 357.6L329.95 358.35L330.75 362L335.4 361.3L335.15 357.6Z" fill="#263238"/>
<path fill-rule="evenodd" clip-rule="evenodd" d="M327.5 341.5L332.1 340.8L335.05 344.45L333.3 348.8L328.7 349.5L325.75 345.85L327.5 341.5ZM329.25 344.3C328.75 344.95 328.9 345.85 329.55 346.35C330.2 346.85 331.15 346.7 331.6 346.05C332.1 345.4 331.95 344.45 331.3 343.95C330.65 343.5 329.7 343.6 329.25 344.3Z" fill="#263238"/>
<path fill-rule="evenodd" clip-rule="evenodd" d="M358.3 92.5C357 96.65 352.6 98.95 348.45 97.65C344.35 96.35 342.05 91.9 343.35 87.8C344.65 83.65 349.05 81.35 353.2 82.65C357.3 83.95 359.6 88.4 358.3 92.5ZM352.1 86.05C349.85 85.35 347.45 86.6 346.7 88.85C346 91.1 347.25 93.55 349.55 94.25C351.8 94.95 354.2 93.7 354.9 91.45C355.65 89.2 354.4 86.75 352.1 86.05Z" fill="#263238"/>
<path d="M349.999 97.75L347.149 96.85L346.649 98.95L349.199 99.75L349.999 97.75Z" fill="#263238"/>
<path d="M344.849 95.1L343.449 92.4L341.649 93.55L342.849 95.9L344.849 95.1Z" fill="#263238"/>
<path d="M343.1 89.5L344 86.65L341.9 86.15L341.1 88.7L343.1 89.5Z" fill="#263238"/>
<path d="M345.799 84.35L348.449 82.95L347.299 81.15L344.949 82.4L345.799 84.35Z" fill="#263238"/>
<path d="M351.35 82.6L354.2 83.5L354.7 81.4L352.15 80.6L351.35 82.6Z" fill="#263238"/>
<path d="M356.5 85.3L357.9 87.95L359.7 86.85L358.5 84.45L356.5 85.3Z" fill="#263238"/>
<path d="M358.25 90.85L357.35 93.75L359.45 94.2L360.25 91.65L358.25 90.85Z" fill="#263238"/>
<path d="M355.549 96L352.899 97.4L353.999 99.25L356.399 98L355.549 96Z" fill="#263238"/>
<path fill-rule="evenodd" clip-rule="evenodd" d="M320.099 235.35C318.799 239.5 314.399 241.8 310.249 240.5C306.099 239.2 303.849 234.8 305.149 230.65C306.449 226.55 310.849 224.25 314.949 225.55C319.099 226.85 321.399 231.25 320.099 235.35ZM313.899 228.9C311.649 228.2 309.199 229.45 308.499 231.7C307.799 234 309.049 236.4 311.299 237.1C313.599 237.85 315.999 236.55 316.699 234.3C317.399 232.05 316.149 229.65 313.899 228.9Z" fill="#263238"/>
<path d="M311.799 240.65L308.899 239.75L308.449 241.8L310.999 242.6L311.799 240.65Z" fill="#263238"/>
<path d="M306.599 237.95L305.249 235.25L303.399 236.4L304.649 238.8L306.599 237.95Z" fill="#263238"/>
<path d="M304.849 232.4L305.749 229.5L303.699 229L302.899 231.6L304.849 232.4Z" fill="#263238"/>
<path d="M307.549 227.2L310.249 225.8L309.099 224L306.699 225.25L307.549 227.2Z" fill="#263238"/>
<path d="M313.1 225.45L316 226.35L316.5 224.3L313.9 223.5L313.1 225.45Z" fill="#263238"/>
<path d="M318.3 228.15L319.7 230.85L321.5 229.7L320.25 227.3L318.3 228.15Z" fill="#263238"/>
<path d="M320.049 233.7L319.149 236.6L321.199 237.1L322.049 234.5L320.049 233.7Z" fill="#263238"/>
<path d="M317.349 238.9L314.649 240.3L315.799 242.1L318.199 240.85L317.349 238.9Z" fill="#263238"/>
<path fill-rule="evenodd" clip-rule="evenodd" d="M80.7497 125.65C74.4497 124.1 70.5497 117.75 72.0997 111.4C73.6497 105.1 79.9997 101.2 86.3497 102.75C92.6997 104.3 96.5497 110.65 94.9997 117C93.4997 123.3 87.0997 127.2 80.7497 125.65ZM84.8497 108.85C81.8997 108.15 78.9497 109.95 78.1997 112.9C77.4997 115.85 79.2997 118.85 82.2497 119.55C85.1997 120.25 88.1997 118.45 88.8997 115.5C89.6497 112.55 87.7997 109.55 84.8497 108.85Z" fill="#263238"/>
<path d="M83.0994 125.7L78.6994 124.65L78.1494 127.85L82.0994 128.8L83.0994 125.7Z" fill="#263238"/>
<path d="M75.0496 122.2L72.6996 118.3L70.0996 120.2L72.1996 123.65L75.0496 122.2Z" fill="#263238"/>
<path d="M71.8998 114L72.9498 109.6L69.7998 109.1L68.7998 113L71.8998 114Z" fill="#263238"/>
<path d="M75.4002 106L79.3002 103.65L77.4002 101.05L73.9502 103.1L75.4002 106Z" fill="#263238"/>
<path d="M83.5996 102.8L87.9996 103.9L88.4996 100.7L84.5996 99.75L83.5996 102.8Z" fill="#263238"/>
<path d="M91.5996 106.35L93.9496 110.2L96.5996 108.35L94.4996 104.9L91.5996 106.35Z" fill="#263238"/>
<path d="M94.8002 114.5L93.7002 118.9L96.9002 119.45L97.8502 115.5L94.8002 114.5Z" fill="#263238"/>
<path d="M91.2494 122.55L87.3994 124.9L89.2494 127.5L92.6994 125.4L91.2494 122.55Z" fill="#263238"/>
<path fill-rule="evenodd" clip-rule="evenodd" d="M79.7998 112.35L83.2498 110.25L86.7998 112.2L86.8498 116.2L83.4498 118.3L79.8998 116.35L79.7998 112.35ZM82.0998 114C81.8998 114.7 82.3498 115.4 82.9998 115.55C83.6998 115.7 84.3998 115.3 84.5498 114.6C84.7498 113.9 84.2998 113.25 83.6498 113.05C82.9498 112.9 82.2498 113.3 82.0998 114Z" fill="#263238"/>
<path d="M361.6 238.95C358.9 234.85 357.4 230.25 357.4 225.35C357.4 208.15 376.25 194.25 399.55 194.25C422.85 194.25 441.7 208.15 441.7 225.35C441.7 242.55 422.85 256.5 399.55 256.5C388.25 256.5 378.05 253.25 370.45 247.9L355.95 251.6L361.6 238.95Z" fill="white"/>
<path fill-rule="evenodd" clip-rule="evenodd" d="M361.6 238.95C359.05 235.15 357.45 230.7 357.3 226.1C357.15 221.55 358.3 216.9 360.65 212.95C362.95 208.95 366.2 205.6 369.9 202.9C373.6 200.15 377.8 198.1 382.15 196.65C386.5 195.2 391.05 194.35 395.6 193.95C400.2 193.65 404.8 193.9 409.35 194.65C410.45 194.9 411.6 195.05 412.7 195.35L416.05 196.25L419.3 197.4C420.4 197.75 421.4 198.3 422.45 198.75C426.6 200.75 430.5 203.3 433.8 206.6C437.05 209.85 439.7 213.8 441.1 218.25C442.45 222.7 442.55 227.55 441.2 232C439.9 236.5 437.35 240.5 434.1 243.8C430.9 247.1 427 249.75 422.9 251.75C418.75 253.8 414.3 255.15 409.8 255.95C405.25 256.75 400.65 257.05 396.1 256.75C391.5 256.45 386.95 255.65 382.6 254.2C378.3 252.75 374.15 250.8 370.4 248.15L355.95 251.7L355.75 251.75L355.85 251.55L361.6 238.95ZM370.45 248.15L370.55 248.1L370.35 248.05C370.383 248.083 370.417 248.117 370.45 248.15ZM361.6 238.95L356.15 251.4L370.4 247.65H370.5L370.6 247.7C378.1 252.85 387.1 255.55 396.15 256.05C400.65 256.3 405.2 255.95 409.65 255.15C414.1 254.3 418.45 253 422.5 250.95C426.55 249 430.3 246.4 433.45 243.15C436.6 239.95 439.05 236.05 440.3 231.75C441.6 227.45 441.45 222.8 440.15 218.55C438.8 214.3 436.3 210.45 433.1 207.25C429.95 204.05 426.15 201.55 422.1 199.6C421.05 199.15 420.05 198.6 419 198.25L415.8 197.1L412.5 196.2C411.45 195.9 410.3 195.75 409.2 195.5C404.75 194.75 400.2 194.5 395.7 194.8C391.15 195.1 386.7 195.9 382.4 197.3C378.05 198.7 373.95 200.7 370.25 203.35C366.6 206 363.35 209.25 361 213.15C358.65 217 357.45 221.55 357.5 226.1C357.6 230.65 359.1 235.1 361.6 238.95ZM356.15 251.4L355.9 251.45L356.05 251.6L356.15 251.4Z" fill="#263238"/>
<path d="M377.85 230.45V232.8H368.45V219.2H377.7V221.5H371.05V224.8H376.8V226.9H371.05V230.45H377.85Z" fill="#263238"/>
<path fill-rule="evenodd" clip-rule="evenodd" d="M379.95 232.8V219.2H385.95C386.584 219.2 387.15 219.333 387.65 219.6C388.184 219.867 388.65 220.2 389.05 220.6C389.417 221.033 389.717 221.517 389.95 222.05C390.15 222.617 390.25 223.167 390.25 223.7C390.25 224.6 390.034 225.4 389.6 226.1C389.167 226.833 388.567 227.35 387.8 227.65L390.9 232.8H387.95L385.15 228.2H382.55V232.8H379.95ZM382.6 225.9H385.9C386.167 225.9 386.4 225.85 386.6 225.75C386.8 225.617 386.984 225.45 387.15 225.25C387.317 225.05 387.434 224.817 387.5 224.55C387.6 224.283 387.65 224 387.65 223.7C387.65 223.4 387.6 223.117 387.5 222.85C387.4 222.583 387.267 222.35 387.1 222.15C386.9 221.95 386.7 221.783 386.5 221.65C386.267 221.55 386.034 221.5 385.8 221.5H382.6V225.9Z" fill="#263238"/>
<path fill-rule="evenodd" clip-rule="evenodd" d="M392.65 232.8V219.2H398.65C399.284 219.2 399.867 219.333 400.4 219.6C400.934 219.867 401.384 220.2 401.75 220.6C402.15 221.033 402.45 221.517 402.65 222.05C402.884 222.617 403 223.167 403 223.7C403 224.6 402.784 225.4 402.35 226.1C401.884 226.833 401.284 227.35 400.55 227.65L403.65 232.8H400.65L397.9 228.2H395.3V232.8H392.65ZM395.3 225.9H398.6C398.834 225.9 399.067 225.85 399.3 225.75C399.5 225.617 399.667 225.45 399.8 225.25C399.967 225.05 400.1 224.817 400.2 224.55C400.267 224.283 400.3 224 400.3 223.7C400.3 223.4 400.25 223.117 400.15 222.85C400.05 222.583 399.917 222.35 399.75 222.15C399.584 221.95 399.384 221.783 399.15 221.65C398.95 221.55 398.734 221.5 398.5 221.5H395.3V225.9Z" fill="#263238"/>
<path fill-rule="evenodd" clip-rule="evenodd" d="M411.2 232.85C410.2 232.85 409.283 232.667 408.45 232.3C407.65 231.9 406.966 231.383 406.4 230.75C405.8 230.083 405.35 229.35 405.05 228.55C404.716 227.717 404.55 226.867 404.55 226C404.55 225.1 404.716 224.233 405.05 223.4C405.383 222.567 405.85 221.833 406.45 221.2C407.05 220.533 407.766 220.017 408.6 219.65C409.4 219.283 410.283 219.1 411.25 219.1C412.216 219.1 413.116 219.3 413.95 219.7C414.75 220.1 415.433 220.633 416 221.3C416.566 221.933 417.016 222.667 417.35 223.5C417.65 224.333 417.8 225.167 417.8 226C417.8 226.933 417.633 227.8 417.3 228.6C416.966 229.433 416.516 230.167 415.95 230.8C415.35 231.433 414.65 231.933 413.85 232.3C413.016 232.667 412.133 232.85 411.2 232.85ZM407.25 226C407.25 226.567 407.333 227.133 407.5 227.7C407.666 228.233 407.933 228.717 408.3 229.15C408.633 229.55 409.033 229.883 409.5 230.15C410 230.417 410.566 230.55 411.2 230.55C411.833 230.55 412.4 230.417 412.9 230.15C413.4 229.883 413.816 229.533 414.15 229.1C414.483 228.667 414.733 228.183 414.9 227.65C415.066 227.117 415.15 226.567 415.15 226C415.15 225.4 415.066 224.833 414.9 224.3C414.7 223.733 414.433 223.25 414.1 222.85C413.766 222.417 413.35 222.067 412.85 221.8C412.35 221.567 411.8 221.45 411.2 221.45C410.566 221.45 410 221.583 409.5 221.85C409 222.117 408.583 222.467 408.25 222.9C407.916 223.3 407.666 223.783 407.5 224.35C407.333 224.883 407.25 225.433 407.25 226Z" fill="#263238"/>
<path fill-rule="evenodd" clip-rule="evenodd" d="M419.851 232.8V219.2H425.851C426.484 219.2 427.067 219.333 427.601 219.6C428.134 219.867 428.584 220.2 428.951 220.6C429.351 221.033 429.651 221.517 429.851 222.05C430.084 222.617 430.201 223.167 430.201 223.7C430.201 224.6 429.967 225.4 429.501 226.1C429.067 226.833 428.484 227.35 427.751 227.65L430.851 232.8H427.851L425.101 228.2H422.501V232.8H419.851ZM422.501 225.9H425.801C426.034 225.9 426.251 225.85 426.451 225.75C426.684 225.617 426.867 225.45 427.001 225.25C427.167 225.05 427.301 224.817 427.401 224.55C427.467 224.283 427.501 224 427.501 223.7C427.501 223.4 427.451 223.117 427.351 222.85C427.251 222.583 427.117 222.35 426.951 222.15C426.784 221.95 426.584 221.783 426.351 221.65C426.117 221.55 425.901 221.5 425.701 221.5H422.501V225.9Z" fill="#263238"/>
</svg>
