<svg width="33" height="33" viewBox="0 0 33 33" fill="none" xmlns="http://www.w3.org/2000/svg">
<path d="M9.95362 11.0484V5.04839C9.95362 4.78317 10.059 4.52882 10.2465 4.34128C10.4341 4.15375 10.6884 4.04839 10.9536 4.04839C11.2188 4.04839 11.4732 4.15375 11.6607 4.34128C11.8483 4.52882 11.9536 4.78317 11.9536 5.04839V11.0484C11.9536 11.3136 11.8483 11.568 11.6607 11.7555C11.4732 11.943 11.2188 12.0484 10.9536 12.0484C10.6884 12.0484 10.4341 11.943 10.2465 11.7555C10.059 11.568 9.95362 11.3136 9.95362 11.0484ZM27.9536 5.04839V28.0484C27.9536 28.3136 27.8483 28.568 27.6607 28.7555C27.4732 28.943 27.2188 29.0484 26.9536 29.0484C26.6884 29.0484 26.4341 28.943 26.2465 28.7555C26.059 28.568 25.9536 28.3136 25.9536 28.0484V22.0484H19.9536C19.6884 22.0484 19.4341 21.943 19.2465 21.7555C19.059 21.568 18.9536 21.3136 18.9536 21.0484C19.0001 18.653 19.3026 16.2694 19.8561 13.9384C21.0786 8.87714 23.3961 5.48464 26.5599 4.12964C26.7119 4.0645 26.8778 4.03811 27.0426 4.05282C27.2073 4.06753 27.3659 4.12289 27.504 4.21394C27.6421 4.30499 27.7555 4.42887 27.834 4.57451C27.9124 4.72014 27.9535 4.88296 27.9536 5.04839ZM25.9536 6.78589C21.9324 9.85714 21.1449 17.3384 20.9911 20.0484H25.9536V6.78589ZM15.9399 4.88464C15.9203 4.75333 15.8748 4.62724 15.8059 4.51372C15.7371 4.40019 15.6463 4.30151 15.539 4.22343C15.4316 4.14534 15.3098 4.08942 15.1806 4.05892C15.0514 4.02841 14.9174 4.02395 14.7864 4.04577C14.6555 4.0676 14.5302 4.11528 14.4178 4.18604C14.3055 4.2568 14.2084 4.34921 14.1321 4.4579C14.0559 4.56658 14.0021 4.68936 13.9738 4.81907C13.9455 4.94878 13.9433 5.08283 13.9674 5.21339L14.9536 11.1271C14.9536 12.188 14.5322 13.2054 13.7821 13.9556C13.0319 14.7057 12.0145 15.1271 10.9536 15.1271C9.89276 15.1271 8.87534 14.7057 8.1252 13.9556C7.37505 13.2054 6.95362 12.188 6.95362 11.1271L7.93862 5.21339C7.96268 5.08283 7.9605 4.94878 7.93221 4.81907C7.90392 4.68936 7.85009 4.56658 7.77385 4.4579C7.69761 4.34921 7.60049 4.2568 7.48816 4.18604C7.37583 4.11528 7.25053 4.0676 7.11958 4.04577C6.98863 4.02395 6.85464 4.02841 6.72543 4.05892C6.59622 4.08942 6.47438 4.14534 6.36701 4.22343C6.25965 4.30151 6.1689 4.40019 6.10007 4.51372C6.03124 4.62724 5.98571 4.75333 5.96612 4.88464L4.96612 10.8846C4.95757 10.9388 4.95339 10.9936 4.95362 11.0484C4.95562 12.4657 5.45852 13.8366 6.37346 14.919C7.28839 16.0013 8.55647 16.7255 9.95362 16.9634V28.0484C9.95362 28.3136 10.059 28.568 10.2465 28.7555C10.4341 28.943 10.6884 29.0484 10.9536 29.0484C11.2188 29.0484 11.4732 28.943 11.6607 28.7555C11.8483 28.568 11.9536 28.3136 11.9536 28.0484V16.9634C13.3508 16.7255 14.6189 16.0013 15.5338 14.919C16.4487 13.8366 16.9516 12.4657 16.9536 11.0484C16.9534 10.9935 16.9488 10.9388 16.9399 10.8846L15.9399 4.88464Z" fill="black"/>
</svg>
