<svg width="500" height="500" viewBox="0 0 500 500" fill="none" xmlns="http://www.w3.org/2000/svg">
<path d="M365.8 453.45C365.8 462.7 313.95 470.25 250 470.25C186.05 470.25 134.2 462.7 134.2 453.45C134.2 444.15 186.05 436.6 250 436.6C313.95 436.6 365.8 444.15 365.8 453.45Z" fill="#EBEBEB"/>
<path d="M34.55 397.15L88.4 396.95L142.3 396.85L250 396.65L357.7 396.85L411.6 396.95L465.45 397.15L411.6 397.4L357.7 397.5L250 397.65L142.3 397.5L88.4 397.4L34.55 397.15Z" fill="#263238"/>
<path d="M233.75 350.95L262.2 388.55C267.7 395.7 272.35 402.1 274.45 405.6C274.483 405.633 274.5 405.65 274.5 405.65C275.3 407 275.7 407.9 275.65 408.25C275.65 408.283 275.65 408.317 275.65 408.35C274.6 411.4 218.7 456.85 216.25 457.8C213.75 458.75 210.9 451.7 211.65 448.2C212.45 444.7 226.05 417.75 226.05 417.75L198 379.9L233.75 350.95Z" fill="#EB9481"/>
<path d="M256.35 380.85L262.2 388.55C267.7 395.7 272.35 402.1 274.45 405.6C274.483 405.633 274.5 405.65 274.5 405.65C275.2 407.05 275.65 407.95 275.65 408.25C275.65 408.283 275.65 408.317 275.65 408.35C274.6 411.4 218.7 456.85 216.25 457.8C213.75 458.75 210.9 451.7 211.65 448.2C212.45 444.7 226.05 417.75 226.05 417.75L220.05 410L256.35 380.85Z" fill="#EBEBEB"/>
<path d="M216.25 457.8C218.7 456.85 274.6 411.45 275.65 408.35C276.05 407.2 269.9 398.65 262.2 388.55C262.133 388.45 262.05 388.35 261.95 388.25L225.55 417.15L226.05 417.75C226.05 417.75 212.45 444.7 211.65 448.2C210.9 451.7 213.75 458.7 216.25 457.8Z" fill="#FF9F1C"/>
<path d="M215.1 455.1C224.35 447.2 262.35 416.25 272.05 409.15C272.15 409.1 272.2 409.15 272.1 409.25C263.15 417.25 224.9 447.9 215.25 455.25C215.05 455.4 214.9 455.25 215.1 455.1Z" fill="#263238"/>
<path d="M223.15 420.3C226.25 416.6 231.25 413.5 236.25 413.85C236.45 413.85 236.4 414.1 236.25 414.2C231.7 416 227.65 418.05 223.5 420.8C223.25 420.95 222.9 420.6 223.15 420.3Z" fill="#263238"/>
<path d="M221.75 424.1C224.9 420.4 229.9 417.3 234.9 417.65C235.1 417.65 235.05 417.9 234.9 417.95C230.3 419.8 226.3 421.85 222.15 424.55C221.85 424.75 221.55 424.35 221.75 424.1Z" fill="#263238"/>
<path d="M220.4 427.9C223.55 424.2 228.55 421.05 233.5 421.4C233.7 421.45 233.7 421.7 233.55 421.75C228.95 423.6 224.95 425.6 220.8 428.35C220.5 428.55 220.15 428.15 220.4 427.9Z" fill="#263238"/>
<path d="M260.1 383.65L221.15 416.25C221.15 416.25 176.3 359 166.2 330.15C159 309.55 192.25 206.6 192.25 206.6L234.7 203.75C234.7 203.75 207.25 302.9 210.3 312.5C214 324.25 260.1 383.65 260.1 383.65Z" fill="#37474F"/>
<path d="M216.8 406.9C222.85 401.9 221.05 403.25 227.15 398.3C230.15 395.85 249.8 379.95 253 378.15C253.1 378.1 253.15 378.2 253.1 378.3C250.65 381 230.7 396.55 227.7 398.95C221.5 403.75 223.2 402.3 216.95 407.1C216.85 407.15 216.7 407 216.8 406.9Z" fill="#263238"/>
<path d="M247.15 376.55C239.9 367.5 232.8 358.3 226 348.9C219.2 339.6 212.45 330.1 206.35 320.35C204.95 318.1 203.65 315.8 202.85 313.25C201.95 310.35 202.05 307.45 202.55 304.5C203.5 298.7 204.7 292.95 205.95 287.2C208.383 275.667 211.15 264.217 214.25 252.85C217.35 241.5 220.8 230.25 224.5 219.05C224.933 217.683 225.383 216.317 225.85 214.95C225.95 214.75 225.6 214.65 225.55 214.85C221.4 226.05 217.75 237.45 214.45 248.9C211.15 260.333 208.217 271.85 205.65 283.45C204.383 289.283 203.2 295.133 202.1 301C201.55 303.85 200.9 306.8 201.05 309.7C201.2 312.3 202.05 314.75 203.15 317.05C204.35 319.55 205.9 321.8 207.45 324.1C209.05 326.533 210.683 328.95 212.35 331.35C215.683 336.217 219.083 341.033 222.55 345.8C229.45 355.25 236.55 364.6 244.2 373.45C245.133 374.55 246.067 375.633 247 376.7C247.05 376.8 247.25 376.65 247.15 376.55Z" fill="#263238"/>
<path d="M234.7 203.75C234.7 203.75 226.7 232.65 219.8 260.8C212.05 244.8 198.9 217.25 194.45 206.45L234.7 203.75Z" fill="#263238"/>
<path d="M285.25 269.65C285.25 269.65 310.6 236.35 310.6 236.3C316.55 229.5 321.85 223.65 324.85 220.9C324.883 220.867 324.9 220.85 324.9 220.85C326.05 219.8 326.85 219.2 327.25 219.2C327.283 219.167 327.3 219.167 327.3 219.2C330.55 219.55 386.25 265.25 387.65 267.5C389.05 269.75 382.75 273.95 379.15 273.9C375.55 273.85 346.45 265.9 346.45 265.9L319.45 299.25L285.25 269.65Z" fill="#EB9481"/>
<path d="M327.25 219.2C327.283 219.167 327.3 219.15 327.3 219.15C330.55 219.55 386.25 265.25 387.65 267.5C389.05 269.75 382.75 273.95 379.15 273.9C375.55 273.85 346.45 265.9 346.45 265.9L341.55 272.55C332.4 265.15 315.65 251.5 305.5 243.05C308.3 239.05 310.6 236.3 310.6 236.3C316.55 229.5 321.85 223.65 324.85 220.9C324.883 220.867 324.9 220.85 324.9 220.85C326.05 219.8 326.85 219.2 327.25 219.2Z" fill="#EBEBEB"/>
<path d="M387.65 267.5C386.25 265.25 330.55 219.55 327.3 219.2C326.1 219 318.95 226.75 310.6 236.3C310.533 236.4 310.45 236.5 310.35 236.6L345.95 266.5L346.45 265.9C346.45 265.9 375.6 273.85 379.15 273.9C382.75 273.95 389.05 269.75 387.65 267.5Z" fill="#FF9F1C"/>
<path d="M385.25 269.15C375.65 261.7 337.75 230.65 328.85 222.55C328.75 222.45 328.8 222.4 328.9 222.45C338.55 229.65 376.2 261 385.35 269C385.55 269.15 385.45 269.3 385.25 269.15Z" fill="#263238"/>
<path d="M349.55 268.25C345.3 265.9 341.25 261.65 340.55 256.7C340.55 256.5 340.8 256.45 340.9 256.6C343.6 260.75 346.4 264.25 349.9 267.75C350.15 268 349.85 268.4 349.55 268.25Z" fill="#263238"/>
<path d="M353.55 268.85C349.25 266.5 345.2 262.2 344.55 257.25C344.55 257.05 344.8 257.05 344.9 257.2C347.6 261.3 350.4 264.85 353.9 268.35C354.15 268.6 353.85 269 353.55 268.85Z" fill="#263238"/>
<path d="M357.5 269.4C353.25 267.05 349.2 262.8 348.55 257.85C348.5 257.65 348.8 257.6 348.9 257.75C351.6 261.9 354.4 265.45 357.9 268.95C358.15 269.2 357.8 269.6 357.5 269.4Z" fill="#263238"/>
<path d="M193 206.55C193 206.55 193 206.567 193 206.6C193.25 207.45 197.15 221 201.05 232.65C203.85 241.15 206.65 248.55 208.05 249.25C209.6 250.05 217.1 252.8 219.65 253.65C219.65 253.65 235.8 309.55 249.25 327.75C253.85 334 274.85 340.2 285.15 333.5C309.25 317.7 344.95 276.6 344.95 276.6L303.35 242.6L273.9 281.65C266.6 268.1 262.65 240.8 262.65 240.8C262.65 240.8 261 213.8 251.1 202.6L193 206.55Z" fill="#37474F"/>
<path d="M334.85 281.55C328.6 276.8 330.3 278.25 324.1 273.4C321.05 271.05 301.1 255.5 298.65 252.8C298.6 252.7 298.7 252.6 298.75 252.65C301.95 254.45 321.65 270.35 324.65 272.75C330.75 277.7 328.95 276.35 335 281.35C335.1 281.45 334.95 281.65 334.85 281.55Z" fill="#263238"/>
<path d="M249.85 234.15C248.5 233.9 247.1 233.85 245.75 233.75C244.65 233.65 243.55 233.517 242.45 233.35C240.4 233.05 238.35 232.55 236.6 231.35C234.65 230.05 233.55 227.9 232.5 225.85C231.9 224.65 231.283 223.45 230.65 222.25C230.317 221.65 230 221.067 229.7 220.5C229.3 219.8 228.8 219.15 228.5 218.4C228.5 218.3 228.3 218.35 228.35 218.45C228.6 218.95 228.75 219.5 228.95 220C229.15 220.6 229.367 221.183 229.6 221.75C230 222.8 230.4 223.85 230.8 224.9C231.6 226.8 232.3 228.75 233.5 230.4C235.7 233.45 239.3 234.45 242.9 234.65C243.9 234.7 244.95 234.75 245.95 234.7C247.2 234.7 248.55 234.7 249.8 234.5C250 234.45 250.05 234.15 249.85 234.15Z" fill="#263238"/>
<path d="M204.05 247.6C209.35 249.05 214.55 251.25 219.55 253.6C219.75 253.65 219.65 254 219.4 253.9C214.2 252.05 208.9 250.35 203.8 248.2C203.4 248.05 203.65 247.5 204.05 247.6Z" fill="#263238"/>
<path d="M200.15 213C200.15 212.85 200.45 212.8 200.5 212.95C200.85 219 201.6 224.25 202.45 229.85C202.9 232.45 205.95 246.7 210.4 245.35C211.15 245.1 211.5 244.35 211.55 243.2C211.6 241.8 210.95 240.15 210.65 238.8C209.95 235.85 209.3 232.85 208.85 229.8C208 224.15 207.6 218.45 207.9 212.75C207.9 212.55 208.15 212.55 208.2 212.75C208.7 220.6 209.45 228.45 211.15 236.2C211.95 239.9 214.25 245.4 210.35 246.25C206.4 247.1 203.2 237.85 202.5 235.25C200.65 228.15 200.1 220.35 200.15 213Z" fill="#263238"/>
<path d="M210.3 245.75C210.8 246.7 211.2 247.65 211.55 248.65C211.8 249.45 212.15 250.25 212.15 251.1C212.1 251.25 211.9 251.25 211.8 251.15C211.25 250.55 210.95 249.65 210.6 248.85C210.2 247.95 209.75 247.05 209.4 246.15C209.15 245.55 210.05 245.15 210.3 245.75Z" fill="#263238"/>
<path d="M298.9 257.2C292.5 266.4 285.7 275.35 278.55 283.95C276.617 286.283 274.65 288.583 272.65 290.85C266.15 281.85 262.95 271.05 260.45 260.35C259.8 257.6 259.2 254.85 258.55 252.1C257.9 249.15 257.05 246.2 256.65 243.2C256.25 240.05 256.45 236.9 256.15 233.75C255.9 230.75 255.4 227.7 254.75 224.75C253.25 218.05 250.9 211.5 247.9 205.3C247.85 205.25 247.7 205.3 247.75 205.35C250.1 211.1 252.25 216.95 253.7 223C254.433 226.033 254.983 229.117 255.35 232.25C255.75 235.4 255.7 238.55 255.9 241.75C256.1 244.75 256.9 247.65 257.6 250.6C258.2 253.35 258.8 256.1 259.45 258.85C260.7 264.3 262.05 269.75 263.9 275.05C265.95 280.9 268.65 286.55 272.35 291.5C272.5 291.65 272.7 291.7 272.85 291.55C280.2 283.1 287.2 274.35 293.7 265.25C295.533 262.65 297.35 260.017 299.15 257.35C299.25 257.2 299 257.1 298.9 257.2Z" fill="#263238"/>
<path d="M274.15 281.35C273.917 281.75 273.7 282.167 273.5 282.6C273.433 282.633 273.35 282.683 273.25 282.75C273.15 282.85 273 282.95 272.9 283.1C272.667 283.333 272.467 283.6 272.3 283.9C272 284.55 271.9 285.2 271.85 285.9C271.85 285.95 271.9 285.95 271.9 285.9C271.95 285.25 272.25 284.65 272.55 284.05C272.717 283.783 272.9 283.533 273.1 283.3C273.167 283.233 273.217 283.167 273.25 283.1C273.25 283.15 273.2 283.25 273.15 283.3C272.9 284.05 272.7 284.85 272.6 285.6C272.5 286.35 272.55 287.1 272.65 287.85C272.75 288.55 272.75 289.35 273 290.05C273 290.05 273.05 290.05 273.05 290C273.05 289.3 272.95 288.55 273.05 287.8C273.15 287.1 273.3 286.35 273.4 285.65C273.45 284.95 273.6 284.25 273.8 283.55C273.95 282.85 274.1 282.1 274.3 281.4C274.35 281.35 274.2 281.3 274.15 281.35Z" fill="#263238"/>
<path d="M228.35 138.7C220.5 144.35 183.85 159.25 170.45 152.5C156.85 145.65 143.35 108.7 140.7 105.5C133.35 96.7 164.95 84.25 167.85 90.35C172.65 100.5 182.9 127.7 187.65 128.25C197.55 129.5 206.6 128.2 222.15 128.05C232.95 127.9 237.05 132.45 228.35 138.7Z" fill="#EB9481"/>
<path d="M171.15 97.1001C171.15 97.1001 184 126.05 186.9 126.9C191.75 128.25 217.9 127.35 227.3 127.5C236.7 127.7 245.75 136 223.5 144.3C201.25 152.65 182.45 156.95 170.4 154.25C162.85 152.55 142.2 119.95 142.2 119.95L171.15 97.1001Z" fill="#265399"/>
<path opacity="0.1" d="M171.15 97.1001C171.15 97.1001 184 126.05 186.9 126.9C191.75 128.25 217.9 127.35 227.3 127.5C236.7 127.7 245.75 136 223.5 144.3C201.25 152.65 182.45 156.95 170.4 154.25C162.85 152.55 142.2 119.95 142.2 119.95L171.15 97.1001Z" fill="black"/>
<path d="M147.8 125.25C158.15 115.5 170.4 106.95 172.4 105.3C172.5 105.25 172.65 105.4 172.55 105.5C170.45 107 157.45 118.4 147.95 125.45C147.8 125.5 147.7 125.35 147.8 125.25Z" fill="#263238"/>
<path opacity="0.1" d="M237.35 134.15C236.95 137.1 233.2 140.7 223.5 144.3C201.25 152.65 182.45 156.95 170.4 154.25C168.9 153.9 166.85 152.3 164.6 150C181.75 146.3 223.1 137.4 237.35 134.15Z" fill="black"/>
<path d="M142.7 108.8C145.8 111.1 167.7 98.25 168.2 94.3C168.3 93.55 168.15 92.15 167.85 90.35C167.85 90.35 169.4 81.65 173.25 74.85C176.45 69.15 181.9 61.05 178.9 59.2C174.55 56.5 166.45 65.9 162.1 71.6C160.55 68 158.9 65.1 157.3 63.75C152 59.25 129 80.3 130.3 87.2C131.6 93.9 139.6 106.5 142.7 108.8Z" fill="#EB9481"/>
<path d="M164.05 72.3001C162.8 75.6501 159.55 72.2501 159.55 72.2501C159.55 72.2501 163.1 78.3001 160.45 81.3001C157.9 84.1501 154.1 79.9001 153.8 79.6001C154 79.9501 157.1 85.5501 154.15 88.3001C151.1 91.1501 148 86.2001 147.8 85.9001C147.85 86.2501 148.85 91.0001 146.1 92.5501C141.45 95.2501 138.65 83.2001 134.85 81.0501C134.85 81.0501 130.5 87.0501 130.3 87.2001C130.3 87.2001 127.4 75.8001 130.6 70.8501C132.3 68.2001 135.05 69.2501 135.05 69.2501C135.05 69.2501 133.7 65.7001 135.95 63.4501C137.1 62.3501 140 63.1501 140 63.1501C140 63.1501 139 60.2501 141.15 58.4001C142.85 56.9001 145.45 58.0001 145.45 58.0001C145.45 58.0001 145.85 54.7501 148.05 53.8001C152.55 51.9001 166.7 65.0501 164.05 72.3001Z" fill="#EB9481"/>
<path d="M145.9 58.1C145.85 58.05 145.9 58 145.95 58C151.65 61.2 156.95 66.45 159.75 72.4C159.85 72.6 159.55 72.85 159.4 72.65C155.35 67.05 151.35 62.4 145.9 58.1Z" fill="#263238"/>
<path d="M139.95 63.0999C139.9 63.0499 139.95 62.95 140 62.95C145.9 66.3 151.7 72.35 154.1 79.65C154.2 79.9 154 80.2 153.9 79.9C151.95 75.2 144.85 66.8999 139.95 63.0999Z" fill="#263238"/>
<path d="M147.8 86.45C145.2 79.6 140.7 74.25 135.3 69.4C135.25 69.35 135.3 69.25 135.4 69.3C138.7 70.9 141.85 74.35 144.05 77.25C146.15 80 147.5 82.95 148.05 86.4C148.05 86.5 147.85 86.6 147.8 86.45Z" fill="#263238"/>
<path d="M159.65 72.3C159.75 72.5 159.3 72.4 159.4 72.65C159.85 73.65 161.9 79.9 160 81.3C158.45 82.35 155.9 81.05 155.15 80.15L153.2 77.95L154.25 80.7C154.7 81.9 155 83.25 155.05 84.55C155.1 85.85 154.8 87.1 153.95 87.9C153.1 88.75 151.9 88.95 150.9 88.35C149.85 87.75 148.95 86.7 148.3 85.6L146.5 82.6L147.2 86.05C147.4 86.95 147.5 87.95 147.45 88.9C147.4 89.85 147.15 90.8 146.65 91.5C146.15 92.15 145.25 92.55 144.45 92.35C143.65 92.15 142.85 91.5 142.2 90.8C140.85 89.3 139.85 87.55 138.7 85.8C138.15 84.95 137.6 84.1 137 83.25C136.4 82.45 135.75 81.55 134.85 81.05C135.7 81.65 136.2 82.55 136.75 83.4C137.3 84.3 137.75 85.2 138.25 86.1C139.25 87.9 140.25 89.7 141.55 91.35C142.25 92.15 143.05 92.95 144.2 93.3C145.45 93.65 146.75 93.1 147.5 92.15C148.25 91.2 148.5 90.05 148.55 89C148.65 87.9 148.55 86.85 148.35 85.75L147.3 86.2C148.05 87.45 148.9 88.6 150.3 89.4C150.95 89.8 151.85 90.05 152.65 89.9C153.5 89.75 154.2 89.3 154.8 88.75C155.95 87.6 156.25 85.95 156.2 84.5C156.1 83.05 155.75 81.65 155.2 80.3L154.35 80.85C155.35 81.95 158 83.7 160.6 82.35C163.75 80 160.35 73.45 159.65 72.3Z" fill="#263238"/>
<path d="M159.55 72.2501C160.2 72.7001 160.9 73.0501 161.55 73.2501C162.2 73.4001 162.8 73.3001 163.2 72.9001C163.6 72.5001 163.8 71.8001 163.95 71.1001C164.083 70.4001 164.183 69.6501 164.25 68.8501C164.55 69.6001 164.75 70.3501 164.75 71.2001C164.75 72.0001 164.6 72.9001 163.9 73.6001C163.5 73.9501 163.05 74.1501 162.6 74.2501C162.1 74.2501 161.65 74.1501 161.25 73.9501C160.45 73.6001 159.9 72.9501 159.55 72.2501Z" fill="#263238"/>
<path d="M256.35 218C256.15 218.2 191.6 211.05 191.1 210.2C190.35 208.95 209.55 142.1 224.35 128.35C228 124.95 238.25 126.45 242.35 130.9C262.7 152.85 257.05 217.45 256.35 218Z" fill="#EBEBEB"/>
<path d="M223.75 128.35L199 218.65L186.3 209.6C186.3 209.6 207 151.1 212.95 141.75C218.95 132.45 223.75 128.35 223.75 128.35Z" fill="#265399"/>
<path opacity="0.1" d="M223.75 128.35L199 218.65L186.3 209.6C186.3 209.6 207 151.1 212.95 141.75C218.95 132.45 223.75 128.35 223.75 128.35Z" fill="black"/>
<path d="M238.35 127.75C238.35 127.75 237.4 162.45 237.35 170.65C237.35 178.8 235.45 223.35 235.45 223.35L264.8 218C264.8 218 259.45 174.8 257.6 164.85C255.75 154.85 247.9 130.65 238.35 127.75Z" fill="#265399"/>
<path opacity="0.1" d="M238.35 127.75C238.35 127.75 237.4 162.45 237.35 170.65C237.35 178.8 235.45 223.35 235.45 223.35L264.8 218C264.8 218 259.45 174.8 257.6 164.85C255.75 154.85 247.9 130.65 238.35 127.75Z" fill="black"/>
<path d="M245.3 147.25C262.4 164.75 285 183.4 297.55 180.75C308.95 178.35 325.25 165 343.1 150.65C346.65 147.8 323 121.4 319.55 124.8C312.7 131.55 298.7 148.75 293.45 150.65C291.2 151.45 266.15 138.9 249.7 132.65C229.75 125.05 238.5 140.3 245.3 147.25Z" fill="#EB9481"/>
<path d="M358.75 138.5C354.1 144.1 337.85 154.65 333.7 155.25C329.6 155.8 315.6 132.35 317.15 128.35C318.7 124.4 335.9 106.65 343.25 105.15C350.55 103.65 363.6 132.65 358.75 138.5Z" fill="#EB9481"/>
<path d="M332.45 109.7C331.85 113.55 336.7 112.05 336.7 112.05C336.7 112.05 330.25 115.9 331.2 120.1C332.1 124.1 337.9 122.05 338.3 121.95C338 122.15 332.15 125.85 333.5 129.95C334.95 134.2 340.4 131.2 340.75 131C340.5 131.3 337.15 135.25 338.9 138.15C341.9 143.1 350.8 133.15 355.5 133.1C355.5 133.1 358.35 138.7 358.4 138.9C358.4 138.9 365.25 131.95 364.8 125.65C364.55 122.3 361.4 121.85 361.4 121.85C361.4 121.85 364.5 119.15 363.55 115.9C363 114.25 359.9 113.55 359.9 113.55C359.9 113.55 362.3 111.3 361.25 108.45C360.4 106.15 357.4 105.85 357.4 105.85C357.4 105.85 358.7 102.6 357.1 100.55C353.85 96.4 333.7 101.5 332.45 109.7Z" fill="#EB9481"/>
<path d="M356.95 105.7C357 105.7 357 105.6 356.9 105.6C349.9 105.65 342.15 107.9 336.45 112.1C336.25 112.2 336.4 112.6 336.65 112.45C343.35 109.25 349.55 106.95 356.95 105.7Z" fill="#263238"/>
<path d="M360 113.5C360.05 113.45 360.05 113.35 359.95 113.35C352.7 113.45 344.05 116.2 338.05 121.8C337.85 122 337.85 122.35 338.1 122.15C342.4 118.75 353.35 114.55 360 113.5Z" fill="#263238"/>
<path d="M340.5 131.5C346.45 126.35 353.45 123.6 361.1 121.85C361.2 121.8 361.15 121.7 361.05 121.7C357.1 121.55 352.35 123.15 348.8 124.75C345.35 126.25 342.55 128.3 340.3 131.3C340.2 131.4 340.35 131.65 340.5 131.5Z" fill="#263238"/>
<path d="M336.7 112.05C335.55 112.9 334.45 113.85 333.45 114.9C332.5 115.95 331.6 117.15 331.35 118.45C331.25 119.1 331.3 119.8 331.65 120.3C332 120.85 332.45 121.35 333 121.7C334.1 122.3 335.6 122.2 336.8 121.8L339.75 120.7L337.35 122.75C336.3 123.65 335.3 124.75 334.6 125.95C333.9 127.15 333.5 128.5 333.9 129.7C334.3 130.95 335.3 131.75 336.6 131.7C337.85 131.7 339.25 131.15 340.4 130.45L343.65 128.55L341.25 131.4C340.6 132.15 339.95 133.1 339.55 134C339.1 134.95 338.8 135.95 338.95 136.85C339.1 137.75 339.75 138.55 340.55 138.8C341.45 139.05 342.55 138.8 343.5 138.5C345.55 137.8 347.45 136.65 349.4 135.6C350.35 135.05 351.35 134.55 352.35 134.05C353.3 133.6 354.35 133.1 355.5 133.1C354.4 133.2 353.4 133.8 352.45 134.3C351.5 134.9 350.6 135.5 349.65 136.1C347.8 137.3 345.95 138.45 343.85 139.35C342.75 139.7 341.6 140.1 340.3 139.85C338.95 139.55 338.05 138.3 337.8 137.05C337.6 135.75 337.95 134.55 338.45 133.5C338.95 132.45 339.55 131.5 340.3 130.55L341.1 131.5C339.75 132.35 338.3 132.95 336.6 133C335.75 133.05 334.8 132.8 334.1 132.2C333.4 131.65 332.95 130.9 332.7 130.05C332.15 128.35 332.75 126.65 333.55 125.35C334.4 124 335.45 122.85 336.65 121.85L337.2 122.85C335.7 123.35 333.95 123.35 332.55 122.45C331.85 122.05 331.3 121.4 330.95 120.7C330.55 119.95 330.5 119.1 330.7 118.3C331.1 116.75 332.15 115.65 333.2 114.65C334.25 113.6 335.45 112.75 336.7 112.05Z" fill="#263238"/>
<path d="M319.55 124.8C319.55 124.8 328.35 95.05 338.3 104.2C341.3 106.9 350.15 121.6 347.25 123.45C343.5 125.85 338.65 120.4 336.1 116.5C336.1 116.5 334.55 127.05 326.85 128.15C322.05 128.8 319.55 124.8 319.55 124.8Z" fill="#EB9481"/>
<path d="M337.45 103.5C338.75 104.35 339.85 105.55 340.85 106.8C341.85 108 342.75 109.35 343.55 110.7C345.2 113.4 346.75 116.15 347.9 119.15C348.2 119.9 348.45 120.7 348.5 121.6C348.55 122.05 348.5 122.55 348.35 123.05C348.25 123.3 348.15 123.5 347.95 123.75C347.75 123.95 347.55 124.117 347.35 124.25C346.5 124.8 345.5 124.9 344.65 124.8C343.75 124.65 342.95 124.3 342.2 123.9C340.7 123.05 339.55 121.9 338.5 120.65C337.4 119.45 336.5 118.15 335.65 116.8L336.65 116.55C336.45 117.8 336.1 118.95 335.65 120.05C335.25 121.2 334.7 122.3 334.05 123.3C333.35 124.3 332.55 125.2 331.65 126C330.7 126.75 329.65 127.35 328.55 127.75C329.6 127.2 330.55 126.55 331.4 125.7C332.2 124.9 332.85 123.95 333.45 122.95C334.017 121.917 334.467 120.85 334.8 119.75C335.15 118.65 335.45 117.5 335.6 116.4L335.75 115L336.6 116.2C337.5 117.45 338.4 118.7 339.4 119.85C340.45 120.95 341.55 122.05 342.85 122.75C344.05 123.45 345.6 123.8 346.65 123.15C347.6 122.65 347.2 120.95 346.75 119.55C346.25 118.15 345.6 116.7 344.95 115.3C344.3 113.85 343.6 112.45 342.85 111.1C341.3 108.4 339.75 105.6 337.45 103.5Z" fill="#263238"/>
<path d="M316.05 128.2C316.05 128.2 295.4 149.3 292.35 149.1C287.35 148.75 257 134.35 248.05 131.35C239.15 128.35 229.6 130.15 243.7 146.75C259.6 165.55 277.35 182.25 295.75 182.3C305.65 182.3 336.55 160.75 336.55 160.75L316.05 128.2Z" fill="#265399"/>
<path opacity="0.1" d="M316.05 128.2C316.05 128.2 295.4 149.3 292.35 149.1C287.35 148.75 257 134.35 248.05 131.35C239.15 128.35 229.6 130.15 243.7 146.75C259.6 165.55 277.35 182.25 295.75 182.3C305.65 182.3 336.55 160.75 336.55 160.75L316.05 128.2Z" fill="black"/>
<path d="M328.65 162.55C322.15 149.9 313.5 137.75 312.1 135.5C312.05 135.4 311.9 135.55 311.95 135.65C313.4 137.75 321.85 152.85 328.45 162.65C328.55 162.8 328.7 162.65 328.65 162.55Z" fill="#263238"/>
<path d="M256.9 161.05C256.35 160.6 256 160 255.55 159.5C255.083 158.967 254.6 158.433 254.1 157.9C253.133 156.9 252.183 155.883 251.25 154.85C249.35 152.8 247.35 150.85 245.35 148.85C245.35 148.85 245.3 148.9 245.35 148.9C247.1 151.05 248.9 153.25 250.8 155.25C250.867 155.317 250.917 155.367 250.95 155.4C250.583 155.133 250.2 154.883 249.8 154.65C249.033 154.117 248.25 153.583 247.45 153.05C247.4 153 247.35 153.1 247.4 153.1C248.133 153.7 248.883 154.267 249.65 154.8C250.05 155.067 250.467 155.333 250.9 155.6C251.067 155.7 251.25 155.817 251.45 155.95C252.183 156.717 252.917 157.467 253.65 158.2C254.15 158.733 254.65 159.25 255.15 159.75C255.7 160.25 256.3 160.65 256.75 161.2C256.85 161.25 256.95 161.15 256.9 161.05Z" fill="#263238"/>
<path d="M225.9 140.6C229 141.35 236.5 136.85 240 132.45C240.2 132.15 240.3 128.6 240.6 124.25C240.8 121.65 241.05 118.7 241.5 116.05L224.25 117.3C224.25 117.3 224.95 123.1 224.1 127.7C224.033 128.1 223.933 128.467 223.8 128.8C223.8 128.833 223.783 128.883 223.75 128.95C223.1 130.95 221.15 139.45 225.9 140.6Z" fill="#EB9481"/>
<path d="M223.85 128.8C223.8 128.85 223.8 128.9 223.75 128.95C224.3 129.15 224.85 129.25 225.45 129.35C234.95 130.75 239.2 119.6 240.25 116.15L224.25 117.3C224.25 117.3 224.95 123.1 224.15 127.75C224.05 128.117 223.95 128.467 223.85 128.8Z" fill="#263238"/>
<path d="M249.2 96.2001C249.45 102.4 242 118.3 236.95 120.95C229.55 124.8 219.65 122.75 216.95 114.4C214.35 106.25 224.4 85.7501 229.85 83.5501C237.95 80.3501 248.85 86.9501 249.2 96.2001Z" fill="#EB9481"/>
<path d="M235.25 99.6C234.85 99.25 234.5 98.9 234.1 98.5C233.65 98.1 233.25 97.8499 233.15 97.1999C233.05 96.8999 233.35 96.4499 233.65 96.3499C234.35 96.1499 235 96.5 235.55 97C236.15 97.5 236.5 98.05 236.6 98.8C236.75 99.55 235.8 100 235.25 99.6Z" fill="#A6A6A6"/>
<path d="M224.55 94.95C225.1 95.1 225.6 95.15 226.1 95.2C226.7 95.3 227.15 95.4 227.75 95.15C228.05 95 228.2 94.55 228.1 94.25C227.8 93.5 227.1 93.25 226.4 93.1C225.65 92.95 225 93.05 224.3 93.4C223.65 93.8 223.9 94.8 224.55 94.95Z" fill="#A6A6A6"/>
<path d="M229.05 111.85C228.7 112 228.3 112.25 227.85 112.1C227.5 112 227.1 111.6 226.8 111.35C226.8 111.3 226.75 111.35 226.75 111.35C226.85 111.9 227.35 112.4 227.9 112.55C228.4 112.7 228.85 112.35 229.15 111.95C229.2 111.9 229.1 111.85 229.05 111.85Z" fill="#263238"/>
<path d="M229.3 108.15C228.3 108.8 227.2 108.95 226.15 108.7C225.7 108.6 225.2 108.45 224.8 108.2C224.7 108.167 224.617 108.117 224.55 108.05C224.483 108.017 224.417 107.967 224.35 107.9C224.2 107.85 224.2 107.7 224.2 107.6C224.233 107.533 224.25 107.483 224.25 107.45C224.25 107.45 224.267 107.45 224.3 107.45V107.35C224.65 106.5 225.3 105.3 225.3 105.3C224.9 105.3 223.05 105.35 223.25 104.9C225.05 101.4 227 97.5 229.5 94.35C229.6 94.25 229.75 94.35 229.7 94.45C228.15 97.9 225.95 101.05 224.35 104.5C224.9 104.55 225.85 104.55 226.3 104.75C226.4 104.8 225.05 107.1 224.95 107.5C224.95 107.5 224.933 107.517 224.9 107.55C226.25 108.3 227.5 108.35 229.25 108C229.35 107.95 229.4 108.05 229.3 108.15Z" fill="#263238"/>
<path d="M225.45 108C225.45 108 225.75 109.3 226.65 110.1C226.95 110.4 227.35 110.6 227.8 110.7C228.75 110.85 229.15 110.05 229.25 109.3C229.35 108.7 229.3 108.1 229.3 108.1C229.3 108.1 227.55 108.75 225.45 108Z" fill="#263238"/>
<path d="M226.65 110.1C226.95 110.4 227.35 110.6 227.8 110.7C228.75 110.85 229.15 110.05 229.25 109.3C228.3 109 227.1 109.25 226.65 110.1Z" fill="#FF9BBC"/>
<path d="M233.95 102.25C234 101.95 234 101.6 233.9 101.3C233.75 100.95 233.45 100.7 233.15 100.6C232.8 100.45 232.4 100.55 232.1 100.75C231.833 100.95 231.633 101.167 231.5 101.4C231.4 101.567 231.333 101.75 231.3 101.95C231.15 102.3 231.1 102.7 231.15 103.1C231.217 102.8 231.317 102.533 231.45 102.3C231.583 102.067 231.717 101.85 231.85 101.65C232.2 101.25 232.6 100.95 232.95 101.1C233.35 101.25 233.55 101.65 233.5 102.2C233.5 102.7 233.4 103.25 233.3 103.8C233.6 103.35 233.85 102.8 233.95 102.25Z" fill="#263238"/>
<path d="M223.45 97.4C223.65 97.15 223.9 96.95 224.2 96.8C224.5 96.65 224.9 96.7 225.2 96.85C225.55 97 225.75 97.35 225.8 97.7C225.867 98.0334 225.85 98.3334 225.75 98.6C225.683 98.8 225.6 98.9834 225.5 99.15C225.35 99.5 225.1 99.8 224.8 100C224.933 99.7667 225.05 99.5167 225.15 99.25C225.217 99.0167 225.267 98.7667 225.3 98.5C225.4 98 225.3 97.5 224.95 97.35C224.6 97.15 224.15 97.3 223.8 97.7C223.45 98.05 223.1 98.5 222.8 98.95C222.9 98.4 223.1 97.85 223.45 97.4Z" fill="#263238"/>
<g opacity="0.2">
<path d="M233.4 93.5501C232.75 93.4001 232.15 93.2501 231.55 93.0001C230.95 92.7501 230.4 92.4001 229.75 92.1501C228.6 91.7001 227.4 91.6001 226.1 91.6001C226 91.6001 226 91.6501 226.1 91.6501C227.4 91.7501 228.7 91.9001 229.9 92.5501C230.85 93.0501 231.75 93.5001 232.85 93.7001C235.25 94.2501 237.55 95.1001 239.25 96.9501C239.3 96.9501 239.3 96.9501 239.3 96.9501C237.75 95.2001 235.6 94.1501 233.4 93.5501Z" fill="black"/>
<path d="M234.05 91.95C233.45 91.8 232.85 91.65 232.3 91.45C231.7 91.2 231.2 90.85 230.6 90.6C229.5 90.15 228.35 90.1 227.15 90.05C227.05 90.05 227 90.15 227.1 90.15C228.35 90.2 229.6 90.4 230.7 90.95C231.65 91.45 232.5 91.9 233.55 92.1C235.85 92.6 238 93.4 239.6 95.15C239.65 95.2 239.65 95.15 239.65 95.15C238.2 93.5 236.15 92.5 234.05 91.95Z" fill="black"/>
</g>
<path d="M224.9 87.9001C229.3 94.0001 239.45 90.8001 239.45 90.8001C239.7 96.0501 244.45 97.1501 244.45 97.1501C244.45 97.1501 242.05 107.4 244.65 108.35C248.65 109.75 254.7 96.7501 254.4 93.6501C254.1 90.5501 250.95 88.6501 250.95 88.6501C250.95 88.6501 251.45 86.5001 249.7 83.7501C247.7 80.7001 237.35 80.1501 237.35 80.1501C237.35 80.1501 237.35 78.1501 236.15 76.0501C235.35 74.7001 233.8 74.3501 232.5 75.1001C232.7 75.9001 232.75 76.8501 232.55 77.9001C232 80.9501 229.6 80.1001 230.6 77.4501C231 76.3001 231.7 75.5501 232.5 75.1001C231.95 73.0001 230.25 71.7501 228.75 72.2501C226.05 73.1501 221.25 82.8501 224.9 87.9001Z" fill="#A6A6A6"/>
<path fill-rule="evenodd" clip-rule="evenodd" d="M230.3 107.1C228.05 105.7 227.4 102.75 228.85 100.5C230.25 98.2502 233.25 97.6002 235.45 99.0502C237.7 100.45 238.35 103.45 236.9 105.65C235.7 107.55 233.4 108.3 231.35 107.65C230.983 107.517 230.633 107.334 230.3 107.1ZM229.4 100.85C228.15 102.75 228.7 105.35 230.65 106.6C232.55 107.8 235.15 107.25 236.4 105.3C237.6 103.4 237.05 100.8 235.1 99.6002C234.8 99.4002 234.5 99.2502 234.2 99.1502C232.4 98.5502 230.4 99.2002 229.4 100.85Z" fill="#455A64"/>
<path fill-rule="evenodd" clip-rule="evenodd" d="M221.15 102.8C219.35 102 218.8 99.3501 219.95 96.9501C220.45 95.8501 221.3 94.9001 222.25 94.3501C223.25 93.8001 224.3 93.7001 225.2 94.1501C226.05 94.5501 226.65 95.4001 226.9 96.5001C227.1 97.6001 226.95 98.8501 226.4 100C225.35 102.25 223.15 103.5 221.45 102.95C221.35 102.917 221.25 102.867 221.15 102.8ZM222.55 94.9001C221.7 95.4001 221 96.2001 220.5 97.2501C219.55 99.3001 219.95 101.55 221.4 102.25C222.9 102.9 224.85 101.8 225.8 99.7001C226.3 98.7001 226.45 97.6001 226.25 96.6501C226.1 95.7001 225.6 95.0501 224.9 94.7001C224.833 94.6668 224.767 94.6334 224.7 94.6001C224.05 94.4001 223.3 94.5001 222.55 94.9001Z" fill="#455A64"/>
<path d="M228.75 101.05L229.35 100.8C228.95 99.9501 227.75 98.5001 226.15 99.1501L226.4 99.7001C227.85 99.1501 228.7 101 228.75 101.05Z" fill="#455A64"/>
<path d="M247.6 111.2L248.2 111.15C248.2 110.9 248.05 108.25 246.85 107.4C245.75 106.65 237.6 103.75 237.3 103.65L237.05 104.25C239.4 105.1 245.65 107.35 246.5 107.95C247.3 108.5 247.55 110.5 247.6 111.2Z" fill="#455A64"/>
<path d="M242.05 108.85C242.05 108.85 247.35 104.55 249.4 106.6C251.45 108.6 246.4 115.6 243.25 115.85C240.1 116.1 239.8 113.15 239.8 113.15L242.05 108.85Z" fill="#EB9481"/>
<path d="M247.9 108.55C247.95 108.55 247.95 108.6 247.9 108.6C245.65 108.85 244.05 110.4 242.8 112.15C243.6 111.55 244.5 111.4 245.3 112.4C245.35 112.45 245.3 112.5 245.25 112.5C244.45 112.05 243.8 112.05 243.1 112.55C242.55 112.9 242.1 113.4 241.7 113.85C241.55 114 241.25 113.85 241.35 113.65C241.383 113.617 241.4 113.6 241.4 113.6C242.1 111.05 245.1 108 247.9 108.55Z" fill="#263238"/>
<path d="M223.7 128.45L227.4 138.8L240.55 126.4L243.95 130.7C243.95 130.7 230.8 150.7 230.75 149.75L226.9 140.8L220.6 146.7L221.65 131.35L223.7 128.45Z" fill="#EBEBEB"/>
<path d="M220.7 139.1C220.95 136.55 221.15 134 221.55 131.5C221.55 131.4 221.7 131.4 221.7 131.5C222.1 133.95 221.05 143.6 221 145.9C221.25 145.65 226.85 140.75 226.9 140.8C227.75 142.25 230.6 148.75 230.75 149.35C232.85 146.2 240.8 134.65 243.25 131.65C243.35 131.55 243.45 131.65 243.4 131.75C241.55 135.1 231 150.65 230.85 150.6C230.75 150.7 227.2 142.65 226.8 141.15C225.85 142.25 220.2 147.8 220.2 147.4C220.2 144.85 220.45 141.6 220.7 139.1Z" fill="#263238"/>
<path d="M280.85 259.2L276.8 259.95L275.9 264.2L275 259.95L271 259.2L275 258.25L275.9 254.2L276.85 258.25L280.85 259.2Z" fill="#FFC727"/>
<path d="M212.15 69.5L208.1 70.25L207.2 74.5L206.3 70.25L202.25 69.5L206.3 68.5L207.2 64.5L208.1 68.5L212.15 69.5Z" fill="#FFC727"/>
<path d="M163.75 206L159.7 206.75L158.8 211L157.9 206.75L153.85 206L157.9 205.05L158.8 201L159.7 205.05L163.75 206Z" fill="#FFC727"/>
<path d="M278.3 188.9L274.25 189.65L273.35 193.9L272.45 189.65L268.45 188.9L272.45 187.9L273.35 183.9L274.3 187.9L278.3 188.9Z" fill="#FFC727"/>
<path d="M330.4 172.1L328.15 172.5L327.65 174.9L327.15 172.5L324.9 172.1L327.15 171.55L327.65 169.3L328.2 171.55L330.4 172.1Z" fill="#FFC727"/>
<path d="M190.65 164.25L188.4 164.7L187.9 167.05L187.4 164.7L185.15 164.25L187.4 163.7L187.9 161.45L188.45 163.7L190.65 164.25Z" fill="#FFC727"/>
<path d="M260.55 85.1499L258.25 85.5999L257.75 87.9499L257.25 85.5999L255 85.1499L257.25 84.5999L257.75 82.3499L258.3 84.5999L260.55 85.1499Z" fill="#FFC727"/>
<path d="M313.1 210.55L310.85 210.95L310.35 213.3L309.85 210.95L307.6 210.55L309.85 210L310.35 207.75L310.85 210L313.1 210.55Z" fill="#FFC727"/>
<path d="M294.8 215.1L292.5 215.5L292 217.9L291.5 215.5L289.25 215.1L291.5 214.55L292 212.3L292.55 214.55L294.8 215.1Z" fill="#FFC727"/>
<path d="M294.8 120.45L292.5 120.85L292 123.25L291.5 120.85L289.25 120.45L291.5 119.9L292 117.65L292.55 119.9L294.8 120.45Z" fill="#FFC727"/>
<path d="M196.9 117.05L194.65 117.45L194.15 119.85L193.65 117.45L191.4 117.05L193.65 116.5L194.15 114.25L194.65 116.5L196.9 117.05Z" fill="#FFC727"/>
<path d="M141.4 114.6L139.15 115L138.6 117.4L138.1 115L135.85 114.6L138.1 114.05L138.6 111.8L139.15 114.05L141.4 114.6Z" fill="#FFC727"/>
<path d="M171.7 226.35L169.45 226.8L168.95 229.15L168.4 226.8L166.15 226.35L168.4 225.8L168.95 223.6L169.45 225.8L171.7 226.35Z" fill="#FFC727"/>
<path d="M285.5 225.7C284.65 225.7 284.65 227 285.5 227C286.3 227 286.3 225.7 285.5 225.7Z" fill="#FFC727"/>
<path d="M295.4 134.05C294.55 134.05 294.55 135.4 295.4 135.4C296.25 135.4 296.25 134.05 295.4 134.05Z" fill="#FFC727"/>
<path d="M180.4 78C179.55 78 179.55 79.3 180.4 79.3C181.25 79.3 181.25 78 180.4 78Z" fill="#FFC727"/>
<path d="M130.55 119.15C129.7 119.15 129.7 120.45 130.55 120.45C131.35 120.45 131.35 119.15 130.55 119.15Z" fill="#FFC727"/>
<path d="M168.95 183.9C168.1 183.9 168.1 185.2 168.95 185.2C169.75 185.2 169.75 183.9 168.95 183.9Z" fill="#FFC727"/>
<path d="M149.6 171.95C149 171.95 149 172.85 149.6 172.85C150.2 172.85 150.2 171.95 149.6 171.95Z" fill="#FFC727"/>
<path d="M185.55 93.95C184.95 93.95 184.95 94.9 185.55 94.9C186.15 94.9 186.15 93.95 185.55 93.95Z" fill="#FFC727"/>
<path d="M199.25 158.9C198.65 158.9 198.65 159.85 199.25 159.85C199.85 159.85 199.85 158.9 199.25 158.9Z" fill="#FFC727"/>
<path d="M156.6 242.6C156 242.6 156 243.55 156.6 243.55C157.2 243.55 157.2 242.6 156.6 242.6Z" fill="#FFC727"/>
<path d="M271.6 232.15C269.95 232.15 269.95 234.65 271.6 234.65C273.2 234.65 273.2 232.15 271.6 232.15Z" fill="#FFC727"/>
<path d="M346.9 160C345.3 160 345.3 162.5 346.9 162.5C348.5 162.5 348.5 160 346.9 160Z" fill="#FFC727"/>
<path d="M220.45 60.6499C218.85 60.6499 218.85 63.1499 220.45 63.1499C222.05 63.1499 222.05 60.6499 220.45 60.6499Z" fill="#FFC727"/>
<path d="M204.05 110.6C202.4 110.6 202.4 113.1 204.05 113.1C205.65 113.1 205.65 110.6 204.05 110.6Z" fill="#FFC727"/>
<path d="M162.5 238.35C160.9 238.35 160.9 240.9 162.5 240.9C164.15 240.9 164.15 238.35 162.5 238.35Z" fill="#FFC727"/>
</svg>
