<svg version="1.2" xmlns="http://www.w3.org/2000/svg" viewBox="0 0 1000 1000" width="1000" height="1000">
	<title>4012174-ai</title>
	<style>
		.s0 { fill: #ebebeb } 
		.s1 { fill: #f5f5f5 } 
		.s2 { fill: #e6e6e6 } 
		.s3 { fill: #e0e0e0 } 
		.s4 { fill: #407bff } 
		.s5 { opacity: .8;fill: #ffffff } 
		.s6 { opacity: .2;fill: #ffffff } 
		.s7 { fill: #263238 } 
		.s8 { opacity: .4;fill: #ffffff } 
		.s9 { opacity: .6;fill: #ffffff } 
		.s10 { fill: #000000 } 
		.s11 { opacity: .3;fill: #000000 } 
		.s12 { opacity: .1;fill: #ffffff } 
		.s13 { opacity: .2;fill: #000000 } 
		.s14 { fill: #e4897b } 
		.s15 { fill: #ffffff } 
		.s16 { opacity: .5;fill: #ffffff } 
		.s17 { fill: none;stroke: #263238;stroke-width: 6 } 
	</style>
	<g id="Background Complete">
		<g id="&lt;Group&gt;">
			<path id="&lt;Path&gt;" class="s0" d="m1000 765.3h-1000v-0.5h1000z"/>
			<path id="&lt;Path&gt;" class="s0" d="m833.6 797h66.2v0.5h-66.2z"/>
			<path id="&lt;Path&gt;" class="s0" d="m645.1 802.4h17.3v0.5h-17.3z"/>
			<path id="&lt;Path&gt;" class="s0" d="m793.2 778.4h38.4v0.5h-38.4z"/>
			<path id="&lt;Path&gt;" class="s0" d="m104.9 781.8h86.4v0.5h-86.4z"/>
			<path id="&lt;Path&gt;" class="s0" d="m209.1 781.8h12.7v0.5h-12.7z"/>
			<path id="&lt;Path&gt;" class="s0" d="m262.9 790.2h187.4v0.5h-187.4z"/>
			<path id="&lt;Compound Path&gt;" fill-rule="evenodd" class="s0" d="m474 675.6h-386.2c-6.3 0-11.4-5.1-11.4-11.4v-542.9c0-6.3 5.1-11.4 11.4-11.4h386.2c6.3 0 11.4 5.1 11.4 11.4v542.9c0 6.3-5.1 11.4-11.4 11.4zm-386.2-565.2c-6 0-10.9 4.9-10.9 10.9v542.9c0 6 4.9 10.9 10.9 10.9h386.2c6 0 10.9-4.9 10.9-10.9v-542.9c0-6-4.9-10.9-10.9-10.9z"/>
			<path id="&lt;Compound Path&gt;" fill-rule="evenodd" class="s0" d="m906.6 675.6h-386.2c-6.3 0-11.4-5.1-11.4-11.4v-542.9c0-6.3 5.1-11.4 11.4-11.4h386.2c6.3 0 11.4 5.1 11.4 11.4v542.9c0 6.3-5.1 11.4-11.4 11.4zm-386.2-565.2c-6 0-10.9 4.9-10.9 10.9v542.9c0 6 4.9 10.9 10.9 10.9h386.2c6 0 10.9-4.9 10.9-10.9v-542.9c0-6-4.9-10.9-10.9-10.9z"/>
		</g>
		<g id="&lt;Group&gt;">
			<path id="&lt;Path&gt;" class="s1" d="m753.9 296.6c0 45.9-37.2 83.1-83.1 83.1-45.9 0-83.1-37.2-83.1-83.1 0-45.9 37.2-83.1 83.1-83.1 45.9 0 83.1 37.2 83.1 83.1z"/>
			<path id="&lt;Path&gt;" class="s0" d="m819.1 280.2c0-7.5-6.1-13.5-13.5-13.5q-2.1 0-3.9 0.5 0.3-2 0.3-4.1c0-15.8-12.9-28.7-28.7-28.7q-2.7 0-5.3 0.5c-4.4-7.2-12.3-12-21.4-12-13.7 0-24.8 11-25 24.7q-0.2 0-0.4 0c-12.8 0-23.1 10.3-23.1 23 0 12.8 10.3 23.1 23.1 23.1h84.8-0.1c7.3-0.2 13.2-6.2 13.2-13.5z"/>
			<path id="&lt;Path&gt;" class="s0" d="m605.2 354.7c0-7.5-6-13.6-13.5-13.6q-2 0.1-3.9 0.6 0.3-2 0.3-4.1c0-15.9-12.8-28.7-28.7-28.7q-2.7 0-5.2 0.5c-4.4-7.2-12.4-12-21.4-12-13.7 0-24.9 11-25.1 24.7q-0.2-0.1-0.4-0.1c-12.7 0-23.1 10.4-23.1 23.1 0 12.8 10.4 23.1 23.1 23.1h84.8c7.3-0.2 13.1-6.2 13.1-13.5z"/>
			<path id="&lt;Path&gt;" class="s0" d="m231.9 380.3c0-7.5-6.1-13.5-13.5-13.5q-2.1 0-3.9 0.5 0.3-2 0.3-4.1c0-15.9-12.8-28.7-28.7-28.7q-2.7 0-5.2 0.5c-4.5-7.2-12.4-12-21.4-12-13.8 0-24.9 11-25.1 24.7q-0.2 0-0.4-0.1c-12.8 0-23.1 10.4-23.1 23.1 0 12.8 10.3 23.1 23.1 23.1h84.8c7.3-0.2 13.1-6.2 13.1-13.5z"/>
			<path id="&lt;Path&gt;" class="s0" d="m811.3 444.9c0-4.5-3.7-8.2-8.2-8.2q-1.2 0-2.4 0.3 0.2-1.2 0.2-2.5c0-9.5-7.7-17.3-17.3-17.3q-1.6 0-3.2 0.3c-2.7-4.4-7.4-7.3-12.9-7.3-8.3 0-15 6.7-15.2 15q-0.1-0.1-0.2-0.1c-7.7 0-14 6.3-14 14 0 7.7 6.3 14 14 14h51.2v-0.1c4.4-0.1 8-3.7 8-8.1z"/>
			<path id="&lt;Path&gt;" class="s0" d="m316.9 181.8c0-4.5-3.7-8.2-8.2-8.2q-1.2 0.1-2.4 0.4 0.2-1.2 0.2-2.5c0-9.6-7.7-17.3-17.3-17.3q-1.6 0-3.2 0.3c-2.7-4.4-7.4-7.3-12.9-7.3-8.3 0-15.1 6.6-15.2 14.9q-0.1 0-0.2 0c-7.7 0-14 6.2-14 14 0 7.7 6.3 13.9 14 13.9h51.2c4.4-0.1 8-3.7 8-8.2z"/>
			<path id="&lt;Path&gt;" class="s0" d="m179.7 487.3l54.2 246 9.8-4.6-56.9-242.8z"/>
			<g id="&lt;Group&gt;">
				<g id="&lt;Group&gt;">
					<path id="&lt;Path&gt;" class="s2" d="m801.6 732.2c0 0-33.5-231.2 41.8-470.3l-11.8-9.1c0 0-88.3 180.8-75.4 485.8z"/>
				</g>
				<g id="&lt;Group&gt;">
					<path id="&lt;Path&gt;" class="s3" d="m864 199.2c27.6-18.2 68.5 10.7 74.1 55.7 0 0-4.8-2.9-12.7-6-2.1-11.4-4.2-21.4-4.2-21.4l1.5 20.4q-3.7-1.4-8-2.6l-1.9-10.9-0.9 10.2c-3.7-0.9-7.7-1.6-11.9-2.1l-5.1-31.9-2.7 31.4c-3.9-0.1-8 0-12.3 0.5l-3.1-21.7v22.1q-5.2 0.8-10.4 2.4l-3.8-32.4c0 0 0.1 18.2-0.1 33.7-8.8 3.2-17.9 8.2-26.7 15.7l-0.3-4c0 0 3.2-42.6 28.5-59.1z"/>
					<path id="&lt;Path&gt;" class="s3" d="m825.8 184.7c-22-24.7-69-7.6-86.2 34.4 0 0 5.4-1.6 13.9-2.5 5-10.4 9.6-19.5 9.6-19.5l-6.7 19.2q3.8-0.3 8.3-0.3l4.7-10.1-1.8 10.1c3.8 0.1 7.8 0.5 12 1.1l13.4-29.5-5.7 31c3.9 0.9 7.8 2.2 11.7 3.7l8.8-20.1-5.8 21.4q4.7 2.1 9.4 5l12.1-30.3c0 0-4.9 17.6-8.7 32.5 7.7 5.4 15.1 12.6 21.6 22.2l1.4-3.8c0 0 8-42-12-64.5z"/>
					<path id="&lt;Path&gt;" class="s3" d="m804.6 243.3c22-21.5 38.6-2.8 38.6-2.8-8.3 2.1-15.7 7.4-22.1 14.2l-3-3.9 0.5 6.6q-2.3 2.7-4.4 5.5l-5.1-11.5 2.2 15.6c-2 2.9-3.9 6-5.7 9l-2.2-11.4 0.2 15.1c-1.8 3.4-3.5 6.7-4.9 9.9l-2.4-20.9-0.3 27c-3.6 8.3-5.4 14.2-5.4 14.2 0 0-8-45.2 14-66.6z"/>
					<path id="&lt;Path&gt;" class="s3" d="m864 294l-4.5 2.6c-0.7-3.5-1.5-7.2-2.3-10.9l3.1-5.6-3.9 2.4q-0.5-1.9-1-3.7l4-11.1-6 4.4c-3.2-10-7.2-18.8-12.3-23 0 0 50.4 16.1 21.9 70.5 0 0-0.9-8.6-2.9-19.9z"/>
					<path id="&lt;Path&gt;" class="s3" d="m814.4 249.5l-8.1-15.2 3.4 15.8q-1.2 0.2-2.5 0.5l-10.4-13 2.5 14.9c-3.3 1.1-6.8 2.3-10.5 3.9-3.7 1.6-7.3 3.5-10.9 5.5l-5.1-13.3 2.4 14.9c-3.4 2.1-6.8 4.3-10.1 6.5l-2.5-11.7 0.3 13.4c-4 2.8-7.8 5.8-11.2 8.6l0.3-21.2-3.1 23.6c-3.5 3-6.7 5.8-9.4 8.4l-0.4-14.7-3.7 18.7c-3.9 3.8-6.1 6.3-6.1 6.3 2-51.6 22-72.1 55.1-77.6 33.1-5.5 56.9 28.8 56.9 28.8 0 0-10.1-4.8-26.9-3.1z"/>
					<path id="&lt;Path&gt;" class="s3" d="m910.9 312.5l-3 15.4c-1.5-3.8-3.5-8.7-6-14.2l2.7-22.5-4.9 17.8c-3.7-7.5-8.2-15.6-13.5-23.2l4.8-15.6-7.7 11.6q-2.3-3.1-4.7-5.9l2.6-9.8-4.1 8.2q-1.7-1.8-3.5-3.5l3.3-13.1-5.2 11.3c-3.3-3-6.8-5.6-10.6-7.7l5.3-16c0 0-3.7 6.5-8.2 14.5-5.2-2.3-10.8-3.6-16.6-3.4 0 0 9.9-16 28.4-21.5 18.4-5.5 57.9 27.8 40.8 101.2 0 0-0.6-1.7-1.6-4.5z"/>
					<path id="&lt;Path&gt;" class="s3" d="m880.6 169.9l3.1 9.3q-1.5 0.1-3.4 0.5l-3.8-12.1 2.5 12.4c-2 0.6-4.3 1.6-6.8 3.1l-5.2-16.4 3.1 17.9q-1.3 0.9-2.6 2l-5.9-15.3 4.5 16.7c-3.6 3.4-7.3 8.1-11 14.6l-1.7-22.5-2.6 30.8c-3.6 7.8-7.1 17.6-10.4 29.8 0 0-3.2-81.9 16.6-91.2 19.7-9.3 31.5 30.2 31.5 30.2 0 0-1-0.4-2.7-0.5z"/>
					<path id="&lt;Path&gt;" class="s3" d="m852.4 261.1l-1.8 15.5-5.9-14.9-8.1 11.7-3.1-10.9-9.3 7.7c0 0 1.2-19.8 7.1-28.9 5.9-9 23.6-2.7 21.1 19.8z"/>
				</g>
			</g>
			<g id="&lt;Group&gt;">
				<path id="&lt;Path&gt;" class="s0" d="m606 511v-108.4c0 0-22 23.4-36.5 20.2-14.6-3.2-33.6 7.9-33.6 7.9 0 0 19.1-2.8 26.1 4.9 7.1 7.8 38.7 8.6 38.7 8.6v70.7z"/>
				<path id="&lt;Path&gt;" class="s3" d="m703 477.8h-5v6.8h-16.5v-6.8h-16.2v6.8h-16.5v-6.8h-16.1v6.8h-16.5v-6.8h-16.2v6.8h-16.5v-6.8h-16.2v6.8h-16.5v-6.8h-16.2v6.8h-16.5v-6.8h-5.5l-16.1 128.4 223.1-1z"/>
				<path id="&lt;Path&gt;" class="s0" d="m738.5 571h-6.9v9.3h-22.6v-9.3h-22.3v9.3h-22.6v-9.3h-22.3v9.3h-22.6v-9.3h-22.2v9.3h-22.7v-9.3h-22.2v9.3h-22.7v-9.3h-22.2v9.3h-22.7v-9.3h-7.6l-22.1 176.4 306.5-1.3z"/>
			</g>
			<path id="&lt;Path&gt;" class="s1" d="m851.7 726.6c-4.7-5.3-9.2-10.8-14.2-15.9-0.4-0.5-0.6-0.7-0.7-0.9-1.6-1.1-3.3-2-5.1-2.8-0.3-0.1-1.3-0.5-2.4-0.9q-3-1.1-5.9-2.3c-12.4-5-23.6-10.8-33-20.7-5.1-5.4-9.2-11.7-14.5-16.9-0.2 0.2-1.2-0.4-1.7-0.8-1.6-0.2-3.7-0.5-4-0.5-2.2 0-4.3 0-6.5 0.1-3 0.2-6.1 0.4-9.2 0.7-11.9 17.4-27 41.2-33.6 44.4-10.3 4.9-105.2 29.9-112.2 28.4-7-1.4-43.7 1.5-52.9 1.2-9.2-0.4-25.8-4.4-49.9-15.5-24.1-11.1-37.3-11.2-66.4-20.5-29.1-9.2-48.5-12.7-65.5 1.5-17 14.2-63.7-15.8-78.3-20.1-14.5-4.3-42.4-28.9-61.4-17.4-19 11.5-34.8 16.9-58.5 37.5-23.8 20.6-70.9 60.3-70.9 60.3h801.9l-9.2-16.1c-17.7-1-33.9-9.2-45.9-22.8z"/>
			<path id="&lt;Path&gt;" class="s3" d="m86.4 530c0 0 23.3-41.9 86.5-78.2 0 0 51.5-4.4 109.6 20.9 0 0 11.8 19.6-1.6 27.3-13.4 7.7-24.5-7.8-24.5-7.8 0 0-2.5 23.6-19.9 24.3-17.5 0.7-22.6-16.5-22.6-16.5 0 0-1.7 21.7-22.6 27.2-18.1 4.7-29.3-10.7-29.3-10.7 0 0-3.6 17.9-19.9 23-13 4.1-21.9-7.1-21.9-7.1 0 0-3.8 19.4-17.6 19.4-11.9 0-16.2-21.8-16.2-21.8z"/>
		</g>
	</g>
	<g id="Shadow">
		<path id="&lt;Path&gt; 359 " class="s1" d="m887.8 832.5c0 12.5-173.6 22.6-387.8 22.6-214.2 0-387.8-10.1-387.8-22.6 0-12.5 173.6-22.7 387.8-22.7 214.2 0 387.8 10.2 387.8 22.7z"/>
	</g>
	<g id="Sand">
		<g id="&lt;Group&gt;">
			<g id="&lt;Group&gt;">
				<path id="&lt;Path&gt;" class="s4" d="m768 733.8c0 0 8.7-12.7 16.6-16.3 7.9-3.5 9.2-17.1 13.5-17.8 4.3-0.8 9 11.7 16.6 15.4 7.5 3.6 18.9 18.6 18.9 18.6z"/>
				<path id="&lt;Path&gt;" class="s5" d="m768 733.8c0 0 8.7-12.7 16.6-16.3 7.9-3.5 9.2-17.1 13.5-17.8 4.3-0.8 9 11.7 16.6 15.4 7.5 3.6 18.9 18.6 18.9 18.6z"/>
				<path id="&lt;Path&gt;" class="s4" d="m831.2 825.5h-63.2l-8-91.8h79.2z"/>
				<path id="&lt;Path&gt;" class="s4" d="m843.1 738.6h-87v-9.6h87z"/>
				<path id="&lt;Path&gt;" class="s6" d="m843.1 738.6h-87v-9.6h87z"/>
				<path id="&lt;Path&gt;" class="s7" d="m795.9 735.8c5.7 9 30.4 46.3 45.7 49l1.8-4.5c0 0-13.6 1.7-43.9-46.8-0.6-1-1.8-1.3-2.8-0.8-1.2 0.6-1.5 2-0.8 3.1z"/>
			</g>
			<g id="&lt;Group&gt;">
				<path id="&lt;Path&gt;" class="s4" d="m705.8 706.8c2.8-0.8 5.7 0.7 6.5 3.5l10.8 37.8 14-5.7c0 0 8.5 31.5-7.5 36.5-15.6 4.9-27.7-24.2-27.7-24.2l14.3-3.9-13.6-37.4c-1-2.7 0.4-5.7 3.2-6.6z"/>
				<path id="&lt;Path&gt;" class="s8" d="m729.6 778.9c-15.6 4.9-27.7-24.2-27.7-24.2l14.3-3.9c0 0 2.5 4.2 5.2 3.1 2.8-1 1.7-5.8 1.7-5.8l14-5.7c0 0 8.5 31.5-7.5 36.5z"/>
			</g>
			<g id="&lt;Group&gt;">
				<path id="&lt;Path&gt;" class="s4" d="m849.3 833.3c-7.8-3.9-15.9-7.6-18.4-7.8-5.6-0.3-8.7-2.8-12.7-7.5-3.9-4.7-5.5-10.1-12.6-17.7-7.2-7.6 0.7-10.6-14.3-12.5-15-2-9.2-0.7-18.5-7.4-9.2-6.6-7.3-6.6-18.1-11.4-10.9-4.7-4.5-6.6-17.2-7.6-8.7-0.8-22.6 3.8-29.7 9-3.2 2.2-4.8 6-8 8-3.5 2.2-9-1.9-8.4 5.6 0.1 2 0.7 4 0.2 5.9-1 4.3-18.6 4.3-23.1 5.6-1 0.3-2.2 0.7-2.7 1.6-1 1.9 0.5 5.1-1.4 5.7-0.7 0.3-1.4 0-2 0.1-2.4 0.5-1.8 4.8-4 5.8-2.1 0.9-4.8-1.1-7.3-0.1-1.9 0.7-2.5 3.3-4.2 4.3-2.9 1.7-5.9 3-8.7 4.9-5 3.3-9.3 7.2-14.6 10.1l-14.3 3.9-4.2 1.5z"/>
				<path id="&lt;Path&gt;" class="s5" d="m849.3 833.3c-7.8-3.9-15.9-7.6-18.4-7.8-5.6-0.3-8.7-2.8-12.7-7.5-3.9-4.7-5.5-10.1-12.6-17.7-7.2-7.6 0.7-10.6-14.3-12.5-15-2-9.2-0.7-18.5-7.4-9.2-6.6-7.3-6.6-18.1-11.4-10.9-4.7-4.5-6.6-17.2-7.6-8.7-0.8-22.6 3.8-29.7 9-3.2 2.2-4.8 6-8 8-3.5 2.2-9-1.9-8.4 5.6 0.1 2 0.7 4 0.2 5.9-1 4.3-18.6 4.3-23.1 5.6-1 0.3-2.2 0.7-2.7 1.6-1 1.9 0.5 5.1-1.4 5.7-0.7 0.3-1.4 0-2 0.1-2.4 0.5-1.8 4.8-4 5.8-2.1 0.9-4.8-1.1-7.3-0.1-1.9 0.7-2.5 3.3-4.2 4.3-2.9 1.7-5.9 3-8.7 4.9-5 3.3-9.3 7.2-14.6 10.1l-14.3 3.9-4.2 1.5z"/>
			</g>
			<g id="&lt;Group&gt;">
				<path id="&lt;Path&gt;" class="s4" d="m681.5 796.9c0 0.2 0 0.3 0 0.4v0.1c-0.1 7-2.2 13.5-5.7 19.1q-0.4 0.7-0.9 1.3c-2.1 3-4.7 5.7-7.6 7.9q-0.9 0.8-2 1.5-0.3 0.2-0.5 0.3-0.4 0.2-0.7 0.4-0.5 0.4-1 0.6-0.9 0.5-1.8 1c-4.9 2.4-10.4 3.8-16.2 3.8-10.4 0-19.7-4.3-26.3-11.3-2.5-2.5-4.5-5.4-6.1-8.5-2.6-5-4-10.6-4-16.6v-0.1q0-1.6 0.1-3.1c0.4-4.8 1.8-9.3 3.9-13.4q0.8-1.6 1.7-3.1c2.1-3.2 4.7-6.1 7.7-8.6q1.4-1.1 3-2.1 0.5-0.4 1.1-0.7 4.3-2.7 9.2-4 0.4-0.1 0.9-0.2c2.8-0.7 5.7-1.1 8.8-1.1q1.4 0 2.8 0.1 0.3 0 0.7 0c4.1 0.4 8 1.5 11.7 3.2q0.2 0.1 0.4 0.2c3.1 1.5 6 3.4 8.6 5.7 6.3 5.6 10.7 13.5 11.9 22.4q0.3 2.4 0.3 4.8z"/>
				<path id="&lt;Path&gt;" class="s9" d="m681.5 796.9c0 14.3-8.2 26.6-20.2 32.6 0 0 0 0 0 0-1.4-1.2-2-2.5-2-2.5 6.7-19.6 0-30.1 0-30.1v-0.2l0.5-3.1 0.1-0.6c1.1-5.8 3.7-16.7 9.4-23.3 7.5 6.6 12.2 16.4 12.2 27.2z"/>
				<path id="&lt;Path&gt;" class="s9" d="m617.2 790.6c0 0-6.4 6.4-4.5 22.9-2.6-5-4-10.6-4-16.6 0-11.4 5.2-21.6 13.4-28.3-3.5 6.8-5.4 15-4.9 22z"/>
				<path id="&lt;Path&gt;" class="s6" d="m669.3 769.7c-8 9.2-10 27.2-10 27.2-21.9 5.4-42.1-6.3-42.1-6.3-0.5-7 1.4-15.2 4.9-22 6.3-5.1 14.3-8.1 23-8.1 9.3 0 17.7 3.5 24.2 9.2z"/>
				<path id="&lt;Path&gt;" class="s6" d="m661.3 829.5c-4.9 2.4-10.4 3.8-16.2 3.8-10.4 0-19.7-4.3-26.3-11.3 6.8 4.1 20.7 9.8 40.5 5 0 0 0.6 1.3 2 2.5z"/>
				<g id="&lt;Group&gt;" style="opacity: .2">
					<path id="&lt;Path&gt;" class="s10" d="m660.7 764q-1.4 2-2.6 4.2-2.2 4.1-3.8 8.5c-1.1 3-2 6-2.8 9q-1.2 4.6-2.1 9.2c0.2-3.1 0.7-6.2 1.3-9.3 0.7-3.1 1.6-6.2 2.6-9.2 1.2-3 2.5-5.9 4.1-8.6 0.9-1.4 1.8-2.7 2.9-4q0.2 0.1 0.4 0.2z"/>
					<path id="&lt;Path&gt;" class="s10" d="m648.6 760.6q-0.8 1.4-1.4 2.8c-1.5 3.1-2.7 6.3-3.7 9.6-1 3.3-1.8 6.6-2.6 10q-1.1 5.1-2 10.2c0.2-3.5 0.7-6.9 1.3-10.4 0.6-3.4 1.4-6.8 2.4-10.1 1-3.3 2.2-6.6 3.9-9.7q0.6-1.2 1.4-2.4 0.3 0 0.7 0z"/>
					<path id="&lt;Path&gt;" class="s10" d="m636.3 761.6q-0.4 0.8-0.7 1.6-1.6 4.4-2.7 9.1c-0.7 3.1-1.3 6.2-1.9 9.3q-0.9 4.7-1.5 9.5c0-3.2 0.3-6.4 0.7-9.6 0.4-3.2 1.1-6.3 1.8-9.4 0.7-3.2 1.7-6.2 2.9-9.2q0.3-0.6 0.5-1.1 0.4-0.1 0.9-0.2z"/>
					<path id="&lt;Path&gt;" class="s10" d="m626.2 765.8c-0.7 2.2-1.3 4.4-1.8 6.7-0.5 2.6-1 5.1-1.4 7.7q-0.5 3.9-0.9 7.8c-0.1-2.6 0-5.2 0.2-7.9 0.2-2.6 0.6-5.2 1.2-7.8 0.4-2 0.9-3.9 1.6-5.8q0.5-0.4 1.1-0.7z"/>
					<path id="&lt;Path&gt;" class="s10" d="m669.6 809c0 3.8-0.4 7.6-1.5 11.2-0.4 1.8-1.2 3.5-1.9 5.2q-0.4 0.9-0.9 1.8-0.3 0.2-0.5 0.3c1-2.5 2-4.9 2.6-7.5 0.9-3.6 1.3-7.3 1.2-10.9-0.1-3.7-0.7-7.4-1.7-10.9-1.1-3.5-2.5-7-4.4-10.2 2.2 3 3.9 6.4 5.1 10 1.2 3.5 1.9 7.3 2 11z"/>
					<path id="&lt;Path&gt;" class="s10" d="m676.7 808l-0.1 3-0.4 3c-0.1 0.9-0.2 1.7-0.4 2.5q-0.4 0.7-0.9 1.3c0.2-1.3 0.5-2.5 0.6-3.9l0.3-2.9v-3c0.1-1 0-2-0.1-3-0.1-0.9-0.1-1.9-0.2-2.9-0.4-3.9-1.5-7.8-3-11.5-1.4-3.6-3.4-7.2-5.9-10.3 2.8 2.9 5 6.4 6.6 10 1.6 3.7 2.8 7.7 3.3 11.7 0.1 1 0.1 2 0.2 3 0.1 1 0.1 2 0 3z"/>
					<path id="&lt;Path&gt;" class="s10" d="m681.5 796.9c0 0.2 0 0.3 0 0.4q-0.1-0.3-0.1-0.6c-0.9-4.2-2.3-8.2-4.1-12.1-1.8-3.8-4-7.5-6.9-10.6 3.2 2.9 5.7 6.5 7.6 10.3q1.9 3.8 3.2 7.8 0.3 2.4 0.3 4.8z"/>
					<path id="&lt;Path&gt;" class="s10" d="m615.4 784.8c-1.6 1.8-3 3.9-4.1 6q-1.6 2.9-2.6 6 0-1.6 0.1-3.1 0.8-1.7 1.8-3.3c1.3-2.1 2.9-4.1 4.8-5.6z"/>
					<path id="&lt;Path&gt;" class="s10" d="m617.1 775.2q-2.3 2.5-4.4 5.1 0.8-1.6 1.7-3.1 1.3-1.1 2.7-2z"/>
					<path id="&lt;Path&gt;" class="s10" d="m617.1 798.3q5 1.9 10.1 3.4c3.4 1 6.8 1.9 10.3 2.5 7 1.3 14.1 1.6 21-0.3-3.3 1.4-6.9 1.9-10.5 2.1-3.5 0.1-7.1-0.3-10.7-0.8q-5.2-1-10.3-2.8c-3.4-1.1-6.7-2.4-9.9-4.1z"/>
					<path id="&lt;Path&gt;" class="s10" d="m617.1 807q5.1 2 10.3 3.4c3.4 0.9 7 1.6 10.5 2 3.6 0.5 7.2 0.6 10.7 0.5l2.7-0.1 2.7-0.3c1.8-0.2 3.5-0.7 5.3-0.9-3.4 1-7 1.9-10.6 2.1-3.6 0.2-7.3 0.1-10.9-0.3-3.6-0.5-7.2-1.2-10.6-2.3-3.5-1.1-6.9-2.4-10.1-4.1z"/>
					<path id="&lt;Path&gt;" class="s10" d="m618 814.5c3.1 1.5 6.4 2.7 9.7 3.7 3.4 0.9 6.8 1.6 10.2 2 1.7 0.3 3.4 0.3 5.1 0.5 1.8-0.1 3.5 0 5.2-0.1 3.5-0.1 6.9-0.8 10.3-1.5-3.3 1.1-6.7 2-10.2 2.2-3.5 0.4-7 0.3-10.5-0.1-3.5-0.4-7-1.2-10.3-2.3-3.3-1.1-6.6-2.5-9.5-4.4z"/>
					<path id="&lt;Path&gt;" class="s10" d="m619.5 820.2q4.5 2.1 9.2 3.4c3.1 0.9 6.3 1.6 9.5 2 3.2 0.5 6.5 0.5 9.8 0.3l2.4-0.2 2.4-0.4c1.6-0.1 3.2-0.7 4.8-1-3.1 1.1-6.3 2.1-9.6 2.4-3.3 0.3-6.6 0.3-9.9-0.1-3.3-0.5-6.5-1.2-9.7-2.2-3.1-1.1-6.1-2.4-8.9-4.2z"/>
				</g>
			</g>
		</g>
	</g>
	<g id="Travel bag">
		<g id="&lt;Group&gt;">
			<path id="&lt;Path&gt;" class="s7" d="m227.6 739.7c0 0 7.1-10.7 19.8-11.5 12.6-0.8 23.3 15.4 23.3 15.4h-4c0 0-10.2-11.1-17.6-11.1-7.3 0-14.4 9.1-14.4 9.1z"/>
			<g id="&lt;Group&gt;">
				<path id="&lt;Path&gt;" class="s7" d="m120.2 824.1c4.3-7.3 53.4-2.5 64.5-6.9l5.9 10.3c0 0-8.4 4.7-22.5 3-14-1.6-35.2-2.1-40.8 2.8z"/>
				<path id="&lt;Path&gt;" class="s11" d="m120.2 824.1c4.3-7.3 53.4-2.5 64.5-6.9l5.9 10.3c0 0-8.4 4.7-22.5 3-14-1.6-35.2-2.1-40.8 2.8z"/>
			</g>
			<path id="&lt;Path&gt;" class="s7" d="m326.8 801.9q-0.6 2.6-1.3 5.1c-4 13.6-10.2 24.6-14.7 26.3h-127.2c-3.6 0-6.9-1.7-9-4.4q-0.1-0.1-0.1-0.2-0.7-0.9-1.2-1.9c-8.8-18.4-17.6-55-5.2-71.8q2-2.6 4.5-4.7 0.2-0.1 0.4-0.3c2.5-2.1 5.4-3.8 8.6-5.3q0.1 0 0.1 0 0 0 0 0c8.8-4 19.6-5.8 30.1-6.6q4.6-0.3 9.1-0.4c7.8-0.2 15.1 0 20.9 0.1 20.4 0.6 36.5 6.6 47.5 5.6 4.3-0.4 8.3-0.1 12 0.9q1.7 0.5 3.4 1.2c4.5 1.8 9 4.6 13.7 8.4 12.4 9.9 12.6 30.3 8.4 48z"/>
			<path id="&lt;Path&gt;" class="s12" d="m326.8 801.9q-0.6 2.6-1.3 5.1c-4 13.6-10.2 24.6-14.7 26.3h-127.2c-3.6 0-6.9-1.7-9-4.4q-0.1-0.1-0.1-0.2-0.7-0.9-1.2-1.9c-8.8-18.4-17.6-55-5.2-71.8q2-2.6 4.5-4.7 0.2-0.1 0.4-0.3c2.5-2.1 5.4-3.8 8.6-5.3q0.1 0 0.1 0 0 0 0 0c8.8-4 19.6-5.8 30.1-6.6q4.6-0.3 9.1-0.4c7.8-0.2 15.1 0 20.9 0.1 20.4 0.6 36.5 6.6 47.5 5.6 4.3-0.4 8.3-0.1 12 0.9q1.7 0.5 3.4 1.2c4.5 1.8 9 4.6 13.7 8.4 12.4 9.9 12.6 30.3 8.4 48z"/>
			<g id="&lt;Group&gt;">
				<path id="&lt;Path&gt;" class="s13" d="m307.3 800.6c-9.1 0-27.3 4.3-54.2-1.6-17.5-3.8-30.9-2-38.2-0.3-0.3-4-0.6-8.4-0.9-13.3-2.4-32.5-21-46.1-32.3-40.7q0 0 0 0 0 0-0.1 0-4.9 2.4-8.6 5.3-0.2 0.2-0.4 0.3-2.5 2.1-4.5 4.7c-12.4 16.8-3.6 53.4 5.2 71.8q0.5 1 1.2 1.9 0 0.1 0.1 0.2c2.2 2.4 5.3 3.9 8.6 3.9h22.8c9.3 0 10.4-8.6 9.4-26.9 1.6-0.9 3.5-2 5.7-3.4 5.6-3.7 27.7-1.9 37.2 1.7 9.5 3.5 34.4 5.1 46.4 3.1 8.4-1.3 16.6-0.8 20.8-0.3q0.7-2.5 1.3-5.1c-4.2-0.5-12.8-1.3-19.5-1.3z"/>
				<path id="&lt;Path&gt;" class="s13" d="m224.6 754.7c5.6 20.2 9.4 27.3 10.8 29.3 1.5 2 41.8 6.7 49.3 6.7 7.6 0 20.5-1.1 26.1-2.5 5.2-1.3 6.8-27.2-6.1-42.7q-1.7-0.7-3.4-1.2c7.1 15.9 7.3 35.3 6.4 38-1.2 3.8-13 3.3-18.6 3.1-5.5-0.1-39.9-2.2-43.5-3.6-3.6-1.4-5.5-3.4-8.3-6.9-2.8-3.6-3.2-15.8-8.2-26.4-1.8-3.8-4.9-7.6-8.2-10.8q-4.5 0.1-9.1 0.4c5.2 3 10.5 8 12.8 16.6z"/>
			</g>
			<path id="&lt;Path&gt;" class="s7" d="m184.7 773.3l-11.1 2.8c0 0-7.9 22.5-3.2 32 4.7 9.5-32 22.6-50.2 16l7.1 9.2c0 0 43.5-2.7 51.8-19.3 8.4-16.6-3.5-19.1-4.3-23.8-0.8-4.6 9.9-16.9 9.9-16.9z"/>
			<path id="&lt;Path&gt;" class="s12" d="m184.7 773.3l-11.1 2.8c0 0-7.9 22.5-3.2 32 4.7 9.5-32 22.6-50.2 16l7.1 9.2c0 0 43.5-2.7 51.8-19.3 8.4-16.6-3.5-19.1-4.3-23.8-0.8-4.6 9.9-16.9 9.9-16.9z"/>
		</g>
	</g>
	<g id="Character">
		<g id="&lt;Group&gt;">
			<g id="&lt;Group&gt; 45 ">
				<path id="&lt;Path&gt;" class="s14" d="m282.5 308c0 0-42.8-23.9-51.6-30.1-8.9-6.2-56.3-52.7-58.9-54.1 0 0 1.7-5.3-2.2-8.4-4-3.1-19.5-13.3-21.7-13.3-2.3 0-8 21.7-7.1 27.1 0.9 5.3 22.6 6.6 22.6 6.6 0 0 45.1 52.6 52.2 60 7.1 7.3 55.4 38.8 55.4 38.8z"/>
				<g id="&lt;Group&gt;">
					<path id="&lt;Path&gt;" class="s4" d="m300.1 312.4c0 0 9.4 19-13.4 49l-50.2-36.9 20-36.3z"/>
					<path id="&lt;Path&gt;" class="s9" d="m286.7 361.4l-23.7-17.4-3.1-2.3-13.4-9.8-10-7.4 7.4-13.3 4.1-7.6 8.5-15.4 8.2 4.6 7.1 3.9 28.3 15.7c0 0 1.2 2.4 1.7 6.9 0.9 8.1-0.5 22.8-15.1 42.1z"/>
					<path id="&lt;Path&gt;" class="s13" d="m286.7 361.4l-23.7-17.4c8.1-16.8 29.2-22.8 38.8-24.7 0.9 8.1-0.5 22.8-15.1 42.1z"/>
					<g id="&lt;Group&gt;" style="opacity: .2">
						<path id="&lt;Path&gt;" class="s15" d="m271.8 296.7l-7.1 4.1v-8z"/>
						<path id="&lt;Path&gt;" class="s15" d="m256.4 306.1l-8.9 12.4-3.6-7.3 4.1-7.6z"/>
						<path id="&lt;Path&gt;" class="s15" d="m263 324.8l-3.1 16.9-13.4-9.8z"/>
						<path id="&lt;Path&gt;" class="s15" d="m269.1 315.2l5 12.6 10.2-13.9z"/>
					</g>
				</g>
				<path id="&lt;Path&gt;" class="s14" d="m393.4 303.5c0 0 42.8-24 51.7-30.2 8.9-6.2 56.3-52.7 58.9-54 0 0-1.8-5.4 2.2-8.5 4-3.1 19.5-13.2 21.7-13.2 2.2 0 8 21.7 7.1 27-0.9 5.3-22.6 6.6-22.6 6.6 0 0-45.2 52.6-52.2 60-7.1 7.3-55.4 38.8-55.4 38.8z"/>
				<path id="&lt;Path&gt;" class="s14" d="m342.3 556.9c0 0-0.9 15.1-2.4 35.3-0.9 12.6-2 27.1-3.3 41.1-1.7 18.8-3.6 36.8-5.5 47.9-1.7 10.3-24.8 137.7-24.8 137.7h-15.5c4.9-118.8 12.5-164.9 12.7-171.8 0.1-2.3 0.2-5.4 0.3-9.1 0.3-13.6 0.6-35 0.7-50.6 0.2-11.2 0.2-19.4 0.2-19.4z"/>
				<path id="&lt;Path&gt;" class="s14" d="m402 653c-0.5 10.4-6.7 165.4-6.7 165.4h-17c-8.7-123.4-5.4-166.3-7-174.9q0 0 0-0.1c-2.6-14.5-5.1-33.7-6.9-47.9-1.3-11.4-2.2-19.6-2.2-19.6l34.7-15c0 0 2.1 17.9 3.7 39.6 0.8 10.8 1.4 22.5 1.6 33.4 0.2 6.9 0.1 13.4-0.2 19.1z"/>
				<path id="&lt;Path&gt;" class="s13" d="m304.5 587.4l35.4 4.8c-0.9 12.6-2 27.1-3.3 41.1l-32.8 4.7c0.3-13.6 0.6-35 0.7-50.6z"/>
				<path id="&lt;Path&gt;" class="s13" d="m402.2 633.9l-30.9 9.5c-2.6-14.5-5.1-33.7-6.9-47.9l36.2 5c0.8 10.8 1.4 22.5 1.6 33.4z"/>
				<path id="&lt;Path&gt;" class="s4" d="m310 814.2h-20.5c-0.6 0-1.2 0.4-1.4 1.1l-3.3 15c-0.3 1.3 0.6 2.6 1.9 2.9q0.3 0.1 0.6 0.1c6.6-0.1 11.4-0.5 19.7-0.5 5.1 0 20.5 0.5 27.5 0.5 7.1 0 8-7 5.1-7.6-12.9-2.8-22.7-6.7-26.8-10.5-0.8-0.7-1.8-1.1-2.8-1z"/>
				<path id="&lt;Path&gt;" class="s4" d="m396.6 813.6h-20.5c-0.7 0-1.3 0.5-1.4 1.2l-3.3 15c-0.3 1.3 0.6 2.6 1.9 2.9q0.3 0 0.5 0c6.7-0.1 11.5-0.5 19.8-0.5 5.1 0 20.5 0.6 27.5 0.6 7.1 0 8-7 5.1-7.6-12.9-2.9-22.7-6.8-26.8-10.5-0.8-0.7-1.8-1.1-2.8-1.1z"/>
				<path id="&lt;Path&gt;" class="s7" d="m343.7 624.5c0.2-1.3 0.3-2.7 0.5-4.3 2.1-20.5 4.2-45.1 6.1-68.8 6.9 18.6 9.8 44.7 13.4 73.1h42.1c-3.5-73.6-12.6-133.5-17.5-159.1h-89.2c-0.1 9.2-1.1 98-3.4 159.1z"/>
				<path id="&lt;Path&gt;" class="s6" d="m343.7 624.5c0.2-1.3 0.3-2.7 0.5-4.3 2.1-20.5 4.2-45.1 6.1-68.8 6.9 18.6 9.8 44.7 13.4 73.1h42.1c-3.5-73.6-12.6-133.5-17.5-159.1h-89.2c-0.1 9.2-1.1 98-3.4 159.1z"/>
				<g id="&lt;Group&gt;">
					<path id="&lt;Path&gt;" class="s14" d="m355.9 283q-0.3 1.2-0.7 2.4c-1.6 4.6-4.6 8.4-8.3 11q-1.5 1.1-3 1.9c-5.6 2.9-12.3 3.4-18.3 0.8-2.4-1-4.8-2.6-6.9-4.8-8.4-8.5-8.2-18.3-9.1-34.9-0.3-3.6 0.3-7.2 1.6-10.5 4.9-11.6 18.2-17.1 29.8-12.3 16.3 6.7 18.5 31.4 14.9 46.4z"/>
					<path id="&lt;Path&gt;" class="s13" d="m346.9 296.4q-1.5 1.1-3 1.9c-5.6 2.9-12.3 3.4-18.3 0.8 1.2-3.2 3-5.6 3-5.6 0 0 9.9-1.5 18.3 2.9z"/>
					<path id="&lt;Path&gt;" class="s14" d="m313.4 318c8.2 7.4 28.3 4.7 28.3 4.7 0 0 12.5-3.4 9.9-7.3-7.4-1.3-11-4.7-12.4-9.1-0.9-2.6-1-5.5-0.8-8.4 0.1-1.6 0.4-3.2 0.6-4.7l-24.8-18.4c3.3 12.1 7.3 34.4-0.8 43.2z"/>
					<path id="&lt;Path&gt;" class="s7" d="m346.9 267.9l3.6 1.3-1.8-7.3c0 0 5.2-7.9 0-15 0 0 14.5-4.4 6.3-12-3-2.9-6.8 0-16.8-4.4-5.4-2.3-22.4-2.5-23.2 4.4 0 0-12.3-0.1-13.6 20.8-1.3 20.8 13 32.9 13 32.9 0 0 14.7 3.4 21.9-2.5 7.1-5.9 10.6-18.2 10.6-18.2z"/>
					<path id="&lt;Path&gt;" class="s14" d="m337.5 269c0.9 3.7 2.9 6.3 5.5 7.4 3.4 1.5 5.6-3.3 5.1-8.3-0.5-4.4-2.8-10.7-6.4-9.8-3.6 0.8-5.4 6.3-4.2 10.7z"/>
				</g>
				<path id="&lt;Path&gt;" class="s13" d="m350.3 551.3c-1.9 23.7-4 48.3-6.1 68.8-3.1-29.6-6.8-50.6-6.8-50.6 0 0-3.5-2.9-13-18.2-9.6-15.3 0-43.8 0-43.8-0.3 26.5 25.9 43.8 25.9 43.8z"/>
				<path id="&lt;Path&gt;" class="s4" d="m408.8 621.1l-1.9 6.9h-44.7v-6.4z"/>
				<path id="&lt;Path&gt;" class="s4" d="m345.9 622l-1.4 6.5h-50.6l-3.1-6.5z"/>
				<g id="&lt;Group&gt;">
					<path id="&lt;Path&gt;" class="s4" d="m352.1 313.2c0 0-7.3-11.5-25.6-12.3-18.4-0.9-19.8 11.8-19.8 11.8z"/>
					<path id="&lt;Path&gt;" class="s16" d="m352.1 313.2c0 0-7.3-11.5-25.6-12.3-18.4-0.9-19.8 11.8-19.8 11.8z"/>
				</g>
				<path id="&lt;Path&gt;" class="s4" d="m286.2 306.1c0 0 9.5 85.4-1.9 187l107.5-6.5c-1.2-109.7-15.9-178.8-15.9-178.8 0 0-27.7 5.9-50.3 5-21.2-0.8-39.4-6.7-39.4-6.7z"/>
				<g id="&lt;Group&gt;">
					<path id="&lt;Path&gt;" class="s4" d="m375.9 307.8c0 0 14.3 33.6 15.9 67.6 1.5 33.9-58.3 80.5-58.3 80.5 0 0-46.2-31.7-81.8-28.9-35.6 2.9-46.7 15.6-46.7 15.6 0 0 27.7-59.2 75.9-79.9 0 0-10-34.1 5.3-56.6 0 0 33.4 10.8 89.7 1.7z"/>
					<path id="&lt;Path&gt;" class="s9" d="m391.8 375.4q0 1.4 0 2.8-0.2 2.2-0.6 4.5c-0.6 3.3-1.6 6.6-3 10v0.1c-3.7 8.7-9.8 17.7-16.6 26-3.4 4.1-7 8.1-10.6 11.9-14 14.7-27.5 25.2-27.5 25.2 0 0-17.1-11.7-38.5-20.3-4.1-1.6-8.4-3.2-12.7-4.5-10.2-3-20.8-4.9-30.6-4.1-12.5 1.1-22 3.3-29 5.7q-2.4 0.9-4.5 1.8-0.6 0.2-1.2 0.5c-3.9 1.7-6.7 3.4-8.6 4.8q-0.4 0.3-0.8 0.6-0.8 0.6-1.3 1-0.3 0.3-0.5 0.5-0.2 0.1-0.4 0.3-0.1 0.1-0.2 0.2l-0.1 0.2q0-0.2 0.6-1.3 0.2-0.4 0.5-1.1c0.6-1.1 1.4-2.6 2.4-4.4q0.2-0.4 0.4-0.8 0.4-0.7 0.8-1.4 0.4-0.7 0.8-1.5c1.2-2 2.6-4.3 4.1-6.8 6.5-10.4 16.3-24.2 29-36.6v-0.1c3.9-3.8 8.1-7.5 12.5-11 7.5-5.9 15.8-11 24.7-14.9 0 0-3.5-12.1-3.1-26.7 0-2.8 0.2-5.7 0.7-8.6 1-7.3 3.3-14.8 7.7-21.3 0 0 5.3 1.7 15 3.2 5.4 0.8 12.1 1.5 20.1 1.9 11.1 0.5 24.6 0.3 40.4-1.4q6.8-0.8 14.2-2 0 0 0.4 1.2c1.3 3 4.9 12.2 8.3 24.4 0.8 3.2 1.7 6.6 2.6 10.1q1.1 5 2.1 10.3c1.2 7 2.1 14.2 2.5 21.6z"/>
					<g id="&lt;Group&gt;" style="opacity: .2">
						<path id="&lt;Path&gt;" class="s15" d="m377.9 402.6l-6.3 16.2c-3.4 4.1-7 8.1-10.6 11.9l-12.8-24.1z"/>
						<path id="&lt;Path&gt;" class="s15" d="m269.1 387.2l-25.4 1.4c3.9-3.8 8.1-7.5 12.5-11z"/>
						<path id="&lt;Path&gt;" class="s15" d="m298.4 323.2l-2.7 26.4-17.9-13.6c0-2.8 0.2-5.7 0.7-8.6z"/>
						<path id="&lt;Path&gt;" class="s15" d="m306.7 392.8l-8.3-25.4 25.3-4.7z"/>
						<path id="&lt;Path&gt;" class="s15" d="m350.3 368.6v19l18.1-6.5z"/>
						<path id="&lt;Path&gt;" class="s15" d="m303.5 423.6l-8.5 12c-4.1-1.6-8.4-3.2-12.7-4.5l-6.5-14.6z"/>
						<path id="&lt;Path&gt;" class="s15" d="m238.7 405.4l13 5.5-13 8.9z"/>
						<path id="&lt;Path&gt;" class="s15" d="m222.7 432.7c-13 4.6-17.7 9.9-17.7 9.9 0 0 3.4-7.1 9.7-17.3z"/>
						<path id="&lt;Path&gt;" class="s15" d="m329.4 408.2l-11.2 11.6 17 3z"/>
						<path id="&lt;Path&gt;" class="s15" d="m329.4 335l13.2 17.8 9.5-20.2z"/>
						<path id="&lt;Path&gt;" class="s15" d="m389.3 353.8l-16.9-11.1 12.2-9.3c1.7 6.1 3.4 13.1 4.7 20.4z"/>
						<path id="&lt;Path&gt;" class="s15" d="m391.8 378.2c-0.3 4.7-1.6 9.6-3.6 14.5l-7.1-17.4z"/>
						<path id="&lt;Path&gt;" class="s15" d="m376.3 309l-10.7 10.9-3.9-10.1q6.8-0.8 14.2-2 0 0 0.4 1.2z"/>
						<path id="&lt;Path&gt;" class="s15" d="m321.3 311.2l-7.9 16.6-12.2-18.5c5.4 0.8 12.1 1.5 20.1 1.9z"/>
					</g>
					<path id="&lt;Path&gt;" class="s13" d="m391.8 375.4q0 1.4 0 2.8-0.2 2.2-0.6 4.5c-13.9-22.2-10.7-42.3-10.7-42.3l6.7 3.1q1.1 5 2.1 10.3c1.2 7 2.1 14.2 2.5 21.6z"/>
				</g>
				<g id="&lt;Group&gt;">
					<path id="&lt;Path&gt;" class="s4" d="m335.1 219.5c23.7-8.2 29.7 23.4 6.1 44.8-23.6 21.3-50.7 23.9-53.8 13.1-3-10.7 11.4-45.5 47.7-57.9z"/>
					<path id="&lt;Path&gt;" class="s4" d="m311.3 217.9c12.2-0.1 29.5 12.4 29.5 12.4 0 0 2.4 13.2-9.7 24.8-12.1 11.6-23.1 13.4-29.9 8.9-6.8-4.5-8.6-21.9-8.6-21.9 0 0 1.7-6.8 8.6-8.9 0 0 2-15.3 10.1-15.3z"/>
					<path id="&lt;Path&gt;" class="s13" d="m331.1 255.1c-12.1 11.6-23.1 13.4-29.9 8.9-1.1-0.7-2.1-1.8-2.9-3.1-4.4-6.6-5.7-18.8-5.7-18.8 11.6 13.9 25-0.5 26.9-10.3 1-5.5-0.4-10.4-3.1-13.3 8 1.7 16.8 6.8 21.3 9.7 1.9 1.2 3.1 2.1 3.1 2.1 0 0 2.4 13.2-9.7 24.8z"/>
					<path id="&lt;Path&gt;" class="s9" d="m331.1 255.1c-12.1 11.6-23.1 13.4-29.9 8.9-1.1-0.7-2.1-1.8-2.9-3.1 12.1 3.6 26.6-2.4 34.4-13.2 5.1-7.1 5.7-14.2 5-19.5 1.9 1.2 3.1 2.1 3.1 2.1 0 0 2.4 13.2-9.7 24.8z"/>
				</g>
				<g id="&lt;Group&gt;">
					<path id="&lt;Path&gt;" class="s4" d="m375.9 307.8c0 0-9.4 19 13.4 49.1l50.2-37-20-36.3z"/>
					<path id="&lt;Path&gt;" class="s9" d="m439.5 319.9l-13.1 9.7-19.4 14.2-17.7 13.1q-1.7-2.3-3.2-4.5c-2.2-3.3-4.1-6.4-5.6-9.3-5.1-10-6.5-18.2-6.5-24.2-0.1-7.1 1.9-11.1 1.9-11.1l11.1-6.2 19.3-10.6 8.4-4.7 4.8-2.7z"/>
					<g id="&lt;Group&gt;" style="opacity: .2">
						<path id="&lt;Path&gt;" class="s15" d="m426.4 329.6l-19.4 14.2-8.5-19z"/>
						<path id="&lt;Path&gt;" class="s15" d="m424.6 299l-17.9 7.1-0.4-15.1 8.4-4.7z"/>
						<path id="&lt;Path&gt;" class="s15" d="m393.4 313.9l-19.4 5c-0.1-7.1 1.9-11.1 1.9-11.1l11.1-6.2z"/>
						<path id="&lt;Path&gt;" class="s15" d="m389.3 338.1l-3.2 14.3c-2.2-3.3-4.1-6.4-5.6-9.3z"/>
					</g>
				</g>
			</g>
		</g>
	</g>
	<g id="Luggage">
		<g id="&lt;Group&gt;">
			<path id="&lt;Path&gt;" class="s17" d="m510.1 646l-25-2 9.8-124.2 24.9 1.9z"/>
			<g id="&lt;Group&gt;">
				<path id="&lt;Path&gt;" class="s7" d="m491.5 817.1c0.7 0 3.3 0.2 4 0.3 4.5 0.3 7.8 4.1 7.5 8.6-0.4 4.4-4.3 7.6-8.7 7.3-0.7-0.1-3.3-0.3-4-0.3-4.5-0.4-7.8-4.1-7.5-8.6 0.4-4.5 4.3-7.7 8.7-7.3z"/>
				<path id="&lt;Path&gt;" class="s12" d="m482.8 824.2c-0.3 4.5 3 8.4 7.5 8.8 4.5 0.3 8.4-3 8.7-7.5 0.4-4.5-3-8.4-7.4-8.7-4.5-0.4-8.4 3-8.8 7.4z"/>
			</g>
			<g id="&lt;Group&gt;">
				<path id="&lt;Path&gt;" class="s7" d="m469.7 815.4c0.7 0 3.3 0.2 4 0.3 4.4 0.3 7.8 4.1 7.4 8.6-0.3 4.4-4.2 7.6-8.7 7.3-0.7-0.1-3.3-0.3-3.9-0.3-4.5-0.4-7.9-4.2-7.5-8.6 0.3-4.5 4.2-7.7 8.7-7.3z"/>
				<path id="&lt;Path&gt;" class="s6" d="m461 822.5c-0.3 4.5 3 8.4 7.5 8.8 4.4 0.3 8.3-3 8.7-7.5 0.3-4.5-3-8.4-7.5-8.7-4.4-0.4-8.3 3-8.7 7.4z"/>
			</g>
			<path id="&lt;Path&gt;" class="s7" d="m466.1 817.8l30.9 2.4c3 0.2 5.6-2 5.8-5l14.7-188c0.3-3-2-5.6-4.9-5.8l-31-2.4c-2.9-0.3-5.5 1.9-5.8 4.9l-14.7 188.1c-0.2 2.9 2 5.5 5 5.8z"/>
			<path id="&lt;Path&gt;" class="s6" d="m481.5 819l15.5 1.2c3 0.2 5.6-2 5.8-5l14.7-188c0.3-3-2-5.6-4.9-5.8l-15.5-1.2c-3-0.3-5.6 2-5.8 4.9l-14.8 188.1c-0.2 3 2 5.5 5 5.8z"/>
			<path id="&lt;Path&gt;" class="s7" d="m494.3 523.5l26 2c2.2 0.2 4.1-1.4 4.3-3.7l0.2-2.4c0.1-2.2-1.5-4.1-3.7-4.3l-26-2c-2.2-0.2-4.1 1.4-4.3 3.6l-0.2 2.5c-0.2 2.2 1.5 4.1 3.7 4.3z"/>
			<path id="&lt;Path&gt;" class="s6" d="m494.3 523.5l26 2c2.2 0.2 4.1-1.4 4.3-3.7l0.2-2.4c0.1-2.2-1.5-4.1-3.7-4.3l-26-2c-2.2-0.2-4.1 1.4-4.3 3.6l-0.2 2.5c-0.2 2.2 1.5 4.1 3.7 4.3z"/>
			<path id="&lt;Path&gt;" class="s13" d="m494.3 523.5l2.1 0.2c2.2 0.1 4.2-1.5 4.3-3.7l0.2-2.5c0.2-2.2-1.4-4.1-3.6-4.3l-2.2-0.1c-2.2-0.2-4.1 1.4-4.3 3.6l-0.2 2.5c-0.2 2.2 1.5 4.1 3.7 4.3z"/>
			<path id="&lt;Path&gt;" class="s4" d="m575.1 641.3l-13.3 169.9c-0.5 6.2-6 10.9-12.2 10.4l-62.1-4.8c-4.4-0.4-7.7-4.2-7.3-8.6l13.8-176.7c0.4-4.4 4.2-7.6 8.6-7.3l62 4.9c6.3 0.5 11 5.9 10.5 12.2z"/>
			<path id="&lt;Path&gt;" class="s6" d="m575.1 641.3l-13.3 169.9c-0.5 6.2-6 10.9-12.2 10.4l-62.1-4.8c-4.4-0.4-7.7-4.2-7.3-8.6l13.8-176.7c0.4-4.4 4.2-7.6 8.6-7.3l62 4.9c6.3 0.5 11 5.9 10.5 12.2z"/>
			<path id="&lt;Path&gt;" class="s13" d="m532.4 626.6v0.2l-2.2-0.2c-4.4-0.3-8.2 3-8.6 7.4l-13.8 176.6c-0.3 3.8 2.1 7.1 5.5 8.2l-25.8-2c-4.4-0.4-7.7-4.2-7.3-8.6l13.8-176.6c0.4-4.5 4.2-7.7 8.6-7.4z"/>
			<path id="&lt;Path&gt;" class="s13" d="m518 810.3l-0.9-0.1c-1.2-0.1-2.1-1.1-2-2.3l13.6-173.2c0.1-1.2 1.1-2.1 2.3-2l0.9 0.1c1.2 0.1 2.1 1.1 2 2.3l-13.5 173.2c-0.1 1.2-1.2 2.1-2.4 2z"/>
			<path id="&lt;Path&gt;" class="s13" d="m530.4 812.2l-0.9-0.1c-1.2-0.1-2.1-1.2-2-2.4l13.6-173.2c0.1-1.2 1.1-2.1 2.3-2l0.9 0.1c1.2 0.1 2.1 1.1 2 2.3l-13.5 173.3c-0.1 1.2-1.2 2-2.4 2z"/>
			<path id="&lt;Path&gt;" class="s13" d="m542.8 812.9l-0.9-0.1c-1.2-0.1-2.1-1.1-2-2.3l13.6-173.3c0.1-1.1 1.1-2 2.3-2l0.9 0.1c1.2 0.1 2.1 1.2 2 2.4l-13.5 173.2c-0.1 1.2-1.2 2.1-2.4 2z"/>
			<path id="&lt;Path&gt;" class="s13" d="m555.2 813.6l-0.9-0.1c-1.2-0.1-2.1-1.1-2-2.3l13.6-173.2c0.1-1.2 1.1-2.1 2.3-2h0.9c1.2 0.1 2.1 1.2 2 2.4l-13.5 173.2c-0.1 1.2-1.2 2.1-2.4 2z"/>
		</g>
	</g>
</svg>