<svg width="33" height="33" viewBox="0 0 33 33" fill="none" xmlns="http://www.w3.org/2000/svg">
<path d="M12.9058 18.1039C12.9058 18.4006 12.8178 18.6906 12.653 18.9373C12.4881 19.184 12.2539 19.3762 11.9798 19.4898C11.7057 19.6033 11.4041 19.633 11.1131 19.5751C10.8222 19.5172 10.5549 19.3744 10.3451 19.1646C10.1353 18.9548 9.99246 18.6875 9.93458 18.3966C9.87671 18.1056 9.90641 17.804 10.0199 17.5299C10.1335 17.2558 10.3257 17.0216 10.5724 16.8567C10.8191 16.6919 11.1091 16.6039 11.4058 16.6039C11.8036 16.6039 12.1851 16.762 12.4664 17.0433C12.7477 17.3246 12.9058 17.7061 12.9058 18.1039ZM22.4058 16.6039C22.1091 16.6039 21.8191 16.6919 21.5724 16.8567C21.3257 17.0216 21.1335 17.2558 21.0199 17.5299C20.9064 17.804 20.8767 18.1056 20.9346 18.3966C20.9925 18.6875 21.1353 18.9548 21.3451 19.1646C21.5549 19.3744 21.8222 19.5172 22.1131 19.5751C22.4041 19.633 22.7057 19.6033 22.9798 19.4898C23.2539 19.3762 23.4881 19.184 23.653 18.9373C23.8178 18.6906 23.9058 18.4006 23.9058 18.1039C23.9058 17.7061 23.7477 17.3246 23.4664 17.0433C23.1851 16.762 22.8036 16.6039 22.4058 16.6039ZM29.9058 6.60393V17.6039C29.9058 24.2202 24.0745 29.6039 16.9058 29.6039C9.73701 29.6039 3.90576 24.2202 3.90576 17.6039V6.60393C3.90594 6.2085 4.02334 5.82201 4.24312 5.49328C4.46289 5.16455 4.77518 4.90835 5.14052 4.75705C5.50586 4.60575 5.90785 4.56614 6.29569 4.64324C6.68353 4.72033 7.03981 4.91066 7.31951 5.19018C7.33701 5.20768 7.35201 5.22393 7.36701 5.24143L9.53076 7.72893C11.7432 6.34279 14.3012 5.60763 16.912 5.60763C19.5228 5.60763 22.0808 6.34279 24.2933 7.72893L26.4445 5.24143C26.4595 5.22393 26.4745 5.20768 26.492 5.19018C26.7717 4.91066 27.128 4.72033 27.5158 4.64324C27.9037 4.56614 28.3057 4.60575 28.671 4.75705C29.0363 4.90835 29.3486 5.16455 29.5684 5.49328C29.7882 5.82201 29.9056 6.2085 29.9058 6.60393ZM27.9058 6.60393L25.2108 9.70393C25.0459 9.89465 24.8151 10.0161 24.5645 10.0439C24.314 10.0717 24.0622 10.0039 23.8595 9.85393C23.2495 9.4028 22.5948 9.01536 21.9058 8.69768V11.6039C21.9058 11.8691 21.8004 12.1235 21.6129 12.311C21.4253 12.4986 21.171 12.6039 20.9058 12.6039C20.6405 12.6039 20.3862 12.4986 20.1987 12.311C20.0111 12.1235 19.9058 11.8691 19.9058 11.6039V7.98518C19.2497 7.81642 18.5807 7.7027 17.9058 7.64518V11.6039C17.9058 11.8691 17.8004 12.1235 17.6129 12.311C17.4253 12.4986 17.171 12.6039 16.9058 12.6039C16.6405 12.6039 16.3862 12.4986 16.1987 12.311C16.0111 12.1235 15.9058 11.8691 15.9058 11.6039V7.64518C15.2308 7.7027 14.5618 7.81642 13.9058 7.98518V11.6039C13.9058 11.8691 13.8004 12.1235 13.6129 12.311C13.4253 12.4986 13.171 12.6039 12.9058 12.6039C12.6405 12.6039 12.3862 12.4986 12.1987 12.311C12.0111 12.1235 11.9058 11.8691 11.9058 11.6039V8.69768C11.2167 9.01536 10.5621 9.4028 9.95201 9.85393C9.74979 10.0043 9.49826 10.0728 9.24772 10.0457C8.99719 10.0185 8.76613 9.89783 8.60076 9.70768L5.90576 6.60393V17.6039C5.90576 22.8114 10.307 27.1039 15.9058 27.5627V25.0177L14.1983 23.3102C14.1054 23.2173 14.0318 23.107 13.9816 22.9856C13.9314 22.8643 13.9056 22.7342 13.9056 22.6029C13.9057 22.4715 13.9316 22.3415 13.9819 22.2202C14.0323 22.0989 14.106 21.9886 14.1989 21.8958C14.3865 21.7083 14.641 21.6031 14.9062 21.6032C15.0375 21.6033 15.1676 21.6292 15.2889 21.6795C15.4102 21.7298 15.5204 21.8035 15.6133 21.8964L16.9058 23.1889L18.1983 21.8964C18.2911 21.8035 18.4013 21.7298 18.5226 21.6795C18.6439 21.6292 18.774 21.6033 18.9053 21.6032C19.0367 21.6031 19.1667 21.6289 19.2881 21.6792C19.4094 21.7294 19.5197 21.803 19.6126 21.8958C19.7055 21.9886 19.7793 22.0989 19.8296 22.2202C19.8799 22.3415 19.9058 22.4715 19.9059 22.6029C19.9059 22.7342 19.8801 22.8643 19.8299 22.9856C19.7797 23.107 19.7061 23.2173 19.6133 23.3102L17.9058 25.0177V27.5627C23.5045 27.1014 27.9058 22.8127 27.9058 17.6039V6.60393Z" fill="black"/>
</svg>
