<svg width="33" height="33" viewBox="0 0 33 33" fill="none" xmlns="http://www.w3.org/2000/svg">
<path d="M16.5371 3.65845C13.966 3.65845 11.4525 4.42088 9.3147 5.84934C7.17686 7.2778 5.51062 9.30812 4.52668 11.6836C3.54274 14.059 3.2853 16.6729 3.78691 19.1946C4.28851 21.7164 5.52664 24.0328 7.34473 25.8508C9.16281 27.6689 11.4792 28.907 14.0009 29.4087C16.5227 29.9103 19.1366 29.6528 21.512 28.6689C23.8874 27.6849 25.9178 26.0187 27.3462 23.8809C28.7747 21.743 29.5371 19.2296 29.5371 16.6584C29.5335 13.2118 28.1627 9.90726 25.7255 7.47008C23.2883 5.03289 19.9838 3.66209 16.5371 3.65845ZM16.5371 5.65845C18.6683 5.65618 20.7537 6.2766 22.5371 7.44345V9.90845L19.7659 13.1259L15.8321 13.6584L15.7934 13.6309L13.3346 12.0234C13.1166 11.8699 12.8701 11.7615 12.6096 11.7046C12.3491 11.6477 12.0799 11.6434 11.8177 11.6921C11.5555 11.7408 11.3058 11.8414 11.083 11.9881C10.8603 12.1347 10.6692 12.3244 10.5209 12.5459L7.90337 16.4584C7.68531 16.7845 7.56794 17.1675 7.56587 17.5597L7.53712 22.0884L7.12837 22.3572C6.11788 20.6889 5.56917 18.7819 5.53846 16.8316C5.50775 14.8814 5.99616 12.958 6.95362 11.2587C7.91108 9.55942 9.30316 8.14525 10.9872 7.16116C12.6712 6.17706 14.5866 5.65844 16.5371 5.65845ZM8.32337 23.9672L8.63836 23.7609C8.91343 23.5795 9.13941 23.3329 9.2962 23.0431C9.453 22.7533 9.53575 22.4292 9.53712 22.0997L9.56336 17.5709L12.1834 13.6584C12.1962 13.6683 12.2095 13.6775 12.2234 13.6859L14.6821 15.2947C15.0942 15.5855 15.6012 15.7092 16.1009 15.6409L20.0371 15.1072C20.5225 15.0424 20.9673 14.8018 21.2871 14.4309L24.0584 11.2109C24.3683 10.8478 24.5381 10.3858 24.5371 9.90845V9.1172C25.8897 10.5482 26.8327 12.3165 27.2675 14.2369C27.7022 16.1574 27.6127 18.1594 27.0084 20.0334L24.9909 18.1884C24.7104 17.931 24.3623 17.759 23.9874 17.6925C23.6125 17.6261 23.2265 17.6681 22.8746 17.8134L19.0671 19.3947C18.7487 19.5283 18.4702 19.7417 18.2582 20.0143C18.0463 20.2869 17.9082 20.6095 17.8571 20.9509L17.5584 22.9747C17.4866 23.4618 17.597 23.9583 17.8684 24.3691C18.1399 24.7798 18.5533 25.076 19.0296 25.2009L21.7121 25.9084L22.0071 26.2047C19.8166 27.4615 17.26 27.9252 14.7676 27.5177C12.2753 27.1101 9.99946 25.8563 8.32337 23.9672ZM23.6621 25.0334L23.1246 24.4947C22.8739 24.243 22.5607 24.0627 22.2171 23.9722L19.5371 23.2647L19.8359 21.2409L23.6421 19.6584L26.1621 21.9684C25.5198 23.1321 24.6729 24.1704 23.6621 25.0334Z" fill="#102835"/>
</svg>
