<svg width="33" height="33" viewBox="0 0 33 33" fill="none" xmlns="http://www.w3.org/2000/svg">
<g clip-path="url(#clip0_134_4181)">
<path d="M28.969 17.8382C28.642 17.5862 28.2671 17.4033 27.8672 17.3008C27.4673 17.1983 27.0507 17.1783 26.6427 17.2419C28.9902 14.8719 30.1777 12.5157 30.1777 10.2057C30.1777 6.89693 27.5165 4.20568 24.2452 4.20568C23.3772 4.20023 22.5186 4.38484 21.7295 4.74654C20.9405 5.10825 20.2402 5.63828 19.6777 6.29943C19.1153 5.63828 18.415 5.10825 17.6259 4.74654C16.8369 4.38484 15.9782 4.20023 15.1102 4.20568C11.839 4.20568 9.17773 6.89693 9.17773 10.2057C9.17773 11.5807 9.58273 12.9169 10.4352 14.3307C9.73703 14.5076 9.09985 14.8704 8.59148 15.3807L5.76398 18.2057H2.17773C1.6473 18.2057 1.13859 18.4164 0.763521 18.7915C0.388448 19.1665 0.177734 19.6752 0.177734 20.2057L0.177734 25.2057C0.177734 25.7361 0.388448 26.2448 0.763521 26.6199C1.13859 26.995 1.6473 27.2057 2.17773 27.2057H15.1777C15.2595 27.2057 15.3409 27.1956 15.4202 27.1757L23.4202 25.1757C23.4712 25.1635 23.521 25.1468 23.569 25.1257L28.4277 23.0582L28.4827 23.0332C28.9497 22.7998 29.3496 22.4515 29.6447 22.0209C29.9398 21.5903 30.1204 21.0917 30.1696 20.572C30.2187 20.0523 30.1347 19.5286 29.9256 19.0503C29.7164 18.5721 29.3889 18.1549 28.974 17.8382H28.969ZM15.1102 6.20568C15.8848 6.19435 16.645 6.41428 17.2939 6.83735C17.9428 7.26042 18.4507 7.8674 18.7527 8.58068C18.8281 8.76409 18.9562 8.92097 19.1209 9.03137C19.2856 9.14177 19.4795 9.20072 19.6777 9.20072C19.876 9.20072 20.0698 9.14177 20.2345 9.03137C20.3992 8.92097 20.5274 8.76409 20.6027 8.58068C20.9048 7.8674 21.4127 7.26042 22.0616 6.83735C22.7104 6.41428 23.4707 6.19435 24.2452 6.20568C26.3765 6.20568 28.1777 8.03693 28.1777 10.2057C28.1777 12.6444 26.204 15.4032 22.4702 18.1932L21.084 18.5119C21.2057 17.9979 21.2094 17.463 21.095 16.9474C20.9805 16.4317 20.7509 15.9486 20.4232 15.5343C20.0955 15.1201 19.6783 14.7853 19.2028 14.5552C18.7273 14.3251 18.2059 14.2056 17.6777 14.2057H12.7627C11.684 12.7507 11.1777 11.4707 11.1777 10.2057C11.1777 8.03693 12.979 6.20568 15.1102 6.20568ZM2.17773 20.2057H5.17773V25.2057H2.17773V20.2057ZM27.6065 21.2319L22.8565 23.2544L15.0527 25.2057H7.17773V19.6194L10.0065 16.7919C10.1915 16.6054 10.4118 16.4575 10.6545 16.3569C10.8972 16.2562 11.1575 16.2048 11.4202 16.2057H17.6777C18.0756 16.2057 18.4571 16.3637 18.7384 16.645C19.0197 16.9263 19.1777 17.3079 19.1777 17.7057C19.1777 18.1035 19.0197 18.485 18.7384 18.7663C18.4571 19.0476 18.0756 19.2057 17.6777 19.2057H14.1777C13.9125 19.2057 13.6582 19.311 13.4706 19.4986C13.2831 19.6861 13.1777 19.9405 13.1777 20.2057C13.1777 20.4709 13.2831 20.7253 13.4706 20.9128C13.6582 21.1003 13.9125 21.2057 14.1777 21.2057H18.1777C18.253 21.2055 18.328 21.1971 18.4015 21.1807L26.7765 19.2544L26.8152 19.2444C27.0709 19.1735 27.3438 19.1995 27.5814 19.3177C27.819 19.4358 28.0045 19.6376 28.1022 19.8843C28.1999 20.1309 28.203 20.405 28.1108 20.6538C28.0186 20.9026 27.8376 21.1085 27.6027 21.2319H27.6065Z" fill="#102835"/>
</g>
<defs>
<clipPath id="clip0_134_4181">
<rect width="32" height="32" fill="white" transform="translate(0.177734 0.205688)"/>
</clipPath>
</defs>
</svg>
