<svg width="217" height="147" viewBox="0 0 217 147" fill="none" xmlns="http://www.w3.org/2000/svg">
<path d="M0 146.619H216.968" stroke="#265399" stroke-width="0.666"/>
<path d="M87.5754 48.9177C88.6295 47.8809 91.2042 44.3385 91.498 44.4249C91.7918 44.5113 90.8932 45.7727 91.1524 45.8073C91.4116 45.8246 92.915 43.9929 93.1742 44.1484C93.537 44.3731 91.9127 46.1702 91.9127 46.1702C91.9127 46.1702 93.7962 44.2867 94.0554 44.5804C94.2455 44.7878 92.8631 46.2911 92.4138 46.9305C92.9841 46.2911 94.0554 45.3753 94.2282 45.5999C94.4183 45.8073 93.5025 46.8441 92.8458 47.6908C93.3124 47.207 94.1937 46.3775 94.3665 46.5503C94.5566 46.7404 92.3447 50.1273 90.3057 52.5811" fill="#F886BC"/>
<path d="M74.0624 61.8434C83.0999 54.1364 89.1479 47.0862 89.1479 47.0862L92.5348 49.3499C92.5348 49.3499 86.8497 58.1627 79.402 65.7487" fill="#F886BC"/>
<path d="M71.3667 64.418C73.233 62.0852 76.3088 59.8215 76.3088 59.8215L81.7866 64.2279L76.9828 69.8613" fill="#FBF9F6"/>
<path d="M80.7843 104.508L77.8986 142.61L81.32 144.788C81.32 144.788 71.9197 145.271 71.6086 144.96C71.2976 144.667 71.9888 142.541 71.9888 142.541L70.4163 104.421L80.7843 104.508Z" fill="#F886BC"/>
<path d="M73.1119 144.943L71.7123 143.561L71.9023 142.835L74.0624 144.943H75.0992L78.7453 143.146L82.7024 145.634C83.1689 145.911 82.9616 146.619 82.4259 146.619L77.0864 146.602L75.3929 145.41H74.9091V146.585H71.4358V144.943H73.1119Z" fill="#28364C"/>
<path d="M73.1983 104.3L64.662 142.61L68.0834 144.788C68.0834 144.788 58.6658 145.271 58.372 144.96C58.061 144.667 58.7522 142.541 58.7522 142.541L61.2405 104.3H73.1983Z" fill="#F886BC"/>
<path d="M59.8581 144.943L58.4584 143.561L58.6658 142.835L60.8085 144.943H61.8453L65.5087 143.146L69.4658 145.634C69.9324 145.911 69.725 146.619 69.1893 146.619L63.8498 146.602L62.1564 145.41H61.6725V146.585H58.1992V144.943H59.8581Z" fill="#28364C"/>
<path d="M64.2127 84.5494C59.5298 92.8093 59.5298 108.171 59.5298 108.171H81.3027C81.3027 108.171 80.9916 94.6756 78.5724 87.0723L64.2127 84.5494Z" fill="#101D54"/>
<path d="M71.4876 85.2926L72.0406 108.171" stroke="#273B7A" stroke-width="0.4995"/>
<path d="M76.3087 86.2428C76.3087 86.2428 75.2028 89.0422 71.4876 89.9926" stroke="#273B7A" stroke-width="0.4995"/>
<path d="M95.5416 76.514C96.9758 76.9288 101.33 77.4472 101.382 77.7409C101.451 78.052 99.9307 77.8792 100.017 78.1211C100.121 78.3457 102.454 78.7604 102.454 79.0715C102.436 79.5035 100.069 78.9505 100.069 78.9505C100.069 78.9505 102.626 79.6936 102.505 80.0565C102.419 80.3157 100.432 79.8491 99.6543 79.7627C100.484 79.9528 101.797 80.4366 101.711 80.7131C101.607 80.9723 100.259 80.6785 99.205 80.523C99.8443 80.6785 101.002 81.0414 100.933 81.3006C100.847 81.5425 97.5115 81.076 94.3665 80.4885" fill="#F886BC"/>
<path d="M69.9497 62.2059C69.9497 62.2059 70.3126 63.1218 72.2653 63.1218C73.6304 63.1218 74.1315 62.4133 74.1315 62.4133C74.1315 62.4133 74.6499 62.8626 80.024 69.9301C81.1645 71.4162 80.9053 74.6476 79.0045 77.4297C78.5552 80.229 78.3824 83.4777 78.5725 87.0719H63.0032C63.0032 87.0719 62.7267 75.8917 63.8153 69.7919C64.4547 66.1803 67.1504 63.3119 69.9497 62.2059Z" fill="#FBF9F6"/>
<path d="M80.2314 67.0447C90.5995 75.1836 97.788 76.9462 97.788 76.9462L96.9412 80.9378C96.9412 80.9378 84.4823 79.3481 76.3088 72.4706" fill="#F886BC"/>
<path d="M74.2007 62.6901C76.8619 63.1393 80.94 67.0446 80.94 67.0446L76.6199 73.4037C76.6199 73.4037 74.771 72.125 72.2826 69.9823" fill="#FBF9F6"/>
<path d="M76.6199 73.1616C73.3713 71.1916 71.9024 69.7401 71.9024 69.7401" stroke="#E6E6E6" stroke-width="0.4995"/>
<path d="M75.3585 55.3114C76.4471 57.1085 76.8964 58.8884 75.3757 59.8042C73.8724 60.7373 71.4359 61.1866 69.8807 58.6465C68.792 56.8493 69.1549 54.6548 70.6583 53.7389C72.1789 52.8231 74.2871 53.5316 75.3585 55.3114Z" fill="#F886BC"/>
<path d="M74.1143 55.7779C74.1661 55.9507 74.3044 56.1754 74.4772 56.1581C74.529 56.1581 74.5636 56.1408 74.5809 56.0889C74.6845 55.7779 74.0106 55.3977 74.1143 55.7779Z" fill="#0B0B3A"/>
<path d="M73.3885 55.6225C73.665 55.2251 74.0452 55.0695 74.4253 55.0177" stroke="#0B0B3A" stroke-width="0.333" stroke-linecap="round"/>
<path d="M75.7732 57.3503L74.771 57.8515C74.771 57.8515 75.1338 58.7155 75.6695 58.5599C76.1188 58.4217 75.7732 57.3503 75.7732 57.3503Z" fill="white"/>
<path d="M74.2007 62.69C74.2007 62.69 73.3367 63.1566 72.2653 63.122C70.6928 63.0875 69.9498 62.4654 69.9498 62.4654L70.9866 58.059L74.7709 58.3354L74.2007 62.69Z" fill="#F886BC"/>
<path d="M74.9956 55.3977C74.9956 55.3977 76.2916 56.2617 76.3434 56.5036C76.3953 56.7283 75.8423 57.0566 75.8423 57.0566" fill="#F886BC"/>
<path d="M71.3667 52.5118C71.2285 52.5809 70.7446 52.4427 70.5718 52.4427C70.3299 52.4427 70.088 52.4657 69.8461 52.5118C68.3945 52.771 67.3232 53.9806 66.632 55.2075C66.1827 56.0196 65.8198 56.9009 65.0076 57.4193C63.2105 58.5425 60.8604 58.1451 58.8559 58.819C56.8169 59.5102 55.2617 61.5665 55.8146 63.7784C55.9874 64.5042 56.3676 65.1608 56.5922 65.8693C57.0761 67.3899 56.8514 69.1525 57.75 70.4485C57.9919 70.7941 58.3203 71.0879 58.6486 71.3471C60.1692 72.5048 62.2428 72.9023 64.0918 72.4011C65.9235 71.8827 67.496 70.4831 68.2045 68.7032C69.0166 66.6987 68.7747 64.2968 69.9497 62.4651C70.5027 61.6184 71.3149 60.9617 71.8678 60.115C72.3689 59.3201 72.6281 57.8513 72.6973 56.9182C72.7145 56.6936 72.3171 54.8964 72.4381 54.8964C73.3712 54.8964 74.5635 54.3089 75.1165 53.756C74.4253 52.218 72.6109 51.8724 71.3667 52.5118Z" fill="#0B0B3A"/>
<path d="M72.3863 57.1604C72.3863 57.1604 71.8333 56.7802 71.4877 57.3159C71.0211 58.0071 72.1271 58.8711 72.6627 58.9057C73.1984 58.9575 73.1984 58.37 73.1984 58.37" fill="#F886BC"/>
<path d="M105.633 95.8848V132.622C105.633 134.402 104.199 135.854 102.419 135.854H81.9766C80.1967 135.854 78.7452 134.402 78.7452 132.622V131.568" stroke="#265399" stroke-width="0.666"/>
<path d="M110.696 97.561V139.552C110.696 141.366 109.227 142.835 107.413 142.835H74.909C73.1292 142.835 71.6949 141.383 71.6949 139.621V131.568" stroke="#265399" stroke-width="0.666"/>
<path d="M119.889 96.8524V121.217C119.889 122.997 121.341 124.431 123.12 124.431H148.505C150.285 124.431 151.719 122.997 151.719 121.217V79.4859C151.719 77.7061 153.153 76.2719 154.933 76.2719H165.405" stroke="#265399" stroke-width="0.666"/>
<path d="M115.811 97.5611V131.707C115.811 133.486 117.262 134.921 119.025 134.921H165.647C167.426 134.921 168.861 133.486 168.861 131.707V84.2382" stroke="#265399" stroke-width="0.666"/>
<path d="M137.173 61.8832L137.173 61.8831L137.169 61.8894C135.339 64.6485 132.259 67.5599 129.31 70.3475C128.799 70.8306 128.292 71.3099 127.796 71.7842C126.122 73.3847 124.576 74.9263 123.448 76.3461C122.325 77.7584 121.589 79.0831 121.589 80.2465V85.275C121.589 86.2036 120.85 86.9401 119.941 86.9401H115.068H110.61H105.737C104.828 86.9401 104.089 86.2036 104.089 85.275V80.2465C104.089 79.0831 103.353 77.7584 102.23 76.3461C101.102 74.9263 99.5554 73.3847 97.8814 71.7842C97.3854 71.3099 96.8783 70.8306 96.3673 70.3475C93.4184 67.5599 90.3387 64.6485 88.5091 61.8894L88.5092 61.8893L88.5047 61.8832C84.8614 56.8994 82.7134 50.7819 82.7134 44.1484C82.7134 27.5133 96.2037 14.0229 112.839 14.0229C129.474 14.0229 142.964 27.5133 142.964 44.1484C142.964 50.7819 140.816 56.8994 137.173 61.8832Z" fill="#FDD305" stroke="#FF9F1C" stroke-width="0.333"/>
<path d="M116.639 86.4153L116.436 86.4283C116.364 84.7521 115.917 73.2065 116.841 63.0505L116.859 62.8465L116.656 62.87C115.465 63.0074 114.193 63.0763 112.839 63.0763C111.485 63.0763 110.213 63.0074 109.022 62.87L108.818 62.8465L108.837 63.0505C109.76 73.2065 109.313 84.7521 109.241 86.4283L109.039 86.4153C109.11 84.8629 109.541 73.1529 108.615 62.9512L108.604 62.8197L108.473 62.8014C99.549 61.5486 95.5899 56.5164 94.8766 51.7961C94.673 50.4128 94.8051 49.0401 95.2 47.8872C95.5954 46.7327 96.2492 45.8118 97.0783 45.3108C98.0863 44.7162 99.3163 44.5952 100.645 44.9651C102.733 45.5716 104.723 47.3649 105.986 49.8055C107.422 52.6435 108.284 57.3497 108.785 62.4986L108.798 62.6306L108.93 62.6476C110.148 62.8042 111.451 62.8736 112.839 62.8736C114.227 62.8736 115.53 62.8042 116.748 62.6476L116.88 62.6306L116.892 62.4986C117.394 57.3498 118.256 52.6436 119.692 49.8056C120.955 47.3649 122.944 45.5716 125.032 44.9651C126.361 44.5952 127.591 44.7162 128.599 45.3108C129.428 45.8118 130.082 46.7327 130.478 47.8872C130.872 49.0401 131.004 50.4126 130.801 51.7959C130.088 56.5162 126.129 61.5486 117.205 62.8014L117.074 62.8197L117.062 62.9512C116.136 73.1529 116.568 84.8629 116.639 86.4153ZM125.082 45.1625L125.082 45.1625L125.078 45.1637C123.037 45.767 121.087 47.5326 119.879 49.9132C118.446 52.6922 117.615 57.3525 117.114 62.3969L117.093 62.6081L117.303 62.5781C125.97 61.3425 129.891 56.4393 130.594 51.7764L130.595 51.776C130.788 50.4722 130.665 49.1499 130.296 48.0337C129.928 46.9208 129.309 45.9946 128.494 45.5089C127.896 45.1466 127.209 44.9667 126.49 44.9667C126.036 44.9667 125.567 45.0324 125.082 45.1625ZM108.546 62.3974C108.062 57.3516 107.214 52.692 105.799 49.9135C104.591 47.5326 102.641 45.7669 100.582 45.1635L100.582 45.1635L100.579 45.1628C100.106 45.0325 99.6415 44.9667 99.1875 44.9667C98.4685 44.9667 97.7818 45.1466 97.1837 45.5089C96.3686 45.9946 95.7492 46.9208 95.3812 48.0337C95.0121 49.1499 94.8892 50.4722 95.083 51.776L95.083 51.7764C95.7868 56.4391 99.6901 61.3425 108.357 62.5781L108.566 62.608L108.546 62.3974Z" fill="white" stroke="#FF9F1C" stroke-width="0.333"/>
<path d="M119.433 18.1473L119.433 18.1475C131.335 21.1701 139.646 31.8518 139.646 44.1482C139.646 45.0066 138.943 45.7097 138.085 45.7097C137.208 45.7097 136.506 45.0056 136.506 44.1482C136.506 33.2896 129.18 23.8573 118.669 21.1945C117.825 20.9755 117.325 20.133 117.528 19.288C117.748 18.4416 118.592 17.9294 119.433 18.1473Z" fill="#FFEE99" stroke="#FF9F1C" stroke-width="0.333"/>
<path d="M113.997 20.4291C113.121 20.4291 112.418 19.726 112.418 18.8503C112.418 17.993 113.12 17.2888 113.997 17.2888C114.855 17.2888 115.558 17.9919 115.558 18.8503C115.558 19.7271 114.854 20.4291 113.997 20.4291Z" fill="#FFEE99" stroke="#FF9F1C" stroke-width="0.333"/>
<g style="mix-blend-mode:multiply" opacity="0.5">
<path d="M88.509 61.8894L88.5091 61.8893L88.5046 61.8831C85.7381 58.0988 83.8444 53.657 83.0929 48.8367C86.1152 59.9183 95.7065 71.3755 112.839 71.3755C129.411 71.3755 139.221 61.1317 142.366 50.0687C141.502 54.4143 139.702 58.4235 137.173 61.8831L137.173 61.883L137.169 61.8894C135.339 64.6485 132.259 67.5598 129.31 70.3474C128.799 70.8305 128.292 71.3099 127.796 71.7841C126.122 73.3847 124.576 74.9263 123.447 76.3461C122.325 77.7583 121.589 79.0831 121.589 80.2464V85.2749C121.589 86.2035 120.85 86.9401 119.941 86.9401H115.068H110.61H105.737C104.827 86.9401 104.089 86.2035 104.089 85.2749V80.2464C104.089 79.0831 103.352 77.7583 102.23 76.3461C101.102 74.9263 99.5553 73.3847 97.8813 71.7841C97.3853 71.3099 96.8782 70.8305 96.3672 70.3474C93.4184 67.5598 90.3386 64.6485 88.509 61.8894Z" fill="#FFC043" stroke="#FF9F1C" stroke-width="0.333"/>
</g>
<path d="M103.363 82.573H122.315V91.5822C122.315 93.0537 121.892 94.4918 121.113 95.7271C119.623 98.0806 117.033 99.5028 114.256 99.5028H111.422C108.645 99.5028 106.054 98.0805 104.564 95.7269C103.786 94.4917 103.363 93.0536 103.363 91.5822V82.573Z" fill="#28364C" stroke="#FF9F1C" stroke-width="0.333"/>
<path d="M103.361 88.4262H103.361H103.36H103.36H103.36H103.359H103.359H103.359H103.358H103.358H103.358H103.357H103.357H103.357H103.356H103.356H103.356H103.355H103.355H103.354H103.354H103.354H103.353H103.353H103.353H103.352H103.352H103.352H103.351H103.351H103.351H103.35H103.35H103.35H103.349H103.349H103.349H103.348H103.348H103.348H103.347H103.347H103.347H103.346H103.346H103.346H103.345H103.345H103.345H103.344H103.344H103.344H103.343H103.343H103.343H103.342H103.342H103.342H103.341H103.341H103.341H103.34H103.34H103.34H103.339H103.339H103.339H103.338H103.338H103.338H103.337H103.337H103.337H103.336H103.336H103.336H103.335H103.335H103.335H103.334H103.334H103.334H103.333H103.333H103.333H103.332H103.332H103.332H103.331H103.331H103.331H103.33H103.33H103.33H103.329H103.329H103.329H103.328H103.328H103.327H103.327H103.327H103.326H103.326H103.326H103.325H103.325H103.325H103.324H103.324H103.324H103.323H103.323H103.323H103.322H103.322H103.322H103.321H103.321H103.321H103.32H103.32H103.32H103.319H103.319H103.319H103.318H103.318H103.318H103.317H103.317H103.317H103.316H103.316H103.316H103.315H103.315H103.315H103.314H103.314H103.314H103.313H103.313H103.313H103.312H103.312H103.312H103.311H103.311H103.311H103.31H103.31H103.31H103.309H103.309H103.309H103.308H103.308H103.308H103.307H103.307H103.307H103.306H103.306H103.306H103.305H103.305H103.305H103.304H103.304H103.304H103.303H103.303H103.303H103.302H103.302H103.302H103.301H103.301H103.3H103.3H103.3H103.299H103.299H103.299H103.298H103.298H103.298H103.297H103.297H103.297H103.296H103.296H103.296H103.295H103.295H103.295H103.294H103.294H103.294H103.293H103.293H103.293H103.292H103.292H103.292H103.291H103.291H103.291H103.29H103.29H103.29H103.289H103.289H103.289H103.288H103.288H103.288H103.287H103.287H103.287H103.286H103.286H103.286H103.285H103.285H103.285H103.284H103.284H103.284H103.283H103.283H103.283H103.282H103.282H103.282H103.281H103.281H103.281H103.28H103.28H103.28H103.279H103.279H103.279H103.278H103.278H103.278H103.277H103.277H103.277H103.276H103.276H103.276H103.275H103.275H103.275H103.274H103.274H103.273H103.273H103.273H103.272H103.272H103.272H103.271H103.271H103.271H103.27H103.27H103.27H103.269H103.269H103.269H103.268H103.268H103.268H103.267H103.267H103.267H103.266H103.266H103.266H103.265H103.265H103.265H103.264H103.264H103.264H103.263H103.263H103.263H103.262H103.262H103.262H103.261H103.261H103.261H103.26H103.26H103.26H103.259H103.259H103.259H103.258H103.258H103.258H103.257H103.257H103.257H103.256H103.256H103.256H103.255H103.255H103.255H103.254H103.254H103.254H103.253H103.253H103.253H103.252H103.252H103.252H103.251H103.251H103.251H103.25H103.25H103.25H103.249H103.249H103.249H103.248H103.248H103.248H103.247H103.247H103.246H103.246H103.246H103.245H103.245H103.245H103.244H103.244H103.244H103.243H103.243H103.243H103.242H103.242H103.242H103.241H103.241H103.241H103.24H103.24H103.24H103.239H103.239H103.239H103.238H103.238H103.238H103.237H103.237H103.237H103.236H103.236H103.236H103.235H103.235H103.235H103.234H103.234H103.234H103.233H103.233H103.233H103.232H103.232H103.232H103.231H103.231H103.231H103.23H103.23H103.23H103.229H103.229H103.229H103.228H103.228H103.228H103.227H103.227H103.227H103.226H103.226H103.226H103.225H103.225H103.225H103.224H103.224H103.224H103.223H103.223H103.223H103.222H103.222H103.222H103.221H103.221H103.221H103.22H103.22H103.219H103.219H103.219H103.218H103.218H103.218H103.217H103.217H103.217H103.216H103.216H103.216H103.215H103.215H103.215H103.214H103.214H103.214H103.213H103.213H103.213H103.212H103.212H103.212H103.211H103.211H103.211H103.21H103.21H103.21H103.209H103.209H103.209H103.208H103.208H103.208H103.207H103.207H103.207H103.206H103.206H103.206H103.205H103.205H103.205H103.204H103.204H103.204H103.203H103.203H103.203H103.202H103.202H103.202H103.201H103.201H103.201H103.2H103.2H103.2H103.199H103.199C102.693 88.4102 102.244 88.0215 102.169 87.499C102.095 86.9168 102.496 86.4155 103.058 86.3564L122.323 84.3521C122.892 84.3083 123.418 84.7128 123.509 85.2985C123.582 85.861 123.183 86.3633 122.619 86.4226L103.361 88.4262Z" fill="#475577" stroke="#FF9F1C" stroke-width="0.333"/>
<path d="M103.229 92.6286L103.215 92.6258L103.201 92.6254C102.694 92.6105 102.244 92.2213 102.169 91.6978C102.095 91.1322 102.497 90.6146 103.058 90.5555C103.058 90.5555 103.058 90.5555 103.058 90.5555L122.325 88.5683L122.326 88.5683C122.889 88.5089 123.417 88.9257 123.509 89.4979C123.581 90.0603 123.183 90.5624 122.619 90.6217C122.619 90.6217 122.619 90.6218 122.619 90.6218L103.352 92.6262L103.344 92.627L103.337 92.6286C103.301 92.6358 103.265 92.6358 103.229 92.6286Z" fill="#475577" stroke="#FF9F1C" stroke-width="0.333"/>
<path d="M122.101 92.8365L122.101 92.8365C122.666 92.777 123.192 93.1953 123.266 93.764C123.341 94.3308 122.955 94.8309 122.395 94.8899C122.395 94.8899 122.395 94.8899 122.395 94.8899L104.121 96.7898H104.121H104.121H104.12H104.12H104.12H104.119H104.119H104.119H104.118H104.118H104.118H104.117H104.117H104.117H104.116H104.116H104.116H104.115H104.115H104.115H104.114H104.114H104.114H104.113H104.113H104.113H104.112H104.112H104.112H104.111H104.111H104.111H104.11H104.11H104.11H104.109H104.109H104.109H104.108H104.108H104.108H104.107H104.107H104.107H104.106H104.106H104.106H104.105H104.105H104.105H104.104H104.104H104.104H104.103H104.103H104.103H104.102H104.102H104.102H104.101H104.101H104.101H104.1H104.1H104.1H104.099H104.099H104.099H104.098H104.098H104.098H104.098H104.097H104.097H104.097H104.096H104.096H104.096H104.095H104.095H104.095H104.094H104.094H104.094H104.093H104.093H104.093H104.092H104.092H104.092H104.091H104.091H104.091H104.09H104.09H104.09H104.089H104.089H104.089H104.088H104.088H104.088H104.088H104.087H104.087H104.087H104.086H104.086H104.086H104.085H104.085H104.085H104.084H104.084H104.084H104.083H104.083H104.083H104.082H104.082H104.082H104.081H104.081H104.081H104.08H104.08H104.08H104.08H104.079H104.079H104.079H104.078H104.078H104.078H104.077H104.077H104.077H104.076H104.076H104.076H104.075H104.075H104.075H104.074H104.074H104.074H104.074H104.073H104.073H104.073H104.072H104.072H104.072H104.071H104.071H104.071H104.07H104.07H104.07H104.069H104.069H104.069H104.069H104.068H104.068H104.068H104.067H104.067H104.067H104.066H104.066H104.066H104.065H104.065H104.065H104.064H104.064H104.064H104.064H104.063H104.063H104.063H104.062H104.062H104.062H104.061H104.061H104.061H104.06H104.06H104.06H104.059H104.059H104.059H104.059H104.058H104.058H104.058H104.057H104.057H104.057H104.056H104.056H104.056H104.055H104.055H104.055H104.055H104.054H104.054H104.054H104.053H104.053H104.053H104.052H104.052H104.052H104.052H104.051H104.051H104.051H104.05H104.05H104.05H104.049H104.049H104.049H104.048H104.048H104.048H104.048H104.047H104.047H104.047H104.046H104.046H104.046H104.045H104.045H104.045H104.045H104.044H104.044H104.044H104.043H104.043H104.043H104.042H104.042H104.042H104.041H104.041H104.041H104.041H104.04H104.04H104.04H104.039H104.039H104.039H104.038H104.038H104.038H104.038H104.037H104.037H104.037H104.036H104.036H104.036H104.036H104.035H104.035H104.035H104.034H104.034H104.034H104.033H104.033H104.033H104.033H104.032H104.032H104.032H104.031H104.031H104.031H104.03H104.03H104.03H104.03H104.029H104.029H104.029H104.028H104.028H104.028H104.027H104.027H104.027H104.027H104.026H104.026H104.026H104.025H104.025H104.025H104.025H104.024H104.024H104.024H104.023H104.023H104.023H104.022H104.022H104.022H104.022H104.021H104.021H104.021H104.02H104.02H104.02H104.02H104.019H104.019H104.019H104.018H104.018H104.018H104.018H104.017H104.017H104.017H104.016H104.016H104.016H104.016H104.015H104.015H104.015H104.014H104.014H104.014H104.013H104.013H104.013H104.013H104.012H104.012H104.012H104.011H104.011H104.011H104.011H104.01H104.01H104.01H104.009H104.009H104.009H104.009H104.008H104.008H104.008H104.007H104.007H104.007H104.007H104.006H104.006H104.006H104.005H104.005H104.005H104.005H104.004H104.004H104.004H104.003H104.003H104.003H104.003H104.002H104.002H104.002H104.001H104.001H104.001H104.001H104H104H104H104H103.999H103.999H103.999H103.998H103.998H103.998H103.998H103.997H103.997H103.997H103.996H103.996H103.996H103.996H103.995H103.995H103.995H103.994H103.994H103.994H103.994H103.993H103.993H103.993H103.992H103.992H103.992H103.992H103.991H103.991H103.991H103.991H103.99H103.99H103.99H103.989H103.989H103.989H103.989H103.988H103.988H103.988H103.987H103.987H103.987H103.987H103.986H103.986H103.986H103.986H103.985H103.985H103.985H103.984H103.984H103.984H103.984H103.983H103.983H103.983H103.983H103.982H103.982H103.982H103.981H103.981H103.981H103.981H103.98H103.98H103.98H103.98H103.979H103.979H103.979H103.978H103.978H103.978H103.978H103.977H103.977H103.977H103.977C103.471 96.7738 103.022 96.3851 102.947 95.8626C102.872 95.2769 103.26 94.7789 103.819 94.72C103.819 94.72 103.819 94.72 103.819 94.72L122.101 92.8365Z" fill="#475577" stroke="#FF9F1C" stroke-width="0.333"/>
<path d="M112.839 1V10.5213Z" fill="#FFCD5C"/>
<path d="M112.839 1V10.5213" stroke="#FF9F1C" stroke-width="1.998" stroke-linecap="round" stroke-linejoin="round"/>
<path d="M129.998 4.80176L126.162 13.4936Z" fill="#FFCD5C"/>
<path d="M129.998 4.80176L126.162 13.4936" stroke="#FF9F1C" stroke-width="1.998" stroke-linecap="round" stroke-linejoin="round"/>
<path d="M144.461 15.3253L137.428 21.7362Z" fill="#FFCD5C"/>
<path d="M144.461 15.3253L137.428 21.7362" stroke="#FF9F1C" stroke-width="1.998" stroke-linecap="round" stroke-linejoin="round"/>
<path d="M95.6797 4.80176L99.5159 13.4936Z" fill="#FFCD5C"/>
<path d="M95.6797 4.80176L99.5159 13.4936" stroke="#FF9F1C" stroke-width="1.998" stroke-linecap="round" stroke-linejoin="round"/>
<path d="M81.2163 15.3253L88.2493 21.7362Z" fill="#FFCD5C"/>
<path d="M81.2163 15.3253L88.2493 21.7362" stroke="#FF9F1C" stroke-width="1.998" stroke-linecap="round" stroke-linejoin="round"/>
<path d="M72.3516 131.62C72.3516 131.983 72.0578 132.277 71.6949 132.277C71.3321 132.277 71.0383 131.983 71.0383 131.62C71.0383 131.257 71.3321 130.963 71.6949 130.963C72.0578 130.963 72.3516 131.257 72.3516 131.62Z" fill="#265399"/>
<path d="M79.4019 131.62C79.4019 131.983 79.1081 132.277 78.7452 132.277C78.3823 132.277 78.0886 131.983 78.0886 131.62C78.0886 131.257 78.3823 130.963 78.7452 130.963C79.1081 130.963 79.4019 131.257 79.4019 131.62Z" fill="#265399"/>
<path d="M169.517 84.2381C169.517 84.6009 169.224 84.8947 168.861 84.8947C168.498 84.8947 168.204 84.6009 168.204 84.2381C168.204 83.8752 168.498 83.5814 168.861 83.5814C169.224 83.5814 169.517 83.8752 169.517 84.2381Z" fill="#265399"/>
<path d="M173.215 84.2381C173.215 84.6009 172.922 84.8947 172.559 84.8947C172.196 84.8947 171.902 84.6009 171.902 84.2381C171.902 83.8752 172.196 83.5814 172.559 83.5814C172.922 83.5814 173.215 83.8752 173.215 84.2381Z" fill="#265399"/>
<path d="M176.913 84.2381C176.913 84.6009 176.62 84.8947 176.257 84.8947C175.894 84.8947 175.6 84.6009 175.6 84.2381C175.6 83.8752 175.894 83.5814 176.257 83.5814C176.62 83.5814 176.913 83.8752 176.913 84.2381Z" fill="#265399"/>
<path d="M166.061 76.272C166.061 76.6349 165.768 76.9286 165.405 76.9286C165.042 76.9286 164.748 76.6349 164.748 76.272C164.748 75.9091 165.042 75.6154 165.405 75.6154C165.768 75.6154 166.061 75.9091 166.061 76.272Z" fill="#265399"/>
</svg>
