<svg version="1.2" xmlns="http://www.w3.org/2000/svg" viewBox="0 0 1000 1000" width="1000" height="1000">
	<title>5107017-ai</title>
	<style>
		.s0 { fill: #ebebeb } 
		.s1 { fill: #f5f5f5 } 
		.s2 { fill: #e0e0e0 } 
		.s3 { fill: #e6e6e6 } 
		.s4 { fill: none;stroke: #e0e0e0;stroke-width: 2 } 
		.s5 { fill: #f0f0f0 } 
		.s6 { fill: #f0f0f0;stroke: #e0e0e0;stroke-linecap: round;stroke-linejoin: round;stroke-width: 4 } 
		.s7 { fill: #263238 } 
		.s8 { opacity: .2;fill: #ffffff } 
		.s9 { opacity: .2;fill: #000000 } 
		.s10 { opacity: .8;fill: #ffffff } 
		.s11 { opacity: .6;fill: #ffffff } 
		.s12 { fill: #407bff } 
		.s13 { opacity: .3;fill: #ffffff } 
		.s14 { opacity: .7;fill: #ffffff } 
		.s15 { opacity: .1;fill: #000000 } 
		.s16 { opacity: .4;fill: #ffffff } 
		.s17 { opacity: .5;fill: #ffffff } 
		.s18 { opacity: .3;fill: #000000 } 
		.s19 { fill: #000000 } 
		.s20 { fill: none;stroke: #263238;stroke-linecap: round;stroke-linejoin: round;stroke-width: 1.4 } 
		.s21 { fill: #e4897b } 
		.s22 { fill: #de5753 } 
		.s23 { fill: #ffffff } 
	</style>
	<g id="Background Complete">
		<g id="&lt;Group&gt;">
			<path id="&lt;Path&gt;" class="s0" d="m1000 765.3h-1000v-0.5h1000z"/>
			<path id="&lt;Path&gt;" class="s0" d="m833.6 797h66.2v0.5h-66.2z"/>
			<path id="&lt;Path&gt;" class="s0" d="m645.1 802.4h17.3v0.5h-17.3z"/>
			<path id="&lt;Path&gt;" class="s0" d="m793.2 778.4h38.4v0.5h-38.4z"/>
			<path id="&lt;Path&gt;" class="s0" d="m104.9 781.8h86.4v0.5h-86.4z"/>
			<path id="&lt;Path&gt;" class="s0" d="m209.1 781.8h12.7v0.5h-12.7z"/>
			<path id="&lt;Path&gt;" class="s0" d="m262.9 790.2h187.4v0.5h-187.4z"/>
			<path id="&lt;Compound Path&gt;" fill-rule="evenodd" class="s0" d="m474 675.6h-386.2c-6.3 0-11.4-5.1-11.4-11.4v-542.9c0-6.3 5.1-11.4 11.4-11.4h386.2c6.3 0 11.4 5.1 11.4 11.4v542.9c0 6.3-5.1 11.4-11.4 11.4zm-386.2-565.2c-6 0-10.9 4.9-10.9 10.9v542.9c0 6 4.9 10.9 10.9 10.9h386.2c6 0 10.9-4.9 10.9-10.9v-542.9c0-6-4.9-10.9-10.9-10.9z"/>
			<path id="&lt;Compound Path&gt;" fill-rule="evenodd" class="s0" d="m906.6 675.6h-386.2c-6.3 0-11.4-5.1-11.4-11.4v-542.9c0-6.3 5.1-11.4 11.4-11.4h386.2c6.3 0 11.4 5.1 11.4 11.4v542.9c0 6.3-5.1 11.4-11.4 11.4zm-386.2-565.2c-6 0-10.9 4.9-10.9 10.9v542.9c0 6 4.9 10.9 10.9 10.9h386.2c6 0 10.9-4.9 10.9-10.9v-542.9c0-6-4.9-10.9-10.9-10.9z"/>
		</g>
		<g id="&lt;Group&gt;">
			<path id="&lt;Path&gt;" class="s1" d="m819.3 221.9c0 28.2-22.8 51-51 51-28.2 0-51-22.8-51-51 0-28.2 22.8-51 51-51 28.2 0 51 22.8 51 51z"/>
			<path id="&lt;Path&gt;" class="s0" d="m746.5 401.9c0-6.5-5.4-11.9-12-11.9q-1.7 0.1-3.4 0.5 0.3-1.7 0.3-3.6c0-13.9-11.3-25.2-25.2-25.2q-2.4 0-4.7 0.4c-3.8-6.3-10.8-10.6-18.8-10.6-12 0-21.8 9.7-22 21.8q-0.2-0.1-0.4-0.1c-11.2 0-20.3 9.1-20.3 20.3 0 11.3 9.1 20.4 20.3 20.4h74.6v-0.1c6.4-0.1 11.6-5.4 11.6-11.9z"/>
			<path id="&lt;Path&gt;" class="s0" d="m612.5 501.5c0-6.6-5.3-11.9-11.9-11.9q-1.8 0-3.4 0.5 0.3-1.8 0.3-3.7c0-13.9-11.3-25.2-25.3-25.2q-2.3 0-4.6 0.4c-3.9-6.3-10.8-10.5-18.8-10.5-12.1 0-21.9 9.7-22.1 21.7q-0.1 0-0.3 0c-11.2 0-20.3 9.1-20.3 20.3 0 11.2 9.1 20.3 20.3 20.3h74.6-0.1c6.5-0.2 11.6-5.5 11.6-11.9z"/>
			<path id="&lt;Path&gt;" class="s0" d="m760.2 190.1c0-6.5-5.3-11.9-11.9-11.9q-1.8 0-3.4 0.5 0.2-1.7 0.2-3.6c0-13.9-11.3-25.2-25.2-25.2q-2.4 0-4.6 0.4c-3.9-6.3-10.9-10.6-18.8-10.6-12.1 0-21.9 9.7-22.1 21.8q-0.2-0.1-0.3-0.1c-11.3 0-20.4 9.1-20.4 20.3 0 11.3 9.1 20.3 20.4 20.3h74.5c6.4-0.1 11.6-5.4 11.6-11.9z"/>
			<path id="&lt;Path&gt;" class="s0" d="m851.4 493.9c0-4-3.2-7.2-7.2-7.2q-1.1 0-2.1 0.3 0.2-1.1 0.2-2.2c0-8.5-6.8-15.3-15.2-15.3q-1.5 0-2.8 0.3c-2.4-3.9-6.6-6.4-11.4-6.4-7.3 0-13.2 5.8-13.3 13.1q-0.2 0-0.3 0c-6.7 0-12.2 5.5-12.2 12.3 0 6.8 5.5 12.2 12.2 12.2h45.1c3.9-0.1 7-3.2 7-7.1z"/>
			<path id="&lt;Path&gt;" class="s0" d="m863.7 268.1c0-4-3.2-7.2-7.2-7.2q-1.1 0-2 0.3 0.1-1.1 0.1-2.2c0-8.4-6.8-15.3-15.2-15.3q-1.5 0-2.8 0.3c-2.4-3.8-6.6-6.4-11.4-6.4-7.3 0-13.2 5.9-13.3 13.1q-0.1 0-0.2 0c-6.8 0-12.3 5.5-12.3 12.3 0 6.8 5.5 12.3 12.3 12.3h45c3.9-0.1 7-3.3 7-7.2z"/>
			<path id="&lt;Path&gt;" class="s0" d="m644 605.7l25.3 115.1 4.6-2.1-26.6-113.6z"/>
			<path id="&lt;Path&gt;" class="s2" d="m600.3 625.7c0 0 10.9-19.6 40.5-36.6 0 0 24.1-2 51.3 9.8 0 0 5.5 9.2-0.8 12.8-6.2 3.6-11.4-3.7-11.4-3.7 0 0-1.2 11.1-9.4 11.4-8.1 0.3-10.5-7.7-10.5-7.7 0 0-0.8 10.1-10.6 12.7-8.5 2.2-13.7-5-13.7-5 0 0-1.7 8.3-9.3 10.8-6.1 1.9-10.3-3.4-10.3-3.4 0 0-1.7 9.1-8.2 9.1-5.6 0-7.6-10.2-7.6-10.2z"/>
			<g id="&lt;Group&gt;">
				<g id="&lt;Group&gt;">
					<path id="&lt;Path&gt;" class="s3" d="m758.1 736c0 0 9.3-143.4 56.6-330.2l-9.6-7.2c0 0-41.5 67.5-83.2 328.9z"/>
				</g>
				<g id="&lt;Group&gt;">
					<path id="&lt;Path&gt;" class="s2" d="m827 362.4c22.2-12.5 52.1 12 54 47 0 0-3.6-2.5-9.5-5.3-1-8.9-2-16.7-2-16.7v15.7q-2.8-1.2-6-2.4l-0.9-8.5-1.2 7.8c-2.8-0.9-5.9-1.6-9.1-2.2l-2.2-24.9-3.8 24c-3-0.3-6.2-0.4-9.5-0.3l-1.2-16.9-1.2 17.1q-4 0.3-8.1 1.2l-1.2-25.1c0 0-0.9 14-1.9 25.9-7 2-14.2 5.3-21.4 10.6v-3.1c0 0 4.8-32.6 25.2-43.9z"/>
					<path id="&lt;Path&gt;" class="s2" d="m798.4 349.1c-15.6-20.3-52.7-9.7-68.3 21.7 0 0 4.2-0.9 10.8-1.2 4.4-7.7 8.5-14.5 8.5-14.5l-6.3 14.5q3 0 6.5 0.2l4.2-7.5-2 7.7c2.9 0.3 6 0.8 9.2 1.5l11.9-22-6.1 23.6c3 0.9 5.9 2.1 8.8 3.5l7.9-15-5.6 16.1q3.5 1.9 6.9 4.4l11-22.6c0 0-4.7 13.2-8.5 24.5 5.7 4.6 10.9 10.5 15.4 18.3l1.3-2.9c0 0 8.5-31.8-5.6-50.3z"/>
					<path id="&lt;Path&gt;" class="s2" d="m778.8 393c18.1-15.3 29.8 0 29.8 0-6.5 1.2-12.4 4.9-17.7 9.7l-2.1-3.1v5.1q-1.9 1.9-3.7 4l-3.3-9.1 0.8 12q-2.6 3.3-4.8 6.7l-1.1-8.9-0.7 11.6c-1.6 2.5-3.1 5-4.4 7.4l-0.7-16.2-1.7 20.7c-3.2 6.2-4.9 10.6-4.9 10.6 0 0-3.6-35.2 14.5-50.5z"/>
					<path id="&lt;Path&gt;" class="s2" d="m821.7 435.4l-3.6 1.7c-0.3-2.7-0.7-5.6-1.2-8.5l2.7-4.1-3.1 1.6q-0.3-1.5-0.6-2.9l3.7-8.3-4.8 3c-1.9-7.8-4.6-14.8-8.3-18.3 0 0 38 15.2 13 55.5 0 0-0.2-6.7-1.2-15.5z"/>
					<path id="&lt;Path&gt;" class="s2" d="m786 398.4l-5.4-12.2 1.7 12.4q-0.9 0.1-1.9 0.2l-7.3-10.6 1.1 11.7q-3.9 0.8-8.3 2.4c-2.9 1-5.8 2.2-8.7 3.6l-3.2-10.5 1 11.6q-4.2 2.1-8.1 4.4l-1.3-9.1-0.6 10.3c-3.2 2-6.2 4-9 6l1.4-16.3-3.7 18c-2.9 2.1-5.5 4.1-7.7 5.9l0.5-11.3-3.9 14.2c-3.2 2.7-5 4.5-5 4.5 4.4-39.6 20.9-54.3 46.7-56.7 25.8-2.4 42.2 25.4 42.2 25.4 0 0-7.5-4.3-20.5-3.9z"/>
					<path id="&lt;Path&gt;" class="s2" d="m856.8 452.3l-3.2 11.7c-0.9-3.1-2.2-7-3.8-11.3l3.4-17.2-4.9 13.4c-2.3-5.9-5.4-12.5-9-18.6l4.5-11.7-6.5 8.4q-1.6-2.4-3.4-4.7l2.6-7.4-3.6 6.1q-1.2-1.5-2.5-3l3.2-9.9-4.6 8.5c-2.4-2.5-4.9-4.7-7.7-6.5l5-12.1c0 0-3.3 4.9-7.2 10.8-3.9-2.2-8-3.5-12.6-3.6 0 0 8.6-11.8 23.1-15 14.5-3.2 43.1 24.6 25.8 80.2 0 0-0.3-1.3-1-3.6z"/>
					<path id="&lt;Path&gt;" class="s2" d="m841.4 340.7l1.9 7.4q-1.2 0-2.7 0.2l-2.3-9.6 1.3 9.7c-1.6 0.4-3.4 1-5.4 2.1l-3.1-13 1.4 14q-1.1 0.6-2.1 1.4l-3.7-12.2 2.5 13.1c-2.9 2.5-6.1 5.9-9.3 10.7v-17.4l-3.7 23.5c-3.2 5.9-6.5 13.2-9.7 22.4 0 0 2.1-63.2 17.8-69.3 15.8-6 22.6 25 22.6 25 0 0-0.7-0.3-2.1-0.5z"/>
					<path id="&lt;Path&gt;" class="s2" d="m814.6 409.4l-2.2 11.9-3.8-11.9-6.8 8.6-1.8-8.6-7.6 5.5c0 0 2-15.2 7-21.9 5.1-6.6 18.3-0.7 15.2 16.4z"/>
				</g>
				<g id="&lt;Group&gt;">
					<path id="&lt;Path&gt;" class="s3" d="m707.2 711.6c0 0 14.7-204.9-66.6-409.9l9.8-8.7c0 0 89 153 97 421.4z"/>
				</g>
				<g id="&lt;Group&gt;">
					<path id="&lt;Path&gt;" class="s2" d="m618.6 247.9c-25.4-14.1-59.4 13.8-61.5 53.6 0 0 4-2.8 10.8-6 1.1-10.1 2.3-19 2.3-19v17.9q3.1-1.4 6.8-2.7l1-9.7 1.4 8.9c3.2-1 6.7-1.9 10.3-2.6l2.5-28.4 4.4 27.4c3.4-0.4 7-0.5 10.8-0.3l1.4-19.3 1.4 19.5q4.5 0.3 9.2 1.4l1.3-28.7c0 0 1 16 2.2 29.6 8 2.2 16.2 6 24.4 12v-3.5c0 0-5.5-37.2-28.7-50.1z"/>
					<path id="&lt;Path&gt;" class="s2" d="m651.2 232.8c17.7-23 60-11 77.8 24.8 0 0-4.8-1.1-12.3-1.4-5.1-8.7-9.7-16.5-9.7-16.5l7.1 16.5q-3.4 0-7.3 0.2l-4.8-8.5 2.2 8.7c-3.3 0.4-6.8 0.9-10.4 1.7l-13.6-25 6.9 26.9c-3.3 1-6.7 2.3-10 4l-9-17.2 6.4 18.5q-4 2.1-7.9 4.9l-12.5-25.8c0 0 5.4 15.1 9.7 28-6.4 5.2-12.5 12-17.6 20.8l-1.4-3.2c0 0-9.7-36.3 6.4-57.4z"/>
					<path id="&lt;Path&gt;" class="s2" d="m673.5 282.9c-20.7-17.5-34 0-34 0 7.4 1.3 14.2 5.5 20.3 11l2.3-3.6v5.9q2.2 2.1 4.2 4.5l3.7-10.4-0.9 13.8c2 2.5 3.8 5 5.6 7.6l1.2-10.2 0.8 13.3c1.8 2.8 3.5 5.7 4.9 8.3l0.8-18.4 2 23.6c3.6 7.1 5.6 12.1 5.6 12.1 0 0 4.1-40.1-16.5-57.5z"/>
					<path id="&lt;Path&gt;" class="s2" d="m624.6 331.1l4.1 2c0.4-3.1 0.8-6.3 1.4-9.7l-3.1-4.7 3.6 1.8q0.3-1.6 0.6-3.3l-4.2-9.4 5.5 3.5c2.2-9 5.2-17 9.4-21 0 0-43.2 17.4-14.8 63.3 0 0 0.3-7.6 1.3-17.7z"/>
					<path id="&lt;Path&gt;" class="s2" d="m665.3 289l6.1-13.9-1.9 14.1q1.1 0.1 2.2 0.3l8.3-12.1-1.3 13.3c3 0.7 6.2 1.5 9.5 2.7 3.3 1.2 6.6 2.6 9.9 4.1l3.6-11.9-1.1 13.2c3.1 1.6 6.2 3.3 9.2 5.1l1.5-10.5 0.6 11.7c3.7 2.3 7.2 4.6 10.4 6.9l-1.7-18.6 4.2 20.5c3.3 2.4 6.3 4.7 8.8 6.8l-0.6-12.9 4.5 16.1c3.6 3.2 5.8 5.2 5.8 5.2-5.1-45.1-23.9-61.8-53.3-64.6-29.4-2.7-48.1 28.9-48.1 28.9 0 0 8.6-4.8 23.4-4.4z"/>
					<path id="&lt;Path&gt;" class="s2" d="m584.7 350.4l3.6 13.3c1-3.5 2.4-7.9 4.3-12.8l-3.8-19.6 5.5 15.2c2.7-6.7 6.1-14.2 10.3-21.2l-5.1-13.3 7.4 9.6q1.8-2.8 3.8-5.4l-3-8.4 4.2 6.9q1.3-1.7 2.8-3.3l-3.7-11.3 5.2 9.6c2.8-2.8 5.7-5.3 8.9-7.4l-5.7-13.7c0 0 3.7 5.5 8.2 12.2 4.4-2.4 9.1-3.9 14.3-4.1 0 0-9.7-13.4-26.3-17-16.5-3.7-49.1 28-29.3 91.3 0 0 0.3-1.5 1-4z"/>
					<path id="&lt;Path&gt;" class="s2" d="m602.2 223.3l-2.2 8.4q1.4 0 3.1 0.2l2.6-10.9-1.5 11.1c1.9 0.4 3.9 1.1 6.2 2.3l3.5-14.7-1.5 15.8q1.1 0.8 2.3 1.7l4.2-13.9-2.8 15c3.3 2.7 6.9 6.7 10.6 12.1v-19.9l4.2 26.9c3.7 6.7 7.4 15 11 25.5 0 0-2.4-72.1-20.3-79-17.9-6.9-25.7 28.5-25.7 28.5 0 0 0.8-0.4 2.3-0.6z"/>
					<path id="&lt;Path&gt;" class="s2" d="m632.7 301.5l2.6 13.6 4.2-13.6 7.8 9.8 2.1-9.8 8.6 6.3c0 0-2.3-17.3-8-24.9-5.8-7.6-20.9-0.9-17.3 18.6z"/>
				</g>
			</g>
			<path id="&lt;Path&gt;" class="s1" d="m828.7 765.1l-6.9-12.2c-15.6-0.8-29.9-8.1-40.4-20-4.2-4.7-8.1-9.5-12.5-14-0.4-0.4-0.5-0.7-0.6-0.8-1.4-0.9-3-1.7-4.5-2.5-0.3-0.1-1.2-0.4-2.1-0.8q-2.7-0.9-5.2-2c-11-4.4-20.8-9.5-29-18.2-4.6-4.7-8.2-10.3-12.9-14.9-0.1 0.2-1-0.3-1.4-0.7-1.4-0.1-3.3-0.4-3.6-0.4-1.8 0-3.7 0-5.6 0.1-2.7 0.1-5.4 0.3-8.1 0.6-10.5 15.3-23.7 36.3-29.6 39-33.3 15.8-75.8 21.8-111 31.5-2.2 0.6-4.6 0.6-6.9 0.9-10.6 1.5-23.3 9-33.1 14.4z"/>
		</g>
		<g id="&lt;Group&gt;">
			<g id="&lt;Group&gt;">
				<path id="&lt;Path&gt;" class="s2" d="m450.8 423.4v-108.1h-139.2v108.1z"/>
				<path id="&lt;Path&gt;" class="s0" d="m313.5 421.5h135.3v-104.3h-135.3z"/>
				<path id="&lt;Path&gt;" class="s4" d="m378.9 336v14.6"/>
				<path id="&lt;Path&gt;" class="s4" d="m345.8 397.4v-46.8h61.4v26.8"/>
				<path id="&lt;Path&gt;" class="s4" d="m391.3 391.7v-14.3h33.8v14.8"/>
				<path id="&lt;Path&gt;" class="s1" d="m394.4 341.4h-31v-10.7h31z"/>
				<path id="&lt;Path&gt;" class="s1" d="m422.5 367.9h-29.6v-11.6h29.6z"/>
				<path id="&lt;Path&gt;" class="s1" d="m401.5 397.7h-20.3v-12h20.3z"/>
				<path id="&lt;Path&gt;" class="s1" d="m436 396.8h-21.8v-9.1h21.8z"/>
				<path id="&lt;Path&gt;" class="s1" d="m365.2 374.3h-33.6v-15.5h33.6z"/>
				<path id="&lt;Path&gt;" class="s1" d="m356.6 403.1h-21.5v-11.4h21.5z"/>
				<path id="&lt;Path&gt;" class="s1" d="m378.9 355.6l-4.6-4.6 4.6-4.7 4.6 4.7z"/>
				<path id="&lt;Path&gt;" class="s1" d="m407.2 382.1l-4.6-4.7 4.6-4.6 4.7 4.6z"/>
			</g>
			<g id="&lt;Group&gt;">
				<path id="&lt;Path&gt;" class="s2" d="m268.7 207.3c0 15.6 12.7 28.3 28.4 28.3 15.6 0 28.3-12.7 28.3-28.3 0-15.7-12.7-28.4-28.3-28.4-15.7 0-28.4 12.7-28.4 28.4z"/>
				<path id="&lt;Path&gt;" class="s5" d="m273 207.3c0 13.3 10.7 24.1 24.1 24.1 13.3 0 24-10.8 24-24.1 0-13.3-10.7-24.1-24-24.1-13.4 0-24.1 10.8-24.1 24.1z"/>
				<path id="&lt;Path&gt;" class="s6" d="m298.2 190.7v16.9l11.2-6.3"/>
			</g>
			<g id="&lt;Group&gt;">
				<path id="&lt;Path&gt;" class="s2" d="m145.7 360.5v-108.1h139.1v108.1z"/>
				<path id="&lt;Path&gt;" class="s0" d="m282.9 358.6h-135.3v-104.3h135.3z"/>
				<path id="&lt;Path&gt;" class="s1" d="m174.8 289.4h-15.8v-22.3h15.8z"/>
				<path id="&lt;Path&gt;" class="s1" d="m195.3 297.5h-16.6v-23.8h16.6z"/>
				<path id="&lt;Path&gt;" class="s1" d="m173.5 348l-16.4-2.1 3.1-23.7 16.5 2.2z"/>
				<path id="&lt;Path&gt;" class="s1" d="m217.1 346.1h-16.6v-23.9h16.6z"/>
				<path id="&lt;Path&gt;" class="s1" d="m197.3 343.6h-16.6v-23.9h16.6z"/>
				<path id="&lt;Path&gt;" class="s1" d="m245.7 279h-10.3v-10.3h10.3z"/>
				<path id="&lt;Path&gt;" class="s1" d="m256.9 281.5l-9.6-3.7 3.7-9.6 9.6 3.6z"/>
				<path id="&lt;Path&gt;" class="s2" d="m240.5 270c0 0.4-0.3 0.6-0.6 0.6-0.3 0-0.6-0.2-0.6-0.6 0-0.3 0.3-0.6 0.6-0.6 0.3 0 0.6 0.3 0.6 0.6z"/>
				<path id="&lt;Path&gt;" class="s2" d="m252.4 270c0 0.4-0.3 0.6-0.6 0.6-0.4 0-0.6-0.2-0.6-0.6 0-0.3 0.2-0.6 0.6-0.6 0.3 0 0.6 0.3 0.6 0.6z"/>
				<path id="&lt;Path&gt;" class="s2" d="m187.6 275.4c0 0.4-0.3 0.6-0.6 0.6-0.3 0-0.6-0.2-0.6-0.6 0-0.3 0.3-0.6 0.6-0.6 0.3 0 0.6 0.3 0.6 0.6z"/>
				<path id="&lt;Path&gt;" class="s2" d="m167.5 268.7c0 0.3-0.3 0.6-0.6 0.6-0.4 0-0.6-0.3-0.6-0.6 0-0.3 0.2-0.6 0.6-0.6 0.3 0 0.6 0.3 0.6 0.6z"/>
				<path id="&lt;Path&gt;" class="s2" d="m161.8 323.9c0 0.4-0.3 0.6-0.6 0.6-0.3 0-0.6-0.2-0.6-0.6 0-0.3 0.3-0.6 0.6-0.6 0.3 0 0.6 0.3 0.6 0.6z"/>
				<path id="&lt;Path&gt;" class="s2" d="m189.6 321.1c0 0.3-0.3 0.6-0.6 0.6-0.3 0-0.6-0.3-0.6-0.6 0-0.4 0.3-0.6 0.6-0.6 0.3 0 0.6 0.2 0.6 0.6z"/>
				<path id="&lt;Path&gt;" class="s2" d="m209.4 323.3c0 0.4-0.2 0.6-0.6 0.6-0.3 0-0.6-0.2-0.6-0.6 0-0.3 0.3-0.6 0.6-0.6 0.4 0 0.6 0.3 0.6 0.6z"/>
				<path id="&lt;Path&gt;" class="s2" d="m272.4 321.7h-33.1v-20.7h33.1z"/>
				<path id="&lt;Path&gt;" class="s2" d="m261 347.3h-28.8v-22.8h28.8z"/>
			</g>
			<g id="&lt;Group&gt;">
				<path id="&lt;Path&gt;" class="s2" d="m228.6 693.3c0 0-14.1-30.8 2.1-61.2 16.1-30.4 20.8-37.6 10.5-43.8-10.3-6.2-15 24.3-15 24.3 0 0-8.7-21-1.5-43 7.1-21.9 11.6-57.7 1.8-61.6-9.7-3.8-1.8 44.7-10.3 61.2 0 0-7.1-18.4-8.3-36.1-1.2-17.6 0.6-45.8-7.1-53-7.7-7.3-12.7-2.3-5.1 36.7 7.6 39 7.6 70.6 7.6 70.6 0 0-16.8-51.1-28-52.6-11.3-1.5-11.3 15.1-1.6 29.5 9.6 14.3 28.2 40 31.2 53.3 0 0-18.4-38.5-34.9-26.7-16.6 11.8 14.4 35 28.2 43.4 13.8 8.4 23.3 61 23.3 61z"/>
				<path id="&lt;Path&gt;" class="s0" d="m217.5 705.9c0 0 13.7-31-2.8-61.2-16.5-30.1-21.2-37.2-11-43.6 10.2-6.3 15.3 24.1 15.3 24.1 0 0 8.4-21.1 1-43-7.4-21.8-12.4-57.6-2.6-61.6 9.7-3.9 2.4 44.7 11.1 61.1 0 0 6.9-18.5 7.8-36.2 1-17.7-1.2-45.8 6.4-53.2 7.7-7.3 12.7-2.4 5.6 36.7-7.2 39-6.7 70.7-6.7 70.7 0 0 16.1-51.3 27.4-53 11.2-1.7 11.4 14.9 1.9 29.4-9.4 14.5-27.7 40.5-30.6 53.7 0 0 18-38.7 34.6-27.1 16.7 11.5-13.9 35.2-27.6 43.8-13.7 8.6-22.7 61.3-22.7 61.3z"/>
				<g id="&lt;Group&gt;">
					<path id="&lt;Path&gt;" class="s0" d="m280.9 683.8h-113.6l9.2 81.3h95.2z"/>
				</g>
			</g>
		</g>
	</g>
	<g id="Shadow">
		<path id="&lt;Path&gt; 359 " class="s1" d="m887.8 832.5c0 12.5-173.6 22.6-387.8 22.6-214.2 0-387.8-10.1-387.8-22.6 0-12.5 173.6-22.7 387.8-22.7 214.2 0 387.8 10.2 387.8 22.7z"/>
	</g>
	<g id="Desk">
		<g id="&lt;Group&gt;">
			<g id="&lt;Group&gt;">
				<path id="&lt;Path&gt;" class="s7" d="m308.6 561.3c0 5.7 1.6 8.6 1.6 8.6h67.7v-1.6h-1.3v-13.9h1.3v-1.7h-67.7c0 0-1.6 3.1-1.6 8.6z"/>
				<path id="&lt;Path&gt;" class="s8" d="m308.6 561.3c0 5.7 1.6 8.6 1.6 8.6h67.7v-1.6h-1.3v-13.9h1.3v-1.7h-67.7c0 0-1.6 3.1-1.6 8.6z"/>
				<path id="&lt;Path&gt;" class="s9" d="m344.8 561.3c0 5.7 1.6 8.6 1.6 8.6h31.5v-1.6h-1.3v-13.9h1.3v-1.7h-31.5c0 0-1.6 3.1-1.6 8.6z"/>
				<path id="&lt;Path&gt;" class="s10" d="m348.2 561.3c0 4.6 1.3 7 1.3 7h27.1v-13.9h-27.1c0 0-1.3 2.4-1.3 6.9z"/>
				<path id="&lt;Path&gt;" class="s11" d="m319.6 561.3c0 5.7 1.6 8.6 1.6 8.6h12.6c0 0-1.6-2.9-1.6-8.6 0-5.5 1.6-8.6 1.6-8.6h-12.6c0 0-1.6 3.1-1.6 8.6z"/>
			</g>
			<g id="&lt;Group&gt;">
				<path id="&lt;Path&gt;" class="s12" d="m302.5 544.2c0 5.6 1.6 8.5 1.6 8.5h67.8v-1.6h-1.4v-13.9h1.4v-1.6h-67.8c0 0-1.6 3-1.6 8.6z"/>
				<path id="&lt;Path&gt;" class="s9" d="m338.8 544.2c0 5.6 1.6 8.5 1.6 8.5h31.5v-1.6h-1.4v-13.9h1.4v-1.6h-31.5c0 0-1.6 3-1.6 8.6z"/>
				<path id="&lt;Path&gt;" class="s10" d="m342.1 544.2c0 4.6 1.3 6.9 1.3 6.9h27.1v-13.9h-27.1c0 0-1.3 2.4-1.3 7z"/>
				<path id="&lt;Path&gt;" class="s9" d="m313.6 544.2c0 5.6 1.5 8.5 1.5 8.5h12.7c0 0-1.6-2.9-1.6-8.5 0-5.6 1.6-8.6 1.6-8.6h-12.7c0 0-1.5 3-1.5 8.6z"/>
			</g>
			<g id="&lt;Group&gt;">
				<path id="&lt;Path&gt;" class="s7" d="m222.6 503.1h20.2l-5.4 58 32.1 4.8v4h-67.5v-4l13.8-4.8z"/>
				<path id="&lt;Path&gt;" class="s7" d="m301.2 539.9c0.4 3.9-2.5 7-6.4 7h-122.6c-3.9 0-7.3-3.1-7.7-7l-7.3-78.5q-0.1-1.3 0.2-2.3c0.7-2.8 3.1-4.8 6.2-4.8h122.6c3.9 0 7.4 3.2 7.7 7.1z"/>
				<path id="&lt;Path&gt;" class="s13" d="m172.2 543c-1.9 0-3.6-1.6-3.7-3.5l-7.3-78.5q-0.1-0.5 0-1c0.3-1.1 1.2-1.7 2.4-1.7h122.6c1.9 0 3.6 1.6 3.8 3.4l7.3 78.5c0 0.8-0.2 1.5-0.6 2-0.3 0.4-0.9 0.8-1.9 0.8z"/>
			</g>
			<g id="&lt;Group&gt;">
				<path id="&lt;Path&gt;" class="s7" d="m242.6 569.9l1.6-5.9h63.9l29.4 3 1.2 2.9z"/>
			</g>
			<g id="&lt;Group&gt;">
				<path id="&lt;Path&gt;" class="s12" d="m199 571.4v-6.7h4.6l-4.6-2.7h3.4l-4.5-2.9h-4.3v-3.4h5l-5-2v-7.4h5v-4.8h5l-5-1.7v-3.4h3.5l-2.9-2.9-2.5-2.6h-77.3v3.5h-5.1l5.7 2.5v2.9h-10.4v5.3h-4.6l4.6 2.3v6h3.3v2.8h6.5v8.5h-3.7l3.1 3v3.8z"/>
				<path id="&lt;Path&gt;" class="s14" d="m199 571.4v-6.7h4.6l-4.6-2.7h3.4l-4.5-2.9h-4.3v-3.4h5l-5-2v-7.4h5v-4.8h5l-5-1.7v-3.4h3.5l-2.9-2.9-2.5-2.6h-77.3v3.5h-5.1l5.7 2.5v2.9h-10.4v5.3h-4.6l4.6 2.3v6h3.3v2.8h6.5v8.5h-3.7l3.1 3v3.8z"/>
				<path id="&lt;Path&gt;" class="s15" d="m199 571.4v-6.7h4.6l-4.6-2.7h3.4l-4.5-2.9h-4.3v-3.4h5l-5-2v-7.4h5v-4.8h5l-5-1.7v-3.4h3.5l-2.9-2.9-2.5-2.6h-40.7v3.5h-5.1l5.7 2.5v2.9h-10.5v5.3h-4.6l4.6 2.3v6h3.3v2.8h6.6v8.5h-3.7l3 3v3.8z"/>
				<path id="&lt;Path&gt;" class="s15" d="m120 539.8h36.6l-36.6-1.3z"/>
				<path id="&lt;Path&gt;" class="s15" d="m119.4 556.2h36.6l0.2 2.6z"/>
				<path id="&lt;Path&gt;" class="s15" d="m112.9 553.4h36.5l-36.5 1.3z"/>
				<path id="&lt;Path&gt;" class="s15" d="m119.4 564.7h36.6l-36.6-1.4z"/>
				<path id="&lt;Path&gt;" class="s15" d="m118.8 567.7h36.5v1.4z"/>
				<path id="&lt;Path&gt;" class="s15" d="m109.6 545.1h36.5l-36.5-1.1z"/>
				<path id="&lt;Path&gt;" class="s15" d="m119.4 534.4h36.6l-36.6-1.3z"/>
				<path id="&lt;Path&gt;" class="s15" d="m198.6 536.4h-37.1l37.1 1.1z"/>
				<path id="&lt;Path&gt;" class="s15" d="m156.6 539.8h42l-38.1 1.3z"/>
				<path id="&lt;Path&gt;" class="s15" d="m146.1 545.1l52.5 1.2v-1.2z"/>
				<path id="&lt;Path&gt;" class="s15" d="m146.1 547.4h26l-26 1.3z"/>
				<path id="&lt;Path&gt;" class="s15" d="m193.6 553.7l-37.6-0.3 37.6-0.9z"/>
				<path id="&lt;Path&gt;" class="s15" d="m193.6 555.7h-38.3l38.3 1.2z"/>
				<path id="&lt;Path&gt;" class="s15" d="m199 562h-42.4v1.3z"/>
				<path id="&lt;Path&gt;" class="s15" d="m199 564.7h-30.7l30.7 0.8z"/>
			</g>
			<g id="&lt;Group&gt;">
				<g id="&lt;Group&gt;">
					<path id="&lt;Path&gt;" class="s7" d="m232.7 822.8h-9.6l-17.4-241.6h12.8z"/>
					<path id="&lt;Path&gt;" class="s16" d="m232.7 822.8h-9.6l-16.5-229.6-0.9-11.6h12.8l0.7 11.6z"/>
					<path id="&lt;Path&gt;" class="s9" d="m219.2 592.6h-12.6l-0.9-11h12.8z"/>
				</g>
				<g id="&lt;Group&gt;">
					<path id="&lt;Path&gt;" class="s7" d="m303.6 822.8h-9.7l-1.5-241.6h12.8z"/>
					<path id="&lt;Path&gt;" class="s17" d="m305.2 581.6l-0.3 39-1.3 202.2h-9.7l-1.3-202.2-0.2-39z"/>
					<path id="&lt;Path&gt;" class="s9" d="m305.2 581.6l-0.3 39.4h-12.3l-0.2-39.4z"/>
				</g>
				<g id="&lt;Group&gt;">
					<path id="&lt;Path&gt;" class="s7" d="m406.2 822.8h-9.7l-17.4-241.6h12.9z"/>
					<path id="&lt;Path&gt;" class="s17" d="m406.2 822.8h-9.7l-16.5-229.6-0.9-11.6h12.9l0.6 11.6z"/>
					<path id="&lt;Path&gt;" class="s9" d="m392.6 592.6h-12.6l-0.9-11h12.9z"/>
				</g>
				<g id="&lt;Group&gt;">
					<path id="&lt;Path&gt;" class="s7" d="m122.2 822.8h-9.6l14.2-241.6h12.8z"/>
					<path id="&lt;Path&gt;" class="s17" d="m139.6 581.6l-0.9 11.6-16.5 229.6h-9.6l13.5-229.6 0.7-11.6z"/>
					<path id="&lt;Path&gt;" class="s9" d="m126.8 581.6h12.8l-0.9 11h-12.6z"/>
				</g>
				<g id="&lt;Group&gt;">
					<path id="&lt;Path&gt;" class="s12" d="m397.8 587.3h-276.9c-2.3 0-4.3-2-4.3-4.4v-7.7h285.5v7.7c0 2.4-1.9 4.4-4.3 4.4z"/>
					<path id="&lt;Path&gt;" class="s11" d="m397.8 587.3h-276.9c-2.3 0-4.3-2-4.3-4.4v-7.7h285.5v7.7c0 2.4-1.9 4.4-4.3 4.4z"/>
				</g>
				<path id="&lt;Path&gt;" class="s9" d="m402.1 581.2h-285.5v-6h285.5z"/>
				<g id="&lt;Group&gt;">
					<path id="&lt;Path&gt;" class="s12" d="m408.1 576.7h-297.5c-1.9 0-3.4-1.5-3.4-3.4 0-1.8 1.5-3.4 3.4-3.4h297.5c1.9 0 3.4 1.6 3.4 3.4 0 1.9-1.5 3.4-3.4 3.4z"/>
					<path id="&lt;Path&gt;" class="s11" d="m408.1 576.7h-297.5c-1.9 0-3.4-1.5-3.4-3.4 0-1.8 1.5-3.4 3.4-3.4h297.5c1.9 0 3.4 1.6 3.4 3.4 0 1.9-1.5 3.4-3.4 3.4z"/>
				</g>
			</g>
		</g>
		<g id="&lt;Group&gt;">
			<path id="&lt;Path&gt;" class="s12" d="m280.8 636.1h122.2c5.5 0 10 4.5 10 10v11.6h-142.2v-11.6c0-5.5 4.4-10 10-10z"/>
			<path id="&lt;Path&gt;" class="s18" d="m280.8 636.1h122.2c5.5 0 10 4.5 10 10v11.6h-142.2v-11.6c0-5.5 4.4-10 10-10z"/>
			<g id="&lt;Group&gt;">
				<path id="&lt;Path&gt;" class="s12" d="m425.4 553.3h-46.4c-16.1 0-29.2-13.1-29.2-29.2v-15.4c0-16.2 13.1-29.2 29.2-29.2h46.4c16.1 0 29.2 13 29.2 29.2v15.4c0 16.1-13.1 29.2-29.2 29.2z"/>
			</g>
			<g id="&lt;Group&gt;" style="opacity: .3">
				<path id="&lt;Path&gt;" class="s19" d="m425.4 553.3h-46.4c-16.1 0-29.2-13.1-29.2-29.2v-15.4c0-16.2 13.1-29.2 29.2-29.2h46.4c16.1 0 29.2 13 29.2 29.2v15.4c0 16.1-13.1 29.2-29.2 29.2z"/>
			</g>
			<path id="&lt;Path&gt;" class="s7" d="m407.6 780.8l-53.3-5.3v-74.8h-21.1v74.8l-53.5 5.3c-5.3 0.5-9.4 5-9.4 10.3v8h71.4 3.9 71.3v-8c0-5.3-4-9.8-9.3-10.3z"/>
			<path id="&lt;Path&gt;" class="s8" d="m407.6 780.8l-53.3-5.3v-74.8h-21.1v74.8l-53.5 5.3c-5.3 0.5-9.4 5-9.4 10.3v8h71.4 3.9 71.3v-8c0-5.3-4-9.8-9.3-10.3z"/>
			<path id="&lt;Path&gt;" class="s7" d="m289.8 809c0 7.6-6.2 13.8-13.8 13.8-7.6 0-13.8-6.2-13.8-13.8 0-7.6 6.2-13.8 13.8-13.8 7.6 0 13.8 6.2 13.8 13.8z"/>
			<path id="&lt;Path&gt;" class="s7" d="m397.5 809c0 7.6 6.2 13.8 13.8 13.8 7.6 0 13.8-6.2 13.8-13.8 0-7.6-6.2-13.8-13.8-13.8-7.6 0-13.8 6.2-13.8 13.8z"/>
			<path id="&lt;Path&gt;" class="s7" d="m349.7 716.8h-11.9c-4.5 0-8.2-3.7-8.2-8.3v-58.4h28.3v58.4c0 4.6-3.7 8.3-8.2 8.3z"/>
			<path id="&lt;Path&gt;" class="s13" d="m349.7 716.8h-11.9c-4.5 0-8.2-3.7-8.2-8.3v-58.4h28.3v58.4c0 4.6-3.7 8.3-8.2 8.3z"/>
			<path id="&lt;Path&gt;" class="s7" d="m394.2 533c0 0 4.1 99.9-23.7 117.1h31.7c0 0 24.6-34.1 17.6-117.1z"/>
			<path id="&lt;Path&gt;" class="s13" d="m394.2 533c0 0 4.1 99.9-23.7 117.1h31.7c0 0 24.6-34.1 17.6-117.1z"/>
			<g id="&lt;Group&gt;">
				<path id="&lt;Path&gt;" class="s7" d="m268.9 646.9h146c2.2 0 4 1.8 4 4v2.8c0 2.2-1.8 4-4 4h-146c-2.3 0-4.1-1.8-4.1-4v-2.8c0-2.2 1.8-4 4.1-4z"/>
				<path id="&lt;Path&gt;" class="s11" d="m268.9 646.9h146c2.2 0 4 1.8 4 4v2.8c0 2.2-1.8 4-4 4h-146c-2.3 0-4.1-1.8-4.1-4v-2.8c0-2.2 1.8-4 4.1-4z"/>
			</g>
			<path id="&lt;Path&gt;" class="s7" d="m422.5 501.9h-28.7c-8.4 0-15.2 6.8-15.2 15.3v11.2c0 8.4 6.8 15.2 15.2 15.2h28.7c8.5 0 15.3-6.8 15.3-15.2v-11.2c0-8.5-6.8-15.3-15.3-15.3z"/>
			<path id="&lt;Path&gt;" class="s8" d="m422.5 501.9h-28.7c-8.4 0-15.2 6.8-15.2 15.3v11.2c0 8.4 6.8 15.2 15.2 15.2h28.7c8.5 0 15.3-6.8 15.3-15.2v-11.2c0-8.5-6.8-15.3-15.3-15.3z"/>
		</g>
	</g>
	<g id="Sand castle">
		<g id="&lt;Group&gt;">
			<g id="&lt;Group&gt;">
				<path id="&lt;Path&gt;" class="s12" d="m862.8 695.2h-5.8l-0.2 2.8h-5.4l-0.3-2.8h-6.5l-0.3 2.8h-5.3l-0.4-2.8h-6.5l-0.2 2.8h-5.4l-0.3-2.8h-6.5l-0.3 2.8h-5.4l-0.3-2.8h-6.5l-0.3 2.8h-5.3l-0.3-2.8h-6.5l-0.3 2.7-5.4 0.1-0.3-2.8h-5.8l-8.6 59.5h97.1z"/>
				<path id="&lt;Path&gt;" class="s17" d="m862.8 695.2h-5.8l-0.2 2.8h-5.4l-0.3-2.8h-6.5l-0.3 2.8h-5.3l-0.4-2.8h-6.5l-0.2 2.8h-5.4l-0.3-2.8h-6.5l-0.3 2.8h-5.4l-0.3-2.8h-6.5l-0.3 2.8h-5.3l-0.3-2.8h-6.5l-0.3 2.7-5.4 0.1-0.3-2.8h-5.8l-8.6 59.5h97.1z"/>
			</g>
			<g id="&lt;Group&gt;">
				<path id="&lt;Path&gt;" class="s12" d="m881.3 735.8h-8.5l-0.4 4-7.8 0.1-0.5-4.1h-9.5l-0.4 4-7.8 0.1-0.5-4.1h-9.5l-0.4 4-7.8 0.1-0.5-4.1h-9.5l-0.4 4-7.9 0.1-0.4-4.1h-9.5l-0.4 4h-7.9l-0.4-4h-9.6l-0.4 4h-7.8l-0.4-4h-8.5l-12.7 87h142z"/>
				<path id="&lt;Path&gt;" class="s11" d="m881.3 735.8h-8.5l-0.4 4-7.8 0.1-0.5-4.1h-9.5l-0.4 4-7.8 0.1-0.5-4.1h-9.5l-0.4 4-7.8 0.1-0.5-4.1h-9.5l-0.4 4-7.9 0.1-0.4-4.1h-9.5l-0.4 4h-7.9l-0.4-4h-9.6l-0.4 4h-7.8l-0.4-4h-8.5l-12.7 87h142z"/>
			</g>
			<path id="&lt;Path&gt;" class="s9" d="m822.9 795.2c-5.2 0-9.5 4.2-9.5 9.4v18.2h19v-18.2c0-5.2-4.3-9.4-9.5-9.4z"/>
			<g id="&lt;Group&gt;">
				<path id="&lt;Path&gt;" class="s9" d="m852.3 759.2c-2.6 0-4.7 2.1-4.7 4.7v9.1h9.5v-9.1c0-2.6-2.1-4.7-4.8-4.7z"/>
				<path id="&lt;Path&gt;" class="s9" d="m793.5 759.2c-2.7 0-4.8 2.1-4.8 4.7v9.1h9.5v-9.1c0-2.6-2.1-4.7-4.7-4.7z"/>
			</g>
			<g id="&lt;Group&gt;">
				<path id="&lt;Path&gt;" class="s9" d="m847.3 712.4c-2.6 0-4.7 2.1-4.7 4.7v9.1h9.5v-9.1c0-2.6-2.1-4.7-4.8-4.7z"/>
				<path id="&lt;Path&gt;" class="s9" d="m822.9 712.4c-2.6 0-4.7 2.1-4.7 4.7v9.1h9.5v-9.1c0-2.6-2.2-4.7-4.8-4.7z"/>
				<path id="&lt;Path&gt;" class="s9" d="m798.5 712.4c-2.7 0-4.8 2.1-4.8 4.7v9.1h9.5v-9.1c0-2.6-2.1-4.7-4.7-4.7z"/>
			</g>
		</g>
	</g>
	<g id="Ball">
		<g id="&lt;Group&gt;">
			<path id="&lt;Path&gt;" class="s12" d="m663 786.4c0 0.2 0 0.3 0 0.5 0.1 7 2.2 13.6 5.7 19.1q0.5 0.7 1 1.4c2.1 2.9 4.6 5.6 7.5 7.8q1 0.8 2 1.5 0.3 0.2 0.5 0.3 0.4 0.2 0.7 0.4 0.5 0.4 1.1 0.7 0.8 0.5 1.7 0.9c4.9 2.4 10.4 3.8 16.2 3.8 10.4 0 19.7-4.3 26.3-11.3 2.5-2.5 4.5-5.4 6.1-8.5 2.6-5 4-10.6 4-16.6v-0.1q0-1.5-0.1-3c-0.4-4.9-1.8-9.4-3.9-13.5q-0.8-1.6-1.7-3c-2.1-3.3-4.7-6.2-7.7-8.6q-1.4-1.2-3-2.2-0.5-0.4-1.1-0.7-4.3-2.6-9.2-4-0.4-0.1-0.8-0.2c-2.9-0.7-5.8-1.1-8.9-1.1q-1.4 0-2.7 0.1-0.4 0-0.7 0.1h-0.1c-4.1 0.4-8 1.4-11.6 3.1q-0.3 0.1-0.5 0.2c-3.1 1.5-6 3.4-8.5 5.7-6.4 5.6-10.8 13.5-12 22.4v0.1q-0.3 2.3-0.3 4.7z"/>
			<path id="&lt;Path&gt;" class="s11" d="m663 786.4c0 14.3 8.2 26.6 20.2 32.6 0 0 0 0 0 0 1.4-1.2 2-2.5 2-2.5-6.7-19.6 0-30.1 0-30.1v-0.2l-0.5-3.1-0.1-0.6c-1-5.8-3.7-16.7-9.3-23.3-7.5 6.6-12.3 16.4-12.3 27.2z"/>
			<path id="&lt;Path&gt;" class="s11" d="m727.3 780.1c0 0 6.4 6.4 4.5 22.9 2.6-5 4-10.6 4-16.6 0-11.4-5.2-21.6-13.4-28.2 3.5 6.7 5.4 14.9 4.9 21.9z"/>
			<path id="&lt;Path&gt;" class="s8" d="m675.3 759.2c8 9.3 9.9 27.2 9.9 27.2 22 5.4 42.1-6.3 42.1-6.3 0.5-7-1.4-15.2-4.9-21.9-6.3-5.1-14.3-8.2-23-8.2-9.3 0-17.7 3.5-24.1 9.2z"/>
			<path id="&lt;Path&gt;" class="s8" d="m683.2 819c4.9 2.4 10.4 3.8 16.2 3.8 10.4 0 19.7-4.3 26.3-11.3-6.8 4.1-20.7 9.8-40.5 5 0 0-0.6 1.3-2 2.5z"/>
			<g id="&lt;Group&gt;" style="opacity: .2">
				<path id="&lt;Path&gt;" class="s19" d="m683.8 753.5q1.4 2.1 2.6 4.2 2.2 4.2 3.8 8.6c1.2 2.9 2 5.9 2.8 8.9q1.2 4.6 2.1 9.3c-0.2-3.2-0.7-6.3-1.3-9.4-0.7-3.1-1.6-6.2-2.6-9.2-1.2-2.9-2.5-5.9-4.1-8.6-0.9-1.4-1.8-2.7-2.8-4q-0.3 0.1-0.5 0.2z"/>
				<path id="&lt;Path&gt;" class="s19" d="m696 750.2q0.7 1.3 1.4 2.7c1.4 3.1 2.6 6.3 3.6 9.6 1 3.3 1.8 6.7 2.6 10q1.1 5.1 2 10.2c-0.2-3.5-0.7-6.9-1.3-10.3-0.5-3.5-1.4-6.8-2.4-10.2-1-3.3-2.2-6.6-3.9-9.7q-0.6-1.2-1.3-2.4-0.4 0-0.7 0.1z"/>
				<path id="&lt;Path&gt;" class="s19" d="m708.3 751.1q0.3 0.8 0.6 1.6 1.6 4.5 2.7 9.1c0.8 3.1 1.4 6.2 1.9 9.3q0.9 4.8 1.6 9.5c-0.1-3.2-0.4-6.4-0.8-9.6-0.4-3.2-1-6.3-1.8-9.4-0.7-3.1-1.6-6.2-2.9-9.2q-0.2-0.5-0.5-1.1-0.4-0.1-0.8-0.2z"/>
				<path id="&lt;Path&gt;" class="s19" d="m718.3 755.3c0.7 2.2 1.3 4.5 1.8 6.7 0.6 2.6 1 5.2 1.4 7.7q0.5 3.9 0.9 7.8c0.2-2.6 0.1-5.2-0.2-7.8-0.2-2.7-0.6-5.3-1.1-7.9-0.5-1.9-1-3.9-1.7-5.8q-0.5-0.4-1.1-0.7z"/>
				<path id="&lt;Path&gt;" class="s19" d="m675 798.6c-0.1 3.7 0.3 7.5 1.4 11.1 0.5 1.8 1.3 3.5 2 5.3q0.4 0.8 0.8 1.7 0.3 0.2 0.5 0.3c-1-2.4-2-4.9-2.5-7.5-1-3.6-1.4-7.3-1.2-10.9 0-3.7 0.6-7.4 1.6-10.9 1.1-3.5 2.5-7 4.4-10.2-2.2 3-3.9 6.4-5.1 10-1.2 3.5-1.8 7.3-1.9 11.1z"/>
				<path id="&lt;Path&gt;" class="s19" d="m667.8 797.5l0.1 3.1 0.4 3c0.1 0.8 0.2 1.6 0.4 2.4q0.5 0.7 1 1.4c-0.3-1.3-0.6-2.6-0.6-3.9l-0.3-3-0.1-3c-0.1-1 0-1.9 0.1-2.9 0.1-1 0.1-2 0.3-3 0.4-3.9 1.5-7.8 2.9-11.4 1.5-3.7 3.4-7.2 5.9-10.4-2.8 2.9-5 6.4-6.6 10.1-1.6 3.7-2.7 7.6-3.2 11.6-0.2 1-0.2 2-0.3 3 0 1-0.1 2 0 3z"/>
				<path id="&lt;Path&gt;" class="s19" d="m663 786.4c0 0.2 0 0.3 0 0.5q0.1-0.4 0.2-0.7c0.8-4.2 2.2-8.2 4-12 1.8-3.9 4-7.5 6.9-10.7-3.1 2.9-5.6 6.5-7.6 10.3q-1.9 3.8-3.2 7.8v0.1q-0.3 2.3-0.3 4.7z"/>
				<path id="&lt;Path&gt;" class="s19" d="m729.1 774.4c1.7 1.8 3 3.8 4.1 5.9q1.6 2.9 2.6 6 0-1.5-0.1-3-0.8-1.8-1.8-3.4c-1.3-2.1-2.9-4-4.8-5.5z"/>
				<path id="&lt;Path&gt;" class="s19" d="m727.4 764.7q2.3 2.6 4.4 5.1-0.8-1.6-1.7-3-1.3-1.1-2.7-2.1z"/>
				<path id="&lt;Path&gt;" class="s19" d="m727.4 787.8q-5 2-10.1 3.4c-3.4 1-6.8 1.9-10.3 2.5-6.9 1.3-14.1 1.6-21-0.3 3.3 1.4 6.9 2 10.5 2.1 3.6 0.2 7.1-0.3 10.7-0.8q5.3-1 10.3-2.7c3.4-1.2 6.7-2.5 9.9-4.2z"/>
				<path id="&lt;Path&gt;" class="s19" d="m727.4 796.5q-5 2-10.2 3.4c-3.5 0.9-7 1.6-10.6 2-3.5 0.5-7.1 0.6-10.7 0.5l-2.7-0.1-2.7-0.3c-1.8-0.1-3.5-0.7-5.3-0.9 3.4 1.1 7 1.9 10.6 2.1 3.7 0.3 7.3 0.2 10.9-0.3 3.6-0.5 7.2-1.2 10.7-2.3 3.4-1 6.8-2.3 10-4.1z"/>
				<path id="&lt;Path&gt;" class="s19" d="m726.5 804.1c-3.1 1.4-6.4 2.6-9.7 3.6-3.3 1-6.7 1.7-10.2 2-1.7 0.3-3.4 0.4-5.1 0.5-1.8 0-3.5 0-5.2-0.1-3.5-0.1-6.9-0.8-10.3-1.5 3.3 1.1 6.7 2 10.2 2.3 3.5 0.3 7.1 0.2 10.6-0.2 3.4-0.4 6.9-1.1 10.2-2.3 3.3-1.1 6.6-2.5 9.5-4.3z"/>
				<path id="&lt;Path&gt;" class="s19" d="m725 809.7q-4.5 2.1-9.2 3.5c-3.1 0.9-6.3 1.6-9.5 1.9-3.2 0.5-6.5 0.5-9.7 0.3l-2.5-0.2-2.4-0.4c-1.6-0.1-3.2-0.7-4.8-1 3.1 1.2 6.3 2.1 9.6 2.4 3.3 0.4 6.6 0.3 9.9-0.1 3.3-0.4 6.5-1.1 9.7-2.2 3.1-1.1 6.1-2.4 8.9-4.2z"/>
			</g>
		</g>
	</g>
	<g id="Character">
		<g id="&lt;Group&gt;">
			<g id="&lt;Group&gt;">
				<path id="&lt;Path&gt;" class="s20" d="m592.4 401.3c0 0-10.8 6.4-29 1.5-18.1-4.9-26.7 20.7-42.2 8.7"/>
				<path id="&lt;Path&gt;" class="s20" d="m610.2 345.5c0 0 21.1-7.6 23.7 15.8 2.6 23.4-10.2 33.4-22.2 32.9"/>
				<path id="&lt;Path&gt;" class="s7" d="m615 384.3c-8.1 4.5 0.1 6-10.3 11.7-10.4 5.6-30.8 17.8-42.9 2.7-9.6-12.1-24 5.5-34.2 7.3-11.9 2-23.1-7.6-24-19.3-0.2-3.4-0.2-6.8-1.5-10-1.4-3.3-4.2-5.8-7.1-7.8-3.3-2.3-9.2-4-7.8-9.2 0.5-2.1 2.1-3.7 4-4.8 3.2-1.9 7.1-2.6 10.8-2.1 6.8 0.9 11.7 6.2 18.1 0.3 2.4-2.3 4.1-5.3 5.9-8.1 3-4.8 8.1-8.1 13.9-8.1 5.4 0 8.9 2.8 13.4 5.1 8.9 4.6 19.6 0.7 27.2-3.9 12.4-7.6 21.9-7.3 31.6 0.2 10 7.7 20.8 35 10.1 43.7-0.6 0.6-6.5 1.9-7.2 2.3z"/>
				<path id="&lt;Path&gt;" class="s20" d="m614 341.8c0 0-9.8-13.5-26.8-12.4-17 1.2-14.4 15.8-30.4 6.2-16-9.6-26.9-4.8-34.1 6.2"/>
			</g>
			<path id="&lt;Path&gt;" class="s21" d="m554.4 421c0 0-34.8 6.9-40.6 5.8-5.8-1.2-43.2-43-43.2-43 0 0-2.6-9.2-4.5-9.5-1.9-0.3-25.7-8.1-25.8-3.7-0.2 4.5 4.3 16.2 5.4 17.3 1.1 1.1 20 4.1 20 4.1 0 0 34.3 45 38.9 48 4.5 3 45.6 0 45.6 0z"/>
			<path id="&lt;Path&gt;" class="s21" d="m627.3 424.5c7 3.4 31.5 66 31.5 66 0 0 44.4 40.6 45.7 44.5 1.3 4-3 20.1-3.9 21.6-0.6 1-11.2 2.1-11.2 0.7 0-1.4 5.2-19.6 5.2-19.6l-48.3-40-24.1-55.9z"/>
			<g id="&lt;Group&gt;">
				<path id="&lt;Path&gt;" class="s12" d="m627.3 424.5c6.3 0.4 34.5 33.8 34.5 33.8l-20.6 15.6z"/>
				<path id="&lt;Path&gt;" class="s17" d="m627.3 424.5c6.3 0.4 34.5 33.8 34.5 33.8l-20.6 15.6z"/>
			</g>
			<g id="&lt;Group&gt;">
				<path id="&lt;Path&gt;" class="s12" d="m647.9 467.6c6.4 7-25.3 37.6-67.2 30.1-41.9-7.6-59.6-32.6-59.6-32.6 0 0 77.3-51.4 126.8 2.5z"/>
				<path id="&lt;Path&gt;" class="s11" d="m647.9 467.6c6.4 7-25.3 37.6-67.2 30.1-41.9-7.6-59.6-32.6-59.6-32.6 0 0 77.3-51.4 126.8 2.5z"/>
			</g>
			<g id="&lt;Group&gt;">
				<path id="&lt;Path&gt;" class="s12" d="m698.8 511c-5.1-13.3-27-17.7-50.5-18.5-4.5-0.1-8.3 3.5-8.3 8 4.3 2.7 7.4 6.2 9 10.4 7.7 19.8-18.6 48.5-58.8 64.2-40.1 15.7-79 12.4-86.7-7.4-6.3-16.2-41.3 5.1-31 31.6 13.8 35.2 75.6 44 138.1 19.6 62.4-24.4 102-72.7 88.2-107.9z"/>
				<path id="&lt;Path&gt;" class="s16" d="m610.6 618.9c-62.5 24.3-124.3 15.6-138.1-19.6-10.3-26.5 24.7-47.8 31-31.6 1.9 4.7 5.4 8.4 10.3 11.2 15.9 9 45.7 8.2 76.4-3.8 34.2-13.3 58.3-36 60-54.7 0.4-3.3 0-6.5-1.2-9.5-1.6-4.2-4.7-7.7-9-10.4 0-4.5 3.8-8.1 8.3-8 23.5 0.8 45.4 5.2 50.5 18.5 13.8 35.2-25.7 83.5-88.2 107.9z"/>
				<path id="&lt;Path&gt;" class="s9" d="m654.7 562.4c0 0 2.2-11.5-1.9-17.2 0 0-11.5 23.8-49.4 41.9-37.8 18.1-63.8 13.6-68.7 10.6 0 0-0.4 6.7 3.7 11.3 0 0-23.8-7.2-24.6-30.1 15.9 9 45.7 8.2 76.4-3.8 34.2-13.3 58.3-36 60-54.7 23.2 11.8 4.5 42 4.5 42z"/>
			</g>
			<path id="&lt;Path&gt;" class="s21" d="m627.3 606c-0.8 5.2-3.1 12.6-6.2 21.2-10.4 28.3-29.8 68.7-35.1 80.3-4.1 9.1-22.3 11.3-44.5 15.2-42.8 7.5-100.4 18.8-100.4 18.8l-0.8-13.5c0 0 115.5-34.5 117-41 2.1-9.1 2.8-51.7 3.5-87.5q0.1-6 0.2-11.7c0.1-6.2 0.3-12 0.4-17 0.2-11.4 0.3-18.8 0.3-18.8l60-47.9c0 0 14.5 46.4 5.6 101.9z"/>
			<path id="&lt;Path&gt;" class="s9" d="m621.1 627.2c-10.4 28.3-29.8 68.7-35.1 80.3-4.1 9.1-22.3 11.3-44.5 15.2-42.8 7.5-100.4 18.8-100.4 18.8l-0.8-13.5c0 0 115.5-34.5 117-41 2.1-9.1 2.8-51.7 3.5-87.5l30.3-15.5z"/>
			<path id="&lt;Path&gt;" class="s21" d="m558.3 497.7c0 0-23.3 49-15.1 95.3 8.2 46.3 49.7 76.8 56.4 91.2 6.7 14.4 52.1 139.7 52.1 139.7l10.1-4.1c0 0-28-123.4-34.1-152.9-2.9-13.9-36.6-82.9-36.6-82.9 0 0 34.4-36.9 31.5-85.8z"/>
			<path id="&lt;Path&gt;" class="s12" d="m550.2 420.2c0 0 42.2-9.3 77.1 4.3 0 0 2.4 36.8-5.1 74.5l-64.6 0.5c0 0 3.5-17.6-10.8-51.6z"/>
			<path id="&lt;Path&gt;" class="s21" d="m597.4 430.2c-14.8-3.7-18.6-10.7-18.6-10.7 6.8-5.1 6.7-13.8 5.7-19.3-0.5-3-1.3-5.1-1.3-5.1l17.8 5.4c-0.9 3-1.4 5.5-1.6 7.6-0.3 2.3-0.3 4.2-0.1 5.7 0.6 5.5 3.6 6 3.6 6 2.5 6.3-5.5 10.4-5.5 10.4z"/>
			<path id="&lt;Path&gt;" class="s9" d="m599.4 408.1c-0.3 2.3-0.3 4.2-0.1 5.7-7.1-1.8-11.9-8.2-14.8-13.6-0.5-3-1.3-5.1-1.3-5.1l17.8 5.4c-0.9 3-1.4 5.5-1.6 7.6z"/>
			<g id="&lt;Group&gt;">
				<path id="&lt;Path&gt;" class="s21" d="m603 349.9c15.7 2.4 19.5 11.6 18.2 27.9-1.7 20.5-8.3 34.2-27.3 26.9-25.8-10-17-58.8 9.1-54.8z"/>
				<path id="&lt;Path&gt;" class="s22" d="m611.2 375.4c0 0 1.5 4.4 3.5 7.2 0 0-1.6 2-4.4 1.2z"/>
				<g id="&lt;Group&gt;">
					<path id="&lt;Path&gt;" class="s7" d="m601.7 372.7c-0.1 1.3-1 2.2-1.8 2.1-0.9-0.1-1.5-1.2-1.3-2.5 0.2-1.3 1-2.3 1.9-2.2 0.8 0.1 1.4 1.3 1.2 2.6z"/>
					<path id="&lt;Path&gt;" class="s7" d="m600.1 370.1l3-0.7c0 0-1.7 2.2-3 0.7z"/>
				</g>
				<g id="&lt;Group&gt;">
					<path id="&lt;Path&gt;" class="s7" d="m617.9 374.5c-0.2 1.3-1 2.2-1.9 2.1-0.9-0.1-1.4-1.2-1.3-2.5 0.2-1.3 1-2.3 1.9-2.2 0.9 0.1 1.4 1.3 1.3 2.6z"/>
					<path id="&lt;Path&gt;" class="s7" d="m616.2 371.9l3-0.7c0 0-1.7 2.2-3 0.7z"/>
				</g>
				<path id="&lt;Path&gt;" class="s20" d="m603.2 361.8c0 0-4.3-1.2-7.1 1.3"/>
				<path id="&lt;Path&gt;" class="s20" d="m614.7 362.9c0 0 3-0.6 6.1 2.2"/>
				<g id="&lt;Group&gt;">
					<path id="&lt;Path&gt;" class="s7" d="m607 387.6c-1.7 1.3-4.2 4.1-4.2 4.1q-0.4-0.3-0.8-0.5c-4-2.5-5-5-4.9-6.9 0.1-1.1 0.5-2.1 0.9-2.8 0.4-0.8 0.9-1.3 0.9-1.3 1.3 2.6 4.8 5.2 6.7 6.5 0.8 0.6 1.4 0.9 1.4 0.9z"/>
					<path id="&lt;Path&gt;" class="s23" d="m605.6 386.7l-1.2 1.2c-3.7-2.4-6-4.5-6.4-6.4 0.4-0.8 0.9-1.3 0.9-1.3 1.3 2.6 4.8 5.2 6.7 6.5z"/>
					<path id="&lt;Path&gt;" class="s22" d="m602 391.2c-4-2.5-5-5-4.9-6.9 1.3 0.9 2.8 2.1 3.8 3.6 0.8 1.1 1.1 2.3 1.1 3.3z"/>
				</g>
				<path id="&lt;Path&gt;" class="s7" d="m581.8 373.8c0 0 9.3-11.8 9.7-21.9 0 0 33.1-8 29.8 23.8 0 0 7.3-27.6-19.6-32.3-26.8-4.7-32.8 34.8-20.6 48.6 0 0-5.1-10.9 0.7-18.2z"/>
				<path id="&lt;Path&gt;" class="s21" d="m583.9 377.5c0.3-2.6-1.7-7.2-6.5-7.4-4.9-0.3-8.8 9.4 3 13.6 1.7 0.6 2.9-0.9 3.5-6.2z"/>
				<path id="&lt;Path&gt;" class="s7" d="m587.2 340c0 0 9.6-5.5 17.2-4.2 7.6 1.2 9.6 6 9.6 6 0 0 4.1-2.5 9.3 0 5.3 2.5 11.1 12.7 10.4 25.7-0.8 13-11.5 14.5-11.5 14.5 0 0 7.9-21.4-9.7-28.3 0 0-6.3-4.1-10.7 0.9-4.4 5.1-3.9 20.3-18.6 14.8-14.7-5.5-5.4-23.5 4-29.4z"/>
				<path id="&lt;Path&gt;" class="s7" d="m578.8 369.4l16.2-4.7c0 0 7.3-0.7 14.4 2.3 0 0 2.2-0.2 3.4 0.5 0 0 6.1-0.7 11 1.6v1.5l-0.7 0.8c0 0-0.6 6.6-3.1 7.3-1.2 0.4-3.9 0-5.3-1.3-2.1-2.3-2.8-7.3-2.8-7.3 0 0-0.4-1-2.4-0.1 0 0-0.8 7.3-7 6.9-8-0.4-6.9-8.8-6.9-8.8l-1.2-0.6-14.2 2.6z"/>
			</g>
			<path id="&lt;Path&gt;" class="s12" d="m591.1 584c0 0-19.7-36.6-49.6-30.6 0 0 0-28.2 16.1-53.9l64.6-0.5c0 0 8.2 30.2 8 55.4z"/>
			<g id="&lt;Group&gt;">
				<path id="&lt;Path&gt;" class="s12" d="m701.6 472c0 0 8.5-11.3 5.1-27.1-3.4-15.9-17.9-16.3-28.3-5-11.8 13-3.4 31-4.9 37.7-1.4 6.2-14 3.5-16 3-26.3-6.2-61.4-3-96.7 10.8-62.5 24.4-102 72.7-88.3 107.9 5.8 14.9 20.2 25 39.6 29.9 20.1 5.1 16.4-14.1 10.3-29.8-7.8-19.8 18.6-48.5 58.7-64.2 40.2-15.7 79-12.4 86.8 7.4 4.1 10.7 7.9 35.6 15.7 25.9 11.9-14.6 18.4-30 17.9-44.1 12.5-18.1 0.1-52.4 0.1-52.4z"/>
				<path id="&lt;Path&gt;" class="s16" d="m701.5 524.4c0.5 14.1-6 29.5-17.9 44.1-7.8 9.7-11.6-15.2-15.7-25.9-7.8-19.8-46.6-23.1-86.8-7.4-40.2 15.7-66.5 44.4-58.7 64.2 6.1 15.7 9.8 34.9-10.3 29.8-19.4-4.9-33.8-15-39.6-29.9-13.7-35.2 25.8-83.5 88.3-107.9 35.3-13.8 70.4-17 96.7-10.8 2 0.5 14.6 3.2 16-3 1.5-6.7-6.9-24.7 4.9-37.7 10.4-11.3 24.9-10.9 28.3 4.9 1.9 8.7 0.2 16-1.7 20.8-1.7 4-3.4 6.4-3.4 6.4 0 0 12.5 34.3-0.1 52.4z"/>
				<path id="&lt;Path&gt;" class="s12" d="m698.5 437.2c0 0 13-3.2 16.1-5.1 3.1-1.9 2.8 13.8-9.1 19.5 0 0-2-2.6-8.5-1-6.5 1.6-5.2-10.4 1.5-13.4z"/>
				<path id="&lt;Path&gt;" class="s9" d="m701.5 524.4c-18.9 7.2-29.8-14.3-29.8-14.3 0 0 8.5 12.8 21 5.3 13.4-8 7.2-41.5 7.2-41.5 0 0-3.7 2.2-8.8-1.9-4.5-3.7 6.1-8.5 13.9-6.4-1.7 4-3.4 6.4-3.4 6.4 0 0 12.5 34.3-0.1 52.4z"/>
				<path id="&lt;Path&gt;" class="s7" d="m686.2 441.9c-0.1 1.1-0.8 2-1.7 1.9-0.8 0-1.4-1-1.4-2.1 0.1-1.2 0.9-2 1.7-2 0.9 0.1 1.5 1 1.4 2.2z"/>
			</g>
			<path id="&lt;Path&gt;" class="s7" d="m447.2 725.3c1.4 0.2-1.6 17-1.6 17 0 0-11.8 9.3-15.3 19.1-3.5 9.9-9 3.6-7.7-7.8 1.3-11.3 2.3-20 3.2-28 0.9-8.1 7.2-2.2 21.4-0.3z"/>
			<g id="&lt;Group&gt;">
				<path id="&lt;Compound Path&gt;" fill-rule="evenodd" class="s12" d="m443.2 744q0.1-0.1 0.1-0.2 0.1 0 0.2 0 0 0 0.1 0 0 0 0 0 0.1 0 0.2 0c0.2 0.1 4 2 4.7 4.4q0.3 1.1-0.3 2.2-0.7 1.1-1.6 0.9c-0.9-0.1-1.6-1.4-2.2-2.9 0 1.4-0.3 2.9-0.9 3.7q-0.5 0.7-1.2 0.8c-1.1 0.2-1.5-0.2-1.8-0.6-0.2-0.4-0.3-0.9-0.2-1.5 0.2-2.4 2.4-6 2.9-6.8zm0.1 1.6c-1.3 2.3-2.6 5.3-2 6.2 0 0.1 0.2 0.3 0.9 0.2q0.3 0 0.6-0.4c0.3-0.4 0.5-1.1 0.6-1.9 0.1-1.4 0.1-2.9-0.1-4.1zm4.3 2.8c-0.4-1.4-2.2-2.6-3.3-3.3 0.6 2.6 1.7 5.2 2.5 5.3 0.2 0.1 0.5-0.3 0.6-0.5q0.2-0.4 0.3-0.8 0-0.3-0.1-0.7z"/>
			</g>
			<g id="&lt;Group&gt;">
				<path id="&lt;Path&gt;" class="s7" d="m647 819.6c-0.5-1.3 15.6-7 15.6-7 0 0 13.9 5.7 24.2 3.9 10.3-1.8 7.5 6.1-3 10.6-10.5 4.5-18.5 7.9-25.9 11.1-7.5 3.1-5.6-5.2-10.9-18.6z"/>
				<g id="&lt;Group&gt;">
					<path id="&lt;Compound Path&gt;" fill-rule="evenodd" class="s12" d="m665.2 813.9q0 0-0.1 0-0.1-0.1-0.2-0.1 0-0.1 0-0.1 0 0 0 0-0.1-0.1-0.1-0.2c0-0.2-0.2-4.4 1.5-6.2q0.9-0.9 2.1-0.8 1.3 0 1.6 0.9c0.3 0.8-0.5 2.1-1.5 3.3 1.3-0.7 2.7-1.2 3.7-1.1q0.8 0.1 1.3 0.7c0.6 0.8 0.5 1.5 0.3 1.9-0.2 0.4-0.6 0.7-1.2 0.9-2.2 1-6.4 0.8-7.4 0.8zm1.4-0.9c2.7 0 5.9-0.3 6.4-1.3 0.1 0 0.2-0.3-0.2-0.8q-0.3-0.3-0.7-0.4c-0.5-0.1-1.3 0.1-2 0.5-1.2 0.5-2.5 1.3-3.5 2zm0.4-5.1c-1.1 1-1.3 3.2-1.3 4.5 2-1.8 3.7-4 3.4-4.7-0.1-0.3-0.5-0.3-0.8-0.3q-0.4 0-0.8 0.1-0.3 0.1-0.5 0.4z"/>
				</g>
			</g>
			<path id="&lt;Path&gt;" class="s12" d="m586.1 422.8c0 0 0 29.5-24.6 47.3-24.6 17.8-57.8 17.8-64.6 32.1 0 0-0.3-18.7 4.9-34.6 5.3-16 45-29.6 45-29.6l3.4-17.8c0 0 22.5-9.6 35.9 2.6z"/>
			<path id="&lt;Path&gt;" class="s12" d="m605.6 419.8c0 0 14.9 36.2 25 42.5 10.1 6.3 17.3 5.3 17.3 5.3 0 0-6.4-28.4-20.6-43.1 0 0-15.6-9.3-21.7-4.7z"/>
			<path id="&lt;Path&gt;" class="s14" d="m586.1 422.8c0 0 0 29.5-24.6 47.3-24.6 17.8-57.8 17.8-64.6 32.1 0 0-0.3-18.7 4.9-34.6 1.4-4.2 5.2-8.3 10.1-12 5.8-4.4 13-8.3 19.4-11.2 8.5-4 15.4-6.4 15.4-6.4l3.5-17.8c0 0 22.4-9.5 35.9 2.6z"/>
			<path id="&lt;Path&gt;" class="s14" d="m605.6 419.8c0 0 14.9 36.2 25 42.5 10.1 6.3 17.3 5.3 17.3 5.3 0 0-6.4-28.4-20.6-43.1 0 0-15.6-9.3-21.7-4.7z"/>
			<g id="&lt;Group&gt;">
				<path id="&lt;Path&gt;" class="s12" d="m575.5 412.6l10.6 10.2-10.6 12.4-6.6-19.1z"/>
				<path id="&lt;Path&gt;" class="s17" d="m575.5 412.6l10.6 10.2-10.6 12.4-6.6-19.1z"/>
			</g>
			<g id="&lt;Group&gt;">
				<path id="&lt;Path&gt;" class="s12" d="m604.6 413.8l7.9 3.3 8.3 11-15.2-8.3z"/>
				<path id="&lt;Path&gt;" class="s17" d="m604.6 413.8l7.9 3.3 8.3 11-15.2-8.3z"/>
			</g>
			<path id="&lt;Path&gt;" class="s9" d="m543.6 449.2c0 0-15 13.5-31.7 6.4 5.8-4.4 13-8.3 19.4-11.2 6.1 0.8 11.1 2.4 12.3 4.8z"/>
			<g id="&lt;Group&gt;">
				<path id="&lt;Path&gt;" class="s12" d="m553.9 418.9c0 0 0 16.3-10.3 30.3l-28.2 0.8 0.1-26.1z"/>
				<path id="&lt;Path&gt;" class="s17" d="m553.9 418.9c0 0 0 16.3-10.3 30.3l-28.2 0.8 0.1-26.1z"/>
			</g>
		</g>
	</g>
	<g id="Hat">
		<g id="&lt;Group&gt;">
			<path id="&lt;Path&gt;" class="s12" d="m377.4 308.7c0 0-2.4 14.5 14.4 25.5 16.8 11.1 36.2 1.1 39.4-7.6z"/>
			<path id="&lt;Path&gt;" class="s9" d="m377.4 308.7c0 0-2.4 14.5 14.4 25.5 16.8 11.1 36.2 1.1 39.4-7.6z"/>
			<path id="&lt;Path&gt;" class="s12" d="m372.1 280.7c18.3 0 38.8 5.7 55.6 12.9 12 5.2 23.2 12.5 31.9 22.3 8 9.2 15.8 25.1 9 37.1-6.9 12.2-26 0.4-33.6-4.7-28.1-18.7-58.3-29.3-93.8-38.3-5.2-1.3-17.3-4.4-16.2-12 1.1-7.1 12.5-10.9 18-12.7 9.5-3.2 19.3-4.6 29.1-4.6z"/>
			<path id="&lt;Path&gt;" class="s9" d="m377.4 296.4c-5.3-7.5 21.9-11.3 40.8 0 18.8 11.3 20.9 18.5 16.2 21.5-3.3 2.1-42.4-0.7-57-21.5z"/>
		</g>
	</g>
</svg>