<svg width="33" height="33" viewBox="0 0 33 33" fill="none" xmlns="http://www.w3.org/2000/svg">
<path d="M27.8967 13.8925L17.8967 4.45746C17.8918 4.4532 17.8872 4.4486 17.883 4.44371C17.5148 4.10888 17.035 3.92334 16.5373 3.92334C16.0397 3.92334 15.5599 4.10888 15.1917 4.44371L15.178 4.45746L5.18922 13.8925C4.98547 14.0798 4.82282 14.3074 4.71158 14.5609C4.60034 14.8144 4.54293 15.0882 4.54297 15.365V26.9212C4.54297 27.4516 4.75368 27.9604 5.12876 28.3354C5.50383 28.7105 6.01254 28.9212 6.54297 28.9212H12.543C13.0734 28.9212 13.5821 28.7105 13.9572 28.3354C14.3323 27.9604 14.543 27.4516 14.543 26.9212V20.9212H18.543V26.9212C18.543 27.4516 18.7537 27.9604 19.1288 28.3354C19.5038 28.7105 20.0125 28.9212 20.543 28.9212H26.543C27.0734 28.9212 27.5821 28.7105 27.9572 28.3354C28.3323 27.9604 28.543 27.4516 28.543 26.9212V15.365C28.543 15.0882 28.4856 14.8144 28.3744 14.5609C28.2631 14.3074 28.1005 14.0798 27.8967 13.8925ZM26.543 26.9212H20.543V20.9212C20.543 20.3908 20.3323 19.8821 19.9572 19.507C19.5821 19.1319 19.0734 18.9212 18.543 18.9212H14.543C14.0125 18.9212 13.5038 19.1319 13.1288 19.507C12.7537 19.8821 12.543 20.3908 12.543 20.9212V26.9212H6.54297V15.365L6.55672 15.3525L16.543 5.92121L26.5305 15.35L26.5442 15.3625L26.543 26.9212Z" fill="#102835"/>
</svg>
