<svg width="260" height="260" viewBox="0 0 260 260" fill="none" xmlns="http://www.w3.org/2000/svg">
<path d="M218.452 127.764C266.24 155.35 266.24 200.07 218.452 227.656C170.69 255.242 93.2099 255.242 45.4219 227.656C-2.36605 200.07 -2.34005 155.35 45.4219 127.764C93.2099 100.178 170.69 100.178 218.452 127.764Z" fill="#F5F5F5"/>
<path d="M237.172 178.152C250.718 185.978 250.718 198.666 237.172 206.492C223.6 214.318 201.63 214.318 188.084 206.492C174.512 198.666 174.512 185.978 188.084 178.152C201.63 170.326 223.6 170.326 237.172 178.152Z" fill="#E0E0E0"/>
<path d="M124.774 203.138L85.6179 180.518L130.364 154.674L169.546 177.294L124.774 203.138Z" fill="#E0E0E0"/>
<path d="M18.1479 196.144L68.6659 225.29L111.02 200.85L60.5019 171.678L18.1479 196.144Z" fill="#E0E0E0"/>
<path d="M166.348 85.8519L137.436 69.1859C136.812 68.8219 136.266 68.7959 135.85 69.0299C135.486 69.2379 134.16 70.0179 133.77 70.2259C133.38 70.4599 133.12 70.9539 133.12 71.6559V150.8C133.12 152.204 134.108 153.946 135.356 154.648L164.268 171.314C164.866 171.678 165.438 171.704 165.828 171.47C166.192 171.262 167.544 170.482 167.908 170.248C168.324 170.014 168.558 169.52 168.558 168.818V89.6999C168.558 88.2699 167.57 86.5539 166.348 85.8519Z" fill="#263238"/>
<path d="M139.386 152.152L137.28 153.348V159.952C137.28 160.29 137.54 160.732 137.852 160.914L138.814 161.46C139.126 161.642 139.62 161.642 139.932 161.46L140.894 160.914C141.206 160.732 141.544 160.316 141.674 159.978L143.546 154.57L139.386 152.152Z" fill="#263238"/>
<path d="M137.28 159.952C137.28 160.29 137.54 160.732 137.852 160.914L138.814 161.46C139.126 161.642 139.464 161.512 139.594 161.174L141.466 155.766L137.28 153.348V159.952Z" fill="#37474F"/>
<path d="M160.212 164.164L158.132 165.36V171.938C158.132 172.302 158.392 172.744 158.704 172.926L159.666 173.472C159.978 173.654 160.472 173.654 160.784 173.472L161.746 172.926C162.058 172.744 162.396 172.328 162.526 171.99L164.398 166.582L160.212 164.164Z" fill="#263238"/>
<path d="M158.132 171.938C158.132 172.302 158.392 172.744 158.704 172.926L159.666 173.472C159.978 173.654 160.316 173.524 160.446 173.186L162.318 167.778L158.132 165.36V171.938Z" fill="#37474F"/>
<path d="M135.486 70.4339L164.398 87.0999C165.62 87.8019 166.634 89.5179 166.634 90.9479V170.066C166.634 170.768 166.374 171.262 165.984 171.496C165.568 171.73 165.022 171.704 164.398 171.34L135.486 154.674C134.264 153.972 133.276 152.256 133.276 150.826V71.7079C133.276 70.9799 133.51 70.4859 133.926 70.2519C134.316 70.0439 134.888 70.0699 135.486 70.4339Z" fill="#37474F"/>
<path d="M93.4961 178.62L124.774 196.664L168.558 171.392L166.478 170.196L135.2 152.126L93.4961 176.202V178.62Z" fill="#455A64"/>
<path d="M124.774 196.664V194.246L168.558 168.974V171.392L124.774 196.664Z" fill="#263238"/>
<path d="M124.826 193.05C130.676 184.21 130.338 168.558 129.844 165.932C129.844 165.932 132.314 182.468 135.356 187.174" stroke="#FAFAFA" stroke-width="0.75"/>
<path d="M130.884 171.938C131.898 176.748 143.286 180.154 143.286 180.154" stroke="#FAFAFA" stroke-width="0.75"/>
<path d="M129.766 176.722C130.078 175.942 131.664 175.838 131.976 177.112C131.976 177.112 132.158 174.772 133.458 175.422" stroke="#FAFAFA" stroke-width="0.75"/>
<path d="M129.298 180.154C129.896 178.906 132.054 178.204 133.016 181.194C133.016 181.194 133.146 175.838 136.682 177.45" stroke="#FAFAFA" stroke-width="0.75"/>
<path d="M128.31 184.886C129.532 182.494 132.938 181.558 133.796 183.742C133.822 181.038 136.942 177.606 140.712 179.27" stroke="#FAFAFA" stroke-width="0.75"/>
<path d="M126.204 190.606C127.66 187.98 131.222 183.222 134.316 185.12" stroke="#FAFAFA" stroke-width="0.75"/>
<path d="M164.398 144.898V147.316L124.774 170.196L93.4961 152.126V149.708L133.12 126.854L164.398 144.898Z" fill="#263238"/>
<path d="M164.398 144.898L124.774 167.778L93.4961 149.708L133.12 126.854L164.398 144.898Z" fill="#455A64"/>
<path d="M164.398 118.43V120.822L124.774 143.702L93.4961 125.632V123.24L133.12 100.36L164.398 118.43Z" fill="#263238"/>
<path d="M164.398 118.43L124.774 141.284L93.4961 123.24L133.12 100.36L164.398 118.43Z" fill="#455A64"/>
<path d="M124.644 109.902L95.732 93.2359C95.108 92.8719 94.562 92.8459 94.172 93.0799C93.782 93.2879 92.456 94.0679 92.066 94.2759C91.676 94.5099 91.416 95.0039 91.416 95.7059V174.85C91.416 176.254 92.43 177.97 93.652 178.698L122.564 195.364C123.162 195.702 123.734 195.754 124.124 195.52C124.514 195.286 125.84 194.532 126.23 194.298C126.62 194.064 126.88 193.57 126.88 192.868V113.75C126.88 112.32 125.866 110.604 124.644 109.902Z" fill="#263238"/>
<path opacity="0.2" d="M124.774 122.044L126.88 120.822V113.594L124.774 114.816V122.044Z" fill="black"/>
<path opacity="0.2" d="M166.478 97.9679L168.584 96.772V89.5439L166.478 90.7399V97.9679Z" fill="black"/>
<path d="M97.6821 176.202L95.6021 177.398V183.976C95.6021 184.34 95.836 184.782 96.148 184.938L97.11 185.51C97.422 185.692 97.916 185.692 98.228 185.51L99.216 184.938C99.502 184.782 99.866 184.366 99.97 184.028L101.842 178.62L97.6821 176.202Z" fill="#263238"/>
<path d="M95.6021 183.976C95.6021 184.34 95.836 184.782 96.148 184.938L97.11 185.51C97.422 185.692 97.76 185.562 97.89 185.224L99.7621 179.816L95.6021 177.398V183.976Z" fill="#37474F"/>
<path d="M118.534 188.214L116.428 189.41L116.454 195.988C116.454 196.352 116.688 196.794 117 196.95L117.962 197.522C118.274 197.704 118.768 197.704 119.08 197.522L120.068 196.95C120.354 196.794 120.692 196.378 120.822 196.04L122.694 190.632L118.534 188.214Z" fill="#263238"/>
<path d="M116.454 195.988C116.454 196.352 116.688 196.794 117 196.95L117.962 197.522C118.274 197.704 118.612 197.574 118.742 197.236L120.614 191.828L116.428 189.41L116.454 195.988Z" fill="#37474F"/>
<path d="M93.652 94.432L122.564 111.098C123.786 111.8 124.774 113.542 124.774 114.946V194.064C124.774 194.792 124.774 196.664 124.774 196.664C124.774 196.664 123.162 195.702 122.564 195.364L93.652 178.698C92.43 177.97 91.416 176.254 91.416 174.85V95.706C91.416 95.004 91.676 94.51 92.066 94.276C92.482 94.042 93.028 94.068 93.652 94.432Z" fill="#37474F"/>
<path opacity="0.2" d="M122.564 111.098L93.652 94.432C93.028 94.068 92.482 94.042 92.066 94.276C91.676 94.51 91.416 95.004 91.416 95.706V102.778L124.774 122.044V114.946C124.774 113.542 123.786 111.8 122.564 111.098Z" fill="black"/>
<path d="M139.386 107.588L162.318 94.354V118.43" stroke="#FAFAFA" stroke-width="0.75" stroke-linecap="round" stroke-linejoin="round"/>
<path d="M158.132 112.398L162.318 94.354L153.972 108.784" stroke="#FAFAFA" stroke-width="0.75" stroke-linecap="round" stroke-linejoin="round"/>
<path d="M162.318 94.354L149.812 106.392" stroke="#FAFAFA" stroke-width="0.75" stroke-linecap="round" stroke-linejoin="round"/>
<path d="M162.318 114.582C162.318 111.202 158.47 111.02 158.47 111.02C158.704 110.006 158.444 108.342 157.196 107.302C155.948 106.236 155.116 106.808 154.856 107.25C154.856 107.25 155.116 104.156 152.438 103.844C152.438 103.844 154.206 100.568 152.438 100.048" stroke="#FAFAFA" stroke-width="0.75" stroke-linecap="round" stroke-linejoin="round"/>
<path d="M162.318 109.382C162.162 107.666 160.862 105.482 159.484 106.522C159.484 106.522 159.848 102.752 157.17 103.246C157.17 103.246 158.418 99.762 155.792 100.62C155.792 100.62 157.69 98.228 156.208 97.864" stroke="#FAFAFA" stroke-width="0.75" stroke-linecap="round" stroke-linejoin="round"/>
<path d="M173.498 85.93C173.524 85.462 173.212 84.9939 172.588 84.63L141.596 66.742C140.374 66.04 138.372 66.04 137.15 66.742L89.4662 94.276C88.8682 94.614 88.5562 95.082 88.5562 95.5499C88.5562 95.992 88.5562 97.5259 88.5562 97.9679C88.5562 98.4359 88.8682 98.878 89.4662 99.242L120.484 117.13C121.706 117.858 123.682 117.858 124.93 117.13L172.588 89.622C173.212 89.258 173.524 88.79 173.498 88.322C173.498 87.906 173.498 86.346 173.498 85.93Z" fill="#37474F"/>
<path d="M120.484 114.738L89.4661 96.85C88.2441 96.122 88.2441 94.978 89.4661 94.276L137.15 66.742C138.372 66.04 140.374 66.04 141.596 66.742L172.588 84.63C173.836 85.358 173.836 86.502 172.588 87.204L124.93 114.738C123.682 115.44 121.706 115.44 120.484 114.738Z" fill="#455A64"/>
<path opacity="0.1" d="M166.478 93.132L151.892 111.202L126.88 125.658L126.854 116.012L166.478 93.132Z" fill="black"/>
<path opacity="0.1" d="M164.398 120.822L151.892 137.67L126.88 152.126V142.506L164.398 120.822Z" fill="black"/>
<path opacity="0.1" d="M164.398 147.316L151.892 164.164L126.88 178.62V168.974L164.398 147.316Z" fill="black"/>
<path d="M107.016 199.914L68.64 222.066L25.454 197.054L63.804 174.928L107.016 199.914Z" fill="#FF9F1C"/>
<path opacity="0.5" d="M107.016 199.914L68.64 222.066L25.454 197.054L63.804 174.928L107.016 199.914Z" fill="black"/>
<path d="M63.804 144.898V174.928L25.454 197.054V167.05L63.804 144.898Z" fill="#FF9F1C"/>
<path opacity="0.2" d="M63.804 144.898V174.928L25.454 197.054V167.05L63.804 144.898Z" fill="black"/>
<path d="M68.64 192.036V222.066L25.454 197.054V167.05L68.64 192.036Z" fill="#FF9F1C"/>
<path opacity="0.4" d="M68.64 192.036V222.066L25.454 197.054V167.05L68.64 192.036Z" fill="black"/>
<path d="M107.016 169.884V199.914L63.804 174.928V144.898L107.016 169.884Z" fill="#FF9F1C"/>
<path opacity="0.4" d="M107.016 169.884V199.914L63.804 174.928V144.898L107.016 169.884Z" fill="black"/>
<path d="M107.016 199.914V169.884L68.64 192.036V222.066L107.016 199.914Z" fill="#FF9F1C"/>
<path opacity="0.2" d="M107.016 199.914V169.884L68.64 192.036V222.066L107.016 199.914Z" fill="black"/>
<path d="M63.804 144.898L63.856 128.284L106.964 153.296L107.016 169.884L63.804 144.898Z" fill="#FF9F1C"/>
<path opacity="0.2" d="M63.804 144.898L63.856 128.284L106.964 153.296L107.016 169.884L63.804 144.898Z" fill="black"/>
<path d="M68.64 192.036L72.254 177.502L110.266 155.558L107.016 169.884L68.64 192.036Z" fill="#FF9F1C"/>
<path opacity="0.3" d="M68.64 192.036L72.254 177.502L110.266 155.558L107.016 169.884L68.64 192.036Z" fill="black"/>
<path d="M25.4541 167.05L20.8781 151.97L59.2281 129.818L63.8041 144.898L25.4541 167.05Z" fill="#FF9F1C"/>
<path opacity="0.1" d="M25.4541 167.05L20.8781 151.97L59.2281 129.818L63.8041 144.898L25.4541 167.05Z" fill="black"/>
<path d="M25.454 167.05L16.432 154.57L59.618 179.582L68.64 192.036L25.454 167.05Z" fill="#FF9F1C"/>
<path opacity="0.5" d="M25.454 167.05L16.432 154.57L59.618 179.582L68.64 192.036L25.454 167.05Z" fill="black"/>
<g opacity="0.7">
<path d="M79.9501 213.122C79.8201 213.122 79.7161 213.018 79.7161 212.888V207.61C79.7161 207.48 79.8201 207.376 79.9501 207.376C80.0801 207.376 80.1841 207.48 80.1841 207.61V212.888C80.1841 213.018 80.0801 213.122 79.9501 213.122Z" fill="white"/>
<path d="M79.2481 209.43C79.2134 209.43 79.1874 209.43 79.1701 209.43C79.0401 209.378 78.9881 209.222 79.0401 209.118L79.8721 207.168L80.8081 208.26C80.8861 208.338 80.8861 208.494 80.7821 208.572C80.6781 208.676 80.5481 208.65 80.4441 208.572L80.0021 208.052L79.4821 209.3C79.4301 209.378 79.3521 209.43 79.2481 209.43Z" fill="white"/>
<path d="M82.134 211.874C82.004 211.874 81.9 211.77 81.9 211.64V206.362C81.9 206.232 82.004 206.128 82.134 206.128C82.264 206.128 82.368 206.232 82.368 206.362V211.64C82.368 211.77 82.264 211.874 82.134 211.874Z" fill="white"/>
<path d="M81.432 208.208C81.3974 208.208 81.3627 208.199 81.328 208.182C81.224 208.13 81.172 207.974 81.224 207.87L82.056 205.92L82.992 207.012C83.07 207.116 83.07 207.246 82.966 207.35C82.862 207.428 82.732 207.428 82.628 207.324L82.186 206.804L81.64 208.052C81.614 208.13 81.536 208.208 81.432 208.208Z" fill="white"/>
</g>
<g opacity="0.7">
<path d="M73.6579 216.71C73.5713 216.71 73.4846 216.684 73.3979 216.632C73.2159 216.554 73.1119 216.346 73.1119 216.086V215.436C73.1119 215.306 73.2159 215.202 73.3459 215.202C73.4759 215.202 73.5799 215.306 73.5799 215.436V216.086C73.5799 216.164 73.6059 216.216 73.6319 216.242C73.6579 216.242 73.7099 216.242 73.7879 216.19C73.9959 216.086 74.2299 215.618 74.2299 215.124V212.42C74.2299 212.29 74.3339 212.186 74.4639 212.186C74.5939 212.186 74.6979 212.29 74.6979 212.42V215.124C74.6979 215.748 74.4119 216.372 74.0219 216.606C73.9006 216.675 73.7793 216.71 73.6579 216.71Z" fill="white"/>
<path fill-rule="evenodd" clip-rule="evenodd" d="M71.188 214.526V214.136C71.188 212.212 72.54 209.872 74.178 208.91C75.036 208.416 75.842 208.338 76.466 208.702C77.09 209.066 77.454 209.794 77.454 210.782V210.912L71.188 214.526ZM75.608 208.936C75.244 208.936 74.854 209.066 74.438 209.3C73.008 210.132 71.838 212.03 71.682 213.694L76.96 210.652C76.934 209.898 76.674 209.352 76.232 209.092C76.0413 208.988 75.8333 208.936 75.608 208.936Z" fill="white"/>
</g>
<path opacity="0.7" d="M16.432 154.57L59.618 179.582L68.64 192.036L59.15 180.024L16.432 154.57Z" fill="white"/>
<path opacity="0.7" d="M107.016 169.884L68.64 192.036V222.066L69.368 192.634L107.016 169.884Z" fill="white"/>
<path d="M201.916 55.536C199.628 58.578 196.586 75.4 195.442 80.7821C189.904 80.6261 182.52 80.366 179.712 80.08C176.618 79.742 169.936 79.118 166.66 79.534C158.548 80.6 158.886 85.904 159.068 87.308C159.276 88.894 160.42 89.622 164.762 88.634C165.75 88.426 166.738 88.2961 167.752 88.2961C168.168 88.2701 169.052 88.062 169.39 88.426C169.884 88.972 168.402 89.83 168.038 90.064C167.44 90.428 166.842 90.922 166.738 91.598C166.686 91.832 166.738 92.144 166.946 92.274C167.128 92.404 167.388 92.352 167.596 92.3C169.598 91.832 171.522 91.104 173.316 90.1161C174.018 89.752 174.694 89.3361 175.448 89.1021C176.592 88.7381 177.762 88.946 178.88 88.946C181.324 88.946 194.22 90.2201 199.94 90.7921C203.918 91.208 204.334 87.282 205.712 83.33C207.402 78.39 211.38 52.52 211.38 52.52C207.376 51.948 204.62 51.896 201.916 55.536Z" fill="#FFA8A7"/>
<path d="M211.432 52.104C209.534 51.766 205.218 51.22 202.852 53.846C200.512 56.472 199.94 59.228 198.9 63.206C197.886 67.184 196.066 74.308 196.066 74.308C196.066 74.308 199.082 78.676 208.572 77.428L211.432 52.104Z" fill="#102835"/>
<path d="M235.274 189.618H228.592L226.694 175.136L235.092 174.798L235.274 189.618Z" fill="#FFA8A7"/>
<path d="M213.122 182.39C211.978 184.34 208.338 184.184 205.296 183.482L204.958 169.26L213.876 168.896L213.122 182.39Z" fill="#FFA8A7"/>
<path d="M234.832 98.098C235.066 104.26 234.234 140.712 234.234 140.712C234.468 142.48 236.288 145.548 236.678 151.944C237.224 161.174 235.352 180.986 235.352 180.986C235.352 180.986 231.53 182.962 227.396 181.454C227.396 181.454 223.21 152.828 221.702 143.702C220.376 135.746 218.686 114.4 218.686 114.4L215.384 141.752C215.384 141.752 216.32 146.094 216.138 151.58C216.008 155.844 213.564 176.488 213.564 176.488C213.564 176.488 209.508 178.022 205.036 176.696C205.036 176.696 203.06 144.638 202.826 140.764C202.566 136.318 202.748 97.214 202.748 97.214L234.832 98.098Z" fill="#265399"/>
<path opacity="0.2" d="M218.686 114.4C218.686 114.4 212.862 112.762 208.884 109.2C208.884 109.2 210.73 112.372 216.008 115.206L215.722 139.074L218.686 114.4Z" fill="black"/>
<path d="M220.974 201.682C220.766 201.916 220.896 203.346 221.156 203.736C221.416 204.126 223.002 205.374 225.758 205.452C228.384 205.556 230.724 205.088 232.232 204.048C233.74 203.008 234.442 201.916 234.52 200.408C234.624 198.9 234.39 197.47 235.066 196.274C235.664 195.208 236.678 193.96 236.886 193.362C237.328 192.088 236.782 190.32 236.782 190.32L220.974 201.682Z" fill="#263238"/>
<path d="M227.656 188.344C227.656 188.916 227.578 189.462 227.422 190.034C227.084 191.204 226.538 192.322 225.94 193.388C225.628 193.934 225.29 194.454 224.9 194.974C224.146 195.936 223.184 196.768 222.378 197.704C221.572 198.64 220.896 199.758 220.896 200.98C220.844 203.06 223.132 203.658 224.848 203.918C226.694 204.152 228.67 203.996 230.438 203.398C232.414 202.748 233.792 201.162 234.052 199.16C234.13 198.562 234.052 197.99 234.104 197.418C234.208 196.092 234.832 194.87 235.56 193.752C236.002 193.102 236.444 192.452 236.73 191.724C237.198 190.424 236.73 189.02 236.34 187.772C236.002 186.68 235.612 185.432 235.222 185.562C235.222 186.134 235.248 186.186 234.858 186.602C234.364 187.096 234.364 187.824 233.844 188.292C234.078 187.616 234.078 187.33 234.156 186.81C234.182 186.654 234.13 186.342 234.026 186.238C233.87 186.082 233.61 185.978 233.376 185.926C232.544 185.666 231.712 185.51 230.854 185.432C230.074 185.38 229.164 185.328 228.41 185.51C228.176 185.588 227.942 185.718 227.812 185.9C227.656 186.108 227.63 186.29 227.604 186.602C227.604 186.94 227.656 187.798 227.656 188.344Z" fill="#455A64"/>
<path d="M225.68 193.83C226.434 193.206 228.15 193.128 229.086 193.206C230.256 193.284 231.244 193.648 231.79 194.038C232.05 194.194 232.388 194.168 232.57 193.934C232.83 193.674 232.778 193.284 232.492 193.076C231.894 192.66 230.828 192.114 229.424 192.062C227.11 192.01 226.46 192.426 226.46 192.426C226.46 192.426 225.42 193.154 225.68 193.83Z" fill="#F5F5F5"/>
<path d="M223.99 196.014C224.926 195.39 226.824 195.39 227.786 195.468C228.956 195.546 229.866 195.962 230.412 196.352C230.672 196.508 230.984 196.482 231.192 196.248C231.452 195.988 231.4 195.598 231.114 195.39C230.516 194.974 229.398 194.35 227.994 194.298C225.654 194.22 225.082 194.714 225.082 194.714C225.082 194.714 224.12 195.13 223.99 196.014Z" fill="#F5F5F5"/>
<path d="M230.282 189.826C228.67 189.722 227.994 189.93 227.37 190.19C226.98 190.424 226.72 191.074 227.006 191.23C227.5 190.918 228.436 190.762 229.554 190.788C230.334 190.788 231.296 191.048 232.102 191.36C232.284 191.438 232.544 191.568 232.752 191.672C233.038 191.802 233.376 191.698 233.506 191.412C233.61 191.152 233.506 190.866 233.272 190.736C232.7 190.424 231.556 189.904 230.282 189.826Z" fill="#F5F5F5"/>
<path d="M190.086 191.256C189.826 191.698 189.852 192.556 190.086 193.102C190.32 193.674 193.076 195.39 196.898 195.312C200.746 195.234 203.424 193.83 204.932 192.946C206.44 192.036 207.948 191.932 209.846 191.906C211.744 191.906 214.266 191.074 214.734 190.216C215.176 189.358 214.786 187.798 214.786 187.798L190.086 191.256Z" fill="#263238"/>
<path d="M206.05 180.076C205.946 180.059 205.842 180.033 205.738 179.998C205.582 179.972 205.4 179.92 205.244 179.946C205.062 179.998 204.88 180.102 204.75 180.258C204.334 180.674 204.048 181.22 203.71 181.74C202.852 182.988 201.11 184.002 199.238 184.912C197.964 185.51 196.716 185.978 195.39 186.498C194.064 187.018 192.296 187.304 191.23 187.928C189.696 188.89 189.384 191.412 191.022 192.478C192.478 193.414 196.3 194.532 200.408 193.57C202.644 193.05 205.218 190.814 208.13 190.736C209.976 190.658 213.512 190.32 214.76 188.968C215.228 188.37 214.734 186.368 214.344 184.652C213.902 182.754 214.084 179.946 213.252 179.972L213.2 180.908C213.122 181.194 212.472 181.48 212.264 181.688C212.004 181.948 211.753 182.217 211.51 182.494C211.172 182.832 210.834 183.17 210.392 183.378C209.664 183.716 208.78 183.508 208 183.3C207.974 183.3 208.39 181.87 208.442 181.714C208.468 181.61 208.52 181.48 208.494 181.376C208.442 181.246 208.364 181.168 208.26 181.09C207.584 180.57 206.856 180.31 206.05 180.076Z" fill="#455A64"/>
<path d="M201.006 183.976C201.006 183.976 201.318 183.274 202.41 183.118C203.268 183.014 204.724 183.69 205.608 184.496C205.972 184.834 205.894 185.432 205.452 185.64C205.192 185.77 204.88 185.718 204.672 185.51C204.074 184.964 202.774 183.95 201.006 183.976Z" fill="#F5F5F5"/>
<path d="M198.328 185.302C198.328 185.302 198.926 184.496 199.992 184.548C199.992 184.548 202.176 184.73 203.476 186.056C203.814 186.394 203.762 186.94 203.32 187.148C203.086 187.278 202.774 187.226 202.566 187.018C201.994 186.446 200.824 185.25 198.328 185.302Z" fill="#F5F5F5"/>
<path d="M195.39 186.498C195.39 186.498 196.04 185.744 197.106 185.822C197.106 185.822 199.16 186.004 200.46 187.33C200.772 187.668 200.72 188.214 200.304 188.422C200.044 188.552 199.758 188.5 199.55 188.292C198.952 187.72 197.886 186.42 195.39 186.498Z" fill="#F5F5F5"/>
<path d="M222.56 52.234C225.03 52.52 227.916 52.65 230.256 52.962C233.298 53.352 235.638 56.498 236.392 61.334C237.198 66.638 233.792 81.926 233.792 81.926L234.884 99.918C230.464 103.168 211.614 104.884 202.228 98.098C202.228 98.098 202.436 67.47 203.164 62.764C204.178 56.29 205.764 52.286 213.07 51.818L222.56 52.234Z" fill="#102835"/>
<path d="M239.33 91.234C238.55 92.56 237.744 93.886 236.912 95.212C236.617 95.6974 236.314 96.1827 236.002 96.668C235.872 96.824 235.56 97.162 235.404 97.292C235.014 97.552 234.182 97.396 233.714 97.396C231.357 97.4827 229.008 97.656 226.668 97.916C226.278 97.968 225.836 98.046 225.628 98.358C225.394 98.748 225.602 99.268 225.966 99.528C226.33 99.788 226.798 99.84 227.24 99.892C227.916 99.9787 228.592 100.065 229.268 100.152C229.554 100.178 229.84 100.23 230.074 100.412C230.802 101.01 229.398 101.712 228.982 101.998C228.124 102.596 227.24 103.116 226.278 103.506C222.066 105.274 221.546 106.574 222.326 108.03C223.002 109.304 225.914 113.958 233.35 109.954C236.34 108.342 240.89 103.272 242.97 100.828C245.934 97.292 251.004 89.362 251.004 89.362C253.864 85.436 254.228 83.824 254.306 82.186C254.358 80.522 245.466 67.938 242.424 63.518C239.408 59.098 237.978 53.716 230.256 52.962C230.256 52.962 227.344 62.27 232.18 68.276L243.412 83.928C243.412 83.928 240.422 89.414 239.33 91.234Z" fill="#FFA8A7"/>
<path d="M247.468 69.524C246.038 67.444 244.53 65.312 243.074 63.18C236.964 54.262 237.484 52.624 228.67 52.52C227.89 53.716 227.448 58.864 228.618 64.012C229.606 68.354 233.272 71.422 233.272 71.422L237.692 77.402C237.692 77.402 240.396 77.324 243.62 74.958C246.87 72.566 247.468 69.524 247.468 69.524Z" fill="#102835"/>
<path d="M228.358 28.782C226.694 26.468 224.276 26.858 224.276 26.858L223.834 38.038L223.106 42.146L223.236 46.748C223.236 46.748 224.458 46.696 225.212 45.24C225.914 43.914 227.812 37.518 227.812 37.518H227.786C229.528 32.292 229.164 29.926 228.358 28.782Z" fill="#263238"/>
<path d="M223.314 38.09C223.522 37.388 223.73 36.998 224.38 36.296C225.03 35.62 227.578 34.866 228.722 37.05C229.918 39.234 227.942 42.068 226.434 42.926C224.51 44.044 223.366 42.536 223.366 42.536L223.418 52.806C222.508 54.86 218.452 56.732 216.034 56.42C214.11 56.186 212.342 54.678 214.058 52.468L213.928 49.53C213.928 49.53 211.354 50.05 210.08 49.92C207.948 49.712 206.544 48.1 205.79 45.864C204.594 42.25 204.048 39.312 204.568 32.084C205.114 24.154 214.292 23.608 219.414 26.494C224.51 29.354 223.314 38.09 223.314 38.09Z" fill="#FFA8A7"/>
<path d="M201.656 23.868C201.422 22.126 202.02 20.28 203.814 19.656C205.192 19.188 206.596 19.214 207.844 20.332C208.286 19.11 209.482 18.2 210.782 18.044C212.056 17.914 213.408 18.564 214.11 19.682C214.656 18.902 215.306 18.434 216.19 18.226C217.23 17.966 218.53 18.226 219.284 18.772C220.012 19.318 220.896 20.358 220.662 21.658C222.144 21.06 223.652 21.554 224.744 22.854C225.394 23.634 225.758 24.622 225.784 25.636C225.784 26.13 225.758 26.728 225.55 27.196C225.342 27.664 224.926 27.976 224.796 28.496C224.692 29.016 224.458 29.484 224.51 29.978C224.64 30.862 224.822 31.72 224.952 32.604C225.056 33.462 225.16 34.32 225.16 35.178C225.16 35.568 224.874 35.854 224.536 36.166C223.964 36.66 223.86 36.92 223.444 37.752C223.262 38.116 223.08 39.052 222.716 39.312C221.598 40.066 221.494 37.57 221.442 37.076C221.39 36.608 221.364 35.36 221.442 33.748C221.104 33.722 219.648 33.696 218.504 32.396C218.14 31.98 217.854 31.33 217.776 30.758C217.724 30.42 217.672 30.108 217.698 29.744C216.97 30.94 215.28 31.434 214.084 31.33C212.082 31.148 211.38 30.29 211.068 29.666C210.912 30.212 210.678 30.94 210.262 31.356C209.768 31.876 209.066 32.188 208.468 32.396C207.35 32.786 206.024 32.292 205.192 31.46C204.36 32.63 202.306 32.11 201.838 31.772C200.798 31.018 200.46 30.108 200.356 28.834C200.226 27.534 200.746 26.078 202.176 25.584C201.916 25.064 201.734 24.466 201.656 23.868Z" fill="#263238"/>
<path d="M213.928 49.53C213.928 49.53 218.556 48.36 220.168 47.398C221.234 46.774 222.092 45.708 222.326 45.032C222.326 45.032 222.092 46.462 221.156 47.762C220.038 49.348 213.98 50.778 213.98 50.778L213.928 49.53Z" fill="#F28F8F"/>
<path d="M214.188 37.752C214.214 38.324 214.682 38.766 215.228 38.74C215.8 38.714 216.216 38.22 216.19 37.648C216.164 37.05 215.696 36.608 215.124 36.634C214.578 36.66 214.136 37.154 214.188 37.752Z" fill="#263238"/>
<path d="M212.628 45.2661C212.654 46.0201 213.278 46.5921 213.98 46.5401C214.708 46.5141 215.254 45.8641 215.202 45.1361C215.176 44.3821 214.578 43.8101 213.85 43.8361C213.148 43.8881 212.576 44.5121 212.628 45.2661Z" fill="#F28F8F"/>
<path d="M215.02 34.2681L217.152 35.3341C217.438 34.7101 217.178 33.9821 216.58 33.6961C216.008 33.4101 215.306 33.6701 215.02 34.2681Z" fill="#263238"/>
<path d="M205.686 35.1781L207.532 33.6181C207.116 33.0981 206.362 33.0201 205.868 33.4361C205.348 33.8781 205.27 34.6581 205.686 35.1781Z" fill="#263238"/>
<path d="M206.232 37.5441C206.258 38.0901 206.726 38.5321 207.272 38.5061C207.818 38.4801 208.208 37.9861 208.182 37.4401C208.156 36.8681 207.714 36.4521 207.168 36.4781C206.622 36.5041 206.206 36.9721 206.232 37.5441Z" fill="#263238"/>
<path d="M211.068 36.374L211.042 42.536L207.792 41.6L211.068 36.374Z" fill="#F28F8F"/>
<path d="M202.904 44.9801C202.956 44.9801 202.999 44.9454 203.034 44.8761C203.112 44.7721 203.086 44.6161 202.982 44.5641L200.148 42.6661C200.044 42.5881 199.888 42.6141 199.81 42.7441C199.732 42.8481 199.784 43.0041 199.888 43.0821L202.722 44.9541C202.774 44.9887 202.835 44.9974 202.904 44.9801Z" fill="#E0E0E0"/>
<path d="M202.592 46.202C202.696 46.176 202.748 46.124 202.774 46.02C202.8 45.89 202.722 45.76 202.592 45.734L199.29 44.98C199.16 44.928 199.03 45.006 199.004 45.136C198.978 45.266 199.056 45.396 199.186 45.448L202.488 46.202C202.523 46.2194 202.557 46.2194 202.592 46.202Z" fill="#E0E0E0"/>
<path d="M199.524 48.4121C199.541 48.4121 199.55 48.4034 199.55 48.3861L202.748 47.2421C202.878 47.1901 202.93 47.0341 202.878 46.9301C202.852 46.8001 202.696 46.7221 202.566 46.7741L199.394 47.9441C199.264 47.9961 199.212 48.1261 199.238 48.2561C199.29 48.3601 199.42 48.4381 199.524 48.4121Z" fill="#E0E0E0"/>
<path d="M172.562 73.346C172.64 73.528 172.796 73.658 172.978 73.71C173.368 73.866 173.784 73.658 173.94 73.268L176.306 67.418C176.462 67.028 176.254 66.586 175.864 66.456C175.474 66.326 175.032 66.508 174.902 66.898L172.51 72.748C172.458 72.956 172.458 73.164 172.562 73.346Z" fill="#E0E0E0"/>
<path d="M168.662 73.346C168.766 73.58 169.026 73.762 169.338 73.762C169.754 73.762 170.092 73.424 170.092 73.008L170.014 65.702C169.988 65.286 169.65 64.948 169.234 64.948C168.818 64.974 168.506 65.312 168.506 65.728L168.584 73.008C168.584 73.1293 168.61 73.242 168.662 73.346Z" fill="#E0E0E0"/>
<path d="M162.032 69.264C162.049 69.2987 162.067 69.3333 162.084 69.368L165.672 74.568C165.906 74.906 166.374 74.984 166.712 74.776C167.05 74.542 167.128 74.048 166.92 73.71L163.332 68.51C163.098 68.172 162.63 68.094 162.292 68.302C161.98 68.536 161.876 68.952 162.032 69.264Z" fill="#E0E0E0"/>
</svg>
