<svg width="500" height="500" viewBox="0 0 500 500" fill="none" xmlns="http://www.w3.org/2000/svg">
<path d="M500 382.65H0V382.4H500V382.65Z" fill="#EBEBEB"/>
<path d="M174.45 392.15H200.45V391.9H174.45V392.15Z" fill="#EBEBEB"/>
<path d="M52.45 389.45H106.55V389.2H52.45V389.45Z" fill="#EBEBEB"/>
<path d="M147.1 401.45H173.45V401.2H147.1V401.45Z" fill="#EBEBEB"/>
<path d="M258.25 399.8H297.05V399.55H258.25V399.8Z" fill="#EBEBEB"/>
<path d="M305.95 399.8H316.65V399.55H305.95V399.8Z" fill="#EBEBEB"/>
<path d="M395.35 395.55H449.9V395.3H395.35V395.55Z" fill="#EBEBEB"/>
<path fill-rule="evenodd" clip-rule="evenodd" d="M237 337.8H43.9C40.75 337.8 38.2 335.25 38.2 332.1V60.65C38.2 57.5 40.75 54.95 43.9 54.95H237C240.15 54.95 242.7 57.5 242.7 60.65V332.1C242.7 335.25 240.15 337.8 237 337.8ZM43.9 55.2C40.9 55.2 38.45 57.65 38.45 60.65V332.1C38.45 335.1 40.9 337.55 43.9 337.55H237C240 337.55 242.45 335.1 242.45 332.1V60.65C242.45 57.65 240 55.2 237 55.2H43.9Z" fill="#EBEBEB"/>
<path fill-rule="evenodd" clip-rule="evenodd" d="M453.3 337.8H260.2C257.05 337.8 254.5 335.25 254.5 332.1V60.65C254.5 57.5 257.05 54.95 260.2 54.95H453.3C456.45 54.95 459 57.5 459 60.65V332.1C459 335.25 456.45 337.8 453.3 337.8ZM260.2 55.2C257.2 55.2 254.75 57.65 254.75 60.65V332.1C254.75 335.1 257.2 337.55 260.2 337.55H453.3C456.3 337.55 458.75 335.1 458.75 332.1V60.65C458.75 57.65 456.3 55.2 453.3 55.2H260.2Z" fill="#EBEBEB"/>
<path d="M212.15 382.4C212.15 382.4 196.3 363.45 194.45 343.5C191.75 314.65 220.65 349.6 229.25 342.15C237.85 334.7 210.65 300.3 232.7 293.65C254.75 286.95 260.05 312.2 268.8 330.7C283.05 361 283.95 284.1 307.95 321C323.6 345.1 315.15 382.4 315.15 382.4H212.15Z" fill="#F5F5F5"/>
<path d="M313.25 382.4C313.25 382.4 296.45 365.3 301.2 347.2C308 321 319.2 352.7 328 345.95C336.85 339.25 326.75 308.05 345.55 302C364.3 295.95 360.6 318.85 361.55 335.6C363.05 363.05 387.35 293.35 394.25 326.85C398.7 348.65 379.2 382.4 379.2 382.4H313.25Z" fill="#F5F5F5"/>
<path d="M353.75 382.4C354.55 380.5 356.9 366.85 378.85 356C369.45 368.55 366.9 378.05 367.35 382.4H353.75Z" fill="#E0E0E0"/>
<path d="M105.7 382.4C105.65 379.5 103.35 355 81.2 342.6C87.9 361.55 86.4 375.8 83.4 382.4H105.7Z" fill="#F5F5F5"/>
<path d="M93.4 382.4C92.85 380.5 92.3 367 70.35 356.3C78.65 368.75 80 378.1 78.85 382.4H93.4Z" fill="#F5F5F5"/>
<path d="M169.6 382.4C169.6 380.65 170.75 365.65 181.55 358.1C178.3 369.65 179 378.4 180.5 382.4H169.6Z" fill="#F5F5F5"/>
<path d="M175.6 382.4C175.85 381.25 176.15 373 186.85 366.45C182.8 374.05 182.15 379.75 182.7 382.4H175.6Z" fill="#F5F5F5"/>
<path d="M240.45 382.4C239.8 380.1 239.2 363.8 214.75 350.85C223.95 365.9 225.45 377.2 224.2 382.4H240.45Z" fill="#E0E0E0"/>
<path d="M248.15 382.4C248.35 380.65 252.4 368.35 237.55 358.55C240.3 369.9 238.3 378.45 235.9 382.4H248.15Z" fill="#E0E0E0"/>
<path d="M361.6 382.4C361.45 381 362.4 371 348.55 363.1C352.9 372.3 352.9 379.2 351.7 382.4H361.6Z" fill="white"/>
<path d="M381.95 150.5C400.1 145 374.3 132.55 345.9 131.3C278.75 128.35 262.35 113.25 214.75 108.05C199.95 106.4 210.15 128.5 244.45 138.2C287.9 150.5 363.25 143.35 344.8 151.05C326.4 158.8 345.95 181.85 384.65 174.85C414.65 169.4 456.9 193.75 441.75 172.7C432.15 159.35 409.65 164.2 399.2 163.25C388.8 162.3 355.1 158.65 381.95 150.5Z" fill="#F5F5F5"/>
<path d="M362.6 195.6C356.25 198.1 340.3 192.7 330.15 192.85C320 193.05 304.3 196.85 296.1 188.7C287.9 180.5 330.35 185.25 339.1 186.05C355.3 187.5 371.95 191.95 362.6 195.6Z" fill="#FAFAFA"/>
<path d="M396.7 79.1C400.15 75.65 409.75 82 415.6 81.4C421.4 80.8 430.2 75.35 435.5 85.5C440.85 95.6 416 91.15 410.95 90.45C401.5 89.2 391.6 84.1 396.7 79.1Z" fill="#F5F5F5"/>
<path d="M68.95 148.4C72.4 144.95 82 151.3 87.85 150.7C93.65 150.1 102.45 144.65 107.8 154.8C113.1 164.95 88.3 160.45 83.2 159.75C73.75 158.5 63.85 153.4 68.95 148.4Z" fill="#F5F5F5"/>
<path d="M98.95 77.15C108.05 84.25 133.6 78.6 149 82.25C164.4 85.9 187.45 98.6 201.85 85C216.25 71.35 150.5 67 137 65.7C111.95 63.35 85.6 66.85 98.95 77.15Z" fill="#FAFAFA"/>
<path d="M196.5 260.9C209.45 242.55 188.6 114.2 160.55 105.9C132.5 97.55 130.85 241.75 141 258.9C152.5 278.2 182.4 280.9 196.5 260.9Z" fill="#EBEBEB"/>
<path d="M170.4 224C172.7 224 174.65 225.75 174.85 228.05C179.45 279.4 179.35 331.05 174.5 382.4C171.5 382.4 168.517 382.4 165.55 382.4C170.4 331.35 170.55 279.95 166 228.85C165.8 226.25 167.8 224 170.4 224Z" fill="#E0E0E0"/>
<path d="M402.1 314.5C394.85 304.25 406.5 232.6 422.15 227.95C437.85 223.3 438.75 303.85 433.1 313.4C426.65 324.2 409.95 325.7 402.1 314.5Z" fill="#EBEBEB"/>
<path d="M426.25 286.95C426.017 286.883 425.8 286.767 425.6 286.6C424.75 285.85 424.7 284.55 425.4 283.7L429.2 279.4C429.95 278.5 431.2 278.45 432.1 279.15C432.95 279.9 433 281.2 432.3 282.05L428.5 286.4C427.95 287.05 427.05 287.25 426.25 286.95Z" fill="white"/>
<path d="M412.25 266.05C411.4 266 410.65 265.45 410.4 264.6L408.45 258.45C408.1 257.35 408.7 256.2 409.75 255.85C410.85 255.55 412 256.15 412.35 257.2L414.3 263.4C414.65 264.45 414.05 265.6 413 265.95C412.733 266.017 412.483 266.05 412.25 266.05Z" fill="white"/>
<path d="M416.65 293.9C415.35 293.9 414.3 294.9 414.15 296.2C411.6 324.85 411.65 353.7 414.4 382.4C416.033 382.4 417.683 382.4 419.35 382.4C416.65 353.85 416.6 325.15 419.1 296.6C419.25 295.15 418.1 293.9 416.65 293.9Z" fill="#E0E0E0"/>
<path d="M159.9 217.6C159.467 217.6 159.033 217.5 158.6 217.3L141.3 210.2C139.5 209.5 138.65 207.45 139.4 205.65C140.15 203.85 142.15 203 143.95 203.75L161.25 210.85C163.05 211.6 163.9 213.6 163.15 215.4C162.6 216.75 161.3 217.6 159.9 217.6Z" fill="white"/>
<path d="M182.85 200.45C182.45 200.45 182.033 200.383 181.6 200.25C179.8 199.55 178.9 197.5 179.6 195.7L183.1 186.55C183.8 184.75 185.8 183.85 187.6 184.55C189.4 185.25 190.3 187.25 189.65 189.05L186.15 198.2C185.6 199.6 184.25 200.45 182.85 200.45Z" fill="white"/>
<path d="M156.9 177.25C155.5 177.25 154.15 176.4 153.65 175L149.6 164.7C148.9 162.9 149.8 160.9 151.6 160.2C153.35 159.45 155.4 160.35 156.1 162.15L160.15 172.45C160.85 174.25 159.95 176.3 158.15 177C157.75 177.167 157.333 177.25 156.9 177.25Z" fill="white"/>
<path d="M443.9 416.25C443.9 422.5 357.1 427.55 250 427.55C142.9 427.55 56.1 422.5 56.1 416.25C56.1 410 142.9 404.9 250 404.9C357.1 404.9 443.9 410 443.9 416.25Z" fill="#F5F5F5"/>
<path d="M330.05 148.45C323.35 150 313.75 153.75 305.25 157.15C305.4 156.55 305.45 155.85 305.5 155.25C305.067 156.017 304.633 156.8 304.2 157.6C304.05 157.65 303.95 157.7 303.85 157.75C303.883 156.883 303.833 156.017 303.7 155.15C303.45 156.3 302.95 157.35 302.25 158.3C302.217 158.333 302.183 158.367 302.15 158.4C301.55 158.633 300.983 158.867 300.45 159.1C300.6 157.4 300.65 155.65 300.4 153.95C300.233 155.583 299.967 157.2 299.6 158.8C299.567 159.033 299.517 159.267 299.45 159.5C298.7 159.85 297.95 160.15 297.25 160.45C297.083 159.817 296.917 159.2 296.75 158.6C296.483 159.4 296.233 160.183 296 160.95C295.667 161.083 295.35 161.217 295.05 161.35C294.917 160.417 294.717 159.5 294.45 158.6C294.3 159.7 294.2 160.8 293.9 161.8C293.633 161.933 293.383 162.05 293.15 162.15C293.1 160.5 292.9 158.85 292.55 157.25C292.417 158.517 292.267 159.767 292.1 161C292.033 161.533 291.967 162.083 291.9 162.65C288.6 164.05 286.55 164.95 286.55 164.95C286.55 164.95 286.3 153.05 286.55 135C286.8 117 290.4 102.2 297.75 95C305.15 87.7 320.85 86.6 328.25 93.05C335.65 99.5 337.75 114.45 334.95 129.15C333.3 137.6 348.95 144.05 330.05 148.45Z" fill="#263238"/>
<path d="M264.2 230.2L264.9 228.05C265.45 226.35 266.75 225 268.4 224.35L277.65 220.7L282.3 222.95C281.05 228 275.35 233.1 275.35 233.1L273.9 234.7C272.6 236.1 270.45 236.5 268.95 235.65L265.45 233.6C264.25 232.9 263.75 231.55 264.2 230.2Z" fill="#B55B52"/>
<path d="M316.4 171.55C316.25 173.25 316.05 174.7 315.8 176.25C315.6 177.8 315.3 179.35 315.05 180.85C314.5 183.9 313.85 186.95 313.05 189.95C312.3 193 311.45 196 310.45 198.95C309.5 201.95 308.35 204.9 307.15 207.85L306.95 208.25C306.75 208.85 306.4 209.35 306 209.75C303.7 212.1 301.5 213.75 299.25 215.45C297 217.1 294.7 218.6 292.4 220C290.1 221.45 287.8 222.8 285.4 224.05C283.05 225.35 280.7 226.55 278.2 227.7C276.45 228.5 274.4 227.7 273.65 225.95C273 224.55 273.4 222.95 274.45 222L274.5 221.95C276.45 220.25 278.45 218.5 280.4 216.8C282.35 215.1 284.35 213.4 286.25 211.7C288.2 210 290.1 208.3 291.9 206.6C293.7 204.9 295.45 203.1 296.7 201.5L295.55 203.45C296.383 200.783 297.167 198.067 297.9 195.3C298.55 192.5 299.2 189.75 299.8 186.9C300.35 184.1 300.9 181.25 301.4 178.4L302.1 174.15L302.75 170L302.8 169.8C303.35 166.05 306.9 163.45 310.65 164.05C314.25 164.6 316.8 167.95 316.4 171.55Z" fill="#B55B52"/>
<path d="M316.7 152.3C298 154.6 294.8 190.25 296.5 197.45C299.1 203.65 310.6 200.45 310.6 200.45C310.6 200.45 328.8 173.4 316.7 152.3Z" fill="#102835"/>
<path d="M312.5 199.4C311.85 200.95 311.1 201.95 310.8 202.25C310.767 202.317 310.7 202.367 310.6 202.4C309.6 202.85 302.4 205.6 296.4 201.5C296.267 201.433 296.183 201.333 296.15 201.2C295.45 199.6 295.35 197.5 295.4 196.4C295.4 196 295.8 195.7 296.15 195.85C298.45 196.65 305.6 198.95 311.9 198.55C312.35 198.55 312.65 199 312.5 199.4Z" fill="white"/>
<path d="M389.8 416.25C398.95 416.25 398.25 416.1 403.4 415.9C407.75 415.75 408.85 416.3 412.4 416.25C415.35 416.15 415 413.35 413.85 410.1C413.25 408.45 412.4 406.45 411.6 403.85H397.7C396.1 407.4 392.55 410.1 387.45 410.8C382.6 411.45 386.15 416.25 389.8 416.25Z" fill="#263238"/>
<path d="M314.35 416.25C325.95 416.25 327.05 411.2 331.4 408.6C335.1 406.3 336.55 406.95 340.4 404.8C342.9 403.35 341.8 400.25 339.75 398.55C338.2 397.25 336.3 395.45 334.85 393.4L323.5 398.4C322.9 403 320.75 410.65 313.95 411.15C309.05 411.5 310.75 416.25 314.35 416.25Z" fill="#263238"/>
<path d="M316.65 223.15C316.65 223.15 294.6 279.15 291.7 306.95C291.65 329.9 323.5 398.4 323.5 398.4C324.5 400.15 333.65 395.2 334.85 393.4C323.1 364.75 329.25 328.85 318.65 307.85C341.35 275.55 359 215.8 359 215.8L316.65 223.15Z" fill="#265399"/>
<path opacity="0.2" d="M312.85 237.1C312.75 237.1 312.65 237 312.6 236.9C312.6 236.75 312.7 236.65 312.8 236.6C317.5 235.55 319.65 232.2 319.65 232.15C319.75 232.05 319.9 232 320 232.05C320.1 232.15 320.15 232.3 320.1 232.4C320 232.55 317.8 236 312.9 237.1C312.9 237.1 312.883 237.1 312.85 237.1Z" fill="white"/>
<path opacity="0.2" d="M337.25 249C332.35 258.9 331.6 273.7 332 285.05C338.35 272.4 343.95 258.8 348.35 247C348.35 247 348.333 246.983 348.3 246.95C344.9 243.8 339.3 244.85 337.25 249Z" fill="black"/>
<path d="M329.35 220.95C329.35 220.95 335.2 273.25 346.8 308.95C352.6 326.75 385.7 367.2 397.7 403.85C399.95 405.05 407.45 405.15 411.6 403.85C411.6 403.85 393.1 323.3 373.25 306.4C373.15 262.85 374.75 241.85 365.2 214.7L329.35 220.95Z" fill="#265399"/>
<path opacity="0.2" d="M406.5 399C406.4 399 406.25 398.95 406.25 398.8C398.05 350.2 368.6 307.85 368.3 307.45C368.267 307.383 368.25 307.317 368.25 307.25C368.25 307.2 368.75 301.2 369.3 279.15C369.75 258.35 367.85 235.8 367.6 233.05C366.05 233.35 358.15 234.4 352.2 230.5C352.1 230.4 352.05 230.25 352.15 230.15C352.2 230.05 352.35 230 352.5 230.05C358.9 234.3 367.7 232.55 367.8 232.55C367.867 232.517 367.917 232.517 367.95 232.55C368.017 232.617 368.067 232.683 368.1 232.75C368.1 233 370.3 257.1 369.8 279.15C369.3 299.8 368.8 306.4 368.75 307.2C370.15 309.25 398.65 351 406.75 398.75C406.75 398.85 406.7 399 406.55 399C406.517 399 406.5 399 406.5 399Z" fill="white"/>
<path d="M395.1 398.65C395.4 399.9 395.9 402.1 396.1 403.75C396.15 404.35 396.7 404.9 397.35 405C402.65 405.85 409.65 404.65 411.85 404.25C412.3 404.15 412.55 403.8 412.45 403.35L411.85 398.55C411.75 397.9 411.1 397.3 410.4 397.3L395.85 397.6C395.25 397.6 394.95 398.05 395.1 398.65Z" fill="#407BFF"/>
<path opacity="0.2" d="M395.1 398.65C395.4 399.9 395.9 402.1 396.1 403.75C396.15 404.35 396.7 404.9 397.35 405C402.65 405.85 409.65 404.65 411.85 404.25C412.3 404.15 412.55 403.8 412.45 403.35L411.85 398.55C411.75 397.9 411.1 397.3 410.4 397.3L395.85 397.6C395.25 397.6 394.95 398.05 395.1 398.65Z" fill="black"/>
<path d="M320.25 393.95C320.7 395.2 321.5 397.45 322 399.15C322.2 399.7 322.8 400 323.35 399.85C327.55 398.65 333.75 395.3 335.75 394.15C336.15 393.95 336.4 393.5 336.3 393.05L335.4 388.2C335.25 387.5 334.6 387.15 333.95 387.4L320.85 392.6C320.3 392.8 320.05 393.4 320.25 393.95Z" fill="#407BFF"/>
<path opacity="0.2" d="M320.25 393.95C320.7 395.2 321.5 397.45 322 399.15C322.2 399.7 322.8 400 323.35 399.85C327.55 398.65 333.75 395.3 335.75 394.15C336.15 393.95 336.4 393.5 336.3 393.05L335.4 388.2C335.25 387.5 334.6 387.15 333.95 387.4L320.85 392.6C320.3 392.8 320.05 393.4 320.25 393.95Z" fill="black"/>
<path d="M316.4 221.1C316.5 221.75 315.85 224.5 314.8 227C316.6 228.2 322.8 229.55 330.65 229.9C331.4 228.7 331.85 225.5 332.4 224.2C332.75 226.1 334.75 229.2 335.9 229.95C340.1 229.9 344.55 229.5 349 228.7C364.25 225.8 367.85 221.1 367.85 221.1C367.85 221.1 364.9 212.3 364.1 209.05C356.2 209.65 316.8 210.8 316.4 221.1Z" fill="white"/>
<path d="M302.1 176.8C303.6 181.4 305.4 187.25 309.85 197.95C315.8 213.25 314.4 216.65 315.95 222.9C319.4 224.35 325.3 225.6 329.35 225.5C330 224 330.8 222.6 332.05 221.05C333.25 221.85 337 224.15 339.15 224.3C348.85 222.8 361.4 219.05 365.8 214.4C362.45 200.85 361.25 186.1 359.3 153.7C358.85 146.2 352.2 141.1 345.05 142.85C343.15 143.3 341.15 143.8 339.1 144.4C331.15 146.75 324.7 148.75 317.95 151.8C315.75 152.85 313.45 153.95 311.3 155.05C303.5 159.05 299.5 168.5 302.1 176.8Z" fill="#102835"/>
<path d="M385.3 230.15L383.75 228.45C382.55 227.15 382.05 225.35 382.3 223.6L383.7 213.75L388 210.85C391.75 214.45 393.35 221.9 393.35 221.9L394 223.95C394.6 225.75 393.85 227.85 392.35 228.75L388.85 230.75C387.65 231.45 386.25 231.2 385.3 230.15Z" fill="#B55B52"/>
<path d="M364.3 152.3C365.6 153.5 366.7 154.6 367.8 155.75C368.9 156.9 370 158.05 371.05 159.2C373.15 161.6 375.2 164 377.15 166.5C379.117 169 380.983 171.583 382.75 174.25C384.55 176.9 386.2 179.7 387.75 182.55L387.95 182.9C388.1 183.15 388.2 183.45 388.3 183.75C389.2 186.85 389.55 189.6 389.9 192.4C390.2 195.15 390.35 197.9 390.45 200.6C390.55 203.3 390.55 206 390.5 208.7C390.45 211.4 390.3 214.05 390.05 216.75C389.9 218.65 388.2 220.05 386.3 219.85C384.75 219.7 383.6 218.6 383.25 217.15V217.1C382.7 214.55 382.2 211.95 381.7 209.4C381.2 206.85 380.7 204.3 380.2 201.8C379.7 199.3 379.1 196.8 378.55 194.35C377.95 192 377.3 189.55 376.55 187.7L377.1 188.85C375.5 186.5 373.85 184.15 372.05 181.85C370.283 179.583 368.467 177.333 366.6 175.1C364.7 172.9 362.8 170.7 360.8 168.55L357.8 165.35C356.8 164.3 355.75 163.2 354.85 162.3L354.75 162.2C352.1 159.5 352.1 155.15 354.8 152.45C357.4 149.85 361.65 149.85 364.3 152.3Z" fill="#B55B52"/>
<path d="M344.2 143.05C361.9 136.4 381.25 166.55 383.05 173.7C383.55 180.4 371.9 182.9 371.9 182.9C371.9 182.9 343.25 167.35 344.2 143.05Z" fill="#102835"/>
<path d="M321.55 166.75C321.3 166.75 321.1 166.6 321 166.4C320.8 166.15 320.9 165.75 321.2 165.55C322.65 164.7 328.75 158.75 331.25 153.8C331.4 153.45 331.8 153.35 332.1 153.5C332.4 153.65 332.55 154.05 332.4 154.35C329.75 159.6 323.45 165.7 321.85 166.65C321.75 166.717 321.65 166.75 321.55 166.75Z" fill="#FF9F1C"/>
<path d="M319.4 166.4C319.267 166.4 319.15 166.383 319.05 166.35C317.2 165.25 313.85 160.8 314.3 155C314.3 154.65 314.6 154.4 314.95 154.4C315.3 154.45 315.55 154.75 315.55 155.1C315.15 160.7 318.5 164.55 319.7 165.25C320 165.45 320.1 165.8 319.9 166.1C319.8 166.3 319.6 166.4 319.4 166.4Z" fill="#FF9F1C"/>
<path d="M327.65 121.55C328.85 128.9 331.95 141.85 337.95 144.85C337.95 144.85 331.15 146.1 320.45 159.35C314.5 155.05 316.8 152.2 316.8 152.2C323.9 147.7 322.3 142.95 319.15 138.25L327.65 121.55Z" fill="#B55B52"/>
<path d="M322.75 156.65C327.45 155.7 331.25 162 331.25 162C331.25 162 339.4 150.6 340.95 144C339.05 143.7 336.1 142.85 336.1 142.85C336.1 142.85 324.45 153.15 322.75 156.65Z" fill="white"/>
<path d="M318.2 157.4C318.2 157.4 314.65 159.85 315.15 165.8C310.65 156.25 314.7 152.95 314.7 152.95C314.7 152.95 315.8 151.45 318.6 150.9C315.65 154.05 318.2 157.4 318.2 157.4Z" fill="white"/>
<path opacity="0.2" d="M324.2 128.35L319.15 138.2C319.9 139.35 320.6 140.5 321.1 141.7C323.75 140 326.45 135.1 325.65 131.95C325.25 130.4 324.7 128.95 324.2 128.35Z" fill="black"/>
<path fill-rule="evenodd" clip-rule="evenodd" d="M301.35 131.95H299C298.933 131.95 298.867 131.917 298.8 131.85C298.733 131.783 298.717 131.717 298.75 131.65L299.9 126.3C299.95 126.15 300.05 126.05 300.15 126.05C300.3 126.05 300.4 126.15 300.45 126.3L301.6 131.65C301.633 131.717 301.617 131.783 301.55 131.85C301.483 131.917 301.417 131.95 301.35 131.95ZM299.35 131.4H301L300.15 127.65L299.35 131.4Z" fill="white"/>
<path d="M327.4 105.85C330.15 117.35 331.55 122.15 327.75 129.95C322.1 141.7 307.75 143.25 301.7 132.95C296.25 123.7 292.65 106.45 302.05 98.05C311.25 89.75 324.6 94.35 327.4 105.85Z" fill="#B55B52"/>
<path d="M295.1 110.8C305.7 108.7 312.15 98.45 317.15 98.75C316.35 106.55 322.45 115.3 328.5 115.55C336.6 115.8 329.1 95.85 323.6 92.65C317.85 89.35 293.25 89.1 295.1 110.8Z" fill="#263238"/>
<path d="M323.55 115.95C322.683 115.95 321.85 115.667 321.05 115.1C317.4 112.45 315.15 104.3 316.55 98.6C316.65 98.3 316.95 98.15 317.25 98.2C317.55 98.3 317.7 98.6 317.65 98.85C316.35 104.1 318.4 111.85 321.7 114.2C322.867 115.033 324.05 115.067 325.25 114.3C325.5 114.15 325.85 114.25 326 114.5C326.2 114.75 326.1 115.05 325.85 115.25C325.083 115.717 324.317 115.95 323.55 115.95Z" fill="#263238"/>
<path d="M311.35 115.15C311.6 116.1 311.35 117.05 310.75 117.25C310.2 117.45 309.45 116.85 309.2 115.9C308.95 114.95 309.2 114 309.8 113.8C310.35 113.6 311.1 114.2 311.35 115.15Z" fill="#263238"/>
<path d="M300.2 119.35C300.5 120.3 300.25 121.25 299.65 121.45C299.05 121.7 298.35 121.1 298.05 120.15C297.8 119.2 298.05 118.25 298.65 118C299.25 117.8 299.95 118.4 300.2 119.35Z" fill="#263238"/>
<path d="M298.95 117.95L296.55 118.1C296.55 118.1 298.2 119.5 298.95 117.95Z" fill="#263238"/>
<path d="M303.8 119.8C303.8 119.8 303.4 124.45 302.3 127.05C303.85 127.8 305.7 126.55 305.7 126.55L303.8 119.8Z" fill="#A02724"/>
<path d="M311.6 127.95C311.1 128.15 310.567 128.3 310 128.4C309.85 128.45 309.7 128.3 309.7 128.15C309.7 128 309.8 127.85 309.95 127.8C314.1 127.05 315.75 123.7 315.75 123.65C315.8 123.5 316 123.45 316.15 123.5C316.25 123.55 316.35 123.75 316.25 123.9C316.2 124 314.9 126.75 311.6 127.95Z" fill="#263238"/>
<path d="M333.1 116.75C332.5 119.35 331 121.3 329.35 122.2C326.9 123.55 325 120.85 325.1 117.6C325.2 114.7 326.6 110.5 329.35 110.5C332 110.5 333.7 113.8 333.1 116.75Z" fill="#B55B52"/>
<path d="M305.4 110.95C305.45 110.85 305.6 110.75 305.75 110.7C308.2 110.3 309 108.35 309 108.3C309.1 108 309.45 107.9 309.7 108C310 108.15 310.15 108.5 310.05 108.8C310 108.9 309 111.4 305.95 111.9C305.65 111.95 305.4 111.7 305.3 111.4C305.3 111.233 305.333 111.083 305.4 110.95Z" fill="#263238"/>
<path d="M295.35 115.5C295.2 115.55 295.05 115.55 294.9 115.5C294.65 115.35 294.5 115.05 294.65 114.75C295.9 111.7 298.45 111.1 298.55 111.05C298.85 111 299.15 111.2 299.2 111.5C299.25 111.8 299.05 112.15 298.75 112.2C298.65 112.25 296.65 112.75 295.65 115.15C295.6 115.3 295.45 115.4 295.35 115.5Z" fill="#263238"/>
<path d="M310.05 113.75L307.7 113.9C307.7 113.9 309.3 115.25 310.05 113.75Z" fill="#263238"/>
<path d="M319.35 162.2C320.6 162 321.5 161.95 322.1 161.95C322.55 161.95 323 162.3 323.1 162.75C323.4 163.75 323.95 165.55 324.25 166.45C324.7 167.7 321.15 170.25 321.15 170.25C321.15 170.25 318.25 168.85 318.2 167C318.15 165.8 318.35 164.1 318.45 163.15C318.55 162.65 318.9 162.3 319.35 162.2Z" fill="#FF9F1C"/>
<path d="M326.7 198.85C326.45 193.05 322.65 166.7 322.65 166.7L319.85 167.05C319.6 170.8 317.65 193.35 317.65 199.3C317.65 205.3 322.75 211.95 322.75 211.95C322.75 211.95 326.9 204.6 326.7 198.85Z" fill="#FF9F1C"/>
<path d="M369.75 182.85C371.05 183.95 372.2 184.45 372.55 184.6C372.65 184.633 372.733 184.65 372.8 184.65C373.9 184.55 381.55 183.65 385 177.25C385.067 177.15 385.1 177.033 385.1 176.9C384.95 175.15 384.05 173.25 383.5 172.25C383.35 171.9 382.85 171.85 382.6 172.15C380.95 173.9 375.7 179.25 369.9 181.85C369.45 182 369.4 182.55 369.75 182.85Z" fill="white"/>
<path d="M292 248.3L287.1 258.35C286.1 260.3 283.65 261.1 281.75 260L218.45 224.3L224 212.95L290.15 243.1C292.15 244 292.95 246.35 292 248.3Z" fill="#407BFF"/>
<path opacity="0.4" d="M292 248.3L287.1 258.35C286.1 260.3 283.65 261.1 281.75 260L218.45 224.3L224 212.95L290.15 243.1C292.15 244 292.95 246.35 292 248.3Z" fill="black"/>
<path d="M224.05 172.35C223.983 172.15 223.917 171.967 223.85 171.8C223.55 171.1 223.25 170.4 222.95 169.7C222.917 169.6 222.883 169.517 222.85 169.45C222.583 168.85 222.3 168.25 222 167.65C221.9 167.45 221.8 167.25 221.7 167.05C221.433 166.55 221.167 166.05 220.9 165.55C220.8 165.35 220.7 165.167 220.6 165C220.233 164.333 219.85 163.667 219.45 163C219.383 162.933 219.333 162.867 219.3 162.8C218.933 162.233 218.567 161.667 218.2 161.1C218.067 160.9 217.933 160.7 217.8 160.5C217.467 160.033 217.133 159.583 216.8 159.15C216.667 158.95 216.533 158.767 216.4 158.6C215.933 158 215.45 157.4 214.95 156.8C214.883 156.733 214.833 156.683 214.8 156.65C214.333 156.083 213.867 155.55 213.4 155.05C213.233 154.883 213.083 154.7 212.95 154.5C212.55 154.1 212.133 153.683 211.7 153.25C211.567 153.083 211.417 152.933 211.25 152.8C210.683 152.233 210.117 151.683 209.55 151.15C209.483 151.117 209.433 151.083 209.4 151.05C208.867 150.55 208.3 150.067 207.7 149.6C207.533 149.433 207.35 149.283 207.15 149.15C206.717 148.783 206.25 148.417 205.75 148.05C205.583 147.883 205.4 147.733 205.2 147.6C204.567 147.133 203.917 146.667 203.25 146.2C203.217 146.2 203.183 146.183 203.15 146.15C202.517 145.717 201.867 145.3 201.2 144.9C200.967 144.767 200.75 144.633 200.55 144.5C200.017 144.2 199.483 143.9 198.95 143.6C198.75 143.467 198.533 143.333 198.3 143.2C197.6 142.8 196.867 142.417 196.1 142.05C169.35 128.95 137.85 138.35 125.75 163L121.8 171.05C133.9 146.4 165.4 137 192.15 150.1C192.917 150.467 193.65 150.85 194.35 151.25C194.583 151.383 194.8 151.517 195 151.65C195.533 151.917 196.067 152.217 196.6 152.55C196.8 152.683 197.017 152.8 197.25 152.9C197.917 153.333 198.567 153.767 199.2 154.2C199.233 154.2 199.267 154.217 199.3 154.25C199.967 154.717 200.617 155.183 201.25 155.65C201.45 155.783 201.633 155.933 201.8 156.1C202.3 156.433 202.767 156.8 203.2 157.2C203.4 157.333 203.6 157.483 203.8 157.65C204.367 158.117 204.917 158.6 205.45 159.1C205.483 159.133 205.533 159.167 205.6 159.2C206.167 159.733 206.733 160.283 207.3 160.85C207.467 160.983 207.617 161.133 207.75 161.3C208.183 161.733 208.6 162.15 209 162.55C209.133 162.717 209.283 162.9 209.45 163.1C209.917 163.6 210.383 164.133 210.85 164.7C210.917 164.733 210.967 164.783 211 164.85C211.5 165.45 211.983 166.05 212.45 166.65C212.583 166.817 212.717 167 212.85 167.2C213.183 167.633 213.517 168.083 213.85 168.55C213.983 168.75 214.117 168.95 214.25 169.15C214.617 169.717 214.983 170.283 215.35 170.85C215.383 170.917 215.433 170.983 215.5 171.05C215.9 171.717 216.283 172.367 216.65 173C216.75 173.2 216.85 173.4 216.95 173.6C217.217 174.1 217.483 174.6 217.75 175.1C217.85 175.3 217.95 175.5 218.05 175.7C218.35 176.3 218.633 176.883 218.9 177.45C218.933 177.55 218.967 177.65 219 177.75C219.3 178.45 219.6 179.133 219.9 179.8C219.967 180 220.033 180.2 220.1 180.4C220.3 180.933 220.483 181.45 220.65 181.95C220.75 182.183 220.833 182.417 220.9 182.65C221.1 183.25 221.283 183.85 221.45 184.45C221.483 184.55 221.517 184.667 221.55 184.8C221.75 185.5 221.933 186.2 222.1 186.9C222.133 187.1 222.167 187.3 222.2 187.5C222.333 188.067 222.45 188.617 222.55 189.15C222.583 189.383 222.617 189.617 222.65 189.85C222.75 190.45 222.85 191.05 222.95 191.65C222.95 191.783 222.967 191.917 223 192.05C223.1 192.75 223.167 193.467 223.2 194.2C223.233 194.4 223.25 194.6 223.25 194.8C223.283 195.367 223.317 195.917 223.35 196.45C223.35 196.683 223.35 196.917 223.35 197.15C223.35 197.75 223.35 198.367 223.35 199C223.35 199.133 223.35 199.267 223.35 199.4C223.35 199.633 223.333 199.85 223.3 200.05C223.267 200.75 223.233 201.433 223.2 202.1C223.167 202.4 223.133 202.717 223.1 203.05C223.033 203.617 222.967 204.183 222.9 204.75C222.833 205.117 222.767 205.467 222.7 205.8C222.633 206.333 222.533 206.883 222.4 207.45C222.333 207.783 222.267 208.133 222.2 208.5C222.067 209.033 221.917 209.583 221.75 210.15C221.683 210.517 221.6 210.867 221.5 211.2C221.4 211.467 221.317 211.733 221.25 212C221.083 212.467 220.917 212.95 220.75 213.45C220.65 213.717 220.55 213.983 220.45 214.25C220.283 214.75 220.1 215.25 219.9 215.75C219.8 215.983 219.7 216.217 219.6 216.45C219.3 217.15 218.967 217.867 218.6 218.6L222.55 210.55C222.917 209.817 223.25 209.1 223.55 208.4C223.65 208.167 223.75 207.933 223.85 207.7C224.05 207.2 224.233 206.7 224.4 206.2C224.5 205.933 224.6 205.667 224.7 205.4C224.867 204.9 225.033 204.417 225.2 203.95C225.267 203.683 225.35 203.417 225.45 203.15C225.483 203.017 225.517 202.9 225.55 202.8C225.6 202.55 225.65 202.35 225.7 202.1C225.867 201.533 226.017 200.983 226.15 200.45C226.217 200.083 226.283 199.733 226.35 199.4C226.45 198.867 226.55 198.317 226.65 197.75C226.717 197.417 226.783 197.067 226.85 196.7C226.917 196.133 226.983 195.567 227.05 195C227.083 194.667 227.117 194.35 227.15 194.05C227.183 193.383 227.217 192.717 227.25 192.05C227.283 191.85 227.3 191.65 227.3 191.45C227.3 191.417 227.3 191.383 227.3 191.35C227.3 191.217 227.3 191.083 227.3 190.95C227.3 190.35 227.3 189.733 227.3 189.1C227.3 188.867 227.3 188.65 227.3 188.45C227.267 187.883 227.233 187.317 227.2 186.75C227.2 186.55 227.183 186.367 227.15 186.2C227.117 185.467 227.05 184.733 226.95 184C226.917 183.867 226.9 183.733 226.9 183.6C226.8 183 226.7 182.4 226.6 181.8C226.567 181.567 226.533 181.333 226.5 181.1C226.4 180.567 226.283 180.033 226.15 179.5C226.117 179.3 226.083 179.1 226.05 178.9C225.883 178.167 225.7 177.45 225.5 176.75C225.467 176.617 225.433 176.5 225.4 176.4C225.233 175.8 225.05 175.2 224.85 174.6C224.75 174.367 224.667 174.15 224.6 173.95C224.433 173.417 224.25 172.883 224.05 172.35Z" fill="#407BFF"/>
<path opacity="0.4" d="M224.05 172.35C223.983 172.15 223.917 171.967 223.85 171.8C223.55 171.1 223.25 170.4 222.95 169.7C222.917 169.6 222.883 169.517 222.85 169.45C222.583 168.85 222.3 168.25 222 167.65C221.9 167.45 221.8 167.25 221.7 167.05C221.433 166.55 221.167 166.05 220.9 165.55C220.8 165.35 220.7 165.167 220.6 165C220.233 164.333 219.85 163.667 219.45 163C219.383 162.933 219.333 162.867 219.3 162.8C218.933 162.233 218.567 161.667 218.2 161.1C218.067 160.9 217.933 160.7 217.8 160.5C217.467 160.033 217.133 159.583 216.8 159.15C216.667 158.95 216.533 158.767 216.4 158.6C215.933 158 215.45 157.4 214.95 156.8C214.883 156.733 214.833 156.683 214.8 156.65C214.333 156.083 213.867 155.55 213.4 155.05C213.233 154.883 213.083 154.7 212.95 154.5C212.55 154.1 212.133 153.683 211.7 153.25C211.567 153.083 211.417 152.933 211.25 152.8C210.683 152.233 210.117 151.683 209.55 151.15C209.483 151.117 209.433 151.083 209.4 151.05C208.867 150.55 208.3 150.067 207.7 149.6C207.533 149.433 207.35 149.283 207.15 149.15C206.717 148.783 206.25 148.417 205.75 148.05C205.583 147.883 205.4 147.733 205.2 147.6C204.567 147.133 203.917 146.667 203.25 146.2C203.217 146.2 203.183 146.183 203.15 146.15C202.517 145.717 201.867 145.3 201.2 144.9C200.967 144.767 200.75 144.633 200.55 144.5C200.017 144.2 199.483 143.9 198.95 143.6C198.75 143.467 198.533 143.333 198.3 143.2C197.6 142.8 196.867 142.417 196.1 142.05C169.35 128.95 137.85 138.35 125.75 163L121.8 171.05C133.9 146.4 165.4 137 192.15 150.1C192.917 150.467 193.65 150.85 194.35 151.25C194.583 151.383 194.8 151.517 195 151.65C195.533 151.917 196.067 152.217 196.6 152.55C196.8 152.683 197.017 152.8 197.25 152.9C197.917 153.333 198.567 153.767 199.2 154.2C199.233 154.2 199.267 154.217 199.3 154.25C199.967 154.717 200.617 155.183 201.25 155.65C201.45 155.783 201.633 155.933 201.8 156.1C202.3 156.433 202.767 156.8 203.2 157.2C203.4 157.333 203.6 157.483 203.8 157.65C204.367 158.117 204.917 158.6 205.45 159.1C205.483 159.133 205.533 159.167 205.6 159.2C206.167 159.733 206.733 160.283 207.3 160.85C207.467 160.983 207.617 161.133 207.75 161.3C208.183 161.733 208.6 162.15 209 162.55C209.133 162.717 209.283 162.9 209.45 163.1C209.917 163.6 210.383 164.133 210.85 164.7C210.917 164.733 210.967 164.783 211 164.85C211.5 165.45 211.983 166.05 212.45 166.65C212.583 166.817 212.717 167 212.85 167.2C213.183 167.633 213.517 168.083 213.85 168.55C213.983 168.75 214.117 168.95 214.25 169.15C214.617 169.717 214.983 170.283 215.35 170.85C215.383 170.917 215.433 170.983 215.5 171.05C215.9 171.717 216.283 172.367 216.65 173C216.75 173.2 216.85 173.4 216.95 173.6C217.217 174.1 217.483 174.6 217.75 175.1C217.85 175.3 217.95 175.5 218.05 175.7C218.35 176.3 218.633 176.883 218.9 177.45C218.933 177.55 218.967 177.65 219 177.75C219.3 178.45 219.6 179.133 219.9 179.8C219.967 180 220.033 180.2 220.1 180.4C220.3 180.933 220.483 181.45 220.65 181.95C220.75 182.183 220.833 182.417 220.9 182.65C221.1 183.25 221.283 183.85 221.45 184.45C221.483 184.55 221.517 184.667 221.55 184.8C221.75 185.5 221.933 186.2 222.1 186.9C222.133 187.1 222.167 187.3 222.2 187.5C222.333 188.067 222.45 188.617 222.55 189.15C222.583 189.383 222.617 189.617 222.65 189.85C222.75 190.45 222.85 191.05 222.95 191.65C222.95 191.783 222.967 191.917 223 192.05C223.1 192.75 223.167 193.467 223.2 194.2C223.233 194.4 223.25 194.6 223.25 194.8C223.283 195.367 223.317 195.917 223.35 196.45C223.35 196.683 223.35 196.917 223.35 197.15C223.35 197.75 223.35 198.367 223.35 199C223.35 199.133 223.35 199.267 223.35 199.4C223.35 199.633 223.333 199.85 223.3 200.05C223.267 200.75 223.233 201.433 223.2 202.1C223.167 202.4 223.133 202.717 223.1 203.05C223.033 203.617 222.967 204.183 222.9 204.75C222.833 205.117 222.767 205.467 222.7 205.8C222.633 206.333 222.533 206.883 222.4 207.45C222.333 207.783 222.267 208.133 222.2 208.5C222.067 209.033 221.917 209.583 221.75 210.15C221.683 210.517 221.6 210.867 221.5 211.2C221.4 211.467 221.317 211.733 221.25 212C221.083 212.467 220.917 212.95 220.75 213.45C220.65 213.717 220.55 213.983 220.45 214.25C220.283 214.75 220.1 215.25 219.9 215.75C219.8 215.983 219.7 216.217 219.6 216.45C219.3 217.15 218.967 217.867 218.6 218.6L222.55 210.55C222.917 209.817 223.25 209.1 223.55 208.4C223.65 208.167 223.75 207.933 223.85 207.7C224.05 207.2 224.233 206.7 224.4 206.2C224.5 205.933 224.6 205.667 224.7 205.4C224.867 204.9 225.033 204.417 225.2 203.95C225.267 203.683 225.35 203.417 225.45 203.15C225.483 203.017 225.517 202.9 225.55 202.8C225.6 202.55 225.65 202.35 225.7 202.1C225.867 201.533 226.017 200.983 226.15 200.45C226.217 200.083 226.283 199.733 226.35 199.4C226.45 198.867 226.55 198.317 226.65 197.75C226.717 197.417 226.783 197.067 226.85 196.7C226.917 196.133 226.983 195.567 227.05 195C227.083 194.667 227.117 194.35 227.15 194.05C227.183 193.383 227.217 192.717 227.25 192.05C227.283 191.85 227.3 191.65 227.3 191.45C227.3 191.417 227.3 191.383 227.3 191.35C227.3 191.217 227.3 191.083 227.3 190.95C227.3 190.35 227.3 189.733 227.3 189.1C227.3 188.867 227.3 188.65 227.3 188.45C227.267 187.883 227.233 187.317 227.2 186.75C227.2 186.55 227.183 186.367 227.15 186.2C227.117 185.467 227.05 184.733 226.95 184C226.917 183.867 226.9 183.733 226.9 183.6C226.8 183 226.7 182.4 226.6 181.8C226.567 181.567 226.533 181.333 226.5 181.1C226.4 180.567 226.283 180.033 226.15 179.5C226.117 179.3 226.083 179.1 226.05 178.9C225.883 178.167 225.7 177.45 225.5 176.75C225.467 176.617 225.433 176.5 225.4 176.4C225.233 175.8 225.05 175.2 224.85 174.6C224.75 174.367 224.667 174.15 224.6 173.95C224.433 173.417 224.25 172.883 224.05 172.35Z" fill="black"/>
<path d="M145.7 244.75C144.733 244.25 143.783 243.75 142.85 243.25C142.55 243.083 142.267 242.933 142 242.8C141.3 242.4 140.617 242 139.95 241.6C139.683 241.433 139.417 241.267 139.15 241.1C138.283 240.567 137.417 240.017 136.55 239.45C136.517 239.417 136.483 239.4 136.45 239.4C135.583 238.8 134.733 238.183 133.9 237.55C133.667 237.35 133.433 237.167 133.2 237C132.567 236.533 131.95 236.05 131.35 235.55C131.117 235.383 130.883 235.2 130.65 235C129.917 234.367 129.183 233.733 128.45 233.1C128.417 233.067 128.367 233.017 128.3 232.95C127.533 232.25 126.8 231.55 126.1 230.85C125.867 230.65 125.65 230.433 125.45 230.2C124.917 229.667 124.4 229.133 123.9 228.6C123.7 228.367 123.5 228.133 123.3 227.9C122.667 227.233 122.05 226.55 121.45 225.85C121.417 225.783 121.367 225.717 121.3 225.65C120.667 224.883 120.033 224.1 119.4 223.3C119.233 223.067 119.067 222.833 118.9 222.6C118.467 222 118.033 221.4 117.6 220.8C117.433 220.567 117.267 220.317 117.1 220.05C116.6 219.35 116.117 218.617 115.65 217.85C115.583 217.75 115.517 217.65 115.45 217.55C114.95 216.717 114.45 215.883 113.95 215.05C113.817 214.783 113.683 214.533 113.55 214.3C113.217 213.667 112.883 213.033 112.55 212.4C112.417 212.133 112.283 211.85 112.15 211.55C111.75 210.817 111.383 210.067 111.05 209.3C110.983 209.167 110.933 209.033 110.9 208.9C110.5 208.033 110.117 207.15 109.75 206.25C109.683 205.983 109.6 205.717 109.5 205.45C109.233 204.783 108.983 204.117 108.75 203.45C108.65 203.15 108.55 202.867 108.45 202.6C108.217 201.8 107.983 201.017 107.75 200.25C107.717 200.083 107.667 199.933 107.6 199.8C107.367 198.867 107.133 197.933 106.9 197C106.867 196.767 106.817 196.517 106.75 196.25C106.583 195.55 106.433 194.85 106.3 194.15C106.267 193.85 106.217 193.55 106.15 193.25C106.017 192.483 105.9 191.7 105.8 190.9C105.767 190.733 105.75 190.567 105.75 190.4C105.617 189.467 105.517 188.517 105.45 187.55C105.417 187.283 105.4 187.033 105.4 186.8C105.333 186.067 105.3 185.35 105.3 184.65C105.267 184.35 105.25 184.05 105.25 183.75C105.25 182.95 105.25 182.167 105.25 181.4C105.25 181.2 105.25 181.017 105.25 180.85C105.283 180.55 105.3 180.267 105.3 180C105.333 179.1 105.4 178.217 105.5 177.35C105.533 176.95 105.567 176.533 105.6 176.1C105.7 175.367 105.8 174.633 105.9 173.9C105.967 173.433 106.033 172.983 106.1 172.55C106.233 171.85 106.367 171.133 106.5 170.4C106.6 169.967 106.7 169.517 106.8 169.05C106.967 168.35 107.133 167.633 107.3 166.9C107.433 166.433 107.567 165.983 107.7 165.55C107.8 165.217 107.9 164.883 108 164.55C108.2 163.917 108.417 163.283 108.65 162.65C108.75 162.283 108.867 161.933 109 161.6C109.233 160.967 109.483 160.317 109.75 159.65C109.883 159.35 110.017 159.05 110.15 158.75C110.55 157.817 110.967 156.9 111.4 156L107.45 164C107.017 164.933 106.6 165.867 106.2 166.8C106.067 167.1 105.933 167.4 105.8 167.7C105.533 168.333 105.283 168.983 105.05 169.65C104.917 169.983 104.8 170.333 104.7 170.7C104.467 171.333 104.25 171.967 104.05 172.6C103.95 172.933 103.85 173.267 103.75 173.6C103.683 173.767 103.633 173.933 103.6 174.1C103.5 174.35 103.45 174.65 103.4 174.95C103.2 175.683 103.017 176.4 102.85 177.1C102.75 177.567 102.65 178.017 102.55 178.45C102.417 179.183 102.283 179.9 102.15 180.6C102.083 181.033 102.017 181.483 101.95 181.95C101.85 182.683 101.75 183.417 101.65 184.15C101.617 184.583 101.583 185 101.55 185.4C101.45 186.267 101.383 187.133 101.35 188C101.35 188.25 101.35 188.5 101.35 188.75C101.317 188.817 101.3 188.867 101.3 188.9C101.3 189.067 101.3 189.25 101.3 189.45C101.3 190.217 101.3 191 101.3 191.8C101.3 192.1 101.317 192.4 101.35 192.7C101.35 193.4 101.383 194.117 101.45 194.85C101.45 195.083 101.467 195.333 101.5 195.6C101.567 196.567 101.667 197.517 101.8 198.45C101.8 198.617 101.817 198.783 101.85 198.95C101.95 199.717 102.067 200.5 102.2 201.3C102.267 201.6 102.317 201.9 102.35 202.2C102.483 202.9 102.633 203.6 102.8 204.3C102.867 204.567 102.917 204.817 102.95 205.05C103.183 205.983 103.417 206.917 103.65 207.85C103.717 207.983 103.767 208.133 103.8 208.3C104.033 209.067 104.267 209.85 104.5 210.65C104.6 210.917 104.7 211.2 104.8 211.5C105.033 212.167 105.283 212.833 105.55 213.5C105.65 213.767 105.733 214.033 105.8 214.3C106.167 215.2 106.55 216.083 106.95 216.95C106.983 217.083 107.033 217.2 107.1 217.3C107.433 218.1 107.8 218.867 108.2 219.6C108.333 219.867 108.467 220.15 108.6 220.45C108.933 221.083 109.267 221.717 109.6 222.35C109.733 222.583 109.867 222.833 110 223.1C110.5 223.933 111 224.767 111.5 225.6C111.567 225.7 111.633 225.8 111.7 225.9C112.167 226.667 112.65 227.4 113.15 228.1C113.317 228.367 113.483 228.617 113.65 228.85C114.083 229.45 114.517 230.05 114.95 230.65C115.117 230.883 115.283 231.117 115.45 231.35C116.083 232.15 116.717 232.933 117.35 233.7C117.417 233.767 117.467 233.833 117.5 233.9C118.1 234.6 118.717 235.283 119.35 235.95C119.55 236.183 119.75 236.417 119.95 236.65C120.45 237.183 120.967 237.717 121.5 238.25C121.733 238.483 121.95 238.7 122.15 238.9C122.883 239.6 123.617 240.3 124.35 241C124.417 241.033 124.467 241.083 124.5 241.15C125.233 241.783 125.967 242.417 126.7 243.05C126.933 243.217 127.183 243.4 127.45 243.6C128.017 244.1 128.617 244.583 129.25 245.05C129.483 245.217 129.717 245.4 129.95 245.6C130.783 246.233 131.633 246.833 132.5 247.4C132.533 247.433 132.567 247.467 132.6 247.5C133.467 248.067 134.333 248.617 135.2 249.15C135.467 249.317 135.733 249.483 136 249.65C136.667 250.05 137.35 250.433 138.05 250.8C138.317 250.967 138.6 251.133 138.9 251.3C139.833 251.8 140.783 252.3 141.75 252.8C176.4 269.8 217.25 257.65 232.95 225.6L236.9 217.55C221.2 249.6 180.35 261.75 145.7 244.75Z" fill="#407BFF"/>
<path opacity="0.4" d="M145.7 244.75C144.733 244.25 143.783 243.75 142.85 243.25C142.55 243.083 142.267 242.933 142 242.8C141.3 242.4 140.617 242 139.95 241.6C139.683 241.433 139.417 241.267 139.15 241.1C138.283 240.567 137.417 240.017 136.55 239.45C136.517 239.417 136.483 239.4 136.45 239.4C135.583 238.8 134.733 238.183 133.9 237.55C133.667 237.35 133.433 237.167 133.2 237C132.567 236.533 131.95 236.05 131.35 235.55C131.117 235.383 130.883 235.2 130.65 235C129.917 234.367 129.183 233.733 128.45 233.1C128.417 233.067 128.367 233.017 128.3 232.95C127.533 232.25 126.8 231.55 126.1 230.85C125.867 230.65 125.65 230.433 125.45 230.2C124.917 229.667 124.4 229.133 123.9 228.6C123.7 228.367 123.5 228.133 123.3 227.9C122.667 227.233 122.05 226.55 121.45 225.85C121.417 225.783 121.367 225.717 121.3 225.65C120.667 224.883 120.033 224.1 119.4 223.3C119.233 223.067 119.067 222.833 118.9 222.6C118.467 222 118.033 221.4 117.6 220.8C117.433 220.567 117.267 220.317 117.1 220.05C116.6 219.35 116.117 218.617 115.65 217.85C115.583 217.75 115.517 217.65 115.45 217.55C114.95 216.717 114.45 215.883 113.95 215.05C113.817 214.783 113.683 214.533 113.55 214.3C113.217 213.667 112.883 213.033 112.55 212.4C112.417 212.133 112.283 211.85 112.15 211.55C111.75 210.817 111.383 210.067 111.05 209.3C110.983 209.167 110.933 209.033 110.9 208.9C110.5 208.033 110.117 207.15 109.75 206.25C109.683 205.983 109.6 205.717 109.5 205.45C109.233 204.783 108.983 204.117 108.75 203.45C108.65 203.15 108.55 202.867 108.45 202.6C108.217 201.8 107.983 201.017 107.75 200.25C107.717 200.083 107.667 199.933 107.6 199.8C107.367 198.867 107.133 197.933 106.9 197C106.867 196.767 106.817 196.517 106.75 196.25C106.583 195.55 106.433 194.85 106.3 194.15C106.267 193.85 106.217 193.55 106.15 193.25C106.017 192.483 105.9 191.7 105.8 190.9C105.767 190.733 105.75 190.567 105.75 190.4C105.617 189.467 105.517 188.517 105.45 187.55C105.417 187.283 105.4 187.033 105.4 186.8C105.333 186.067 105.3 185.35 105.3 184.65C105.267 184.35 105.25 184.05 105.25 183.75C105.25 182.95 105.25 182.167 105.25 181.4C105.25 181.2 105.25 181.017 105.25 180.85C105.283 180.55 105.3 180.267 105.3 180C105.333 179.1 105.4 178.217 105.5 177.35C105.533 176.95 105.567 176.533 105.6 176.1C105.7 175.367 105.8 174.633 105.9 173.9C105.967 173.433 106.033 172.983 106.1 172.55C106.233 171.85 106.367 171.133 106.5 170.4C106.6 169.967 106.7 169.517 106.8 169.05C106.967 168.35 107.133 167.633 107.3 166.9C107.433 166.433 107.567 165.983 107.7 165.55C107.8 165.217 107.9 164.883 108 164.55C108.2 163.917 108.417 163.283 108.65 162.65C108.75 162.283 108.867 161.933 109 161.6C109.233 160.967 109.483 160.317 109.75 159.65C109.883 159.35 110.017 159.05 110.15 158.75C110.55 157.817 110.967 156.9 111.4 156L107.45 164C107.017 164.933 106.6 165.867 106.2 166.8C106.067 167.1 105.933 167.4 105.8 167.7C105.533 168.333 105.283 168.983 105.05 169.65C104.917 169.983 104.8 170.333 104.7 170.7C104.467 171.333 104.25 171.967 104.05 172.6C103.95 172.933 103.85 173.267 103.75 173.6C103.683 173.767 103.633 173.933 103.6 174.1C103.5 174.35 103.45 174.65 103.4 174.95C103.2 175.683 103.017 176.4 102.85 177.1C102.75 177.567 102.65 178.017 102.55 178.45C102.417 179.183 102.283 179.9 102.15 180.6C102.083 181.033 102.017 181.483 101.95 181.95C101.85 182.683 101.75 183.417 101.65 184.15C101.617 184.583 101.583 185 101.55 185.4C101.45 186.267 101.383 187.133 101.35 188C101.35 188.25 101.35 188.5 101.35 188.75C101.317 188.817 101.3 188.867 101.3 188.9C101.3 189.067 101.3 189.25 101.3 189.45C101.3 190.217 101.3 191 101.3 191.8C101.3 192.1 101.317 192.4 101.35 192.7C101.35 193.4 101.383 194.117 101.45 194.85C101.45 195.083 101.467 195.333 101.5 195.6C101.567 196.567 101.667 197.517 101.8 198.45C101.8 198.617 101.817 198.783 101.85 198.95C101.95 199.717 102.067 200.5 102.2 201.3C102.267 201.6 102.317 201.9 102.35 202.2C102.483 202.9 102.633 203.6 102.8 204.3C102.867 204.567 102.917 204.817 102.95 205.05C103.183 205.983 103.417 206.917 103.65 207.85C103.717 207.983 103.767 208.133 103.8 208.3C104.033 209.067 104.267 209.85 104.5 210.65C104.6 210.917 104.7 211.2 104.8 211.5C105.033 212.167 105.283 212.833 105.55 213.5C105.65 213.767 105.733 214.033 105.8 214.3C106.167 215.2 106.55 216.083 106.95 216.95C106.983 217.083 107.033 217.2 107.1 217.3C107.433 218.1 107.8 218.867 108.2 219.6C108.333 219.867 108.467 220.15 108.6 220.45C108.933 221.083 109.267 221.717 109.6 222.35C109.733 222.583 109.867 222.833 110 223.1C110.5 223.933 111 224.767 111.5 225.6C111.567 225.7 111.633 225.8 111.7 225.9C112.167 226.667 112.65 227.4 113.15 228.1C113.317 228.367 113.483 228.617 113.65 228.85C114.083 229.45 114.517 230.05 114.95 230.65C115.117 230.883 115.283 231.117 115.45 231.35C116.083 232.15 116.717 232.933 117.35 233.7C117.417 233.767 117.467 233.833 117.5 233.9C118.1 234.6 118.717 235.283 119.35 235.95C119.55 236.183 119.75 236.417 119.95 236.65C120.45 237.183 120.967 237.717 121.5 238.25C121.733 238.483 121.95 238.7 122.15 238.9C122.883 239.6 123.617 240.3 124.35 241C124.417 241.033 124.467 241.083 124.5 241.15C125.233 241.783 125.967 242.417 126.7 243.05C126.933 243.217 127.183 243.4 127.45 243.6C128.017 244.1 128.617 244.583 129.25 245.05C129.483 245.217 129.717 245.4 129.95 245.6C130.783 246.233 131.633 246.833 132.5 247.4C132.533 247.433 132.567 247.467 132.6 247.5C133.467 248.067 134.333 248.617 135.2 249.15C135.467 249.317 135.733 249.483 136 249.65C136.667 250.05 137.35 250.433 138.05 250.8C138.317 250.967 138.6 251.133 138.9 251.3C139.833 251.8 140.783 252.3 141.75 252.8C176.4 269.8 217.25 257.65 232.95 225.6L236.9 217.55C221.2 249.6 180.35 261.75 145.7 244.75Z" fill="black"/>
<path d="M131.25 129.95L130.7 129.1C133.15 127.5 135.75 126 138.45 124.7L138.85 125.6C136.25 126.9 133.65 128.35 131.25 129.95ZM146.35 122.55L146.05 121.6C157.65 117.6 170.45 116.6 183.05 118.85L182.9 119.8C170.45 117.65 157.85 118.6 146.35 122.55Z" fill="#407BFF"/>
<path fill-rule="evenodd" clip-rule="evenodd" d="M111.4 156C127.1 123.95 167.95 111.8 202.6 128.85C237.25 145.85 252.6 185.55 236.9 217.55C221.2 249.6 180.35 261.75 145.7 244.75C111.05 227.75 95.7 188 111.4 156ZM222.55 210.55C234.7 185.85 222.85 155.2 196.1 142.05C169.35 128.95 137.85 138.35 125.75 163C113.6 187.7 125.5 218.35 152.2 231.5C178.95 244.6 210.45 235.25 222.55 210.55Z" fill="#FF9F1C"/>
<path d="M295.95 240.25L291 250.4C290.05 252.35 287.65 253.1 285.75 252.1L221.45 218.25L227.95 204.9L294.1 235.05C296.05 235.95 296.9 238.3 295.95 240.25Z" fill="#FF9F1C"/>
<path opacity="0.1" d="M223.5 211C235.85 185.85 223.75 154.6 196.5 141.2C169.3 127.85 137.15 137.4 124.8 162.55C112.45 187.75 124.55 218.95 151.8 232.35C179.05 245.7 211.15 236.15 223.5 211Z" fill="#FF9F1C"/>
<path opacity="0.1" d="M196.5 141.2C189.55 137.8 182.25 135.9 175.05 135.35L120.55 176.1C119.45 183.1 119.95 190.25 121.85 197.1L196.5 141.2Z" fill="white"/>
<path d="M277.15 221.55C273.1 220.1 270.3 222.8 267.5 224.2C267 224.45 267.15 225.85 268.1 226C269.8 226.25 270.6 226 271.5 225.4C272.5 226.35 276.1 227.9 278.7 225.1C278.75 223.15 277.15 221.55 277.15 221.55Z" fill="#B55B52"/>
<path fill-rule="evenodd" clip-rule="evenodd" d="M330.8 126.8H328.5C328.4 126.8 328.317 126.767 328.25 126.7C328.217 126.633 328.2 126.55 328.2 126.45L329.35 121.1C329.4 121 329.5 120.9 329.65 120.9C329.75 120.9 329.9 121 329.9 121.1L331.05 126.45C331.083 126.55 331.067 126.633 331 126.7C330.967 126.767 330.9 126.8 330.8 126.8ZM328.8 126.25H330.45L329.65 122.45L328.8 126.25Z" fill="white"/>
<path d="M263.75 97.1L258.05 106.1L257.15 105.55C255.617 104.583 254.483 103.617 253.75 102.65C253.017 101.717 252.467 100.65 252.1 99.45C251.767 98.2833 251.35 95.8667 250.85 92.2C250.617 90.2667 250.067 89.0333 249.2 88.5C248.333 87.9333 247.5 87.75 246.7 87.95C245.9 88.1833 245.167 88.8167 244.5 89.85C243.8 90.9833 243.583 92.15 243.85 93.35C244.15 94.55 245.15 95.8333 246.85 97.2L239.95 105.65C236.75 103.217 234.8 100.283 234.1 96.85C233.367 93.4167 234.4 89.4833 237.2 85.05C239.367 81.6167 241.833 79.2833 244.6 78.05C248.367 76.4167 251.867 76.6167 255.1 78.65C256.433 79.4833 257.5 80.6667 258.3 82.2C259.067 83.7333 259.633 86.2167 260 89.65C260.267 92.05 260.65 93.7 261.15 94.6C261.65 95.5 262.517 96.3333 263.75 97.1ZM260.25 107.9L266.35 98.3L274.85 103.65L268.75 113.3L260.25 107.9Z" fill="#265399"/>
<path d="M344 73.6L336.5 69.5L336.95 68.75C337.617 67.4833 338.317 66.5333 339.05 65.9C339.783 65.2667 340.617 64.7667 341.55 64.4C342.483 64.0667 344.4 63.6167 347.3 63.05C348.833 62.75 349.783 62.2333 350.15 61.5C350.55 60.8 350.65 60.1333 350.45 59.5C350.25 58.8667 349.717 58.3167 348.85 57.85C347.917 57.3167 346.967 57.2 346 57.5C345.067 57.7667 344.1 58.6333 343.1 60.1L335.95 55C337.75 52.3 340 50.5833 342.7 49.85C345.433 49.1167 348.633 49.75 352.3 51.75C355.167 53.3167 357.15 55.1667 358.25 57.3C359.783 60.2333 359.817 63.05 358.35 65.75C357.717 66.85 356.817 67.75 355.65 68.45C354.45 69.15 352.5 69.7333 349.8 70.2C347.9 70.5333 346.6 70.9333 345.9 71.4C345.2 71.8333 344.567 72.5667 344 73.6ZM335.2 71.35L343.2 75.75L339.35 82.8L331.35 78.45L335.2 71.35Z" fill="#265399"/>
<path d="M356.15 94.65L354.15 88.25L354.8 88.05C355.9 87.7167 356.817 87.5667 357.55 87.6C358.317 87.6333 359.05 87.8167 359.75 88.15C360.45 88.45 361.783 89.2333 363.75 90.5C364.75 91.1667 365.567 91.4 366.2 91.2C366.8 91.0333 367.217 90.7167 367.45 90.25C367.683 89.7833 367.683 89.1667 367.45 88.4C367.183 87.6333 366.717 87.0667 366.05 86.7C365.35 86.3333 364.333 86.2833 363 86.55L361.75 79.8C364.217 79.2667 366.417 79.5333 368.35 80.6C370.283 81.6667 371.733 83.7667 372.7 86.9C373.467 89.3333 373.567 91.45 373 93.25C372.267 95.7167 370.75 97.3167 368.45 98.05C367.517 98.35 366.533 98.3667 365.5 98.1C364.433 97.8667 363.017 97.1333 361.25 95.9C359.983 95.0333 359.033 94.55 358.4 94.45C357.767 94.3167 357.017 94.3833 356.15 94.65ZM352.4 88.6L354.55 95.4L348.5 97.3L346.4 90.45L352.4 88.6Z" fill="#265399"/>
</svg>
