<svg width="33" height="33" viewBox="0 0 33 33" fill="none" xmlns="http://www.w3.org/2000/svg">
<path d="M17.5803 26.1991C17.5803 26.4958 17.4923 26.7858 17.3275 27.0325C17.1627 27.2792 16.9284 27.4714 16.6543 27.5849C16.3802 27.6985 16.0786 27.7282 15.7877 27.6703C15.4967 27.6124 15.2294 27.4696 15.0196 27.2598C14.8099 27.05 14.667 26.7827 14.6091 26.4918C14.5513 26.2008 14.581 25.8992 14.6945 25.6251C14.808 25.351 15.0003 25.1167 15.247 24.9519C15.4936 24.7871 15.7836 24.6991 16.0803 24.6991C16.4781 24.6991 16.8597 24.8572 17.141 25.1385C17.4223 25.4198 17.5803 25.8013 17.5803 26.1991ZM29.7153 11.5741C25.8709 8.42086 21.0525 6.69751 16.0803 6.69751C11.1081 6.69751 6.28968 8.42086 2.44531 11.5741C2.34378 11.6575 2.25967 11.7601 2.19778 11.876C2.13589 11.9919 2.09744 12.1188 2.08461 12.2496C2.07179 12.3803 2.08484 12.5123 2.12303 12.6381C2.16122 12.7638 2.22379 12.8807 2.30718 12.9823C2.39057 13.0838 2.49314 13.1679 2.60904 13.2298C2.72493 13.2917 2.85188 13.3301 2.98264 13.3429C3.24671 13.3689 3.51026 13.2888 3.71531 13.1204C7.20182 10.2613 11.5714 8.69873 16.0803 8.69873C20.5892 8.69873 24.9588 10.2613 28.4453 13.1204C28.6504 13.2888 28.9139 13.3689 29.178 13.3429C29.4421 13.317 29.685 13.1873 29.8534 12.9823C30.0218 12.7772 30.1019 12.5137 30.076 12.2496C30.0501 11.9855 29.9204 11.7425 29.7153 11.5741ZM25.7053 16.0454C22.967 13.8774 19.5767 12.6978 16.0841 12.6978C12.5914 12.6978 9.20114 13.8774 6.46281 16.0454C6.25494 16.2101 6.12105 16.4507 6.09057 16.7142C6.0601 16.9777 6.13554 17.2425 6.30031 17.4504C6.46507 17.6582 6.70566 17.7921 6.96915 17.8226C7.23264 17.8531 7.49744 17.7776 7.70531 17.6129C10.0901 15.7252 13.0425 14.6981 16.0841 14.6981C19.1256 14.6981 22.078 15.7252 24.4628 17.6129C24.5657 17.6945 24.6837 17.755 24.81 17.791C24.9363 17.827 25.0685 17.8377 25.199 17.8227C25.3294 17.8076 25.4557 17.7669 25.5704 17.703C25.6852 17.6392 25.7862 17.5533 25.8678 17.4504C25.9494 17.3475 26.0099 17.2295 26.0459 17.1032C26.0819 16.9769 26.0927 16.8447 26.0776 16.7142C26.0625 16.5837 26.0219 16.4575 25.958 16.3428C25.8941 16.228 25.8082 16.127 25.7053 16.0454ZM21.6728 20.5154C20.0485 19.3349 18.0921 18.699 16.0841 18.699C14.0761 18.699 12.1196 19.3349 10.4953 20.5154C10.2808 20.6715 10.1371 20.9065 10.0959 21.1686C10.0546 21.4306 10.1192 21.6984 10.2753 21.9129C10.4315 22.1274 10.6664 22.2711 10.9285 22.3123C11.1906 22.3536 11.4583 22.289 11.6728 22.1329C12.9547 21.2006 14.499 20.6984 16.0841 20.6984C17.6691 20.6984 19.2134 21.2006 20.4953 22.1329C20.6015 22.2102 20.7219 22.2658 20.8496 22.2966C20.9773 22.3274 21.1099 22.3327 21.2396 22.3123C21.3694 22.2919 21.4939 22.2461 21.6059 22.1776C21.718 22.109 21.8155 22.0191 21.8928 21.9129C21.9701 21.8067 22.0258 21.6863 22.0565 21.5586C22.0873 21.4309 22.0927 21.2983 22.0722 21.1686C22.0518 21.0388 22.006 20.9143 21.9375 20.8022C21.869 20.6902 21.779 20.5927 21.6728 20.5154Z" fill="black"/>
</svg>
